<?xml version="1.0" encoding="UTF-8"?>
<svg xmlns="http://www.w3.org/2000/svg" xmlns:xlink="http://www.w3.org/1999/xlink" version="1.2" >
<font id="AvenirNext-UltraLight">
<font-face  font-family="Avenir Next" units-per-em="1000" ascent="1000" descent="-366" font-style="normal" font-weight="275" font-stretch="normal" cap-height="708" x-height="460" underline-position="-75" underline-thickness="50" />
<missing-glyph  horiz-adv-x="512" d="M222 117 L222 184 L278 184 L278 117 L222 117 Z M225 234 L223 251 Q223 307 236 332 Q243 345 254 359.5 Q265 374 282 391 Q298 406 308 417.5 Q318 429 323 438.5 Q328 448 330 456.5 Q332 465 332 474 Q332 510 309.5 534.5 Q287 559 256 559 Q225 559 202.5 537 Q180 515 174 464 L124 472 Q131 544 168 576.5 Q205 609 259 609 Q313 609 348 573.5 Q383 538 383 478 Q383 446 370.5 419.5 Q358 393 320 358 Q283 325 277 306 Q271 286 271 234 L225 234 Z M462 50 L462 667 L50 667 L50 50 L462 50 Z M512 718 L512 0 L0 0 L0 718 L512 718 Z " />
<glyph glyph-name=".null" horiz-adv-x="500" d="" />
<glyph glyph-name="nonmarkingreturn" unicode="&#xd;" d="" />
<glyph glyph-name="space" unicode="&#x20;" horiz-adv-x="250" d="" />
<glyph glyph-name="exclam" unicode="&#x21;" horiz-adv-x="276" d="M138 45 Q146 45 153.5 38 Q161 31 161 19 Q161 8 154 1 Q147 -6 138 -6 Q129 -6 122 1 Q115 8 115 19 Q115 31 122 38 Q129 45 138 45 Z M149 195 L127 195 L127 708 L149 708 L149 195 Z " />
<glyph glyph-name="quotedbl" unicode="&#x22;" horiz-adv-x="404" d="M119 480 L119 708 L141 708 L141 480 L119 480 Z M263 480 L263 708 L285 708 L285 480 L263 480 Z " />
<glyph glyph-name="numbersign" unicode="&#x23;" horiz-adv-x="550" d="M378 453 L352 257 L464 257 L464 240 L350 240 L320 0 L301 0 L331 240 L159 240 L129 0 L110 0 L140 240 L29 240 L29 257 L142 257 L169 453 L58 453 L58 470 L171 470 L201 708 L220 708 L189 470 L361 470 L392 708 L411 708 L380 470 L492 470 L492 453 L378 453 Z M188 453 L162 257 L333 257 L359 453 L188 453 Z " />
<glyph glyph-name="dollar" unicode="&#x24;" horiz-adv-x="560" d="M277 -84 L255 -84 L255 -13 Q192 -11 141.5 12 Q91 35 55 76 L72 91 Q108 51 156.5 29.5 Q205 8 255 6 L255 349 Q214 362 179.5 377.5 Q145 393 120 415 Q95 437 81.5 467 Q68 497 68 540 Q68 579 82 610.5 Q96 642 121 665 Q146 688 180 702 Q214 716 255 720 L255 792 L277 792 L277 721 Q335 721 385 702.5 Q435 684 468 643 L451 628 Q423 663 378 682.5 Q333 702 277 702 L277 364 Q320 350 357 335 Q394 320 421.5 298.5 Q449 277 465 246.5 Q481 216 481 173 Q481 130 465.5 96 Q450 62 422.5 38.5 Q395 15 357.5 2 Q320 -11 277 -13 L277 -84 Z M277 6 Q314 7 347 19 Q380 31 405 52 Q430 73 444.5 104 Q459 135 459 174 Q459 213 443.5 240 Q428 267 402.5 286.5 Q377 306 344 319 Q311 332 277 343 L277 6 Z M255 700 Q223 697 193.5 685 Q164 673 141 653 Q118 633 104 604.5 Q90 576 90 539 Q90 500 104 473 Q118 446 141 426.5 Q164 407 193.5 394 Q223 381 255 371 L255 700 Z " />
<glyph glyph-name="percent" unicode="&#x25;" horiz-adv-x="820" d="M366 556 Q366 522 353.5 493 Q341 464 319.5 443 Q298 422 269.5 410 Q241 398 209 398 Q177 398 148.5 410 Q120 422 99 443 Q78 464 65.5 493 Q53 522 53 556 Q53 589 65.5 618 Q78 647 99 668.5 Q120 690 148.5 702.5 Q177 715 209 715 Q241 715 269.5 702.5 Q298 690 319.5 668.5 Q341 647 353.5 618 Q366 589 366 556 Z M344 556 Q344 585 333.5 610.5 Q323 636 304.5 655 Q286 674 261.5 685 Q237 696 209 696 Q181 696 156.5 685 Q132 674 114 655 Q96 636 85.5 610.5 Q75 585 75 556 Q75 526 85.5 501 Q96 476 114 457 Q132 438 156.5 427.5 Q181 417 209 417 Q237 417 261.5 427.5 Q286 438 304.5 457 Q323 476 333.5 501 Q344 526 344 556 Z M767 150 Q767 116 754.5 87 Q742 58 720.5 37 Q699 16 670.5 4 Q642 -8 610 -8 Q578 -8 549.5 4 Q521 16 500 37 Q479 58 466.5 87 Q454 116 454 150 Q454 183 466.5 212 Q479 241 500 262.5 Q521 284 549.5 296.5 Q578 309 610 309 Q642 309 670.5 296.5 Q699 284 720.5 262.5 Q742 241 754.5 212 Q767 183 767 150 Z M745 150 Q745 179 734.5 204.5 Q724 230 705.5 249 Q687 268 662.5 279 Q638 290 610 290 Q582 290 557.5 279 Q533 268 515 249 Q497 230 486.5 204.5 Q476 179 476 150 Q476 120 486.5 95 Q497 70 515 51 Q533 32 557.5 21.5 Q582 11 610 11 Q638 11 662.5 21.5 Q687 32 705.5 51 Q724 70 734.5 95 Q745 120 745 150 Z M195 -27 L179 -16 L619 736 L635 725 L195 -27 Z " />
<glyph glyph-name="ampersand" unicode="&#x26;" horiz-adv-x="704" d="M617 0 L501 124 Q456 54 400 18 Q344 -18 275 -18 Q233 -18 196.5 -4.5 Q160 9 133 34.5 Q106 60 90.5 96.5 Q75 133 75 179 Q75 218 87.5 248.5 Q100 279 123 304.5 Q146 330 178 351 Q210 372 248 393 Q221 423 203 447 Q185 471 174 492 Q163 513 158.5 533 Q154 553 154 574 Q154 608 166 636 Q178 664 198.5 684 Q219 704 247.5 715 Q276 726 309 726 Q340 726 367.5 715 Q395 704 414.5 685 Q434 666 445.5 640.5 Q457 615 457 586 Q457 550 444 522.5 Q431 495 407.5 472 Q384 449 351.5 429 Q319 409 281 388 L496 157 L611 369 L636 369 L512 144 L646 0 L617 0 Z M435 582 Q435 610 425 633.5 Q415 657 397.5 673.5 Q380 690 356.5 699 Q333 708 307 708 Q280 708 256 698 Q232 688 214.5 670.5 Q197 653 186.5 628.5 Q176 604 176 575 Q176 527 200.5 488 Q225 449 268 401 Q304 420 334.5 439 Q365 458 387.5 479 Q410 500 422.5 525 Q435 550 435 582 Z M262 378 Q229 362 199.5 342.5 Q170 323 147 299 Q124 275 110.5 245 Q97 215 97 179 Q97 138 111.5 105 Q126 72 151 49 Q176 26 209 13.5 Q242 1 280 1 Q344 1 397.5 39 Q451 77 486 140 L262 378 Z " />
<glyph glyph-name="quotesingle" unicode="&#x27;" horiz-adv-x="260" d="M119 480 L119 708 L141 708 L141 480 L119 480 Z " />
<glyph glyph-name="parenleft" unicode="&#x28;" horiz-adv-x="300" d="M74 288 Q74 348 83 408 Q92 468 108.5 525 Q125 582 149 634.5 Q173 687 203 732 L223 722 Q193 681 169.5 628.5 Q146 576 129.5 518.5 Q113 461 104.5 401.5 Q96 342 96 288 Q96 234 104.5 174.5 Q113 115 129.5 57.5 Q146 0 169.5 -52.5 Q193 -105 223 -146 L203 -156 Q173 -111 149 -58.5 Q125 -6 108.5 51 Q92 108 83 168 Q74 228 74 288 Z " />
<glyph glyph-name="parenright" unicode="&#x29;" horiz-adv-x="300" d="M224 288 Q224 228 215 168 Q206 108 189.5 51 Q173 -6 149 -58.5 Q125 -111 95 -156 L75 -146 Q105 -105 128.5 -52.5 Q152 0 168.5 57.5 Q185 115 193.5 174.5 Q202 234 202 288 Q202 342 193.5 401.5 Q185 461 168.5 518.5 Q152 576 128.5 628.5 Q105 681 75 722 L95 732 Q125 687 149 634.5 Q173 582 189.5 525 Q206 468 215 408 Q224 348 224 288 Z " />
<glyph glyph-name="asterisk" unicode="&#x2a;" horiz-adv-x="444" d="M394 589 L400 572 L235 522 L337 380 L323 370 L222 513 L121 370 L107 380 L209 522 L44 572 L50 589 L213 537 L213 708 L231 708 L231 537 L394 589 Z " />
<glyph glyph-name="plus" unicode="&#x2b;" horiz-adv-x="666" d="M345 65 L324 65 L324 295 L100 295 L100 314 L324 314 L324 544 L345 544 L345 314 L566 314 L566 295 L345 295 L345 65 Z " />
<glyph glyph-name="comma" unicode="&#x2c;" horiz-adv-x="240" d="M88 -138 L71 -138 L128 90 L152 90 L88 -138 Z " />
<glyph glyph-name="hyphen" unicode="&#x2d;" horiz-adv-x="300" d="M60 244 L60 264 L240 264 L240 244 L60 244 Z " />
<glyph glyph-name="period" unicode="&#x2e;" horiz-adv-x="240" d="M120 -6 Q111 -6 104 1 Q97 8 97 20 Q97 31 104 38 Q111 45 120 45 Q129 45 136 38 Q143 31 143 20 Q143 8 135.5 1 Q128 -6 120 -6 Z " />
<glyph glyph-name="slash" unicode="&#x2f;" horiz-adv-x="370" d="M42 -15 L23 -8 L330 729 L349 722 L42 -15 Z " />
<glyph glyph-name="zero" unicode="0" horiz-adv-x="560" d="M280 -12 Q212 -12 169 22.5 Q126 57 102 110 Q78 163 69 228 Q60 293 60 354 Q60 415 69 480 Q78 545 102 598 Q126 651 169 685.5 Q212 720 280 720 Q348 720 391 685.5 Q434 651 458 598 Q482 545 491 480 Q500 415 500 354 Q500 293 491 228 Q482 163 458 110 Q434 57 391 22.5 Q348 -12 280 -12 Z M280 700 Q235 700 202.5 681.5 Q170 663 148 633.5 Q126 604 113 566.5 Q100 529 93 490.5 Q86 452 84 416 Q82 380 82 354 Q82 327 84 291.5 Q86 256 93 217.5 Q100 179 113 141.5 Q126 104 148 74.5 Q170 45 202.5 26.5 Q235 8 280 8 Q325 8 357.5 26.5 Q390 45 412 74.5 Q434 104 447 141.5 Q460 179 467 217.5 Q474 256 476 291.5 Q478 327 478 354 Q478 380 476 416 Q474 452 467 490.5 Q460 529 447 566.5 Q434 604 412 633.5 Q390 663 357.5 681.5 Q325 700 280 700 Z " />
<glyph glyph-name="one" unicode="1" horiz-adv-x="560" d="M290 0 L290 682 L156 568 L143 585 L290 708 L312 708 L312 0 L290 0 Z " />
<glyph glyph-name="two" unicode="2" horiz-adv-x="560" d="M63 0 L63 26 L310 316 Q366 381 399 434 Q432 487 432 541 Q432 578 420 607.5 Q408 637 386.5 658 Q365 679 335.5 690 Q306 701 272 701 Q214 701 170 670.5 Q126 640 108 580 L87 587 Q106 651 156 685.5 Q206 720 272 720 Q312 720 345.5 707 Q379 694 403 670.5 Q427 647 440.5 615.5 Q454 584 454 548 Q454 515 445.5 486 Q437 457 419.5 427.5 Q402 398 376.5 365.5 Q351 333 318 294 L86 21 L460 21 L460 0 L63 0 Z " />
<glyph glyph-name="three" unicode="3" horiz-adv-x="560" d="M465 186 Q465 147 453 111.5 Q441 76 416.5 48.5 Q392 21 353.5 4.5 Q315 -12 262 -12 Q194 -12 141.5 19 Q89 50 63 101 L84 110 Q106 64 154 37 Q202 10 262 8 Q306 7 340 21 Q374 35 397 59.5 Q420 84 431.5 117 Q443 150 443 187 Q443 233 423.5 266 Q404 299 374 320.5 Q344 342 308 352 Q272 362 240 362 L218 362 L218 382 L240 382 Q272 382 303.5 391.5 Q335 401 360.5 421 Q386 441 402 472 Q418 503 418 547 Q418 582 406 610.5 Q394 639 373 659 Q352 679 323.5 690 Q295 701 262 701 Q218 701 178 682 Q138 663 115 628 L97 640 Q123 677 165.5 698.5 Q208 720 262 720 Q300 720 332.5 708 Q365 696 388.5 673.5 Q412 651 425.5 619 Q439 587 439 547 Q439 517 430.5 488.5 Q422 460 404 437 Q386 414 357.5 397 Q329 380 290 374 L290 372 Q335 365 368 347 Q401 329 422.5 304 Q444 279 454.5 248.5 Q465 218 465 186 Z " />
<glyph glyph-name="four" unicode="4" horiz-adv-x="560" d="M396 184 L396 0 L374 0 L374 184 L43 184 L43 211 L362 708 L396 708 L396 204 L514 204 L514 184 L396 184 Z M374 684 L371 684 L63 204 L374 204 L374 684 Z " />
<glyph glyph-name="five" unicode="5" horiz-adv-x="560" d="M476 215 Q476 159 457.5 116.5 Q439 74 408.5 45.5 Q378 17 339.5 2.5 Q301 -12 261 -12 Q192 -12 145.5 14 Q99 40 69 82 L87 96 Q115 55 157.5 31.5 Q200 8 261 8 Q296 8 330.5 21 Q365 34 392.5 60 Q420 86 437 124.5 Q454 163 454 215 Q454 258 440 295.5 Q426 333 400 360.5 Q374 388 336 403.5 Q298 419 249 419 Q214 419 180.5 409 Q147 399 118 383 L123 708 L446 708 L446 688 L145 688 L139 413 Q167 427 199 432.5 Q231 438 258 438 Q309 438 349 421 Q389 404 417.5 374.5 Q446 345 461 304 Q476 263 476 215 Z " />
<glyph glyph-name="six" unicode="6" horiz-adv-x="560" d="M70 201 Q70 240 83.5 284.5 Q97 329 130 386 L317 708 L343 708 L130 348 L132 347 Q158 379 199.5 398 Q241 417 288 417 Q331 417 368 400.5 Q405 384 432 355.5 Q459 327 474.5 287 Q490 247 490 201 Q490 155 474.5 116 Q459 77 431 48.5 Q403 20 364 4 Q325 -12 279 -12 Q233 -12 194.5 3.5 Q156 19 128.5 47.5 Q101 76 85.5 115 Q70 154 70 201 Z M92 201 Q92 159 106 123.5 Q120 88 145 62 Q170 36 204.5 21.5 Q239 7 280 7 Q321 7 355.5 21.5 Q390 36 415 62 Q440 88 454 123.5 Q468 159 468 201 Q468 243 454.5 279 Q441 315 416.5 341.5 Q392 368 358.5 383 Q325 398 285 398 Q246 398 211 383 Q176 368 149.5 341.5 Q123 315 107.5 279 Q92 243 92 201 Z " />
<glyph glyph-name="seven" unicode="7" horiz-adv-x="560" d="M459 681 L164 0 L140 0 L440 688 L76 688 L76 708 L459 708 L459 681 Z " />
<glyph glyph-name="eight" unicode="8" horiz-adv-x="560" d="M489 188 Q489 142 473 105 Q457 68 429.5 42 Q402 16 363.5 2 Q325 -12 280 -12 Q235 -12 196.5 2 Q158 16 130.5 42 Q103 68 87 105 Q71 142 71 188 Q71 219 80 248.5 Q89 278 107.5 303.5 Q126 329 154 348.5 Q182 368 220 379 L220 381 Q157 405 127.5 451.5 Q98 498 98 547 Q98 586 112 617.5 Q126 649 150 672 Q174 695 207.5 707.5 Q241 720 280 720 Q319 720 352.5 707.5 Q386 695 410 672 Q434 649 448 617.5 Q462 586 462 547 Q462 498 432.5 451 Q403 404 340 381 L340 379 Q379 367 407.5 347 Q436 327 454 302 Q472 277 480.5 248 Q489 219 489 188 Z M441 547 Q441 581 428.5 609.5 Q416 638 394 658.5 Q372 679 343 690 Q314 701 280 701 Q246 701 216.5 690 Q187 679 165.5 658.5 Q144 638 131.5 609.5 Q119 581 119 547 Q119 515 131 486.5 Q143 458 164.5 436 Q186 414 215.5 401 Q245 388 280 388 Q315 388 344.5 401 Q374 414 395.5 436 Q417 458 429 486.5 Q441 515 441 547 Z M467 188 Q467 228 452.5 261.5 Q438 295 412.5 319.5 Q387 344 353 357.5 Q319 371 280 371 Q241 371 207 357.5 Q173 344 147.5 319.5 Q122 295 107.5 261.5 Q93 228 93 188 Q93 150 106.5 117 Q120 84 144.5 59.5 Q169 35 203.5 21 Q238 7 280 7 Q322 7 356.5 21 Q391 35 415.5 59.5 Q440 84 453.5 117 Q467 150 467 188 Z " />
<glyph glyph-name="nine" unicode="9" horiz-adv-x="560" d="M490 509 Q490 470 476 427.5 Q462 385 430 328 L242 0 L216 0 L430 366 L428 367 Q402 335 360.5 316 Q319 297 272 297 Q229 297 192 312.5 Q155 328 128 356.5 Q101 385 85.5 423.5 Q70 462 70 509 Q70 555 85.5 594 Q101 633 129 661 Q157 689 196 704.5 Q235 720 281 720 Q327 720 365.5 704.5 Q404 689 431.5 661.5 Q459 634 474.5 595 Q490 556 490 509 Z M468 509 Q468 551 454 586 Q440 621 415 646.5 Q390 672 355.5 686.5 Q321 701 280 701 Q239 701 204.5 686.5 Q170 672 145 646.5 Q120 621 106 586 Q92 551 92 509 Q92 467 105.5 431.5 Q119 396 143.5 370.5 Q168 345 201.5 330.5 Q235 316 275 316 Q314 316 349 330.5 Q384 345 410.5 370.5 Q437 396 452.5 431.5 Q468 467 468 509 Z " />
<glyph glyph-name="colon" unicode="&#x3a;" horiz-adv-x="280" d="M140 409 Q131 409 124 416 Q117 423 117 435 Q117 446 124 453 Q131 460 140 460 Q149 460 156 453 Q163 446 163 435 Q163 423 155.5 416 Q148 409 140 409 Z M140 -6 Q131 -6 124 1 Q117 8 117 20 Q117 31 124 38 Q131 45 140 45 Q149 45 156 38 Q163 31 163 20 Q163 8 155.5 1 Q148 -6 140 -6 Z " />
<glyph glyph-name="semicolon" unicode="&#x3b;" horiz-adv-x="280" d="M140 409 Q131 409 124 416 Q117 423 117 435 Q117 446 124 453 Q131 460 140 460 Q149 460 156 453 Q163 446 163 435 Q163 423 155.5 416 Q148 409 140 409 Z M98 -138 L81 -138 L138 90 L162 90 L98 -138 Z " />
<glyph glyph-name="less" unicode="&#x3c;" horiz-adv-x="666" d="M100 291 L100 315 L566 539 L566 519 L112 303 L566 87 L566 67 L100 291 Z " />
<glyph glyph-name="equal" unicode="&#x3d;" horiz-adv-x="666" d="M100 380 L100 399 L566 399 L566 380 L100 380 Z M100 209 L100 228 L566 228 L566 209 L100 209 Z " />
<glyph glyph-name="greater" unicode="&#x3e;" horiz-adv-x="666" d="M100 87 L554 303 L100 519 L100 539 L566 315 L566 291 L100 67 L100 87 Z " />
<glyph glyph-name="question" unicode="&#x3f;" horiz-adv-x="472" d="M241 45 Q249 45 256.5 38 Q264 31 264 19 Q264 8 257 1 Q250 -6 241 -6 Q232 -6 225 1 Q218 8 218 19 Q218 31 225 38 Q232 45 241 45 Z M250 200 L228 200 L228 253 Q228 269 230.5 286 Q233 303 240.5 320.5 Q248 338 261.5 355.5 Q275 373 297 390 L331 420 Q346 434 358.5 447.5 Q371 461 380.5 476.5 Q390 492 395.5 511 Q401 530 401 556 Q401 592 388.5 620 Q376 648 354 667 Q332 686 302.5 695.5 Q273 705 240 705 Q171 705 128 664.5 Q85 624 74 561 L53 565 Q67 643 118 684.5 Q169 726 242 726 Q279 726 312 715 Q345 704 370 682.5 Q395 661 409 629.5 Q423 598 423 557 Q423 525 415.5 501.5 Q408 478 395.5 459.5 Q383 441 367 425.5 Q351 410 333 395 Q307 374 291 356.5 Q275 339 266 322.5 Q257 306 253.5 287 Q250 268 250 244 L250 200 Z " />
<glyph glyph-name="at" unicode="&#x40;" horiz-adv-x="800" d="M760 415 Q760 361 747 314 Q734 267 709.5 233 Q685 199 648.5 179.5 Q612 160 565 160 Q527 160 502.5 181 Q478 202 484 249 L482 249 Q474 234 461.5 218 Q449 202 432 189.5 Q415 177 393.5 168.5 Q372 160 347 160 Q317 160 295.5 171 Q274 182 260 199.5 Q246 217 239.5 240 Q233 263 233 287 Q233 331 247 378 Q261 425 287 464 Q313 503 350 528 Q387 553 432 553 Q478 553 504.5 528.5 Q531 504 536 462 L540 462 L560 535 L581 535 L513 298 Q509 284 506 267 Q503 250 503 238 Q503 206 521 193 Q539 180 565 180 Q611 180 644 200 Q677 220 698 253 Q719 286 729 328 Q739 370 739 415 Q739 478 714.5 531.5 Q690 585 646.5 624.5 Q603 664 544 686 Q485 708 416 708 Q340 708 276.5 679 Q213 650 167 601 Q121 552 95 488 Q69 424 69 355 Q69 282 94.5 217.5 Q120 153 166.5 104.5 Q213 56 278 28 Q343 0 421 0 Q507 0 580.5 37.5 Q654 75 703 133 L718 120 Q664 56 588 18 Q512 -20 421 -20 Q337 -20 268 9.5 Q199 39 150 90 Q101 141 74 209 Q47 277 47 355 Q47 433 75.5 501 Q104 569 154 619.5 Q204 670 271 699 Q338 728 416 728 Q491 728 554 704.5 Q617 681 663 639 Q709 597 734.5 539.5 Q760 482 760 415 Z M523 432 Q523 452 517.5 470.5 Q512 489 501 503 Q490 517 473 525 Q456 533 432 533 Q390 533 357 509 Q324 485 301.5 448.5 Q279 412 267 368.5 Q255 325 255 286 Q255 241 278.5 210.5 Q302 180 352 180 Q394 180 426 209.5 Q458 239 479.5 279.5 Q501 320 512 362.5 Q523 405 523 432 Z " />
<glyph glyph-name="A" unicode="A" horiz-adv-x="666" d="M624 0 L540 203 L129 203 L42 0 L18 0 L325 708 L353 708 L648 0 L624 0 Z M338 694 L137 222 L533 222 L338 694 Z " />
<glyph glyph-name="B" unicode="B" horiz-adv-x="612" d="M551 189 Q551 132 529.5 95.5 Q508 59 474.5 38 Q441 17 400.5 8.5 Q360 0 323 0 L106 0 L106 708 L299 708 Q339 708 378.5 700 Q418 692 449 673 Q480 654 499 622 Q518 590 518 541 Q518 503 506 475 Q494 447 473.5 427 Q453 407 427 394.5 Q401 382 374 376 L374 374 Q401 371 432 359.5 Q463 348 489.5 326 Q516 304 533.5 270 Q551 236 551 189 Z M496 538 Q496 581 479 610 Q462 639 434 656 Q406 673 369.5 680.5 Q333 688 293 688 L128 688 L128 383 L298 383 Q334 383 369.5 392 Q405 401 433 419.5 Q461 438 478.5 467.5 Q496 497 496 538 Z M529 186 Q529 234 509.5 268 Q490 302 460 323 Q430 344 394 353.5 Q358 363 324 363 L128 363 L128 20 L313 20 Q359 20 399 29.5 Q439 39 467.5 59 Q496 79 512.5 110.5 Q529 142 529 186 Z " />
<glyph glyph-name="C" unicode="C" horiz-adv-x="724" d="M686 87 Q641 33 572.5 6.5 Q504 -20 433 -20 Q353 -20 287 8 Q221 36 173 85.5 Q125 135 98.5 204 Q72 273 72 354 Q72 435 98.5 504 Q125 573 173 622.5 Q221 672 287.5 700 Q354 728 433 728 Q499 728 561.5 705.5 Q624 683 668 637 L654 621 Q633 643 606.5 659.5 Q580 676 550.5 687 Q521 698 491 703 Q461 708 433 708 Q357 708 294.5 680.5 Q232 653 187.5 605 Q143 557 118.5 492.5 Q94 428 94 354 Q94 280 118 215.5 Q142 151 186.5 103 Q231 55 293.5 27.5 Q356 0 433 0 Q499 0 563.5 25.5 Q628 51 670 102 L686 87 L686 87 Z " />
<glyph glyph-name="D" unicode="D" horiz-adv-x="770" d="M698 354 Q698 262 668 195.5 Q638 129 585 85.5 Q532 42 460.5 21 Q389 0 307 0 L106 0 L106 708 L307 708 Q389 708 460.5 687.5 Q532 667 585 623.5 Q638 580 668 513 Q698 446 698 354 Z M129 688 L129 20 L302 20 Q380 20 448.5 39.5 Q517 59 567 99.5 Q617 140 646 203 Q675 266 675 354 Q675 442 646 505.5 Q617 569 567 609.5 Q517 650 448.5 669 Q380 688 302 688 L129 688 Z " />
<glyph glyph-name="E" unicode="E" horiz-adv-x="590" d="M106 0 L106 708 L518 708 L518 688 L127 688 L127 377 L495 377 L495 357 L127 357 L127 20 L534 20 L534 0 L106 0 Z " />
<glyph glyph-name="F" unicode="F" horiz-adv-x="560" d="M128 688 L128 377 L483 377 L483 357 L128 357 L128 0 L106 0 L106 708 L510 708 L510 688 L128 688 Z " />
<glyph glyph-name="G" unicode="G" horiz-adv-x="795" d="M699 41 Q657 18 593 -1 Q529 -20 445 -20 Q361 -20 292 9 Q223 38 174 88.5 Q125 139 98.5 207.5 Q72 276 72 356 Q72 436 99 504.5 Q126 573 174.5 622.5 Q223 672 291 700 Q359 728 441 728 Q513 728 573 706 Q633 684 679 646 L663 630 Q643 649 616.5 663.5 Q590 678 560.5 688 Q531 698 500 703 Q469 708 440 708 Q362 708 298 680.5 Q234 653 188.5 605 Q143 557 118.5 493 Q94 429 94 356 Q94 283 118 218 Q142 153 187.5 104.5 Q233 56 298.5 28 Q364 0 447 0 Q519 0 575 15 Q631 30 678 53 L678 331 L494 331 L494 350 L699 350 L699 41 L699 41 Z " />
<glyph glyph-name="H" unicode="H" horiz-adv-x="732" d="M604 0 L604 356 L128 356 L128 0 L106 0 L106 708 L128 708 L128 376 L604 376 L604 708 L626 708 L626 0 L604 0 Z " />
<glyph glyph-name="I" unicode="I" horiz-adv-x="234" d="M106 0 L106 708 L128 708 L128 0 L106 0 Z " />
<glyph glyph-name="J" unicode="J" horiz-adv-x="480" d="M378 193 Q378 95 332.5 38.5 Q287 -18 197 -18 Q134 -18 90 14.5 Q46 47 29 93 L48 102 Q68 57 107 29.5 Q146 2 197 2 Q240 2 270 16.5 Q300 31 319 57 Q338 83 347 118.5 Q356 154 356 196 L356 708 L378 708 L378 193 L378 193 Z " />
<glyph glyph-name="K" unicode="K" horiz-adv-x="565" d="M129 383 L485 708 L517 708 L157 383 L535 0 L504 0 L129 381 L128 381 L128 0 L106 0 L106 708 L128 708 L128 383 L129 383 Z " />
<glyph glyph-name="L" unicode="L" horiz-adv-x="498" d="M106 0 L106 708 L128 708 L128 20 L480 20 L480 0 L106 0 Z " />
<glyph glyph-name="M" unicode="M" horiz-adv-x="906" d="M778 0 L778 683 L774 683 L461 0 L443 0 L131 683 L128 683 L128 0 L106 0 L106 708 L145 708 L453 32 L761 708 L800 708 L800 0 L778 0 Z " />
<glyph glyph-name="N" unicode="N" horiz-adv-x="777" d="M639 0 L131 680 L128 680 L128 0 L106 0 L106 708 L137 708 L646 29 L649 29 L649 708 L671 708 L671 0 L639 0 Z " />
<glyph glyph-name="O" unicode="O" horiz-adv-x="872" d="M800 354 Q800 272 772.5 203.5 Q745 135 696.5 85.5 Q648 36 581 8 Q514 -20 436 -20 Q358 -20 291 8 Q224 36 175.5 85.5 Q127 135 99.5 203.5 Q72 272 72 354 Q72 436 99.5 504.5 Q127 573 175.5 622.5 Q224 672 290.5 700 Q357 728 436 728 Q515 728 581.5 700 Q648 672 696.5 622.5 Q745 573 772.5 504.5 Q800 436 800 354 Z M778 354 Q778 428 753 492.5 Q728 557 682.5 605 Q637 653 574 680.5 Q511 708 436 708 Q361 708 298 680.5 Q235 653 189.5 605 Q144 557 119 492.5 Q94 428 94 354 Q94 280 118.5 215.5 Q143 151 188 103 Q233 55 296 27.5 Q359 0 436 0 Q513 0 576 27.5 Q639 55 684 103 Q729 151 753.5 215.5 Q778 280 778 354 Z " />
<glyph glyph-name="P" unicode="P" horiz-adv-x="572" d="M517 532 Q517 487 500.5 452.5 Q484 418 456 395 Q428 372 390.5 360 Q353 348 311 348 L128 348 L128 0 L106 0 L106 708 L298 708 Q336 708 375 699.5 Q414 691 445.5 671 Q477 651 497 617 Q517 583 517 532 Z M495 532 Q495 577 478 607 Q461 637 434 655 Q407 673 373.5 681 Q340 689 307 689 L128 689 L128 367 L312 367 Q345 367 378 376 Q411 385 437 405 Q463 425 479 456.5 Q495 488 495 532 Z " />
<glyph glyph-name="Q" unicode="Q" horiz-adv-x="883" d="M800 361 Q800 302 781 245.5 Q762 189 728 143 Q694 97 648.5 65 Q603 33 550 22 L550 20 L838 20 L838 0 L434 0 Q360 0 294 25.5 Q228 51 178.5 98.5 Q129 146 100.5 212.5 Q72 279 72 361 Q72 441 99.5 508.5 Q127 576 175.5 624.5 Q224 673 290.5 700.5 Q357 728 436 728 Q515 728 581.5 700 Q648 672 696.5 623 Q745 574 772.5 507 Q800 440 800 361 Z M778 361 Q778 432 753 495 Q728 558 682.5 605.5 Q637 653 574 680.5 Q511 708 436 708 Q361 708 298 681 Q235 654 189.5 607 Q144 560 119 496.5 Q94 433 94 361 Q94 290 119.5 228 Q145 166 190.5 119.5 Q236 73 299 46.5 Q362 20 437 20 Q515 20 578 48.5 Q641 77 685.5 124.5 Q730 172 754 233.5 Q778 295 778 361 Z " />
<glyph glyph-name="R" unicode="R" horiz-adv-x="594" d="M508 0 L294 357 L128 357 L128 0 L106 0 L106 708 L302 708 Q341 708 381 701 Q421 694 452.5 674.5 Q484 655 504 621 Q524 587 524 533 Q524 483 505 450 Q486 417 456 396.5 Q426 376 389.5 367 Q353 358 318 358 L533 0 L508 0 Z M502 533 Q502 579 484 609.5 Q466 640 436.5 657.5 Q407 675 368.5 682 Q330 689 290 689 L128 689 L128 376 L301 376 Q399 376 450.5 417 Q502 458 502 533 Z " />
<glyph glyph-name="S" unicode="S" horiz-adv-x="570" d="M498 170 Q498 125 480.5 89.5 Q463 54 434 29.5 Q405 5 365.5 -7.5 Q326 -20 283 -20 Q217 -20 162.5 3.5 Q108 27 72 67 L89 82 Q127 41 177.5 20.5 Q228 0 282 0 Q321 0 356 11.5 Q391 23 418 44.5 Q445 66 460.5 97.5 Q476 129 476 170 Q476 211 459 239 Q442 267 415 287 Q388 307 353.5 320.5 Q319 334 284 345 Q240 359 203.5 374.5 Q167 390 140.5 412.5 Q114 435 99.5 466.5 Q85 498 85 543 Q85 587 102.5 621.5 Q120 656 150 679.5 Q180 703 219.5 715.5 Q259 728 303 728 Q357 728 405.5 707.5 Q454 687 485 649 L468 634 Q440 669 396.5 688.5 Q353 708 302 708 Q266 708 231.5 698 Q197 688 169 667.5 Q141 647 124 616 Q107 585 107 543 Q107 502 122 473.5 Q137 445 162 425 Q187 405 218.5 392 Q250 379 283 368 Q328 353 367 337.5 Q406 322 435.5 300 Q465 278 481.5 246.5 Q498 215 498 170 Z " />
<glyph glyph-name="T" unicode="T" horiz-adv-x="540" d="M281 688 L281 0 L259 0 L259 688 L18 688 L18 708 L522 708 L522 688 L281 688 Z " />
<glyph glyph-name="U" unicode="U" horiz-adv-x="732" d="M636 268 Q636 208 622 155.5 Q608 103 576 64 Q544 25 492.5 2.5 Q441 -20 366 -20 Q291 -20 239.5 2.5 Q188 25 156 64 Q124 103 110 155.5 Q96 208 96 268 L96 708 L118 708 L118 272 Q118 230 126.5 182.5 Q135 135 161.5 94.5 Q188 54 236.5 27 Q285 0 366 0 Q445 0 493.5 26 Q542 52 569 92.5 Q596 133 605 180.5 Q614 228 614 272 L614 708 L636 708 L636 268 L636 268 Z " />
<glyph glyph-name="V" unicode="V" horiz-adv-x="606" d="M318 0 L284 0 L18 708 L42 708 L300 20 L302 20 L564 708 L588 708 L318 0 Z " />
<glyph glyph-name="W" unicode="W" horiz-adv-x="956" d="M716 0 L682 0 L477 687 L475 687 L274 0 L240 0 L28 708 L51 708 L255 20 L258 20 L459 708 L493 708 L698 20 L701 20 L905 708 L928 708 L716 0 Z " />
<glyph glyph-name="X" unicode="X" horiz-adv-x="590" d="M531 0 L295 354 L58 0 L32 0 L282 371 L56 708 L82 708 L295 388 L508 708 L533 708 L308 371 L558 0 L531 0 Z " />
<glyph glyph-name="Y" unicode="Y" horiz-adv-x="538" d="M280 310 L280 0 L258 0 L258 310 L15 708 L41 708 L270 332 L498 708 L523 708 L280 310 Z " />
<glyph glyph-name="Z" unicode="Z" horiz-adv-x="594" d="M54 0 L54 27 L520 688 L67 688 L67 708 L540 708 L540 679 L75 20 L552 20 L552 0 L54 0 Z " />
<glyph glyph-name="bracketleft" unicode="&#x5b;" horiz-adv-x="300" d="M80 -156 L80 732 L220 732 L220 713 L102 713 L102 -137 L220 -137 L220 -156 L80 -156 Z " />
<glyph glyph-name="backslash" unicode="&#x5c;" horiz-adv-x="370" d="M42 729 L349 -8 L330 -15 L23 722 L42 729 Z " />
<glyph glyph-name="bracketright" unicode="&#x5d;" horiz-adv-x="300" d="M80 -137 L198 -137 L198 713 L80 713 L80 732 L220 732 L220 -156 L80 -156 L80 -137 Z " />
<glyph glyph-name="asciicircum" unicode="&#x5e;" horiz-adv-x="666" d="M321 708 L345 708 L569 242 L549 242 L333 696 L117 242 L97 242 L321 708 Z " />
<glyph glyph-name="underscore" unicode="&#x5f;" horiz-adv-x="500" d="M0 -114 L0 -94 L500 -94 L500 -114 L0 -114 Z " />
<glyph glyph-name="grave" unicode="&#x60;" horiz-adv-x="240" d="M47 708 L150 564 L131 564 L20 708 L47 708 Z " />
<glyph glyph-name="a" unicode="a" horiz-adv-x="512" d="M418 104 Q418 78 420.5 48.5 Q423 19 426 0 L405 0 Q403 10 402 24.5 Q401 39 399.5 54.5 Q398 70 397.5 85 Q397 100 397 110 L394 110 Q374 47 325 16.5 Q276 -14 220 -14 Q192 -14 164.5 -6 Q137 2 115 18 Q93 34 79.5 59 Q66 84 66 118 Q66 167 91.5 197 Q117 227 155 243.5 Q193 260 236.5 265 Q280 270 316 270 L396 270 L396 307 Q396 384 355 419.5 Q314 455 248 455 Q207 455 171.5 440 Q136 425 108 400 L96 417 Q128 445 168.5 459.5 Q209 474 248 474 Q327 474 372.5 433.5 Q418 393 418 306 L418 104 Z M396 251 L325 251 Q287 251 245 246.5 Q203 242 168 228 Q133 214 110.5 188 Q88 162 88 118 Q88 86 100.5 64.5 Q113 43 132.5 30 Q152 17 175.5 11 Q199 5 220 5 Q271 5 305 24 Q339 43 359.5 72.5 Q380 102 388 137.5 Q396 173 396 207 L396 251 Z " />
<glyph glyph-name="b" unicode="b" horiz-adv-x="626" d="M127 335 Q157 404 212.5 439 Q268 474 334 474 Q385 474 427.5 455.5 Q470 437 500.5 404.5 Q531 372 547.5 327 Q564 282 564 229 Q564 177 547 132.5 Q530 88 499.5 55.5 Q469 23 426.5 4.5 Q384 -14 334 -14 Q301 -14 269.5 -5 Q238 4 211 21.5 Q184 39 162 64.5 Q140 90 127 124 L124 124 L124 0 L102 0 L102 756 L124 756 L124 335 L127 335 Z M542 229 Q542 274 527.5 315 Q513 356 486 387 Q459 418 420.5 436.5 Q382 455 334 455 Q288 455 249.5 437 Q211 419 183 388.5 Q155 358 139 317 Q123 276 123 230 Q123 184 139 143 Q155 102 183 71.5 Q211 41 249.5 23 Q288 5 334 5 Q382 5 420.5 23 Q459 41 486 71.5 Q513 102 527.5 143 Q542 184 542 229 Z " />
<glyph glyph-name="c" unicode="c" horiz-adv-x="480" d="M430 398 Q404 425 369 440 Q334 455 296 455 Q247 455 208 436.5 Q169 418 141.5 387 Q114 356 99 315 Q84 274 84 229 Q84 184 99 143 Q114 102 141.5 71.5 Q169 41 208 23 Q247 5 296 5 Q334 5 370.5 18 Q407 31 434 57 L449 43 Q419 13 378.5 -0.5 Q338 -14 296 -14 Q245 -14 202.5 4 Q160 22 128.5 54 Q97 86 79.5 131 Q62 176 62 229 Q62 282 79.5 327 Q97 372 128.5 404.5 Q160 437 202.5 455.5 Q245 474 296 474 Q340 474 379.5 458 Q419 442 447 413 L430 398 Z " />
<glyph glyph-name="d" unicode="d" horiz-adv-x="626" d="M502 756 L524 756 L524 0 L502 0 L502 124 L499 124 Q469 56 413.5 21 Q358 -14 292 -14 Q242 -14 199.5 4.5 Q157 23 126.5 55.5 Q96 88 79 132.5 Q62 177 62 229 Q62 281 79 326 Q96 371 126.5 404 Q157 437 199.5 455.5 Q242 474 292 474 Q358 474 413.5 439 Q469 404 499 335 L502 335 L502 756 Z M84 229 Q84 184 98.5 143 Q113 102 140 71.5 Q167 41 205.5 23 Q244 5 292 5 Q338 5 376.5 23 Q415 41 443 71.5 Q471 102 487 143 Q503 184 503 230 Q503 276 487 317 Q471 358 443 388.5 Q415 419 376.5 437 Q338 455 292 455 Q244 455 205.5 436.5 Q167 418 140 387 Q113 356 98.5 315 Q84 274 84 229 Z " />
<glyph glyph-name="e" unicode="e" horiz-adv-x="556" d="M84 235 Q84 193 96.5 152 Q109 111 134.5 78.5 Q160 46 199 26 Q238 6 291 6 Q345 6 387 27.5 Q429 49 460 90 L476 76 Q442 32 396.5 9 Q351 -14 291 -14 Q240 -14 198 4.5 Q156 23 125.5 56 Q95 89 78.5 135 Q62 181 62 235 Q62 287 79 331 Q96 375 125.5 407 Q155 439 195 456.5 Q235 474 281 474 Q335 474 375 455 Q415 436 441.5 405 Q468 374 481 334.5 Q494 295 494 254 L494 235 L84 235 Z M473 254 Q472 299 457.5 336 Q443 373 418 399.5 Q393 426 358 440.5 Q323 455 280 455 Q228 455 191 433.5 Q154 412 130.5 380.5 Q107 349 96 314.5 Q85 280 85 254 L473 254 Z " />
<glyph glyph-name="f" unicode="f" horiz-adv-x="282" d="M282 745 Q272 747 262 748.5 Q252 750 241 750 Q214 750 195 739 Q176 728 164.5 710.5 Q153 693 148 671 Q143 649 143 626 L143 460 L268 460 L268 441 L143 441 L143 0 L121 0 L121 441 L24 441 L24 460 L120 460 L120 625 Q120 667 131 695 Q142 723 159.5 739 Q177 755 198 761.5 Q219 768 240 768 Q266 768 286 762 L282 745 Z " />
<glyph glyph-name="g" unicode="g" horiz-adv-x="626" d="M502 124 L499 124 Q486 90 464 64.5 Q442 39 415 21.5 Q388 4 356.5 -5 Q325 -14 292 -14 Q242 -14 199.5 4.5 Q157 23 126.5 55.5 Q96 88 79 132.5 Q62 177 62 229 Q62 281 79 326 Q96 371 126.5 404 Q157 437 199.5 455.5 Q242 474 292 474 Q358 474 413.5 439 Q469 404 499 335 L502 335 L502 460 L524 460 L524 26 Q524 -29 512.5 -79 Q501 -129 474.5 -167 Q448 -205 404.5 -227.5 Q361 -250 297 -250 Q232 -250 181 -227.5 Q130 -205 94 -164 L109 -149 Q147 -192 195.5 -211.5 Q244 -231 297 -231 Q357 -231 397 -209 Q437 -187 460 -151 Q483 -115 492.5 -68.5 Q502 -22 502 28 L502 124 Z M84 229 Q84 184 98.5 143 Q113 102 140 71 Q167 40 205.5 22 Q244 4 292 4 Q338 4 376.5 22 Q415 40 443 71 Q471 102 487 143 Q503 184 503 230 Q503 276 487 317 Q471 358 443 388.5 Q415 419 376.5 437 Q338 455 292 455 Q244 455 205.5 436.5 Q167 418 140 387 Q113 356 98.5 315 Q84 274 84 229 Z " />
<glyph glyph-name="h" unicode="h" horiz-adv-x="569" d="M126 339 Q136 371 154.5 396 Q173 421 197 438.5 Q221 456 249 465 Q277 474 307 474 Q355 474 387 457 Q419 440 438 412 Q457 384 465 349 Q473 314 473 278 L473 0 L451 0 L451 276 Q451 304 445 336 Q439 368 422.5 394 Q406 420 378 437.5 Q350 455 307 455 Q269 455 235.5 439.5 Q202 424 177.5 395 Q153 366 138.5 324.5 Q124 283 124 230 L124 0 L102 0 L102 756 L124 756 L124 339 L126 339 Z " />
<glyph glyph-name="i" unicode="i" horiz-adv-x="226" d="M113 633 Q104 633 97 640 Q90 647 90 659 Q90 670 97 677 Q104 684 113 684 Q122 684 129 677 Q136 670 136 659 Q136 647 128.5 640 Q121 633 113 633 Z M102 0 L102 460 L124 460 L124 0 L102 0 Z " />
<glyph glyph-name="j" unicode="j" horiz-adv-x="226" d="M124 -97 Q124 -132 119.5 -159 Q115 -186 102.5 -204 Q90 -222 68 -231.5 Q46 -241 12 -241 Q5 -241 -3 -240.5 Q-11 -240 -17 -238 L-13 -219 Q0 -222 12 -222 Q44 -222 62 -211 Q80 -200 89 -182.5 Q98 -165 100 -143 Q102 -121 102 -99 L102 460 L124 460 L124 -97 Z M113 633 Q104 633 97 640 Q90 647 90 659 Q90 670 97 677 Q104 684 113 684 Q122 684 129 677 Q136 670 136 659 Q136 647 128.5 640 Q121 633 113 633 Z " />
<glyph glyph-name="k" unicode="k" horiz-adv-x="445" d="M125 248 L363 460 L394 460 L151 247 L422 0 L389 0 L125 243 L124 243 L124 0 L102 0 L102 756 L124 756 L124 248 L125 248 Z " />
<glyph glyph-name="l" unicode="l" horiz-adv-x="226" d="M102 0 L102 756 L124 756 L124 0 L102 0 Z " />
<glyph glyph-name="m" unicode="m" horiz-adv-x="889" d="M454 333 Q474 401 522 437.5 Q570 474 631 474 Q677 474 708.5 457 Q740 440 758.5 412 Q777 384 785 349 Q793 314 793 278 L793 0 L771 0 L771 276 Q771 304 764.5 336 Q758 368 742 394 Q726 420 699 437.5 Q672 455 631 455 Q595 455 563.5 439.5 Q532 424 508.5 395 Q485 366 471 324.5 Q457 283 457 230 L457 0 L435 0 L435 276 Q435 304 429.5 336 Q424 368 409 394 Q394 420 367.5 437.5 Q341 455 300 455 Q264 455 232.5 439.5 Q201 424 177.5 395 Q154 366 140.5 324.5 Q127 283 127 230 L127 0 L105 0 L105 344 Q105 355 104.5 371 Q104 387 103.5 403.5 Q103 420 102 435 Q101 450 100 460 L122 460 Q123 450 123.5 435 Q124 420 124.5 402.5 Q125 385 125.5 368.5 Q126 352 126 339 L128 339 Q138 371 156 396 Q174 421 196.5 438.5 Q219 456 245.5 465 Q272 474 300 474 Q336 474 362.5 463 Q389 452 407 433 Q425 414 436 388.5 Q447 363 452 333 L454 333 Z " />
<glyph glyph-name="n" unicode="n" horiz-adv-x="572" d="M128 339 Q138 371 157 396 Q176 421 200 438.5 Q224 456 252 465 Q280 474 310 474 Q358 474 390 457 Q422 440 441 412 Q460 384 468 349 Q476 314 476 278 L476 0 L454 0 L454 276 Q454 304 448 336 Q442 368 425.5 394 Q409 420 381 437.5 Q353 455 310 455 Q272 455 238.5 439.5 Q205 424 180.5 395 Q156 366 141.5 324.5 Q127 283 127 230 L127 0 L105 0 L105 344 Q105 355 104.5 371 Q104 387 103.5 403.5 Q103 420 102 435 Q101 450 100 460 L122 460 Q123 450 123.5 435 Q124 420 124.5 402.5 Q125 385 125.5 368.5 Q126 352 126 339 L128 339 L128 339 Z " />
<glyph glyph-name="o" unicode="o" horiz-adv-x="605" d="M543 231 Q543 177 525.5 132 Q508 87 476 54.5 Q444 22 399.5 4 Q355 -14 302 -14 Q249 -14 205 4 Q161 22 129 54.5 Q97 87 79.5 132 Q62 177 62 231 Q62 285 79.5 329.5 Q97 374 129 406 Q161 438 205 456 Q249 474 302 474 Q355 474 399.5 456 Q444 438 476 406 Q508 374 525.5 329.5 Q543 285 543 231 Z M521 231 Q521 277 506 318 Q491 359 462.5 389.5 Q434 420 393.5 437.5 Q353 455 302 455 Q251 455 211 437.5 Q171 420 142.5 389.5 Q114 359 99 318 Q84 277 84 231 Q84 184 99 143 Q114 102 142.5 71.5 Q171 41 211 23 Q251 5 302 5 Q353 5 393.5 23 Q434 41 462.5 71.5 Q491 102 506 143 Q521 184 521 231 Z " />
<glyph glyph-name="p" unicode="p" horiz-adv-x="626" d="M127 335 Q157 404 212.5 439 Q268 474 334 474 Q385 474 427.5 455.5 Q470 437 500.5 404.5 Q531 372 547.5 327 Q564 282 564 229 Q564 177 547 132.5 Q530 88 499.5 55.5 Q469 23 426.5 4.5 Q384 -14 334 -14 Q301 -14 269.5 -5 Q238 4 211 21.5 Q184 39 162 64.5 Q140 90 127 124 L124 124 L124 -240 L102 -240 L102 460 L124 460 L124 335 L127 335 Z M542 229 Q542 274 527.5 315 Q513 356 486 387 Q459 418 420.5 436.5 Q382 455 334 455 Q288 455 249.5 437 Q211 419 183 388.5 Q155 358 139 317 Q123 276 123 230 Q123 184 139 143 Q155 102 183 71.5 Q211 41 249.5 23 Q288 5 334 5 Q382 5 420.5 23 Q459 41 486 71.5 Q513 102 527.5 143 Q542 184 542 229 Z " />
<glyph glyph-name="q" unicode="q" horiz-adv-x="626" d="M502 460 L524 460 L524 -240 L502 -240 L502 124 L499 124 Q486 90 464 64.5 Q442 39 415 21.5 Q388 4 356.5 -5 Q325 -14 292 -14 Q242 -14 199.5 4.5 Q157 23 126.5 55.5 Q96 88 79 132.5 Q62 177 62 229 Q62 282 78.5 327 Q95 372 125.5 404.5 Q156 437 198.5 455.5 Q241 474 292 474 Q358 474 413.5 439 Q469 404 499 335 L502 335 L502 460 Z M84 229 Q84 184 98.5 143 Q113 102 140 71.5 Q167 41 205.5 23 Q244 5 292 5 Q338 5 376.5 23 Q415 41 443 71.5 Q471 102 487 143 Q503 184 503 230 Q503 276 487 317 Q471 358 443 388.5 Q415 419 376.5 437 Q338 455 292 455 Q244 455 205.5 436.5 Q167 418 140 387 Q113 356 98.5 315 Q84 274 84 229 Z " />
<glyph glyph-name="r" unicode="r" horiz-adv-x="317" d="M128 339 Q148 411 192 442.5 Q236 474 287 474 Q292 474 296 474 Q300 474 305 473 L305 454 Q301 455 297.5 455 Q294 455 292 455 Q248 455 217 435.5 Q186 416 166 384.5 Q146 353 136.5 314.5 Q127 276 127 238 L127 0 L105 0 L105 344 Q105 355 104.5 371 Q104 387 103.5 403.5 Q103 420 102 435 Q101 450 100 460 L122 460 Q123 450 123.5 435 Q124 420 124.5 402.5 Q125 385 125.5 368.5 Q126 352 126 339 L128 339 L128 339 Z " />
<glyph glyph-name="s" unicode="s" horiz-adv-x="415" d="M361 120 Q361 89 349 64.5 Q337 40 316.5 23 Q296 6 269 -3 Q242 -12 211 -12 Q160 -12 118.5 7.5 Q77 27 50 65 L68 77 Q118 7 212 7 Q234 7 256.5 14 Q279 21 297.5 35 Q316 49 327.5 70 Q339 91 339 118 Q339 150 324.5 170 Q310 190 288 202 Q266 214 239.5 221.5 Q213 229 190 235 Q165 242 143 250.5 Q121 259 104.5 272.5 Q88 286 78.5 306 Q69 326 69 356 Q69 386 81 408 Q93 430 113 444.5 Q133 459 158.5 466.5 Q184 474 210 474 Q304 474 351 407 L332 396 Q309 426 280 440.5 Q251 455 210 455 Q191 455 170 450 Q149 445 131.5 433.5 Q114 422 102.5 403 Q91 384 91 357 Q91 327 100.5 309 Q110 291 127 280 Q144 269 168 261.5 Q192 254 221 247 Q248 240 273.5 230.5 Q299 221 318.5 207 Q338 193 349.5 172 Q361 151 361 120 Z " />
<glyph glyph-name="t" unicode="t" horiz-adv-x="304" d="M280 -1 Q268 -6 252 -9 Q236 -12 221 -12 Q167 -12 143.5 18.5 Q120 49 120 95 L120 441 L20 441 L20 460 L119 460 L119 595 L142 595 L142 460 L277 460 L277 441 L142 441 L142 95 Q142 48 165 27.5 Q188 7 226 7 Q254 7 277 16 L280 -1 L280 -1 Z " />
<glyph glyph-name="u" unicode="u" horiz-adv-x="572" d="M442 121 Q431 89 412.5 63.5 Q394 38 370 21 Q346 4 318 -5 Q290 -14 260 -14 Q212 -14 180 3 Q148 20 129 48 Q110 76 102 111 Q94 146 94 182 L94 460 L116 460 L116 184 Q116 155 122 123.5 Q128 92 144.5 66 Q161 40 188.5 22.5 Q216 5 260 5 Q298 5 331.5 20.5 Q365 36 389.5 65 Q414 94 428.5 135.5 Q443 177 443 230 L443 460 L465 460 L465 116 Q465 105 465.5 89 Q466 73 466.5 56.5 Q467 40 468 25 Q469 10 470 0 L448 0 Q447 10 446.5 25 Q446 40 445.5 57.5 Q445 75 444.5 91.5 Q444 108 444 121 L442 121 L442 121 Z " />
<glyph glyph-name="v" unicode="v" horiz-adv-x="434" d="M234 0 L205 0 L24 460 L48 460 L219 22 L221 22 L386 460 L410 460 L234 0 Z " />
<glyph glyph-name="w" unicode="w" horiz-adv-x="698" d="M529 0 L499 0 L349 436 L347 436 L198 0 L168 0 L34 460 L57 460 L183 22 L185 22 L333 460 L364 460 L513 22 L515 22 L641 460 L664 460 L529 0 Z " />
<glyph glyph-name="x" unicode="x" horiz-adv-x="452" d="M224 228 L56 0 L28 0 L210 243 L51 460 L79 460 L225 258 L370 460 L399 460 L239 243 L424 0 L395 0 L224 228 Z " />
<glyph glyph-name="y" unicode="y" horiz-adv-x="428" d="M176 -152 Q160 -195 133.5 -218.5 Q107 -242 65 -242 Q56 -242 44 -240 Q32 -238 24 -235 L30 -216 Q36 -218 46.5 -220 Q57 -222 67 -222 Q88 -222 103.5 -214 Q119 -206 130 -193.5 Q141 -181 148.5 -165 Q156 -149 162 -133 L206 -13 L24 460 L48 460 L217 12 L380 460 L404 460 L176 -152 Z " />
<glyph glyph-name="z" unicode="z" horiz-adv-x="438" d="M49 0 L49 21 L353 441 L65 441 L65 460 L375 460 L375 438 L74 19 L387 19 L387 0 L49 0 Z " />
<glyph glyph-name="braceleft" unicode="&#x7b;" horiz-adv-x="300" d="M0 297 Q16 297 30.5 302 Q45 307 55 319.5 Q65 332 71 354.5 Q77 377 77 412 L77 607 Q77 677 107 704.5 Q137 732 183 732 L230 732 L230 713 L183 713 Q139 713 119 685.5 Q99 658 99 607 L99 411 Q99 348 80 321 Q61 294 32 289 L32 287 Q61 282 80 255 Q99 228 99 165 L99 -31 Q99 -82 119 -109.5 Q139 -137 183 -137 L230 -137 L230 -156 L183 -156 Q160 -156 140.5 -149.5 Q121 -143 107 -128.5 Q93 -114 85 -90 Q77 -66 77 -31 L77 164 Q77 199 71 221.5 Q65 244 55 256.5 Q45 269 30.5 274 Q16 279 0 279 L0 297 Z " />
<glyph glyph-name="bar" unicode="&#x7c;" horiz-adv-x="222" d="M122 750 L122 -250 L100 -250 L100 750 L122 750 Z " />
<glyph glyph-name="braceright" unicode="&#x7d;" horiz-adv-x="300" d="M300 279 Q283 279 269 274 Q255 269 245 256.5 Q235 244 229 221.5 Q223 199 223 164 L223 -31 Q223 -66 215 -90 Q207 -114 193 -128.5 Q179 -143 159.5 -149.5 Q140 -156 117 -156 L70 -156 L70 -137 L117 -137 Q161 -137 181 -109.5 Q201 -82 201 -31 L201 165 Q201 228 220 255 Q239 282 268 287 L268 289 Q239 294 220 321 Q201 348 201 411 L201 607 Q201 658 181 685.5 Q161 713 117 713 L70 713 L70 732 L117 732 Q163 732 193 704.5 Q223 677 223 607 L223 412 Q223 377 229 354.5 Q235 332 245 319.5 Q255 307 269 302 Q283 297 300 297 L300 279 L300 279 Z " />
<glyph glyph-name="asciitilde" unicode="&#x7e;" horiz-adv-x="666" d="M93 264 Q125 319 157.5 338 Q190 357 225 357 Q253 357 275.5 349 Q298 341 325 322 Q369 291 396 281.5 Q423 272 444 272 Q484 272 511.5 297.5 Q539 323 560 357 L575 341 Q545 294 511.5 272.5 Q478 251 444 251 Q410 251 389 260 Q368 269 343 286 Q321 301 305 310.5 Q289 320 276.5 325.5 Q264 331 252.5 333.5 Q241 336 227 336 Q186 336 159 313 Q132 290 110 250 L93 264 L93 264 Z " />
<glyph glyph-name="uni00A0" unicode="&#xa0;" horiz-adv-x="250" d="" />
<glyph glyph-name="exclamdown" unicode="&#xa1;" horiz-adv-x="276" d="M138 441 Q129 441 122 448 Q115 455 115 467 Q115 478 122 485 Q129 492 138 492 Q147 492 154 485 Q161 478 161 467 Q161 455 153.5 448 Q146 441 138 441 Z M127 -222 L127 291 L149 291 L149 -222 L127 -222 Z " />
<glyph glyph-name="cent" unicode="&#xa2;" horiz-adv-x="560" d="M323 6 Q360 7 395 20 Q430 33 456 58 L471 44 Q442 15 402.5 1.5 Q363 -12 323 -13 L323 -72 L301 -72 L301 -13 Q254 -10 214 9 Q174 28 145 60 Q116 92 100 135 Q84 178 84 229 Q84 280 100 323 Q116 366 145 398.5 Q174 431 213.5 450.5 Q253 470 301 473 L301 540 L323 540 L323 473 Q365 472 403.5 456 Q442 440 469 412 L452 397 Q426 423 392.5 438 Q359 453 323 454 L323 6 Z M301 454 Q256 451 220 432 Q184 413 158.5 382 Q133 351 119.5 311.5 Q106 272 106 229 Q106 186 119.5 147 Q133 108 158.5 77.5 Q184 47 220 28 Q256 9 301 6 L301 454 Z " />
<glyph glyph-name="sterling" unicode="&#xa3;" horiz-adv-x="560" d="M377 379 L377 360 L207 360 L207 20 L463 20 L463 0 L76 0 L76 20 L185 20 L185 360 L87 360 L87 379 L185 379 L185 515 Q185 613 230.5 669.5 Q276 726 366 726 Q402 726 432 714.5 Q462 703 485 683 L471 667 Q450 685 423.5 695.5 Q397 706 366 706 Q323 706 293 691.5 Q263 677 244 651 Q225 625 216 589.5 Q207 554 207 512 L207 379 L377 379 Z " />
<glyph glyph-name="currency" unicode="&#xa4;" horiz-adv-x="560" d="M434 118 Q405 92 366 77.5 Q327 63 281 63 Q234 63 195.5 77.5 Q157 92 128 119 L38 30 L24 45 L113 134 Q87 163 72.5 203 Q58 243 58 291 Q58 336 71.5 374.5 Q85 413 110 442 L24 527 L39 542 L124 457 Q153 486 193 501.5 Q233 517 281 517 Q329 517 368.5 501.5 Q408 486 437 458 L521 542 L536 527 L452 443 Q478 414 491.5 375.5 Q505 337 505 291 Q505 243 490 202.5 Q475 162 448 132 L536 45 L522 30 L434 118 Z M485 291 Q485 334 471 372 Q457 410 430.5 438 Q404 466 366 482.5 Q328 499 281 499 Q234 499 196 482.5 Q158 466 132 438 Q106 410 92 372 Q78 334 78 291 Q78 247 92 209 Q106 171 132 142 Q158 113 196 96.5 Q234 80 281 80 Q328 80 366 96.5 Q404 113 430.5 142 Q457 171 471 209 Q485 247 485 291 Z " />
<glyph glyph-name="yen" unicode="&#xa5;" horiz-adv-x="560" d="M79 354 L79 373 L261 373 L26 708 L52 708 L281 377 L509 708 L534 708 L301 373 L481 373 L481 354 L291 354 L291 223 L481 223 L481 204 L291 204 L291 0 L269 0 L269 204 L79 204 L79 223 L269 223 L269 354 L79 354 Z " />
<glyph glyph-name="brokenbar" unicode="&#xa6;" horiz-adv-x="222" d="M103 344 L103 675 L120 675 L120 344 L103 344 Z M103 -175 L103 156 L120 156 L120 -175 L103 -175 Z " />
<glyph glyph-name="section" unicode="&#xa7;" horiz-adv-x="560" d="M317 147 Q368 126 397 95.5 Q426 65 426 15 Q426 -21 412 -49 Q398 -77 374.5 -95.5 Q351 -114 319.5 -124 Q288 -134 252 -134 Q200 -134 158 -116 Q116 -98 86 -66 L103 -49 Q159 -114 254 -114 Q284 -114 311.5 -106 Q339 -98 359.5 -82 Q380 -66 392 -42.5 Q404 -19 404 13 Q404 40 393 60.5 Q382 81 363.5 96 Q345 111 320.5 123 Q296 135 269 146 L232 161 Q199 174 173.5 187.5 Q148 201 131.5 217.5 Q115 234 106.5 256 Q98 278 98 309 Q98 340 110 364 Q122 388 141 405 Q160 422 183.5 432.5 Q207 443 229 447 Q204 458 185 469.5 Q166 481 152.5 496 Q139 511 132 531.5 Q125 552 125 581 Q125 616 138.5 643.5 Q152 671 175.5 689.5 Q199 708 230 718 Q261 728 297 728 Q344 728 382.5 713 Q421 698 445 665 L428 650 Q409 679 373 694 Q337 709 294 709 Q267 709 240.5 701 Q214 693 193 676.5 Q172 660 159 635.5 Q146 611 146 578 Q146 548 157 527.5 Q168 507 186 493 Q204 479 227.5 468.5 Q251 458 276 448 L308 435 Q343 421 370 406.5 Q397 392 415.5 374.5 Q434 357 443.5 336 Q453 315 453 287 Q453 255 441.5 230.5 Q430 206 411 188.5 Q392 171 367.5 161 Q343 151 317 147 Z M292 159 Q318 161 343 169.5 Q368 178 387.5 193.5 Q407 209 419 231.5 Q431 254 431 285 Q431 312 420 332.5 Q409 353 390.5 369 Q372 385 347 396.5 Q322 408 295 419 L254 435 Q231 432 207 423 Q183 414 163.5 398.5 Q144 383 132 360 Q120 337 120 306 Q120 277 131 256.5 Q142 236 160 221 Q178 206 201 195.5 Q224 185 248 176 L292 159 Z " />
<glyph glyph-name="dieresis" unicode="&#xa8;" horiz-adv-x="240" d="M43 633 Q34 633 27 640 Q20 647 20 659 Q20 670 27 677 Q34 684 43 684 Q52 684 59 677 Q66 670 66 659 Q66 647 58.5 640 Q51 633 43 633 Z M197 633 Q188 633 181 640 Q174 647 174 659 Q174 670 181 677 Q188 684 197 684 Q206 684 213 677 Q220 670 220 659 Q220 647 212.5 640 Q205 633 197 633 Z " />
<glyph glyph-name="copyright" unicode="&#xa9;" horiz-adv-x="800" d="M20 353 Q20 432 50 500.5 Q80 569 131.5 620 Q183 671 252.5 700.5 Q322 730 401 730 Q479 730 548 700.5 Q617 671 668.5 620 Q720 569 750 500.5 Q780 432 780 353 Q780 275 750 206.5 Q720 138 668.5 87 Q617 36 548 7 Q479 -22 401 -22 Q322 -22 252.5 7 Q183 36 131.5 87 Q80 138 50 206.5 Q20 275 20 353 Z M42 353 Q42 279 70.5 215 Q99 151 147.5 103 Q196 55 261.5 27.5 Q327 0 401 0 Q474 0 539 27.5 Q604 55 653 103 Q702 151 730 215 Q758 279 758 353 Q758 427 730 491.5 Q702 556 653 604 Q604 652 539 680 Q474 708 401 708 Q327 708 261.5 680 Q196 652 147.5 604 Q99 556 70.5 491.5 Q42 427 42 353 Z M538 505 Q515 530 483 544 Q451 558 417 558 Q373 558 337 541.5 Q301 525 275.5 496.5 Q250 468 236.5 430.5 Q223 393 223 351 Q223 309 236.5 272 Q250 235 275.5 207 Q301 179 337 162.5 Q373 146 417 146 Q452 146 485 158.5 Q518 171 542 194 L557 180 Q529 152 492 139 Q455 126 417 126 Q370 126 330.5 142.5 Q291 159 262 189 Q233 219 217 260.5 Q201 302 201 351 Q201 400 217 441.5 Q233 483 262 513 Q291 543 330.5 560 Q370 577 417 577 Q457 577 493 561.5 Q529 546 555 520 L538 505 Z " />
<glyph glyph-name="ordfeminine" unicode="&#xaa;" horiz-adv-x="350" d="M266 615 Q266 659 243 680.5 Q220 702 177 702 Q147 702 121 691.5 Q95 681 77 663 L66 680 Q83 697 112 708.5 Q141 720 177 720 Q226 720 256 694.5 Q286 669 286 618 L286 494 Q286 478 287.5 460.5 Q289 443 291 431 L271 431 Q269 442 267.5 456 Q266 470 266 495 L265 495 Q247 458 214 441 Q181 424 147 424 Q131 424 113.5 428.5 Q96 433 82 443 Q68 453 58.5 469.5 Q49 486 49 509 Q49 542 67.5 560.5 Q86 579 116.5 589 Q147 599 186 601.5 Q225 604 266 604 L266 615 Z M251 586 Q214 586 181 583.5 Q148 581 123 573 Q98 565 83.5 549.5 Q69 534 69 509 Q69 490 76.5 477.5 Q84 465 96 457.5 Q108 450 123 446.5 Q138 443 153 443 Q180 443 201 452.5 Q222 462 236.5 478 Q251 494 258.5 515 Q266 536 266 559 L266 586 L251 586 Z " />
<glyph glyph-name="guillemotleft" unicode="&#xab;" horiz-adv-x="481" d="M371 40 L248 237 L370 433 L386 422 L273 237 L387 52 L371 40 Z M205 40 L82 237 L204 433 L220 422 L107 237 L221 52 L205 40 Z " />
<glyph glyph-name="logicalnot" unicode="&#xac;" horiz-adv-x="666" d="M551 134 L551 380 L94 380 L94 399 L573 399 L573 134 L551 134 Z " />
<glyph glyph-name="uni00AD" unicode="&#xad;" horiz-adv-x="300" d="M60 244 L60 264 L240 264 L240 244 L60 244 Z " />
<glyph glyph-name="registered" unicode="&#xae;" horiz-adv-x="600" d="M374 371 L300 481 L245 481 L245 371 L224 371 L224 622 L308 622 Q346 622 368 604.5 Q390 587 390 552 Q390 519 369 502.5 Q348 486 323 484 L400 371 L374 371 Z M369 553 Q369 583 350 593 Q331 603 308 603 L245 603 L245 498 L293 498 Q328 498 348.5 509.5 Q369 521 369 553 Z M72 494 Q72 541 90 582.5 Q108 624 139 654.5 Q170 685 212 702.5 Q254 720 301 720 Q348 720 389.5 702.5 Q431 685 461.5 654.5 Q492 624 510 582.5 Q528 541 528 494 Q528 447 510 406 Q492 365 461.5 334.5 Q431 304 389.5 286.5 Q348 269 301 269 Q254 269 212 286.5 Q170 304 139 334.5 Q108 365 90 406 Q72 447 72 494 Z M93 494 Q93 452 109.5 414.5 Q126 377 154.5 349 Q183 321 220.5 304.5 Q258 288 301 288 Q343 288 380.5 304.5 Q418 321 446 349 Q474 377 490.5 414.5 Q507 452 507 494 Q507 536 490.5 573.5 Q474 611 446 639 Q418 667 380.5 683.5 Q343 700 301 700 Q258 700 220.5 683.5 Q183 667 154.5 639 Q126 611 109.5 573.5 Q93 536 93 494 Z " />
<glyph glyph-name="macron" unicode="&#xaf;" horiz-adv-x="240" d="M4 621 L4 641 L236 641 L236 621 L4 621 Z " />
<glyph glyph-name="degree" unicode="&#xb0;" horiz-adv-x="400" d="M345 571 Q345 541 333.5 514.5 Q322 488 302.5 468.5 Q283 449 256.5 437.5 Q230 426 200 426 Q170 426 143.5 437.5 Q117 449 97.5 468.5 Q78 488 66.5 514.5 Q55 541 55 571 Q55 601 66.5 627.5 Q78 654 97.5 673.5 Q117 693 143.5 704.5 Q170 716 200 716 Q230 716 256.5 704.5 Q283 693 302.5 673.5 Q322 654 333.5 627.5 Q345 601 345 571 Z M325 571 Q325 597 315 619.5 Q305 642 288 659 Q271 676 248.5 686 Q226 696 200 696 Q174 696 151.5 686 Q129 676 112 659 Q95 642 85 619.5 Q75 597 75 571 Q75 545 85 522.5 Q95 500 112 483 Q129 466 151.5 456 Q174 446 200 446 Q226 446 248.5 456 Q271 466 288 483 Q305 500 315 522.5 Q325 545 325 571 Z " />
<glyph glyph-name="plusminus" unicode="&#xb1;" horiz-adv-x="666" d="M342 342 L342 150 L320 150 L320 342 L94 342 L94 362 L319 362 L319 558 L341 558 L341 362 L573 362 L573 342 L342 342 Z M98 48 L98 68 L569 68 L569 48 L98 48 Z " />
<glyph glyph-name="twosuperior" unicode="&#xb2;" horiz-adv-x="350" d="M298 306 L298 288 L49 288 L49 308 L203 477 Q226 502 240 521.5 Q254 541 262 556.5 Q270 572 273 584.5 Q276 597 276 609 Q276 654 249.5 677.5 Q223 701 181 701 Q146 701 119.5 683.5 Q93 666 82 626 L63 632 Q75 679 108 699 Q141 719 181 719 Q239 719 268 687.5 Q297 656 297 614 Q297 594 293.5 578.5 Q290 563 280.5 546 Q271 529 254.5 509 Q238 489 212 461 L71 306 L298 306 Z " />
<glyph glyph-name="threesuperior" unicode="&#xb3;" horiz-adv-x="350" d="M284 399 Q284 339 248 308.5 Q212 278 160 278 Q115 278 84.5 297.5 Q54 317 39 348 L57 355 Q73 323 102.5 309.5 Q132 296 160 296 Q211 296 238 324 Q265 352 265 400 Q265 425 254.5 444 Q244 463 226.5 475.5 Q209 488 187.5 494.5 Q166 501 144 501 L127 501 L127 519 L143 519 Q197 519 223.5 548 Q250 577 250 614 Q250 659 223 681 Q196 703 160 703 Q133 703 110 691 Q87 679 75 660 L60 671 Q77 694 101.5 707 Q126 720 160 720 Q214 720 241.5 691 Q269 662 269 614 Q269 569 244 542.5 Q219 516 177 511 L177 509 Q228 504 256 474.5 Q284 445 284 399 Z " />
<glyph glyph-name="acute" unicode="&#xb4;" horiz-adv-x="240" d="M109 564 L90 564 L193 708 L220 708 L109 564 Z " />
<glyph glyph-name="mu" unicode="&#xb5;" horiz-adv-x="556" d="M116 460 L116 184 Q116 155 122 123.5 Q128 92 144.5 66 Q161 40 188.5 22.5 Q216 5 260 5 Q298 5 331.5 20.5 Q365 36 389.5 65 Q414 94 428.5 135.5 Q443 177 443 230 L443 460 L465 460 L465 116 Q465 105 465.5 89 Q466 73 466.5 56.5 Q467 40 467.5 25 Q468 10 468 0 L444 0 L444 121 L442 121 Q431 89 412.5 63.5 Q394 38 370 21 Q346 4 318 -5 Q290 -14 260 -14 Q203 -14 168 10 Q133 34 116 72 L116 -228 L94 -228 L94 460 L116 460 Z " />
<glyph glyph-name="paragraph" unicode="&#xb6;" horiz-adv-x="600" d="M467 -126 L467 691 L312 691 L312 -126 L290 -126 L290 341 Q240 341 200.5 355 Q161 369 133.5 393.5 Q106 418 91 450.5 Q76 483 76 519 Q76 613 134 660.5 Q192 708 298 708 L489 708 L489 -126 L467 -126 Z " />
<glyph glyph-name="periodcentered" unicode="&#xb7;" horiz-adv-x="240" d="M120 229 Q111 229 104 236 Q97 243 97 255 Q97 266 104 273 Q111 280 120 280 Q129 280 136 273 Q143 266 143 255 Q143 243 135.5 236 Q128 229 120 229 Z " />
<glyph glyph-name="cedilla" unicode="&#xb8;" horiz-adv-x="240" d="M219 -146 Q219 -170 207.5 -185.5 Q196 -201 179 -210 Q162 -219 142.5 -222.5 Q123 -226 107 -226 Q88 -226 63.5 -221 Q39 -216 17 -206 L22 -189 Q41 -199 65.5 -203 Q90 -207 108 -207 Q123 -207 138.5 -204.5 Q154 -202 167.5 -195.5 Q181 -189 189.5 -177 Q198 -165 198 -146 Q198 -130 191 -120 Q184 -110 173.5 -104.5 Q163 -99 150.5 -97 Q138 -95 126 -95 Q112 -95 90.5 -99 Q69 -103 57 -110 L47 -101 L116 0 L137 0 L78 -86 Q92 -81 105 -79.5 Q118 -78 132 -78 Q147 -78 162.5 -81.5 Q178 -85 190.5 -92.5 Q203 -100 211 -113.5 Q219 -127 219 -146 Z " />
<glyph glyph-name="onesuperior" unicode="&#xb9;" horiz-adv-x="350" d="M169 288 L169 686 L73 622 L61 638 L170 708 L191 708 L191 288 L169 288 Z " />
<glyph glyph-name="ordmasculine" unicode="&#xba;" horiz-adv-x="350" d="M317 573 Q317 540 306.5 513 Q296 486 277.5 466 Q259 446 232.5 435 Q206 424 175 424 Q143 424 117 435 Q91 446 72.5 466 Q54 486 43.5 513 Q33 540 33 573 Q33 606 43.5 633 Q54 660 72.5 679.5 Q91 699 117 710 Q143 721 175 721 Q206 721 232.5 710 Q259 699 277.5 679.5 Q296 660 306.5 633 Q317 606 317 573 Z M53 573 Q53 546 61.5 522 Q70 498 85.5 480 Q101 462 123.5 451.5 Q146 441 175 441 Q204 441 226.5 451.5 Q249 462 265 480 Q281 498 289 522 Q297 546 297 573 Q297 600 289 623.5 Q281 647 265 665 Q249 683 226.5 693 Q204 703 175 703 Q146 703 123.5 693 Q101 683 85.5 665 Q70 647 61.5 623.5 Q53 600 53 573 Z " />
<glyph glyph-name="guillemotright" unicode="&#xbb;" horiz-adv-x="481" d="M277 41 L261 52 L374 237 L260 422 L276 434 L399 237 L277 41 Z M111 41 L95 52 L208 237 L94 422 L110 434 L233 237 L111 41 Z " />
<glyph glyph-name="onequarter" unicode="&#xbc;" horiz-adv-x="800" d="M455 107 L455 129 L640 425 L671 425 L671 125 L738 125 L738 107 L671 107 L671 0 L651 0 L651 107 L455 107 Z M651 125 L651 402 L648 402 L475 125 L651 125 Z M172 -27 L156 -16 L596 736 L612 725 L172 -27 Z M169 288 L169 686 L73 622 L61 638 L170 708 L191 708 L191 288 L169 288 Z " />
<glyph glyph-name="onehalf" unicode="&#xbd;" horiz-adv-x="800" d="M172 -27 L156 -16 L596 736 L612 725 L172 -27 Z M727 18 L727 0 L478 0 L478 20 L632 189 Q655 214 669 233.5 Q683 253 691 268.5 Q699 284 702 296.5 Q705 309 705 321 Q705 366 678.5 389.5 Q652 413 610 413 Q575 413 548.5 395.5 Q522 378 511 338 L492 344 Q504 391 537 411 Q570 431 610 431 Q668 431 697 399.5 Q726 368 726 326 Q726 306 722.5 290.5 Q719 275 709.5 258 Q700 241 683.5 221 Q667 201 641 173 L500 18 L727 18 Z M169 288 L169 686 L73 622 L61 638 L170 708 L191 708 L191 288 L169 288 Z " />
<glyph glyph-name="threequarters" unicode="&#xbe;" horiz-adv-x="800" d="M455 107 L455 129 L640 425 L671 425 L671 125 L738 125 L738 107 L671 107 L671 0 L651 0 L651 107 L455 107 Z M651 125 L651 402 L648 402 L475 125 L651 125 Z M172 -27 L156 -16 L596 736 L612 725 L172 -27 Z M284 399 Q284 339 248 308.5 Q212 278 160 278 Q115 278 84.5 297.5 Q54 317 39 348 L57 355 Q73 323 102.5 309.5 Q132 296 160 296 Q211 296 238 324 Q265 352 265 400 Q265 425 254.5 444 Q244 463 226.5 475.5 Q209 488 187.5 494.5 Q166 501 144 501 L127 501 L127 519 L143 519 Q197 519 223.5 548 Q250 577 250 614 Q250 659 223 681 Q196 703 160 703 Q133 703 110 691 Q87 679 75 660 L60 671 Q77 694 101.5 707 Q126 720 160 720 Q214 720 241.5 691 Q269 662 269 614 Q269 569 244 542.5 Q219 516 177 511 L177 509 Q228 504 256 474.5 Q284 445 284 399 Z " />
<glyph glyph-name="questiondown" unicode="&#xbf;" horiz-adv-x="472" d="M230 441 Q222 441 214.5 448 Q207 455 207 467 Q207 478 214 485 Q221 492 230 492 Q239 492 246 485 Q253 478 253 467 Q253 455 246 448 Q239 441 230 441 Z M221 286 L243 286 L243 233 Q243 200 230 165 Q217 130 174 96 L140 66 Q125 52 112.5 38.5 Q100 25 90.5 9.5 Q81 -6 75.5 -25.5 Q70 -45 70 -70 Q70 -106 82.5 -134 Q95 -162 117 -181 Q139 -200 168.5 -209.5 Q198 -219 231 -219 Q300 -219 343 -178.5 Q386 -138 397 -75 L418 -79 Q404 -157 353 -198.5 Q302 -240 229 -240 Q191 -240 158.5 -229 Q126 -218 101 -196.5 Q76 -175 62 -143.5 Q48 -112 48 -71 Q48 -40 55.5 -16 Q63 8 75.5 26.5 Q88 45 104 60.5 Q120 76 138 91 Q164 112 180 129.5 Q196 147 205 163.5 Q214 180 217.5 199 Q221 218 221 242 L221 286 Z " />
<glyph glyph-name="Agrave" unicode="&#xc0;" horiz-adv-x="666" d="M624 0 L540 203 L129 203 L42 0 L18 0 L325 708 L353 708 L648 0 L624 0 Z M338 694 L137 222 L533 222 L338 694 Z M248 908 L351 764 L332 764 L221 908 L248 908 Z " />
<glyph glyph-name="Aacute" unicode="&#xc1;" horiz-adv-x="666" d="M624 0 L540 203 L129 203 L42 0 L18 0 L325 708 L353 708 L648 0 L624 0 Z M338 694 L137 222 L533 222 L338 694 Z M344 764 L325 764 L428 908 L455 908 L344 764 Z " />
<glyph glyph-name="Acircumflex" unicode="&#xc2;" horiz-adv-x="666" d="M624 0 L540 203 L129 203 L42 0 L18 0 L325 708 L353 708 L648 0 L624 0 Z M338 694 L137 222 L533 222 L338 694 Z M352 908 L455 764 L432 764 L338 896 L244 764 L221 764 L324 908 L352 908 Z " />
<glyph glyph-name="Atilde" unicode="&#xc3;" horiz-adv-x="666" d="M624 0 L540 203 L129 203 L42 0 L18 0 L325 708 L353 708 L648 0 L624 0 Z M338 694 L137 222 L533 222 L338 694 Z M342 838 Q355 830 364 825 Q373 820 379.5 817.5 Q386 815 390.5 814.5 Q395 814 401 814 Q434 814 441 862 L457 862 Q453 826 437 810.5 Q421 795 401 795 Q385 795 372.5 800 Q360 805 337 819 Q311 835 300 839 Q289 843 278 843 Q246 843 238 792 L222 792 Q226 828 242 845 Q258 862 278 862 Q294 862 307 857 Q320 852 342 838 Z " />
<glyph glyph-name="Adieresis" unicode="&#xc4;" horiz-adv-x="666" d="M624 0 L540 203 L129 203 L42 0 L18 0 L325 708 L353 708 L648 0 L624 0 Z M338 694 L137 222 L533 222 L338 694 Z M261 833 Q252 833 245 840 Q238 847 238 859 Q238 870 245 877 Q252 884 261 884 Q270 884 277 877 Q284 870 284 859 Q284 847 276.5 840 Q269 833 261 833 Z M415 833 Q406 833 399 840 Q392 847 392 859 Q392 870 399 877 Q406 884 415 884 Q424 884 431 877 Q438 870 438 859 Q438 847 430.5 840 Q423 833 415 833 Z " />
<glyph glyph-name="Aring" unicode="&#xc5;" horiz-adv-x="666" d="M624 0 L540 203 L129 203 L42 0 L18 0 L325 708 L353 708 L648 0 L624 0 Z M338 694 L137 222 L533 222 L338 694 Z M434 850 Q434 830 426.5 812.5 Q419 795 405.5 782 Q392 769 374.5 762 Q357 755 338 755 Q318 755 301 762 Q284 769 270.5 782 Q257 795 249.5 812.5 Q242 830 242 850 Q242 870 249.5 887.5 Q257 905 270.5 917.5 Q284 930 301 937.5 Q318 945 338 945 Q357 945 374.5 937.5 Q392 930 405.5 917.5 Q419 905 426.5 887.5 Q434 870 434 850 Z M415 850 Q415 882 392.5 905 Q370 928 338 928 Q306 928 283.5 905 Q261 882 261 850 Q261 818 283.5 795 Q306 772 338 772 Q370 772 392.5 795 Q415 818 415 850 Z " />
<glyph glyph-name="AE" unicode="&#xc6;" horiz-adv-x="968" d="M491 0 L491 206 L167 206 L32 0 L6 0 L466 708 L895 708 L895 688 L513 688 L513 377 L871 377 L871 357 L513 357 L513 20 L912 20 L912 0 L491 0 Z M491 688 L478 688 L180 226 L491 226 L491 688 Z " />
<glyph glyph-name="Ccedilla" unicode="&#xc7;" horiz-adv-x="724" d="M535 -146 Q535 -170 523.5 -185.5 Q512 -201 495 -210 Q478 -219 458.5 -222.5 Q439 -226 423 -226 Q404 -226 379.5 -221 Q355 -216 333 -206 L338 -189 Q357 -199 381.5 -203 Q406 -207 424 -207 Q439 -207 454.5 -204.5 Q470 -202 483.5 -195.5 Q497 -189 505.5 -177 Q514 -165 514 -146 Q514 -130 507 -120 Q500 -110 489.5 -104.5 Q479 -99 466.5 -97 Q454 -95 442 -95 Q428 -95 406.5 -99 Q385 -103 373 -110 L363 -101 L418 -19 Q341 -16 277.5 12.5 Q214 41 168.5 90.5 Q123 140 97.5 207 Q72 274 72 354 Q72 435 98.5 504 Q125 573 173 622.5 Q221 672 287.5 700 Q354 728 433 728 Q499 728 561.5 705.5 Q624 683 668 637 L654 621 Q633 643 606.5 659.5 Q580 676 550.5 687 Q521 698 491 703 Q461 708 433 708 Q357 708 294.5 680.5 Q232 653 187.5 605 Q143 557 118.5 492.5 Q94 428 94 354 Q94 280 118 215.5 Q142 151 186.5 103 Q231 55 293.5 27.5 Q356 0 433 0 Q499 0 563.5 25.5 Q628 51 670 102 L686 87 Q664 60 635.5 40.5 Q607 21 575 7.5 Q543 -6 508 -12.5 Q473 -19 439 -20 L394 -86 Q408 -81 421 -79.5 Q434 -78 448 -78 Q463 -78 478.5 -81.5 Q494 -85 506.5 -92.5 Q519 -100 527 -113.5 Q535 -127 535 -146 Z " />
<glyph glyph-name="Egrave" unicode="&#xc8;" horiz-adv-x="590" d="M106 0 L106 708 L518 708 L518 688 L127 688 L127 377 L495 377 L495 357 L127 357 L127 20 L534 20 L534 0 L106 0 Z M233 908 L336 764 L317 764 L206 908 L233 908 Z " />
<glyph glyph-name="Eacute" unicode="&#xc9;" horiz-adv-x="590" d="M106 0 L106 708 L518 708 L518 688 L127 688 L127 377 L495 377 L495 357 L127 357 L127 20 L534 20 L534 0 L106 0 Z M306 764 L287 764 L390 908 L417 908 L306 764 Z " />
<glyph glyph-name="Ecircumflex" unicode="&#xca;" horiz-adv-x="590" d="M106 0 L106 708 L518 708 L518 688 L127 688 L127 377 L495 377 L495 357 L127 357 L127 20 L534 20 L534 0 L106 0 Z M329 908 L432 764 L409 764 L315 896 L221 764 L198 764 L301 908 L329 908 Z " />
<glyph glyph-name="Edieresis" unicode="&#xcb;" horiz-adv-x="590" d="M106 0 L106 708 L518 708 L518 688 L127 688 L127 377 L495 377 L495 357 L127 357 L127 20 L534 20 L534 0 L106 0 Z M238 833 Q229 833 222 840 Q215 847 215 859 Q215 870 222 877 Q229 884 238 884 Q247 884 254 877 Q261 870 261 859 Q261 847 253.5 840 Q246 833 238 833 Z M392 833 Q383 833 376 840 Q369 847 369 859 Q369 870 376 877 Q383 884 392 884 Q401 884 408 877 Q415 870 415 859 Q415 847 407.5 840 Q400 833 392 833 Z " />
<glyph glyph-name="Igrave" unicode="&#xcc;" horiz-adv-x="234" d="M106 0 L106 708 L128 708 L128 0 L106 0 Z M26 908 L129 764 L110 764 L-1 908 L26 908 Z " />
<glyph glyph-name="Iacute" unicode="&#xcd;" horiz-adv-x="234" d="M106 0 L106 708 L128 708 L128 0 L106 0 Z M123 764 L104 764 L207 908 L234 908 L123 764 Z " />
<glyph glyph-name="Icircumflex" unicode="&#xce;" horiz-adv-x="234" d="M106 0 L106 708 L128 708 L128 0 L106 0 Z M130 908 L233 764 L210 764 L116 896 L22 764 L-1 764 L102 908 L130 908 Z " />
<glyph glyph-name="Idieresis" unicode="&#xcf;" horiz-adv-x="234" d="M106 0 L106 708 L128 708 L128 0 L106 0 Z M40 833 Q31 833 24 840 Q17 847 17 859 Q17 870 24 877 Q31 884 40 884 Q49 884 56 877 Q63 870 63 859 Q63 847 55.5 840 Q48 833 40 833 Z M194 833 Q185 833 178 840 Q171 847 171 859 Q171 870 178 877 Q185 884 194 884 Q203 884 210 877 Q217 870 217 859 Q217 847 209.5 840 Q202 833 194 833 Z " />
<glyph glyph-name="Eth" unicode="&#xd0;" horiz-adv-x="770" d="M26 358 L26 378 L106 378 L106 708 L307 708 Q389 708 460.5 687.5 Q532 667 585 623.5 Q638 580 668 513 Q698 446 698 354 Q698 262 668 195.5 Q638 129 585 85.5 Q532 42 460.5 21 Q389 0 307 0 L106 0 L106 358 L26 358 Z M397 378 L397 358 L129 358 L129 20 L302 20 Q380 20 448.5 39.5 Q517 59 567 99.5 Q617 140 646 203 Q675 266 675 354 Q675 442 646 505.5 Q617 569 567 609.5 Q517 650 448.5 669 Q380 688 302 688 L129 688 L129 378 L397 378 Z " />
<glyph glyph-name="Ntilde" unicode="&#xd1;" horiz-adv-x="777" d="M639 0 L131 680 L128 680 L128 0 L106 0 L106 708 L137 708 L646 29 L649 29 L649 708 L671 708 L671 0 L639 0 Z M395 838 Q408 830 417 825 Q426 820 432.5 817.5 Q439 815 443.5 814.5 Q448 814 454 814 Q487 814 494 862 L510 862 Q506 826 490 810.5 Q474 795 454 795 Q438 795 425.5 800 Q413 805 390 819 Q364 835 353 839 Q342 843 331 843 Q299 843 291 792 L275 792 Q279 828 295 845 Q311 862 331 862 Q347 862 360 857 Q373 852 395 838 Z " />
<glyph glyph-name="Ograve" unicode="&#xd2;" horiz-adv-x="872" d="M800 354 Q800 272 772.5 203.5 Q745 135 696.5 85.5 Q648 36 581 8 Q514 -20 436 -20 Q358 -20 291 8 Q224 36 175.5 85.5 Q127 135 99.5 203.5 Q72 272 72 354 Q72 436 99.5 504.5 Q127 573 175.5 622.5 Q224 672 290.5 700 Q357 728 436 728 Q515 728 581.5 700 Q648 672 696.5 622.5 Q745 573 772.5 504.5 Q800 436 800 354 Z M778 354 Q778 428 753 492.5 Q728 557 682.5 605 Q637 653 574 680.5 Q511 708 436 708 Q361 708 298 680.5 Q235 653 189.5 605 Q144 557 119 492.5 Q94 428 94 354 Q94 280 118.5 215.5 Q143 151 188 103 Q233 55 296 27.5 Q359 0 436 0 Q513 0 576 27.5 Q639 55 684 103 Q729 151 753.5 215.5 Q778 280 778 354 Z M369 908 L472 764 L453 764 L342 908 L369 908 Z " />
<glyph glyph-name="Oacute" unicode="&#xd3;" horiz-adv-x="872" d="M800 354 Q800 272 772.5 203.5 Q745 135 696.5 85.5 Q648 36 581 8 Q514 -20 436 -20 Q358 -20 291 8 Q224 36 175.5 85.5 Q127 135 99.5 203.5 Q72 272 72 354 Q72 436 99.5 504.5 Q127 573 175.5 622.5 Q224 672 290.5 700 Q357 728 436 728 Q515 728 581.5 700 Q648 672 696.5 622.5 Q745 573 772.5 504.5 Q800 436 800 354 Z M778 354 Q778 428 753 492.5 Q728 557 682.5 605 Q637 653 574 680.5 Q511 708 436 708 Q361 708 298 680.5 Q235 653 189.5 605 Q144 557 119 492.5 Q94 428 94 354 Q94 280 118.5 215.5 Q143 151 188 103 Q233 55 296 27.5 Q359 0 436 0 Q513 0 576 27.5 Q639 55 684 103 Q729 151 753.5 215.5 Q778 280 778 354 Z M429 764 L410 764 L513 908 L540 908 L429 764 Z " />
<glyph glyph-name="Ocircumflex" unicode="&#xd4;" horiz-adv-x="872" d="M800 354 Q800 272 772.5 203.5 Q745 135 696.5 85.5 Q648 36 581 8 Q514 -20 436 -20 Q358 -20 291 8 Q224 36 175.5 85.5 Q127 135 99.5 203.5 Q72 272 72 354 Q72 436 99.5 504.5 Q127 573 175.5 622.5 Q224 672 290.5 700 Q357 728 436 728 Q515 728 581.5 700 Q648 672 696.5 622.5 Q745 573 772.5 504.5 Q800 436 800 354 Z M778 354 Q778 428 753 492.5 Q728 557 682.5 605 Q637 653 574 680.5 Q511 708 436 708 Q361 708 298 680.5 Q235 653 189.5 605 Q144 557 119 492.5 Q94 428 94 354 Q94 280 118.5 215.5 Q143 151 188 103 Q233 55 296 27.5 Q359 0 436 0 Q513 0 576 27.5 Q639 55 684 103 Q729 151 753.5 215.5 Q778 280 778 354 Z M452 908 L555 764 L532 764 L438 896 L344 764 L321 764 L424 908 L452 908 Z " />
<glyph glyph-name="Otilde" unicode="&#xd5;" horiz-adv-x="872" d="M800 354 Q800 272 772.5 203.5 Q745 135 696.5 85.5 Q648 36 581 8 Q514 -20 436 -20 Q358 -20 291 8 Q224 36 175.5 85.5 Q127 135 99.5 203.5 Q72 272 72 354 Q72 436 99.5 504.5 Q127 573 175.5 622.5 Q224 672 290.5 700 Q357 728 436 728 Q515 728 581.5 700 Q648 672 696.5 622.5 Q745 573 772.5 504.5 Q800 436 800 354 Z M778 354 Q778 428 753 492.5 Q728 557 682.5 605 Q637 653 574 680.5 Q511 708 436 708 Q361 708 298 680.5 Q235 653 189.5 605 Q144 557 119 492.5 Q94 428 94 354 Q94 280 118.5 215.5 Q143 151 188 103 Q233 55 296 27.5 Q359 0 436 0 Q513 0 576 27.5 Q639 55 684 103 Q729 151 753.5 215.5 Q778 280 778 354 Z M441 838 Q454 830 463 825 Q472 820 478.5 817.5 Q485 815 489.5 814.5 Q494 814 500 814 Q533 814 540 862 L556 862 Q552 826 536 810.5 Q520 795 500 795 Q484 795 471.5 800 Q459 805 436 819 Q410 835 399 839 Q388 843 377 843 Q345 843 337 792 L321 792 Q325 828 341 845 Q357 862 377 862 Q393 862 406 857 Q419 852 441 838 Z " />
<glyph glyph-name="Odieresis" unicode="&#xd6;" horiz-adv-x="872" d="M800 354 Q800 272 772.5 203.5 Q745 135 696.5 85.5 Q648 36 581 8 Q514 -20 436 -20 Q358 -20 291 8 Q224 36 175.5 85.5 Q127 135 99.5 203.5 Q72 272 72 354 Q72 436 99.5 504.5 Q127 573 175.5 622.5 Q224 672 290.5 700 Q357 728 436 728 Q515 728 581.5 700 Q648 672 696.5 622.5 Q745 573 772.5 504.5 Q800 436 800 354 Z M778 354 Q778 428 753 492.5 Q728 557 682.5 605 Q637 653 574 680.5 Q511 708 436 708 Q361 708 298 680.5 Q235 653 189.5 605 Q144 557 119 492.5 Q94 428 94 354 Q94 280 118.5 215.5 Q143 151 188 103 Q233 55 296 27.5 Q359 0 436 0 Q513 0 576 27.5 Q639 55 684 103 Q729 151 753.5 215.5 Q778 280 778 354 Z M361 833 Q352 833 345 840 Q338 847 338 859 Q338 870 345 877 Q352 884 361 884 Q370 884 377 877 Q384 870 384 859 Q384 847 376.5 840 Q369 833 361 833 Z M515 833 Q506 833 499 840 Q492 847 492 859 Q492 870 499 877 Q506 884 515 884 Q524 884 531 877 Q538 870 538 859 Q538 847 530.5 840 Q523 833 515 833 Z " />
<glyph glyph-name="multiply" unicode="&#xd7;" horiz-adv-x="666" d="M527 128 L513 115 L334 294 L155 115 L141 128 L321 308 L141 488 L154 501 L334 321 L514 501 L527 488 L347 308 L527 128 Z " />
<glyph glyph-name="Oslash" unicode="&#xd8;" horiz-adv-x="872" d="M640 632 Q598 667 543 687.5 Q488 708 423 708 Q348 708 285 680.5 Q222 653 176.5 605 Q131 557 106 492.5 Q81 428 81 354 Q81 279 107 213 Q133 147 181 98 L640 632 Z M670 636 Q725 586 756 514.5 Q787 443 787 354 Q787 272 759.5 203.5 Q732 135 683.5 85.5 Q635 36 568 8 Q501 -20 423 -20 Q352 -20 290.5 3 Q229 26 181 68 L113 -11 L99 3 L167 81 Q116 130 87.5 199.5 Q59 269 59 354 Q59 436 86.5 504.5 Q114 573 162.5 622.5 Q211 672 277.5 700 Q344 728 423 728 Q490 728 548.5 707.5 Q607 687 655 649 L722 727 L737 714 L670 636 Z M195 84 Q239 45 296 22.5 Q353 0 423 0 Q500 0 563 27.5 Q626 55 671 103 Q716 151 740.5 215.5 Q765 280 765 354 Q765 433 736.5 501 Q708 569 655 619 L195 84 Z " />
<glyph glyph-name="Ugrave" unicode="&#xd9;" horiz-adv-x="732" d="M636 268 Q636 208 622 155.5 Q608 103 576 64 Q544 25 492.5 2.5 Q441 -20 366 -20 Q291 -20 239.5 2.5 Q188 25 156 64 Q124 103 110 155.5 Q96 208 96 268 L96 708 L118 708 L118 272 Q118 230 126.5 182.5 Q135 135 161.5 94.5 Q188 54 236.5 27 Q285 0 366 0 Q445 0 493.5 26 Q542 52 569 92.5 Q596 133 605 180.5 Q614 228 614 272 L614 708 L636 708 L636 268 Z M298 908 L401 764 L382 764 L271 908 L298 908 Z " />
<glyph glyph-name="Uacute" unicode="&#xda;" horiz-adv-x="732" d="M636 268 Q636 208 622 155.5 Q608 103 576 64 Q544 25 492.5 2.5 Q441 -20 366 -20 Q291 -20 239.5 2.5 Q188 25 156 64 Q124 103 110 155.5 Q96 208 96 268 L96 708 L118 708 L118 272 Q118 230 126.5 182.5 Q135 135 161.5 94.5 Q188 54 236.5 27 Q285 0 366 0 Q445 0 493.5 26 Q542 52 569 92.5 Q596 133 605 180.5 Q614 228 614 272 L614 708 L636 708 L636 268 Z M342 764 L323 764 L426 908 L453 908 L342 764 Z " />
<glyph glyph-name="Ucircumflex" unicode="&#xdb;" horiz-adv-x="732" d="M636 268 Q636 208 622 155.5 Q608 103 576 64 Q544 25 492.5 2.5 Q441 -20 366 -20 Q291 -20 239.5 2.5 Q188 25 156 64 Q124 103 110 155.5 Q96 208 96 268 L96 708 L118 708 L118 272 Q118 230 126.5 182.5 Q135 135 161.5 94.5 Q188 54 236.5 27 Q285 0 366 0 Q445 0 493.5 26 Q542 52 569 92.5 Q596 133 605 180.5 Q614 228 614 272 L614 708 L636 708 L636 268 Z M380 908 L483 764 L460 764 L366 896 L272 764 L249 764 L352 908 L380 908 Z " />
<glyph glyph-name="Udieresis" unicode="&#xdc;" horiz-adv-x="732" d="M636 268 Q636 208 622 155.5 Q608 103 576 64 Q544 25 492.5 2.5 Q441 -20 366 -20 Q291 -20 239.5 2.5 Q188 25 156 64 Q124 103 110 155.5 Q96 208 96 268 L96 708 L118 708 L118 272 Q118 230 126.5 182.5 Q135 135 161.5 94.5 Q188 54 236.5 27 Q285 0 366 0 Q445 0 493.5 26 Q542 52 569 92.5 Q596 133 605 180.5 Q614 228 614 272 L614 708 L636 708 L636 268 Z M289 833 Q280 833 273 840 Q266 847 266 859 Q266 870 273 877 Q280 884 289 884 Q298 884 305 877 Q312 870 312 859 Q312 847 304.5 840 Q297 833 289 833 Z M443 833 Q434 833 427 840 Q420 847 420 859 Q420 870 427 877 Q434 884 443 884 Q452 884 459 877 Q466 870 466 859 Q466 847 458.5 840 Q451 833 443 833 Z " />
<glyph glyph-name="Yacute" unicode="&#xdd;" horiz-adv-x="538" d="M280 310 L280 0 L258 0 L258 310 L15 708 L41 708 L270 332 L498 708 L523 708 L280 310 Z M272 764 L253 764 L356 908 L383 908 L272 764 Z " />
<glyph glyph-name="Thorn" unicode="&#xde;" horiz-adv-x="572" d="M517 374 Q517 329 500.5 294.5 Q484 260 456 237 Q428 214 390.5 202 Q353 190 311 190 L128 190 L128 0 L106 0 L106 708 L128 708 L128 550 L298 550 Q336 550 375 541.5 Q414 533 445.5 513 Q477 493 497 459 Q517 425 517 374 Z M495 374 Q495 419 478 449 Q461 479 434 497 Q407 515 373.5 523 Q340 531 307 531 L128 531 L128 209 L312 209 Q345 209 378 218 Q411 227 437 247 Q463 267 479 298.5 Q495 330 495 374 Z " />
<glyph glyph-name="germandbls" unicode="&#xdf;" horiz-adv-x="589" d="M527 208 Q527 159 511.5 119 Q496 79 467 50.5 Q438 22 397 6 Q356 -10 305 -10 Q294 -10 281.5 -9.5 Q269 -9 257 -7 L257 14 Q272 12 283.5 11 Q295 10 304 10 Q350 10 387 24 Q424 38 450.5 64.5 Q477 91 491 127.5 Q505 164 505 209 Q505 263 488.5 302 Q472 341 443.5 366.5 Q415 392 377 404 Q339 416 296 416 L280 416 L280 437 L296 437 Q330 437 360.5 447.5 Q391 458 413 478 Q435 498 448 528 Q461 558 461 596 Q461 632 449 660 Q437 688 415.5 707.5 Q394 727 364.5 737.5 Q335 748 301 748 Q251 748 217 730 Q183 712 162.5 682 Q142 652 133 613.5 Q124 575 124 535 L124 0 L102 0 L102 538 Q102 587 114.5 629.5 Q127 672 152 702.5 Q177 733 214 750.5 Q251 768 300 768 Q340 768 373.5 756 Q407 744 431.5 721.5 Q456 699 469.5 667 Q483 635 483 595 Q483 559 472.5 530.5 Q462 502 443.5 481.5 Q425 461 400 448 Q375 435 347 429 L347 427 Q383 422 416 407 Q449 392 473.5 366 Q498 340 512.5 301 Q527 262 527 208 Z " />
<glyph glyph-name="agrave" unicode="&#xe0;" horiz-adv-x="512" d="M418 104 Q418 78 420.5 48.5 Q423 19 426 0 L405 0 Q403 10 402 24.5 Q401 39 399.5 54.5 Q398 70 397.5 85 Q397 100 397 110 L394 110 Q374 47 325 16.5 Q276 -14 220 -14 Q192 -14 164.5 -6 Q137 2 115 18 Q93 34 79.5 59 Q66 84 66 118 Q66 167 91.5 197 Q117 227 155 243.5 Q193 260 236.5 265 Q280 270 316 270 L396 270 L396 307 Q396 384 355 419.5 Q314 455 248 455 Q207 455 171.5 440 Q136 425 108 400 L96 417 Q128 445 168.5 459.5 Q209 474 248 474 Q327 474 372.5 433.5 Q418 393 418 306 L418 104 Z M396 251 L325 251 Q287 251 245 246.5 Q203 242 168 228 Q133 214 110.5 188 Q88 162 88 118 Q88 86 100.5 64.5 Q113 43 132.5 30 Q152 17 175.5 11 Q199 5 220 5 Q271 5 305 24 Q339 43 359.5 72.5 Q380 102 388 137.5 Q396 173 396 207 L396 251 Z M191 708 L294 564 L275 564 L164 708 L191 708 Z " />
<glyph glyph-name="aacute" unicode="&#xe1;" horiz-adv-x="512" d="M418 104 Q418 78 420.5 48.5 Q423 19 426 0 L405 0 Q403 10 402 24.5 Q401 39 399.5 54.5 Q398 70 397.5 85 Q397 100 397 110 L394 110 Q374 47 325 16.5 Q276 -14 220 -14 Q192 -14 164.5 -6 Q137 2 115 18 Q93 34 79.5 59 Q66 84 66 118 Q66 167 91.5 197 Q117 227 155 243.5 Q193 260 236.5 265 Q280 270 316 270 L396 270 L396 307 Q396 384 355 419.5 Q314 455 248 455 Q207 455 171.5 440 Q136 425 108 400 L96 417 Q128 445 168.5 459.5 Q209 474 248 474 Q327 474 372.5 433.5 Q418 393 418 306 L418 104 Z M396 251 L325 251 Q287 251 245 246.5 Q203 242 168 228 Q133 214 110.5 188 Q88 162 88 118 Q88 86 100.5 64.5 Q113 43 132.5 30 Q152 17 175.5 11 Q199 5 220 5 Q271 5 305 24 Q339 43 359.5 72.5 Q380 102 388 137.5 Q396 173 396 207 L396 251 Z M252 564 L233 564 L336 708 L363 708 L252 564 Z " />
<glyph glyph-name="acircumflex" unicode="&#xe2;" horiz-adv-x="512" d="M418 104 Q418 78 420.5 48.5 Q423 19 426 0 L405 0 Q403 10 402 24.5 Q401 39 399.5 54.5 Q398 70 397.5 85 Q397 100 397 110 L394 110 Q374 47 325 16.5 Q276 -14 220 -14 Q192 -14 164.5 -6 Q137 2 115 18 Q93 34 79.5 59 Q66 84 66 118 Q66 167 91.5 197 Q117 227 155 243.5 Q193 260 236.5 265 Q280 270 316 270 L396 270 L396 307 Q396 384 355 419.5 Q314 455 248 455 Q207 455 171.5 440 Q136 425 108 400 L96 417 Q128 445 168.5 459.5 Q209 474 248 474 Q327 474 372.5 433.5 Q418 393 418 306 L418 104 Z M396 251 L325 251 Q287 251 245 246.5 Q203 242 168 228 Q133 214 110.5 188 Q88 162 88 118 Q88 86 100.5 64.5 Q113 43 132.5 30 Q152 17 175.5 11 Q199 5 220 5 Q271 5 305 24 Q339 43 359.5 72.5 Q380 102 388 137.5 Q396 173 396 207 L396 251 Z M262 708 L365 564 L342 564 L248 696 L154 564 L131 564 L234 708 L262 708 Z " />
<glyph glyph-name="atilde" unicode="&#xe3;" horiz-adv-x="512" d="M418 104 Q418 78 420.5 48.5 Q423 19 426 0 L405 0 Q403 10 402 24.5 Q401 39 399.5 54.5 Q398 70 397.5 85 Q397 100 397 110 L394 110 Q374 47 325 16.5 Q276 -14 220 -14 Q192 -14 164.5 -6 Q137 2 115 18 Q93 34 79.5 59 Q66 84 66 118 Q66 167 91.5 197 Q117 227 155 243.5 Q193 260 236.5 265 Q280 270 316 270 L396 270 L396 307 Q396 384 355 419.5 Q314 455 248 455 Q207 455 171.5 440 Q136 425 108 400 L96 417 Q128 445 168.5 459.5 Q209 474 248 474 Q327 474 372.5 433.5 Q418 393 418 306 L418 104 Z M396 251 L325 251 Q287 251 245 246.5 Q203 242 168 228 Q133 214 110.5 188 Q88 162 88 118 Q88 86 100.5 64.5 Q113 43 132.5 30 Q152 17 175.5 11 Q199 5 220 5 Q271 5 305 24 Q339 43 359.5 72.5 Q380 102 388 137.5 Q396 173 396 207 L396 251 Z M253 638 Q266 630 275 625 Q284 620 290.5 617.5 Q297 615 301.5 614.5 Q306 614 312 614 Q345 614 352 662 L368 662 Q364 626 348 610.5 Q332 595 312 595 Q296 595 283.5 600 Q271 605 248 619 Q222 635 211 639 Q200 643 189 643 Q157 643 149 592 L133 592 Q137 628 153 645 Q169 662 189 662 Q205 662 218 657 Q231 652 253 638 Z " />
<glyph glyph-name="adieresis" unicode="&#xe4;" horiz-adv-x="512" d="M418 104 Q418 78 420.5 48.5 Q423 19 426 0 L405 0 Q403 10 402 24.5 Q401 39 399.5 54.5 Q398 70 397.5 85 Q397 100 397 110 L394 110 Q374 47 325 16.5 Q276 -14 220 -14 Q192 -14 164.5 -6 Q137 2 115 18 Q93 34 79.5 59 Q66 84 66 118 Q66 167 91.5 197 Q117 227 155 243.5 Q193 260 236.5 265 Q280 270 316 270 L396 270 L396 307 Q396 384 355 419.5 Q314 455 248 455 Q207 455 171.5 440 Q136 425 108 400 L96 417 Q128 445 168.5 459.5 Q209 474 248 474 Q327 474 372.5 433.5 Q418 393 418 306 L418 104 Z M396 251 L325 251 Q287 251 245 246.5 Q203 242 168 228 Q133 214 110.5 188 Q88 162 88 118 Q88 86 100.5 64.5 Q113 43 132.5 30 Q152 17 175.5 11 Q199 5 220 5 Q271 5 305 24 Q339 43 359.5 72.5 Q380 102 388 137.5 Q396 173 396 207 L396 251 Z M174 633 Q165 633 158 640 Q151 647 151 659 Q151 670 158 677 Q165 684 174 684 Q183 684 190 677 Q197 670 197 659 Q197 647 189.5 640 Q182 633 174 633 Z M328 633 Q319 633 312 640 Q305 647 305 659 Q305 670 312 677 Q319 684 328 684 Q337 684 344 677 Q351 670 351 659 Q351 647 343.5 640 Q336 633 328 633 Z " />
<glyph glyph-name="aring" unicode="&#xe5;" horiz-adv-x="512" d="M418 104 Q418 78 420.5 48.5 Q423 19 426 0 L405 0 Q403 10 402 24.5 Q401 39 399.5 54.5 Q398 70 397.5 85 Q397 100 397 110 L394 110 Q374 47 325 16.5 Q276 -14 220 -14 Q192 -14 164.5 -6 Q137 2 115 18 Q93 34 79.5 59 Q66 84 66 118 Q66 167 91.5 197 Q117 227 155 243.5 Q193 260 236.5 265 Q280 270 316 270 L396 270 L396 307 Q396 384 355 419.5 Q314 455 248 455 Q207 455 171.5 440 Q136 425 108 400 L96 417 Q128 445 168.5 459.5 Q209 474 248 474 Q327 474 372.5 433.5 Q418 393 418 306 L418 104 Z M396 251 L325 251 Q287 251 245 246.5 Q203 242 168 228 Q133 214 110.5 188 Q88 162 88 118 Q88 86 100.5 64.5 Q113 43 132.5 30 Q152 17 175.5 11 Q199 5 220 5 Q271 5 305 24 Q339 43 359.5 72.5 Q380 102 388 137.5 Q396 173 396 207 L396 251 Z M347 650 Q347 630 339.5 612.5 Q332 595 318.5 582 Q305 569 287.5 562 Q270 555 251 555 Q231 555 214 562 Q197 569 183.5 582 Q170 595 162.5 612.5 Q155 630 155 650 Q155 670 162.5 687.5 Q170 705 183.5 717.5 Q197 730 214 737.5 Q231 745 251 745 Q270 745 287.5 737.5 Q305 730 318.5 717.5 Q332 705 339.5 687.5 Q347 670 347 650 Z M328 650 Q328 682 305.5 705 Q283 728 251 728 Q219 728 196.5 705 Q174 682 174 650 Q174 618 196.5 595 Q219 572 251 572 Q283 572 305.5 595 Q328 618 328 650 Z " />
<glyph glyph-name="ae" unicode="&#xe6;" horiz-adv-x="879" d="M796 255 Q794 300 780.5 336.5 Q767 373 743.5 399.5 Q720 426 686.5 440.5 Q653 455 613 455 Q563 455 528.5 432.5 Q494 410 471.5 378.5 Q449 347 439 313 Q429 279 429 255 L796 255 Z M426 338 Q450 399 500 436.5 Q550 474 614 474 Q665 474 703 455 Q741 436 766.5 405 Q792 374 804.5 334.5 Q817 295 817 254 L817 235 L428 235 Q428 195 439 154.5 Q450 114 474 81 Q498 48 535 27.5 Q572 7 624 7 Q673 7 714.5 28 Q756 49 785 90 L800 77 Q768 33 724 10 Q680 -13 623 -13 Q550 -13 496 29 Q442 71 420 143 Q416 112 402.5 83.5 Q389 55 365 33.5 Q341 12 305.5 -1 Q270 -14 224 -14 Q195 -14 167 -7 Q139 0 116.5 15 Q94 30 80 54 Q66 78 66 112 Q66 158 91 186 Q116 214 154.5 229.5 Q193 245 238 250 Q283 255 323 255 L407 255 L407 302 Q407 377 367 416 Q327 455 253 455 Q211 455 174.5 440 Q138 425 109 400 L97 417 Q129 445 171 459.5 Q213 474 253 474 Q295 474 326.5 463.5 Q358 453 379 434.5 Q400 416 411.5 391 Q423 366 426 338 Z M407 235 L332 235 Q289 235 245.5 230.5 Q202 226 167.5 213 Q133 200 111 176 Q89 152 89 112 Q89 80 102 59.5 Q115 39 135 27 Q155 15 178.5 10 Q202 5 224 5 Q277 5 312 21.5 Q347 38 368 64.5 Q389 91 398 124 Q407 157 407 191 L407 235 Z " />
<glyph glyph-name="ccedilla" unicode="&#xe7;" horiz-adv-x="480" d="M399 -146 Q399 -170 387.5 -185.5 Q376 -201 359 -210 Q342 -219 322.5 -222.5 Q303 -226 287 -226 Q268 -226 243.5 -221 Q219 -216 197 -206 L202 -189 Q221 -199 245.5 -203 Q270 -207 288 -207 Q303 -207 318.5 -204.5 Q334 -202 347.5 -195.5 Q361 -189 369.5 -177 Q378 -165 378 -146 Q378 -130 371 -120 Q364 -110 353.5 -104.5 Q343 -99 330.5 -97 Q318 -95 306 -95 Q292 -95 270.5 -99 Q249 -103 237 -110 L227 -101 L286 -14 Q237 -12 196 6.5 Q155 25 125 57 Q95 89 78.5 133 Q62 177 62 229 Q62 282 79.5 327 Q97 372 128.5 404.5 Q160 437 202.5 455.5 Q245 474 296 474 Q340 474 379.5 458 Q419 442 447 413 L430 398 Q404 425 369 440 Q334 455 296 455 Q247 455 208 436.5 Q169 418 141.5 387 Q114 356 99 315 Q84 274 84 229 Q84 184 99 143 Q114 102 141.5 71.5 Q169 41 208 23 Q247 5 296 5 Q334 5 370.5 18 Q407 31 434 57 L449 43 Q420 14 382.5 1 Q345 -12 307 -14 L258 -86 Q272 -81 285 -79.5 Q298 -78 312 -78 Q327 -78 342.5 -81.5 Q358 -85 370.5 -92.5 Q383 -100 391 -113.5 Q399 -127 399 -146 Z " />
<glyph glyph-name="egrave" unicode="&#xe8;" horiz-adv-x="556" d="M84 235 Q84 193 96.5 152 Q109 111 134.5 78.5 Q160 46 199 26 Q238 6 291 6 Q345 6 387 27.5 Q429 49 460 90 L476 76 Q442 32 396.5 9 Q351 -14 291 -14 Q240 -14 198 4.5 Q156 23 125.5 56 Q95 89 78.5 135 Q62 181 62 235 Q62 287 79 331 Q96 375 125.5 407 Q155 439 195 456.5 Q235 474 281 474 Q335 474 375 455 Q415 436 441.5 405 Q468 374 481 334.5 Q494 295 494 254 L494 235 L84 235 Z M473 254 Q472 299 457.5 336 Q443 373 418 399.5 Q393 426 358 440.5 Q323 455 280 455 Q228 455 191 433.5 Q154 412 130.5 380.5 Q107 349 96 314.5 Q85 280 85 254 L473 254 Z M212 708 L315 564 L296 564 L185 708 L212 708 Z " />
<glyph glyph-name="eacute" unicode="&#xe9;" horiz-adv-x="556" d="M84 235 Q84 193 96.5 152 Q109 111 134.5 78.5 Q160 46 199 26 Q238 6 291 6 Q345 6 387 27.5 Q429 49 460 90 L476 76 Q442 32 396.5 9 Q351 -14 291 -14 Q240 -14 198 4.5 Q156 23 125.5 56 Q95 89 78.5 135 Q62 181 62 235 Q62 287 79 331 Q96 375 125.5 407 Q155 439 195 456.5 Q235 474 281 474 Q335 474 375 455 Q415 436 441.5 405 Q468 374 481 334.5 Q494 295 494 254 L494 235 L84 235 Z M473 254 Q472 299 457.5 336 Q443 373 418 399.5 Q393 426 358 440.5 Q323 455 280 455 Q228 455 191 433.5 Q154 412 130.5 380.5 Q107 349 96 314.5 Q85 280 85 254 L473 254 Z M276 564 L257 564 L360 708 L387 708 L276 564 Z " />
<glyph glyph-name="ecircumflex" unicode="&#xea;" horiz-adv-x="556" d="M84 235 Q84 193 96.5 152 Q109 111 134.5 78.5 Q160 46 199 26 Q238 6 291 6 Q345 6 387 27.5 Q429 49 460 90 L476 76 Q442 32 396.5 9 Q351 -14 291 -14 Q240 -14 198 4.5 Q156 23 125.5 56 Q95 89 78.5 135 Q62 181 62 235 Q62 287 79 331 Q96 375 125.5 407 Q155 439 195 456.5 Q235 474 281 474 Q335 474 375 455 Q415 436 441.5 405 Q468 374 481 334.5 Q494 295 494 254 L494 235 L84 235 Z M473 254 Q472 299 457.5 336 Q443 373 418 399.5 Q393 426 358 440.5 Q323 455 280 455 Q228 455 191 433.5 Q154 412 130.5 380.5 Q107 349 96 314.5 Q85 280 85 254 L473 254 Z M300 708 L403 564 L380 564 L286 696 L192 564 L169 564 L272 708 L300 708 Z " />
<glyph glyph-name="edieresis" unicode="&#xeb;" horiz-adv-x="556" d="M84 235 Q84 193 96.5 152 Q109 111 134.5 78.5 Q160 46 199 26 Q238 6 291 6 Q345 6 387 27.5 Q429 49 460 90 L476 76 Q442 32 396.5 9 Q351 -14 291 -14 Q240 -14 198 4.5 Q156 23 125.5 56 Q95 89 78.5 135 Q62 181 62 235 Q62 287 79 331 Q96 375 125.5 407 Q155 439 195 456.5 Q235 474 281 474 Q335 474 375 455 Q415 436 441.5 405 Q468 374 481 334.5 Q494 295 494 254 L494 235 L84 235 Z M473 254 Q472 299 457.5 336 Q443 373 418 399.5 Q393 426 358 440.5 Q323 455 280 455 Q228 455 191 433.5 Q154 412 130.5 380.5 Q107 349 96 314.5 Q85 280 85 254 L473 254 Z M206 633 Q197 633 190 640 Q183 647 183 659 Q183 670 190 677 Q197 684 206 684 Q215 684 222 677 Q229 670 229 659 Q229 647 221.5 640 Q214 633 206 633 Z M360 633 Q351 633 344 640 Q337 647 337 659 Q337 670 344 677 Q351 684 360 684 Q369 684 376 677 Q383 670 383 659 Q383 647 375.5 640 Q368 633 360 633 Z " />
<glyph glyph-name="igrave" unicode="&#xec;" horiz-adv-x="226" d="M102 0 L102 460 L124 460 L124 0 L102 0 Z M22 708 L125 564 L106 564 L-5 708 L22 708 Z " />
<glyph glyph-name="iacute" unicode="&#xed;" horiz-adv-x="226" d="M102 0 L102 460 L124 460 L124 0 L102 0 Z M120 564 L101 564 L204 708 L231 708 L120 564 Z " />
<glyph glyph-name="icircumflex" unicode="&#xee;" horiz-adv-x="226" d="M102 0 L102 460 L124 460 L124 0 L102 0 Z M128 708 L231 564 L208 564 L114 696 L20 564 L-3 564 L100 708 L128 708 Z " />
<glyph glyph-name="idieresis" unicode="&#xef;" horiz-adv-x="226" d="M102 0 L102 460 L124 460 L124 0 L102 0 Z M37 633 Q28 633 21 640 Q14 647 14 659 Q14 670 21 677 Q28 684 37 684 Q46 684 53 677 Q60 670 60 659 Q60 647 52.5 640 Q45 633 37 633 Z M191 633 Q182 633 175 640 Q168 647 168 659 Q168 670 175 677 Q182 684 191 684 Q200 684 207 677 Q214 670 214 659 Q214 647 206.5 640 Q199 633 191 633 Z " />
<glyph glyph-name="eth" unicode="&#xf0;" horiz-adv-x="605" d="M488 399 Q473 435 452.5 472 Q432 509 408.5 543.5 Q385 578 361.5 607 Q338 636 317 656 L205 595 L193 609 L303 671 Q274 698 250 718 Q226 738 206 751 L223 763 Q248 747 272.5 726 Q297 705 321 681 L426 740 L442 727 L337 668 Q352 653 373 628 Q394 603 417 570.5 Q440 538 462.5 499.5 Q485 461 503 418 Q521 375 532 329 Q543 283 543 236 Q543 181 525.5 135 Q508 89 476 56 Q444 23 399.5 4.5 Q355 -14 302 -14 Q249 -14 205 4 Q161 22 129 54.5 Q97 87 79.5 132 Q62 177 62 231 Q62 285 79.5 329.5 Q97 374 129 406 Q161 438 205 456 Q249 474 302 474 Q354 474 400 455.5 Q446 437 482 397 L488 399 Z M521 231 Q521 277 506 318 Q491 359 462.5 389.5 Q434 420 393.5 437.5 Q353 455 302 455 Q251 455 211 437.5 Q171 420 142.5 389.5 Q114 359 99 318 Q84 277 84 231 Q84 184 99 143 Q114 102 142.5 71.5 Q171 41 211 23 Q251 5 302 5 Q353 5 393.5 23 Q434 41 462.5 71.5 Q491 102 506 143 Q521 184 521 231 Z " />
<glyph glyph-name="ntilde" unicode="&#xf1;" horiz-adv-x="572" d="M128 339 Q138 371 157 396 Q176 421 200 438.5 Q224 456 252 465 Q280 474 310 474 Q358 474 390 457 Q422 440 441 412 Q460 384 468 349 Q476 314 476 278 L476 0 L454 0 L454 276 Q454 304 448 336 Q442 368 425.5 394 Q409 420 381 437.5 Q353 455 310 455 Q272 455 238.5 439.5 Q205 424 180.5 395 Q156 366 141.5 324.5 Q127 283 127 230 L127 0 L105 0 L105 344 Q105 355 104.5 371 Q104 387 103.5 403.5 Q103 420 102 435 Q101 450 100 460 L122 460 Q123 450 123.5 435 Q124 420 124.5 402.5 Q125 385 125.5 368.5 Q126 352 126 339 L128 339 Z M293 638 Q306 630 315 625 Q324 620 330.5 617.5 Q337 615 341.5 614.5 Q346 614 352 614 Q385 614 392 662 L408 662 Q404 626 388 610.5 Q372 595 352 595 Q336 595 323.5 600 Q311 605 288 619 Q262 635 251 639 Q240 643 229 643 Q197 643 189 592 L173 592 Q177 628 193 645 Q209 662 229 662 Q245 662 258 657 Q271 652 293 638 Z " />
<glyph glyph-name="ograve" unicode="&#xf2;" horiz-adv-x="605" d="M543 231 Q543 177 525.5 132 Q508 87 476 54.5 Q444 22 399.5 4 Q355 -14 302 -14 Q249 -14 205 4 Q161 22 129 54.5 Q97 87 79.5 132 Q62 177 62 231 Q62 285 79.5 329.5 Q97 374 129 406 Q161 438 205 456 Q249 474 302 474 Q355 474 399.5 456 Q444 438 476 406 Q508 374 525.5 329.5 Q543 285 543 231 Z M521 231 Q521 277 506 318 Q491 359 462.5 389.5 Q434 420 393.5 437.5 Q353 455 302 455 Q251 455 211 437.5 Q171 420 142.5 389.5 Q114 359 99 318 Q84 277 84 231 Q84 184 99 143 Q114 102 142.5 71.5 Q171 41 211 23 Q251 5 302 5 Q353 5 393.5 23 Q434 41 462.5 71.5 Q491 102 506 143 Q521 184 521 231 Z M239 708 L342 564 L323 564 L212 708 L239 708 Z " />
<glyph glyph-name="oacute" unicode="&#xf3;" horiz-adv-x="605" d="M543 231 Q543 177 525.5 132 Q508 87 476 54.5 Q444 22 399.5 4 Q355 -14 302 -14 Q249 -14 205 4 Q161 22 129 54.5 Q97 87 79.5 132 Q62 177 62 231 Q62 285 79.5 329.5 Q97 374 129 406 Q161 438 205 456 Q249 474 302 474 Q355 474 399.5 456 Q444 438 476 406 Q508 374 525.5 329.5 Q543 285 543 231 Z M521 231 Q521 277 506 318 Q491 359 462.5 389.5 Q434 420 393.5 437.5 Q353 455 302 455 Q251 455 211 437.5 Q171 420 142.5 389.5 Q114 359 99 318 Q84 277 84 231 Q84 184 99 143 Q114 102 142.5 71.5 Q171 41 211 23 Q251 5 302 5 Q353 5 393.5 23 Q434 41 462.5 71.5 Q491 102 506 143 Q521 184 521 231 Z M286 564 L267 564 L370 708 L397 708 L286 564 Z " />
<glyph glyph-name="ocircumflex" unicode="&#xf4;" horiz-adv-x="605" d="M543 231 Q543 177 525.5 132 Q508 87 476 54.5 Q444 22 399.5 4 Q355 -14 302 -14 Q249 -14 205 4 Q161 22 129 54.5 Q97 87 79.5 132 Q62 177 62 231 Q62 285 79.5 329.5 Q97 374 129 406 Q161 438 205 456 Q249 474 302 474 Q355 474 399.5 456 Q444 438 476 406 Q508 374 525.5 329.5 Q543 285 543 231 Z M521 231 Q521 277 506 318 Q491 359 462.5 389.5 Q434 420 393.5 437.5 Q353 455 302 455 Q251 455 211 437.5 Q171 420 142.5 389.5 Q114 359 99 318 Q84 277 84 231 Q84 184 99 143 Q114 102 142.5 71.5 Q171 41 211 23 Q251 5 302 5 Q353 5 393.5 23 Q434 41 462.5 71.5 Q491 102 506 143 Q521 184 521 231 Z M318 708 L421 564 L398 564 L304 696 L210 564 L187 564 L290 708 L318 708 Z " />
<glyph glyph-name="otilde" unicode="&#xf5;" horiz-adv-x="605" d="M543 231 Q543 177 525.5 132 Q508 87 476 54.5 Q444 22 399.5 4 Q355 -14 302 -14 Q249 -14 205 4 Q161 22 129 54.5 Q97 87 79.5 132 Q62 177 62 231 Q62 285 79.5 329.5 Q97 374 129 406 Q161 438 205 456 Q249 474 302 474 Q355 474 399.5 456 Q444 438 476 406 Q508 374 525.5 329.5 Q543 285 543 231 Z M521 231 Q521 277 506 318 Q491 359 462.5 389.5 Q434 420 393.5 437.5 Q353 455 302 455 Q251 455 211 437.5 Q171 420 142.5 389.5 Q114 359 99 318 Q84 277 84 231 Q84 184 99 143 Q114 102 142.5 71.5 Q171 41 211 23 Q251 5 302 5 Q353 5 393.5 23 Q434 41 462.5 71.5 Q491 102 506 143 Q521 184 521 231 Z M307 638 Q320 630 329 625 Q338 620 344.5 617.5 Q351 615 355.5 614.5 Q360 614 366 614 Q399 614 406 662 L422 662 Q418 626 402 610.5 Q386 595 366 595 Q350 595 337.5 600 Q325 605 302 619 Q276 635 265 639 Q254 643 243 643 Q211 643 203 592 L187 592 Q191 628 207 645 Q223 662 243 662 Q259 662 272 657 Q285 652 307 638 Z " />
<glyph glyph-name="odieresis" unicode="&#xf6;" horiz-adv-x="605" d="M543 231 Q543 177 525.5 132 Q508 87 476 54.5 Q444 22 399.5 4 Q355 -14 302 -14 Q249 -14 205 4 Q161 22 129 54.5 Q97 87 79.5 132 Q62 177 62 231 Q62 285 79.5 329.5 Q97 374 129 406 Q161 438 205 456 Q249 474 302 474 Q355 474 399.5 456 Q444 438 476 406 Q508 374 525.5 329.5 Q543 285 543 231 Z M521 231 Q521 277 506 318 Q491 359 462.5 389.5 Q434 420 393.5 437.5 Q353 455 302 455 Q251 455 211 437.5 Q171 420 142.5 389.5 Q114 359 99 318 Q84 277 84 231 Q84 184 99 143 Q114 102 142.5 71.5 Q171 41 211 23 Q251 5 302 5 Q353 5 393.5 23 Q434 41 462.5 71.5 Q491 102 506 143 Q521 184 521 231 Z M227 633 Q218 633 211 640 Q204 647 204 659 Q204 670 211 677 Q218 684 227 684 Q236 684 243 677 Q250 670 250 659 Q250 647 242.5 640 Q235 633 227 633 Z M381 633 Q372 633 365 640 Q358 647 358 659 Q358 670 365 677 Q372 684 381 684 Q390 684 397 677 Q404 670 404 659 Q404 647 396.5 640 Q389 633 381 633 Z " />
<glyph glyph-name="divide" unicode="&#xf7;" horiz-adv-x="666" d="M369 470 Q369 454 358 443 Q347 432 333 432 Q319 432 308.5 443 Q298 454 298 470 Q298 486 308.5 497 Q319 508 333 508 Q347 508 358 497 Q369 486 369 470 Z M94 293 L94 313 L573 313 L573 293 L94 293 Z M369 136 Q369 120 358 109 Q347 98 333 98 Q319 98 308.5 109 Q298 120 298 136 Q298 153 308 163.5 Q318 174 333 174 Q347 174 358 163 Q369 152 369 136 Z " />
<glyph glyph-name="oslash" unicode="&#xf8;" horiz-adv-x="605" d="M479 402 Q509 371 526 328 Q543 285 543 231 Q543 177 525.5 132 Q508 87 476 54.5 Q444 22 399.5 4 Q355 -14 302 -14 Q250 -14 206.5 4 Q163 22 131 54 L65 -12 L51 1 L118 68 Q92 99 77 140.5 Q62 182 62 231 Q62 285 79.5 329.5 Q97 374 129 406 Q161 438 205 456 Q249 474 302 474 Q351 474 392.5 459 Q434 444 466 416 L525 475 L539 461 L479 402 Z M146 69 Q173 39 212.5 22 Q252 5 302 5 Q353 5 393.5 23 Q434 41 462.5 71.5 Q491 102 506 143 Q521 184 521 231 Q521 276 506.5 316 Q492 356 464 387 L146 69 Z M451 401 Q423 426 386 440.5 Q349 455 302 455 Q251 455 211 437.5 Q171 420 142.5 389.5 Q114 359 99 318 Q84 277 84 231 Q84 189 96.5 151 Q109 113 133 83 L451 401 Z " />
<glyph glyph-name="ugrave" unicode="&#xf9;" horiz-adv-x="572" d="M442 121 Q431 89 412.5 63.5 Q394 38 370 21 Q346 4 318 -5 Q290 -14 260 -14 Q212 -14 180 3 Q148 20 129 48 Q110 76 102 111 Q94 146 94 182 L94 460 L116 460 L116 184 Q116 155 122 123.5 Q128 92 144.5 66 Q161 40 188.5 22.5 Q216 5 260 5 Q298 5 331.5 20.5 Q365 36 389.5 65 Q414 94 428.5 135.5 Q443 177 443 230 L443 460 L465 460 L465 116 Q465 105 465.5 89 Q466 73 466.5 56.5 Q467 40 468 25 Q469 10 470 0 L448 0 Q447 10 446.5 25 Q446 40 445.5 57.5 Q445 75 444.5 91.5 Q444 108 444 121 L442 121 Z M202 708 L305 564 L286 564 L175 708 L202 708 Z " />
<glyph glyph-name="uacute" unicode="&#xfa;" horiz-adv-x="572" d="M442 121 Q431 89 412.5 63.5 Q394 38 370 21 Q346 4 318 -5 Q290 -14 260 -14 Q212 -14 180 3 Q148 20 129 48 Q110 76 102 111 Q94 146 94 182 L94 460 L116 460 L116 184 Q116 155 122 123.5 Q128 92 144.5 66 Q161 40 188.5 22.5 Q216 5 260 5 Q298 5 331.5 20.5 Q365 36 389.5 65 Q414 94 428.5 135.5 Q443 177 443 230 L443 460 L465 460 L465 116 Q465 105 465.5 89 Q466 73 466.5 56.5 Q467 40 468 25 Q469 10 470 0 L448 0 Q447 10 446.5 25 Q446 40 445.5 57.5 Q445 75 444.5 91.5 Q444 108 444 121 L442 121 Z M262 564 L243 564 L346 708 L373 708 L262 564 Z " />
<glyph glyph-name="ucircumflex" unicode="&#xfb;" horiz-adv-x="572" d="M442 121 Q431 89 412.5 63.5 Q394 38 370 21 Q346 4 318 -5 Q290 -14 260 -14 Q212 -14 180 3 Q148 20 129 48 Q110 76 102 111 Q94 146 94 182 L94 460 L116 460 L116 184 Q116 155 122 123.5 Q128 92 144.5 66 Q161 40 188.5 22.5 Q216 5 260 5 Q298 5 331.5 20.5 Q365 36 389.5 65 Q414 94 428.5 135.5 Q443 177 443 230 L443 460 L465 460 L465 116 Q465 105 465.5 89 Q466 73 466.5 56.5 Q467 40 468 25 Q469 10 470 0 L448 0 Q447 10 446.5 25 Q446 40 445.5 57.5 Q445 75 444.5 91.5 Q444 108 444 121 L442 121 Z M292 708 L395 564 L372 564 L278 696 L184 564 L161 564 L264 708 L292 708 Z " />
<glyph glyph-name="udieresis" unicode="&#xfc;" horiz-adv-x="572" d="M442 121 Q431 89 412.5 63.5 Q394 38 370 21 Q346 4 318 -5 Q290 -14 260 -14 Q212 -14 180 3 Q148 20 129 48 Q110 76 102 111 Q94 146 94 182 L94 460 L116 460 L116 184 Q116 155 122 123.5 Q128 92 144.5 66 Q161 40 188.5 22.5 Q216 5 260 5 Q298 5 331.5 20.5 Q365 36 389.5 65 Q414 94 428.5 135.5 Q443 177 443 230 L443 460 L465 460 L465 116 Q465 105 465.5 89 Q466 73 466.5 56.5 Q467 40 468 25 Q469 10 470 0 L448 0 Q447 10 446.5 25 Q446 40 445.5 57.5 Q445 75 444.5 91.5 Q444 108 444 121 L442 121 Z M201 633 Q192 633 185 640 Q178 647 178 659 Q178 670 185 677 Q192 684 201 684 Q210 684 217 677 Q224 670 224 659 Q224 647 216.5 640 Q209 633 201 633 Z M355 633 Q346 633 339 640 Q332 647 332 659 Q332 670 339 677 Q346 684 355 684 Q364 684 371 677 Q378 670 378 659 Q378 647 370.5 640 Q363 633 355 633 Z " />
<glyph glyph-name="yacute" unicode="&#xfd;" horiz-adv-x="428" d="M176 -152 Q160 -195 133.5 -218.5 Q107 -242 65 -242 Q56 -242 44 -240 Q32 -238 24 -235 L30 -216 Q36 -218 46.5 -220 Q57 -222 67 -222 Q88 -222 103.5 -214 Q119 -206 130 -193.5 Q141 -181 148.5 -165 Q156 -149 162 -133 L206 -13 L24 460 L48 460 L217 12 L380 460 L404 460 L176 -152 Z M213 564 L194 564 L297 708 L324 708 L213 564 Z " />
<glyph glyph-name="thorn" unicode="&#xfe;" horiz-adv-x="626" d="M127 335 Q157 404 212.5 439 Q268 474 334 474 Q385 474 427.5 455.5 Q470 437 500.5 404.5 Q531 372 547.5 327 Q564 282 564 229 Q564 177 547 132.5 Q530 88 499.5 55.5 Q469 23 426.5 4.5 Q384 -14 334 -14 Q301 -14 269.5 -5 Q238 4 211 21.5 Q184 39 162 64.5 Q140 90 127 124 L124 124 L124 -240 L102 -240 L102 756 L124 756 L124 335 L127 335 Z M542 229 Q542 274 527.5 315 Q513 356 486 387 Q459 418 420.5 436.5 Q382 455 334 455 Q288 455 249.5 437 Q211 419 183 388.5 Q155 358 139 317 Q123 276 123 230 Q123 184 139 143 Q155 102 183 71.5 Q211 41 249.5 23 Q288 5 334 5 Q382 5 420.5 23 Q459 41 486 71.5 Q513 102 527.5 143 Q542 184 542 229 Z " />
<glyph glyph-name="ydieresis" unicode="&#xff;" horiz-adv-x="428" d="M176 -152 Q160 -195 133.5 -218.5 Q107 -242 65 -242 Q56 -242 44 -240 Q32 -238 24 -235 L30 -216 Q36 -218 46.5 -220 Q57 -222 67 -222 Q88 -222 103.5 -214 Q119 -206 130 -193.5 Q141 -181 148.5 -165 Q156 -149 162 -133 L206 -13 L24 460 L48 460 L217 12 L380 460 L404 460 L176 -152 Z M140 633 Q131 633 124 640 Q117 647 117 659 Q117 670 124 677 Q131 684 140 684 Q149 684 156 677 Q163 670 163 659 Q163 647 155.5 640 Q148 633 140 633 Z M294 633 Q285 633 278 640 Q271 647 271 659 Q271 670 278 677 Q285 684 294 684 Q303 684 310 677 Q317 670 317 659 Q317 647 309.5 640 Q302 633 294 633 Z " />
<glyph glyph-name="Amacron" unicode="&#x100;" horiz-adv-x="666" d="M624 0 L540 203 L129 203 L42 0 L18 0 L325 708 L353 708 L648 0 L624 0 Z M338 694 L137 222 L533 222 L338 694 Z M222 821 L222 841 L454 841 L454 821 L222 821 Z " />
<glyph glyph-name="amacron" unicode="&#x101;" horiz-adv-x="512" d="M418 104 Q418 78 420.5 48.5 Q423 19 426 0 L405 0 Q403 10 402 24.5 Q401 39 399.5 54.5 Q398 70 397.5 85 Q397 100 397 110 L394 110 Q374 47 325 16.5 Q276 -14 220 -14 Q192 -14 164.5 -6 Q137 2 115 18 Q93 34 79.5 59 Q66 84 66 118 Q66 167 91.5 197 Q117 227 155 243.5 Q193 260 236.5 265 Q280 270 316 270 L396 270 L396 307 Q396 384 355 419.5 Q314 455 248 455 Q207 455 171.5 440 Q136 425 108 400 L96 417 Q128 445 168.5 459.5 Q209 474 248 474 Q327 474 372.5 433.5 Q418 393 418 306 L418 104 Z M396 251 L325 251 Q287 251 245 246.5 Q203 242 168 228 Q133 214 110.5 188 Q88 162 88 118 Q88 86 100.5 64.5 Q113 43 132.5 30 Q152 17 175.5 11 Q199 5 220 5 Q271 5 305 24 Q339 43 359.5 72.5 Q380 102 388 137.5 Q396 173 396 207 L396 251 Z M146 621 L146 641 L378 641 L378 621 L146 621 Z " />
<glyph glyph-name="Abreve" unicode="&#x102;" horiz-adv-x="666" d="M624 0 L540 203 L129 203 L42 0 L18 0 L325 708 L353 708 L648 0 L624 0 Z M338 694 L137 222 L533 222 L338 694 Z M464 898 Q454 837 420.5 804.5 Q387 772 337 772 Q288 772 254.5 804.5 Q221 837 213 898 L232 898 Q242 846 270 819 Q298 792 337 792 Q382 792 408 817 Q434 842 446 898 L464 898 Z " />
<glyph glyph-name="abreve" unicode="&#x103;" horiz-adv-x="512" d="M418 104 Q418 78 420.5 48.5 Q423 19 426 0 L405 0 Q403 10 402 24.5 Q401 39 399.5 54.5 Q398 70 397.5 85 Q397 100 397 110 L394 110 Q374 47 325 16.5 Q276 -14 220 -14 Q192 -14 164.5 -6 Q137 2 115 18 Q93 34 79.5 59 Q66 84 66 118 Q66 167 91.5 197 Q117 227 155 243.5 Q193 260 236.5 265 Q280 270 316 270 L396 270 L396 307 Q396 384 355 419.5 Q314 455 248 455 Q207 455 171.5 440 Q136 425 108 400 L96 417 Q128 445 168.5 459.5 Q209 474 248 474 Q327 474 372.5 433.5 Q418 393 418 306 L418 104 Z M396 251 L325 251 Q287 251 245 246.5 Q203 242 168 228 Q133 214 110.5 188 Q88 162 88 118 Q88 86 100.5 64.5 Q113 43 132.5 30 Q152 17 175.5 11 Q199 5 220 5 Q271 5 305 24 Q339 43 359.5 72.5 Q380 102 388 137.5 Q396 173 396 207 L396 251 Z M388 698 Q378 637 344.5 604.5 Q311 572 261 572 Q212 572 178.5 604.5 Q145 637 137 698 L156 698 Q166 646 194 619 Q222 592 261 592 Q306 592 332 617 Q358 642 370 698 L388 698 Z " />
<glyph glyph-name="Aogonek" unicode="&#x104;" horiz-adv-x="666" d="M699 -192 Q683 -206 661.5 -214.5 Q640 -223 617 -223 Q582 -223 557.5 -202 Q533 -181 533 -143 Q533 -104 561 -69.5 Q589 -35 625 0 L624 0 L540 203 L129 203 L42 0 L18 0 L325 708 L353 708 L648 0 Q602 -46 578.5 -76.5 Q555 -107 555 -141 Q555 -171 573 -188 Q591 -205 620 -205 Q640 -205 658.5 -197 Q677 -189 689 -176 L699 -192 Z M338 694 L137 222 L533 222 L338 694 Z " />
<glyph glyph-name="aogonek" unicode="&#x105;" horiz-adv-x="512" d="M478 -192 Q462 -206 440.5 -214.5 Q419 -223 396 -223 Q361 -223 336.5 -202 Q312 -181 312 -143 Q312 -104 340 -69.5 Q368 -35 404 0 L405 0 Q403 10 402 24.5 Q401 39 399.5 54.5 Q398 70 397.5 85 Q397 100 397 110 L394 110 Q374 47 325 16.5 Q276 -14 220 -14 Q192 -14 164.5 -6 Q137 2 115 18 Q93 34 79.5 59 Q66 84 66 118 Q66 167 91.5 197 Q117 227 155 243.5 Q193 260 236.5 265 Q280 270 316 270 L396 270 L396 307 Q396 384 355 419.5 Q314 455 248 455 Q207 455 171.5 440 Q136 425 108 400 L96 417 Q128 445 168.5 459.5 Q209 474 248 474 Q327 474 372.5 433.5 Q418 393 418 306 L418 104 Q418 78 420.5 48.5 Q423 19 426 0 L427 0 Q381 -46 357.5 -76.5 Q334 -107 334 -141 Q334 -171 352 -188 Q370 -205 399 -205 Q419 -205 437.5 -197 Q456 -189 468 -176 L478 -192 Z M396 251 L325 251 Q287 251 245 246.5 Q203 242 168 228 Q133 214 110.5 188 Q88 162 88 118 Q88 86 100.5 64.5 Q113 43 132.5 30 Q152 17 175.5 11 Q199 5 220 5 Q271 5 305 24 Q339 43 359.5 72.5 Q380 102 388 137.5 Q396 173 396 207 L396 251 Z " />
<glyph glyph-name="Cacute" unicode="&#x106;" horiz-adv-x="724" d="M686 87 Q641 33 572.5 6.5 Q504 -20 433 -20 Q353 -20 287 8 Q221 36 173 85.5 Q125 135 98.5 204 Q72 273 72 354 Q72 435 98.5 504 Q125 573 173 622.5 Q221 672 287.5 700 Q354 728 433 728 Q499 728 561.5 705.5 Q624 683 668 637 L654 621 Q633 643 606.5 659.5 Q580 676 550.5 687 Q521 698 491 703 Q461 708 433 708 Q357 708 294.5 680.5 Q232 653 187.5 605 Q143 557 118.5 492.5 Q94 428 94 354 Q94 280 118 215.5 Q142 151 186.5 103 Q231 55 293.5 27.5 Q356 0 433 0 Q499 0 563.5 25.5 Q628 51 670 102 L686 87 Z M411 764 L392 764 L495 908 L522 908 L411 764 Z " />
<glyph glyph-name="cacute" unicode="&#x107;" horiz-adv-x="480" d="M430 398 Q404 425 369 440 Q334 455 296 455 Q247 455 208 436.5 Q169 418 141.5 387 Q114 356 99 315 Q84 274 84 229 Q84 184 99 143 Q114 102 141.5 71.5 Q169 41 208 23 Q247 5 296 5 Q334 5 370.5 18 Q407 31 434 57 L449 43 Q419 13 378.5 -0.5 Q338 -14 296 -14 Q245 -14 202.5 4 Q160 22 128.5 54 Q97 86 79.5 131 Q62 176 62 229 Q62 282 79.5 327 Q97 372 128.5 404.5 Q160 437 202.5 455.5 Q245 474 296 474 Q340 474 379.5 458 Q419 442 447 413 L430 398 Z M285 564 L266 564 L369 708 L396 708 L285 564 Z " />
<glyph glyph-name="Ccircumflex" unicode="&#x108;" horiz-adv-x="724" d="M686 87 Q641 33 572.5 6.5 Q504 -20 433 -20 Q353 -20 287 8 Q221 36 173 85.5 Q125 135 98.5 204 Q72 273 72 354 Q72 435 98.5 504 Q125 573 173 622.5 Q221 672 287.5 700 Q354 728 433 728 Q499 728 561.5 705.5 Q624 683 668 637 L654 621 Q633 643 606.5 659.5 Q580 676 550.5 687 Q521 698 491 703 Q461 708 433 708 Q357 708 294.5 680.5 Q232 653 187.5 605 Q143 557 118.5 492.5 Q94 428 94 354 Q94 280 118 215.5 Q142 151 186.5 103 Q231 55 293.5 27.5 Q356 0 433 0 Q499 0 563.5 25.5 Q628 51 670 102 L686 87 Z M447 908 L550 764 L527 764 L433 896 L339 764 L316 764 L419 908 L447 908 Z " />
<glyph glyph-name="ccircumflex" unicode="&#x109;" horiz-adv-x="480" d="M430 398 Q404 425 369 440 Q334 455 296 455 Q247 455 208 436.5 Q169 418 141.5 387 Q114 356 99 315 Q84 274 84 229 Q84 184 99 143 Q114 102 141.5 71.5 Q169 41 208 23 Q247 5 296 5 Q334 5 370.5 18 Q407 31 434 57 L449 43 Q419 13 378.5 -0.5 Q338 -14 296 -14 Q245 -14 202.5 4 Q160 22 128.5 54 Q97 86 79.5 131 Q62 176 62 229 Q62 282 79.5 327 Q97 372 128.5 404.5 Q160 437 202.5 455.5 Q245 474 296 474 Q340 474 379.5 458 Q419 442 447 413 L430 398 Z M310 708 L413 564 L390 564 L296 696 L202 564 L179 564 L282 708 L310 708 Z " />
<glyph glyph-name="Cdotaccent" unicode="&#x10a;" horiz-adv-x="724" d="M686 87 Q641 33 572.5 6.5 Q504 -20 433 -20 Q353 -20 287 8 Q221 36 173 85.5 Q125 135 98.5 204 Q72 273 72 354 Q72 435 98.5 504 Q125 573 173 622.5 Q221 672 287.5 700 Q354 728 433 728 Q499 728 561.5 705.5 Q624 683 668 637 L654 621 Q633 643 606.5 659.5 Q580 676 550.5 687 Q521 698 491 703 Q461 708 433 708 Q357 708 294.5 680.5 Q232 653 187.5 605 Q143 557 118.5 492.5 Q94 428 94 354 Q94 280 118 215.5 Q142 151 186.5 103 Q231 55 293.5 27.5 Q356 0 433 0 Q499 0 563.5 25.5 Q628 51 670 102 L686 87 Z M432 833 Q423 833 416 840 Q409 847 409 859 Q409 870 416 877 Q423 884 432 884 Q441 884 448 877 Q455 870 455 859 Q455 847 447.5 840 Q440 833 432 833 Z " />
<glyph glyph-name="cdotaccent" unicode="&#x10b;" horiz-adv-x="480" d="M430 398 Q404 425 369 440 Q334 455 296 455 Q247 455 208 436.5 Q169 418 141.5 387 Q114 356 99 315 Q84 274 84 229 Q84 184 99 143 Q114 102 141.5 71.5 Q169 41 208 23 Q247 5 296 5 Q334 5 370.5 18 Q407 31 434 57 L449 43 Q419 13 378.5 -0.5 Q338 -14 296 -14 Q245 -14 202.5 4 Q160 22 128.5 54 Q97 86 79.5 131 Q62 176 62 229 Q62 282 79.5 327 Q97 372 128.5 404.5 Q160 437 202.5 455.5 Q245 474 296 474 Q340 474 379.5 458 Q419 442 447 413 L430 398 Z M293 633 Q284 633 277 640 Q270 647 270 659 Q270 670 277 677 Q284 684 293 684 Q302 684 309 677 Q316 670 316 659 Q316 647 308.5 640 Q301 633 293 633 Z " />
<glyph glyph-name="Ccaron" unicode="&#x10c;" horiz-adv-x="724" d="M686 87 Q641 33 572.5 6.5 Q504 -20 433 -20 Q353 -20 287 8 Q221 36 173 85.5 Q125 135 98.5 204 Q72 273 72 354 Q72 435 98.5 504 Q125 573 173 622.5 Q221 672 287.5 700 Q354 728 433 728 Q499 728 561.5 705.5 Q624 683 668 637 L654 621 Q633 643 606.5 659.5 Q580 676 550.5 687 Q521 698 491 703 Q461 708 433 708 Q357 708 294.5 680.5 Q232 653 187.5 605 Q143 557 118.5 492.5 Q94 428 94 354 Q94 280 118 215.5 Q142 151 186.5 103 Q231 55 293.5 27.5 Q356 0 433 0 Q499 0 563.5 25.5 Q628 51 670 102 L686 87 Z M419 764 L316 908 L339 908 L433 776 L527 908 L550 908 L447 764 L419 764 Z " />
<glyph glyph-name="ccaron" unicode="&#x10d;" horiz-adv-x="480" d="M430 398 Q404 425 369 440 Q334 455 296 455 Q247 455 208 436.5 Q169 418 141.5 387 Q114 356 99 315 Q84 274 84 229 Q84 184 99 143 Q114 102 141.5 71.5 Q169 41 208 23 Q247 5 296 5 Q334 5 370.5 18 Q407 31 434 57 L449 43 Q419 13 378.5 -0.5 Q338 -14 296 -14 Q245 -14 202.5 4 Q160 22 128.5 54 Q97 86 79.5 131 Q62 176 62 229 Q62 282 79.5 327 Q97 372 128.5 404.5 Q160 437 202.5 455.5 Q245 474 296 474 Q340 474 379.5 458 Q419 442 447 413 L430 398 Z M278 564 L175 708 L198 708 L292 576 L386 708 L409 708 L306 564 L278 564 Z " />
<glyph glyph-name="Dcaron" unicode="&#x10e;" horiz-adv-x="770" d="M698 354 Q698 262 668 195.5 Q638 129 585 85.5 Q532 42 460.5 21 Q389 0 307 0 L106 0 L106 708 L307 708 Q389 708 460.5 687.5 Q532 667 585 623.5 Q638 580 668 513 Q698 446 698 354 Z M129 688 L129 20 L302 20 Q380 20 448.5 39.5 Q517 59 567 99.5 Q617 140 646 203 Q675 266 675 354 Q675 442 646 505.5 Q617 569 567 609.5 Q517 650 448.5 669 Q380 688 302 688 L129 688 Z M341 764 L238 908 L261 908 L355 776 L449 908 L472 908 L369 764 L341 764 Z " />
<glyph glyph-name="dcaron" unicode="&#x10f;" horiz-adv-x="626" d="M502 756 L524 756 L524 0 L502 0 L502 124 L499 124 Q469 56 413.5 21 Q358 -14 292 -14 Q242 -14 199.5 4.5 Q157 23 126.5 55.5 Q96 88 79 132.5 Q62 177 62 229 Q62 281 79 326 Q96 371 126.5 404 Q157 437 199.5 455.5 Q242 474 292 474 Q358 474 413.5 439 Q469 404 499 335 L502 335 L502 756 Z M84 229 Q84 184 98.5 143 Q113 102 140 71.5 Q167 41 205.5 23 Q244 5 292 5 Q338 5 376.5 23 Q415 41 443 71.5 Q471 102 487 143 Q503 184 503 230 Q503 276 487 317 Q471 358 443 388.5 Q415 419 376.5 437 Q338 455 292 455 Q244 455 205.5 436.5 Q167 418 140 387 Q113 356 98.5 315 Q84 274 84 229 Z M603 523 L586 523 L637 708 L661 708 L603 523 Z " />
<glyph glyph-name="Dcroat" unicode="&#x110;" horiz-adv-x="770" d="M26 358 L26 378 L106 378 L106 708 L307 708 Q389 708 460.5 687.5 Q532 667 585 623.5 Q638 580 668 513 Q698 446 698 354 Q698 262 668 195.5 Q638 129 585 85.5 Q532 42 460.5 21 Q389 0 307 0 L106 0 L106 358 L26 358 Z M397 378 L397 358 L129 358 L129 20 L302 20 Q380 20 448.5 39.5 Q517 59 567 99.5 Q617 140 646 203 Q675 266 675 354 Q675 442 646 505.5 Q617 569 567 609.5 Q517 650 448.5 669 Q380 688 302 688 L129 688 L129 378 L397 378 Z " />
<glyph glyph-name="dcroat" unicode="&#x111;" horiz-adv-x="626" d="M524 570 L524 0 L502 0 L502 124 L499 124 Q469 56 413.5 21 Q358 -14 292 -14 Q242 -14 199.5 4.5 Q157 23 126.5 55.5 Q96 88 79 132.5 Q62 177 62 229 Q62 281 79 326 Q96 371 126.5 404 Q157 437 199.5 455.5 Q242 474 292 474 Q358 474 413.5 439 Q469 404 499 335 L502 335 L502 570 L289 570 L289 588 L502 588 L502 756 L524 756 L524 588 L594 588 L594 570 L524 570 Z M84 229 Q84 184 98.5 143 Q113 102 140 71.5 Q167 41 205.5 23 Q244 5 292 5 Q338 5 376.5 23 Q415 41 443 71.5 Q471 102 487 143 Q503 184 503 230 Q503 276 487 317 Q471 358 443 388.5 Q415 419 376.5 437 Q338 455 292 455 Q244 455 205.5 436.5 Q167 418 140 387 Q113 356 98.5 315 Q84 274 84 229 Z " />
<glyph glyph-name="Emacron" unicode="&#x112;" horiz-adv-x="590" d="M106 0 L106 708 L518 708 L518 688 L127 688 L127 377 L495 377 L495 357 L127 357 L127 20 L534 20 L534 0 L106 0 Z M199 821 L199 841 L431 841 L431 821 L199 821 Z " />
<glyph glyph-name="emacron" unicode="&#x113;" horiz-adv-x="556" d="M84 235 Q84 193 96.5 152 Q109 111 134.5 78.5 Q160 46 199 26 Q238 6 291 6 Q345 6 387 27.5 Q429 49 460 90 L476 76 Q442 32 396.5 9 Q351 -14 291 -14 Q240 -14 198 4.5 Q156 23 125.5 56 Q95 89 78.5 135 Q62 181 62 235 Q62 287 79 331 Q96 375 125.5 407 Q155 439 195 456.5 Q235 474 281 474 Q335 474 375 455 Q415 436 441.5 405 Q468 374 481 334.5 Q494 295 494 254 L494 235 L84 235 Z M473 254 Q472 299 457.5 336 Q443 373 418 399.5 Q393 426 358 440.5 Q323 455 280 455 Q228 455 191 433.5 Q154 412 130.5 380.5 Q107 349 96 314.5 Q85 280 85 254 L473 254 Z M170 621 L170 641 L402 641 L402 621 L170 621 Z " />
<glyph glyph-name="Ebreve" unicode="&#x114;" horiz-adv-x="590" d="M106 0 L106 708 L518 708 L518 688 L127 688 L127 377 L495 377 L495 357 L127 357 L127 20 L534 20 L534 0 L106 0 Z M441 898 Q431 837 397.5 804.5 Q364 772 314 772 Q265 772 231.5 804.5 Q198 837 190 898 L209 898 Q219 846 247 819 Q275 792 314 792 Q359 792 385 817 Q411 842 423 898 L441 898 Z " />
<glyph glyph-name="ebreve" unicode="&#x115;" horiz-adv-x="556" d="M84 235 Q84 193 96.5 152 Q109 111 134.5 78.5 Q160 46 199 26 Q238 6 291 6 Q345 6 387 27.5 Q429 49 460 90 L476 76 Q442 32 396.5 9 Q351 -14 291 -14 Q240 -14 198 4.5 Q156 23 125.5 56 Q95 89 78.5 135 Q62 181 62 235 Q62 287 79 331 Q96 375 125.5 407 Q155 439 195 456.5 Q235 474 281 474 Q335 474 375 455 Q415 436 441.5 405 Q468 374 481 334.5 Q494 295 494 254 L494 235 L84 235 Z M473 254 Q472 299 457.5 336 Q443 373 418 399.5 Q393 426 358 440.5 Q323 455 280 455 Q228 455 191 433.5 Q154 412 130.5 380.5 Q107 349 96 314.5 Q85 280 85 254 L473 254 Z M414 698 Q404 637 370.5 604.5 Q337 572 287 572 Q238 572 204.5 604.5 Q171 637 163 698 L182 698 Q192 646 220 619 Q248 592 287 592 Q332 592 358 617 Q384 642 396 698 L414 698 Z " />
<glyph glyph-name="Edotaccent" unicode="&#x116;" horiz-adv-x="590" d="M106 0 L106 708 L518 708 L518 688 L127 688 L127 377 L495 377 L495 357 L127 357 L127 20 L534 20 L534 0 L106 0 Z M315 833 Q306 833 299 840 Q292 847 292 859 Q292 870 299 877 Q306 884 315 884 Q324 884 331 877 Q338 870 338 859 Q338 847 330.5 840 Q323 833 315 833 Z " />
<glyph glyph-name="edotaccent" unicode="&#x117;" horiz-adv-x="556" d="M84 235 Q84 193 96.5 152 Q109 111 134.5 78.5 Q160 46 199 26 Q238 6 291 6 Q345 6 387 27.5 Q429 49 460 90 L476 76 Q442 32 396.5 9 Q351 -14 291 -14 Q240 -14 198 4.5 Q156 23 125.5 56 Q95 89 78.5 135 Q62 181 62 235 Q62 287 79 331 Q96 375 125.5 407 Q155 439 195 456.5 Q235 474 281 474 Q335 474 375 455 Q415 436 441.5 405 Q468 374 481 334.5 Q494 295 494 254 L494 235 L84 235 Z M473 254 Q472 299 457.5 336 Q443 373 418 399.5 Q393 426 358 440.5 Q323 455 280 455 Q228 455 191 433.5 Q154 412 130.5 380.5 Q107 349 96 314.5 Q85 280 85 254 L473 254 Z M286 633 Q277 633 270 640 Q263 647 263 659 Q263 670 270 677 Q277 684 286 684 Q295 684 302 677 Q309 670 309 659 Q309 647 301.5 640 Q294 633 286 633 Z " />
<glyph glyph-name="Eogonek" unicode="&#x118;" horiz-adv-x="590" d="M571 -192 Q555 -206 533.5 -214.5 Q512 -223 489 -223 Q454 -223 429.5 -202 Q405 -181 405 -143 Q405 -104 433 -69.5 Q461 -35 497 0 L106 0 L106 708 L518 708 L518 688 L127 688 L127 377 L495 377 L495 357 L127 357 L127 20 L534 20 L534 0 L520 0 Q474 -46 450.5 -76.5 Q427 -107 427 -141 Q427 -171 445 -188 Q463 -205 492 -205 Q512 -205 530.5 -197 Q549 -189 561 -176 L571 -192 Z " />
<glyph glyph-name="eogonek" unicode="&#x119;" horiz-adv-x="556" d="M402 -192 Q386 -206 364.5 -214.5 Q343 -223 320 -223 Q285 -223 260.5 -202 Q236 -181 236 -143 Q236 -108 259 -76 Q282 -44 314 -13 Q309 -13 303 -13.5 Q297 -14 291 -14 Q240 -14 198 4.5 Q156 23 125.5 56 Q95 89 78.5 135 Q62 181 62 235 Q62 287 79 331 Q96 375 125.5 407 Q155 439 195 456.5 Q235 474 281 474 Q335 474 375 455 Q415 436 441.5 405 Q468 374 481 334.5 Q494 295 494 254 L494 235 L84 235 Q84 193 96.5 152 Q109 111 134.5 78.5 Q160 46 199 26 Q238 6 291 6 Q345 6 387 27.5 Q429 49 460 90 L476 76 Q422 7 342 -9 Q301 -50 279.5 -79.5 Q258 -109 258 -141 Q258 -171 276 -188 Q294 -205 323 -205 Q343 -205 361.5 -197 Q380 -189 392 -176 L402 -192 Z M473 254 Q472 299 457.5 336 Q443 373 418 399.5 Q393 426 358 440.5 Q323 455 280 455 Q228 455 191 433.5 Q154 412 130.5 380.5 Q107 349 96 314.5 Q85 280 85 254 L473 254 Z " />
<glyph glyph-name="Ecaron" unicode="&#x11a;" horiz-adv-x="590" d="M106 0 L106 708 L518 708 L518 688 L127 688 L127 377 L495 377 L495 357 L127 357 L127 20 L534 20 L534 0 L106 0 Z M301 764 L198 908 L221 908 L315 776 L409 908 L432 908 L329 764 L301 764 Z " />
<glyph glyph-name="ecaron" unicode="&#x11b;" horiz-adv-x="556" d="M84 235 Q84 193 96.5 152 Q109 111 134.5 78.5 Q160 46 199 26 Q238 6 291 6 Q345 6 387 27.5 Q429 49 460 90 L476 76 Q442 32 396.5 9 Q351 -14 291 -14 Q240 -14 198 4.5 Q156 23 125.5 56 Q95 89 78.5 135 Q62 181 62 235 Q62 287 79 331 Q96 375 125.5 407 Q155 439 195 456.5 Q235 474 281 474 Q335 474 375 455 Q415 436 441.5 405 Q468 374 481 334.5 Q494 295 494 254 L494 235 L84 235 Z M473 254 Q472 299 457.5 336 Q443 373 418 399.5 Q393 426 358 440.5 Q323 455 280 455 Q228 455 191 433.5 Q154 412 130.5 380.5 Q107 349 96 314.5 Q85 280 85 254 L473 254 Z M271 564 L168 708 L191 708 L285 576 L379 708 L402 708 L299 564 L271 564 Z " />
<glyph glyph-name="Gcircumflex" unicode="&#x11c;" horiz-adv-x="795" d="M699 41 Q657 18 593 -1 Q529 -20 445 -20 Q361 -20 292 9 Q223 38 174 88.5 Q125 139 98.5 207.5 Q72 276 72 356 Q72 436 99 504.5 Q126 573 174.5 622.5 Q223 672 291 700 Q359 728 441 728 Q513 728 573 706 Q633 684 679 646 L663 630 Q643 649 616.5 663.5 Q590 678 560.5 688 Q531 698 500 703 Q469 708 440 708 Q362 708 298 680.5 Q234 653 188.5 605 Q143 557 118.5 493 Q94 429 94 356 Q94 283 118 218 Q142 153 187.5 104.5 Q233 56 298.5 28 Q364 0 447 0 Q519 0 575 15 Q631 30 678 53 L678 331 L494 331 L494 350 L699 350 L699 41 Z M449 908 L552 764 L529 764 L435 896 L341 764 L318 764 L421 908 L449 908 Z " />
<glyph glyph-name="gcircumflex" unicode="&#x11d;" horiz-adv-x="626" d="M502 124 L499 124 Q486 90 464 64.5 Q442 39 415 21.5 Q388 4 356.5 -5 Q325 -14 292 -14 Q242 -14 199.5 4.5 Q157 23 126.5 55.5 Q96 88 79 132.5 Q62 177 62 229 Q62 281 79 326 Q96 371 126.5 404 Q157 437 199.5 455.5 Q242 474 292 474 Q358 474 413.5 439 Q469 404 499 335 L502 335 L502 460 L524 460 L524 26 Q524 -29 512.5 -79 Q501 -129 474.5 -167 Q448 -205 404.5 -227.5 Q361 -250 297 -250 Q232 -250 181 -227.5 Q130 -205 94 -164 L109 -149 Q147 -192 195.5 -211.5 Q244 -231 297 -231 Q357 -231 397 -209 Q437 -187 460 -151 Q483 -115 492.5 -68.5 Q502 -22 502 28 L502 124 Z M84 229 Q84 184 98.5 143 Q113 102 140 71 Q167 40 205.5 22 Q244 4 292 4 Q338 4 376.5 22 Q415 40 443 71 Q471 102 487 143 Q503 184 503 230 Q503 276 487 317 Q471 358 443 388.5 Q415 419 376.5 437 Q338 455 292 455 Q244 455 205.5 436.5 Q167 418 140 387 Q113 356 98.5 315 Q84 274 84 229 Z M321 708 L424 564 L401 564 L307 696 L213 564 L190 564 L293 708 L321 708 Z " />
<glyph glyph-name="Gbreve" unicode="&#x11e;" horiz-adv-x="795" d="M699 41 Q657 18 593 -1 Q529 -20 445 -20 Q361 -20 292 9 Q223 38 174 88.5 Q125 139 98.5 207.5 Q72 276 72 356 Q72 436 99 504.5 Q126 573 174.5 622.5 Q223 672 291 700 Q359 728 441 728 Q513 728 573 706 Q633 684 679 646 L663 630 Q643 649 616.5 663.5 Q590 678 560.5 688 Q531 698 500 703 Q469 708 440 708 Q362 708 298 680.5 Q234 653 188.5 605 Q143 557 118.5 493 Q94 429 94 356 Q94 283 118 218 Q142 153 187.5 104.5 Q233 56 298.5 28 Q364 0 447 0 Q519 0 575 15 Q631 30 678 53 L678 331 L494 331 L494 350 L699 350 L699 41 Z M563 898 Q553 837 519.5 804.5 Q486 772 436 772 Q387 772 353.5 804.5 Q320 837 312 898 L331 898 Q341 846 369 819 Q397 792 436 792 Q481 792 507 817 Q533 842 545 898 L563 898 Z " />
<glyph glyph-name="gbreve" unicode="&#x11f;" horiz-adv-x="626" d="M502 124 L499 124 Q486 90 464 64.5 Q442 39 415 21.5 Q388 4 356.5 -5 Q325 -14 292 -14 Q242 -14 199.5 4.5 Q157 23 126.5 55.5 Q96 88 79 132.5 Q62 177 62 229 Q62 281 79 326 Q96 371 126.5 404 Q157 437 199.5 455.5 Q242 474 292 474 Q358 474 413.5 439 Q469 404 499 335 L502 335 L502 460 L524 460 L524 26 Q524 -29 512.5 -79 Q501 -129 474.5 -167 Q448 -205 404.5 -227.5 Q361 -250 297 -250 Q232 -250 181 -227.5 Q130 -205 94 -164 L109 -149 Q147 -192 195.5 -211.5 Q244 -231 297 -231 Q357 -231 397 -209 Q437 -187 460 -151 Q483 -115 492.5 -68.5 Q502 -22 502 28 L502 124 Z M84 229 Q84 184 98.5 143 Q113 102 140 71 Q167 40 205.5 22 Q244 4 292 4 Q338 4 376.5 22 Q415 40 443 71 Q471 102 487 143 Q503 184 503 230 Q503 276 487 317 Q471 358 443 388.5 Q415 419 376.5 437 Q338 455 292 455 Q244 455 205.5 436.5 Q167 418 140 387 Q113 356 98.5 315 Q84 274 84 229 Z M431 698 Q421 637 387.5 604.5 Q354 572 304 572 Q255 572 221.5 604.5 Q188 637 180 698 L199 698 Q209 646 237 619 Q265 592 304 592 Q349 592 375 617 Q401 642 413 698 L431 698 Z " />
<glyph glyph-name="Gdotaccent" unicode="&#x120;" horiz-adv-x="795" d="M699 41 Q657 18 593 -1 Q529 -20 445 -20 Q361 -20 292 9 Q223 38 174 88.5 Q125 139 98.5 207.5 Q72 276 72 356 Q72 436 99 504.5 Q126 573 174.5 622.5 Q223 672 291 700 Q359 728 441 728 Q513 728 573 706 Q633 684 679 646 L663 630 Q643 649 616.5 663.5 Q590 678 560.5 688 Q531 698 500 703 Q469 708 440 708 Q362 708 298 680.5 Q234 653 188.5 605 Q143 557 118.5 493 Q94 429 94 356 Q94 283 118 218 Q142 153 187.5 104.5 Q233 56 298.5 28 Q364 0 447 0 Q519 0 575 15 Q631 30 678 53 L678 331 L494 331 L494 350 L699 350 L699 41 Z M434 833 Q425 833 418 840 Q411 847 411 859 Q411 870 418 877 Q425 884 434 884 Q443 884 450 877 Q457 870 457 859 Q457 847 449.5 840 Q442 833 434 833 Z " />
<glyph glyph-name="gdotaccent" unicode="&#x121;" horiz-adv-x="626" d="M502 124 L499 124 Q486 90 464 64.5 Q442 39 415 21.5 Q388 4 356.5 -5 Q325 -14 292 -14 Q242 -14 199.5 4.5 Q157 23 126.5 55.5 Q96 88 79 132.5 Q62 177 62 229 Q62 281 79 326 Q96 371 126.5 404 Q157 437 199.5 455.5 Q242 474 292 474 Q358 474 413.5 439 Q469 404 499 335 L502 335 L502 460 L524 460 L524 26 Q524 -29 512.5 -79 Q501 -129 474.5 -167 Q448 -205 404.5 -227.5 Q361 -250 297 -250 Q232 -250 181 -227.5 Q130 -205 94 -164 L109 -149 Q147 -192 195.5 -211.5 Q244 -231 297 -231 Q357 -231 397 -209 Q437 -187 460 -151 Q483 -115 492.5 -68.5 Q502 -22 502 28 L502 124 Z M84 229 Q84 184 98.5 143 Q113 102 140 71 Q167 40 205.5 22 Q244 4 292 4 Q338 4 376.5 22 Q415 40 443 71 Q471 102 487 143 Q503 184 503 230 Q503 276 487 317 Q471 358 443 388.5 Q415 419 376.5 437 Q338 455 292 455 Q244 455 205.5 436.5 Q167 418 140 387 Q113 356 98.5 315 Q84 274 84 229 Z M304 633 Q295 633 288 640 Q281 647 281 659 Q281 670 288 677 Q295 684 304 684 Q313 684 320 677 Q327 670 327 659 Q327 647 319.5 640 Q312 633 304 633 Z " />
<glyph glyph-name="Gcommaaccent" unicode="&#x122;" horiz-adv-x="795" d="M699 41 Q657 18 593 -1 Q529 -20 445 -20 Q361 -20 292 9 Q223 38 174 88.5 Q125 139 98.5 207.5 Q72 276 72 356 Q72 436 99 504.5 Q126 573 174.5 622.5 Q223 672 291 700 Q359 728 441 728 Q513 728 573 706 Q633 684 679 646 L663 630 Q643 649 616.5 663.5 Q590 678 560.5 688 Q531 698 500 703 Q469 708 440 708 Q362 708 298 680.5 Q234 653 188.5 605 Q143 557 118.5 493 Q94 429 94 356 Q94 283 118 218 Q142 153 187.5 104.5 Q233 56 298.5 28 Q364 0 447 0 Q519 0 575 15 Q631 30 678 53 L678 331 L494 331 L494 350 L699 350 L699 41 Z M403 -230 L386 -230 L437 -45 L461 -45 L403 -230 Z " />
<glyph glyph-name="gcommaaccent" unicode="&#x123;" horiz-adv-x="626" d="M502 124 L499 124 Q486 90 464 64.5 Q442 39 415 21.5 Q388 4 356.5 -5 Q325 -14 292 -14 Q242 -14 199.5 4.5 Q157 23 126.5 55.5 Q96 88 79 132.5 Q62 177 62 229 Q62 281 79 326 Q96 371 126.5 404 Q157 437 199.5 455.5 Q242 474 292 474 Q358 474 413.5 439 Q469 404 499 335 L502 335 L502 460 L524 460 L524 26 Q524 -29 512.5 -79 Q501 -129 474.5 -167 Q448 -205 404.5 -227.5 Q361 -250 297 -250 Q232 -250 181 -227.5 Q130 -205 94 -164 L109 -149 Q147 -192 195.5 -211.5 Q244 -231 297 -231 Q357 -231 397 -209 Q437 -187 460 -151 Q483 -115 492.5 -68.5 Q502 -22 502 28 L502 124 Z M84 229 Q84 184 98.5 143 Q113 102 140 71 Q167 40 205.5 22 Q244 4 292 4 Q338 4 376.5 22 Q415 40 443 71 Q471 102 487 143 Q503 184 503 230 Q503 276 487 317 Q471 358 443 388.5 Q415 419 376.5 437 Q338 455 292 455 Q244 455 205.5 436.5 Q167 418 140 387 Q113 356 98.5 315 Q84 274 84 229 Z M335 749 L352 749 L301 564 L277 564 L335 749 Z " />
<glyph glyph-name="Hcircumflex" unicode="&#x124;" horiz-adv-x="732" d="M604 0 L604 356 L128 356 L128 0 L106 0 L106 708 L128 708 L128 376 L604 376 L604 708 L626 708 L626 0 L604 0 Z M381 908 L484 764 L461 764 L367 896 L273 764 L250 764 L353 908 L381 908 Z " />
<glyph glyph-name="hcircumflex" unicode="&#x125;" horiz-adv-x="569" d="M126 339 Q136 371 154.5 396 Q173 421 197 438.5 Q221 456 249 465 Q277 474 307 474 Q355 474 387 457 Q419 440 438 412 Q457 384 465 349 Q473 314 473 278 L473 0 L451 0 L451 276 Q451 304 445 336 Q439 368 422.5 394 Q406 420 378 437.5 Q350 455 307 455 Q269 455 235.5 439.5 Q202 424 177.5 395 Q153 366 138.5 324.5 Q124 283 124 230 L124 0 L102 0 L102 756 L124 756 L124 339 L126 339 Z M298 940 L401 796 L378 796 L284 928 L190 796 L167 796 L270 940 L298 940 Z " />
<glyph glyph-name="Hbar" unicode="&#x126;" horiz-adv-x="732" d="M604 0 L604 356 L128 356 L128 0 L106 0 L106 708 L128 708 L128 518 L604 518 L604 708 L626 708 L626 0 L604 0 Z M604 376 L604 500 L128 500 L128 376 L604 376 Z " />
<glyph glyph-name="hbar" unicode="&#x127;" horiz-adv-x="569" d="M126 339 Q136 371 154.5 396 Q173 421 197 438.5 Q221 456 249 465 Q277 474 307 474 Q355 474 387 457 Q419 440 438 412 Q457 384 465 349 Q473 314 473 278 L473 0 L451 0 L451 276 Q451 304 445 336 Q439 368 422.5 394 Q406 420 378 437.5 Q350 455 307 455 Q269 455 235.5 439.5 Q202 424 177.5 395 Q153 366 138.5 324.5 Q124 283 124 230 L124 0 L102 0 L102 570 L30 570 L30 588 L102 588 L102 756 L124 756 L124 588 L335 588 L335 570 L124 570 L124 339 L126 339 Z " />
<glyph glyph-name="Itilde" unicode="&#x128;" horiz-adv-x="234" d="M106 0 L106 708 L128 708 L128 0 L106 0 Z M121 838 Q134 830 143 825 Q152 820 158.5 817.5 Q165 815 169.5 814.5 Q174 814 180 814 Q213 814 220 862 L236 862 Q232 826 216 810.5 Q200 795 180 795 Q164 795 151.5 800 Q139 805 116 819 Q90 835 79 839 Q68 843 57 843 Q25 843 17 792 L1 792 Q5 828 21 845 Q37 862 57 862 Q73 862 86 857 Q99 852 121 838 Z " />
<glyph glyph-name="itilde" unicode="&#x129;" horiz-adv-x="226" d="M102 0 L102 460 L124 460 L124 0 L102 0 Z M117 638 Q130 630 139 625 Q148 620 154.5 617.5 Q161 615 165.5 614.5 Q170 614 176 614 Q209 614 216 662 L232 662 Q228 626 212 610.5 Q196 595 176 595 Q160 595 147.5 600 Q135 605 112 619 Q86 635 75 639 Q64 643 53 643 Q21 643 13 592 L-3 592 Q1 628 17 645 Q33 662 53 662 Q69 662 82 657 Q95 652 117 638 Z " />
<glyph glyph-name="Imacron" unicode="&#x12a;" horiz-adv-x="234" d="M106 0 L106 708 L128 708 L128 0 L106 0 Z M2 821 L2 841 L234 841 L234 821 L2 821 Z " />
<glyph glyph-name="imacron" unicode="&#x12b;" horiz-adv-x="226" d="M102 0 L102 460 L124 460 L124 0 L102 0 Z M-2 621 L-2 641 L230 641 L230 621 L-2 621 Z " />
<glyph glyph-name="Iogonek" unicode="&#x12e;" horiz-adv-x="234" d="M179 -192 Q163 -206 141.5 -214.5 Q120 -223 97 -223 Q62 -223 37.5 -202 Q13 -181 13 -143 Q13 -104 41 -69.5 Q69 -35 105 0 L106 0 L106 708 L128 708 L128 0 Q82 -46 58.5 -76.5 Q35 -107 35 -141 Q35 -171 53 -188 Q71 -205 100 -205 Q120 -205 138.5 -197 Q157 -189 169 -176 L179 -192 Z " />
<glyph glyph-name="iogonek" unicode="&#x12f;" horiz-adv-x="226" d="M102 0 L102 460 L124 460 L124 0 L102 0 Z M176 -192 Q160 -206 138.5 -214.5 Q117 -223 94 -223 Q59 -223 34.5 -202 Q10 -181 10 -143 Q10 -104 38 -69.5 Q66 -35 102 0 L125 0 Q79 -46 55.5 -76.5 Q32 -107 32 -141 Q32 -171 50 -188 Q68 -205 97 -205 Q117 -205 135.5 -197 Q154 -189 166 -176 L176 -192 Z M113 633 Q104 633 97 640 Q90 647 90 659 Q90 670 97 677 Q104 684 113 684 Q122 684 129 677 Q136 670 136 659 Q136 647 128.5 640 Q121 633 113 633 Z " />
<glyph glyph-name="Idotaccent" unicode="&#x130;" horiz-adv-x="234" d="M106 0 L106 708 L128 708 L128 0 L106 0 Z M117 833 Q108 833 101 840 Q94 847 94 859 Q94 870 101 877 Q108 884 117 884 Q126 884 133 877 Q140 870 140 859 Q140 847 132.5 840 Q125 833 117 833 Z " />
<glyph glyph-name="dotlessi" unicode="&#x131;" horiz-adv-x="226" d="M102 0 L102 460 L124 460 L124 0 L102 0 Z " />
<glyph glyph-name="IJ" unicode="&#x132;" horiz-adv-x="707" d="M106 0 L106 708 L128 708 L128 0 L106 0 Z M605 193 Q605 95 559.5 38.5 Q514 -18 424 -18 Q361 -18 317 14.5 Q273 47 256 93 L275 102 Q295 57 334 29.5 Q373 2 424 2 Q467 2 497 16.5 Q527 31 546 57 Q565 83 574 118.5 Q583 154 583 196 L583 708 L605 708 L605 193 Z " />
<glyph glyph-name="ij" unicode="&#x133;" horiz-adv-x="455" d="M113 633 Q104 633 97 640 Q90 647 90 659 Q90 670 97 677 Q104 684 113 684 Q122 684 129 677 Q136 670 136 659 Q136 647 128.5 640 Q121 633 113 633 Z M102 0 L102 460 L124 460 L124 0 L102 0 Z M353 -97 Q353 -132 348.5 -159 Q344 -186 331.5 -204 Q319 -222 297 -231.5 Q275 -241 241 -241 Q234 -241 226 -240.5 Q218 -240 212 -238 L216 -219 Q229 -222 241 -222 Q273 -222 291 -211 Q309 -200 318 -182.5 Q327 -165 329 -143 Q331 -121 331 -99 L331 460 L353 460 L353 -97 Z M342 633 Q333 633 326 640 Q319 647 319 659 Q319 670 326 677 Q333 684 342 684 Q351 684 358 677 Q365 670 365 659 Q365 647 357.5 640 Q350 633 342 633 Z " />
<glyph glyph-name="Jcircumflex" unicode="&#x134;" horiz-adv-x="480" d="M378 193 Q378 95 332.5 38.5 Q287 -18 197 -18 Q134 -18 90 14.5 Q46 47 29 93 L48 102 Q68 57 107 29.5 Q146 2 197 2 Q240 2 270 16.5 Q300 31 319 57 Q338 83 347 118.5 Q356 154 356 196 L356 708 L378 708 L378 193 Z M379 908 L482 764 L459 764 L365 896 L271 764 L248 764 L351 908 L379 908 Z " />
<glyph glyph-name="jcircumflex" unicode="&#x135;" horiz-adv-x="226" d="M124 -97 Q124 -132 119.5 -159 Q115 -186 102.5 -204 Q90 -222 68 -231.5 Q46 -241 12 -241 Q5 -241 -3 -240.5 Q-11 -240 -17 -238 L-13 -219 Q0 -222 12 -222 Q44 -222 62 -211 Q80 -200 89 -182.5 Q98 -165 100 -143 Q102 -121 102 -99 L102 460 L124 460 L124 -97 Z M125 708 L228 564 L205 564 L111 696 L17 564 L-6 564 L97 708 L125 708 Z " />
<glyph glyph-name="Kcommaaccent" unicode="&#x136;" horiz-adv-x="565" d="M129 383 L485 708 L517 708 L157 383 L535 0 L504 0 L129 381 L128 381 L128 0 L106 0 L106 708 L128 708 L128 383 L129 383 Z M265 -230 L248 -230 L299 -45 L323 -45 L265 -230 Z " />
<glyph glyph-name="kcommaaccent" unicode="&#x137;" horiz-adv-x="445" d="M125 248 L363 460 L394 460 L151 247 L422 0 L389 0 L125 243 L124 243 L124 0 L102 0 L102 756 L124 756 L124 248 L125 248 Z M208 -230 L191 -230 L242 -45 L266 -45 L208 -230 Z " />
<glyph glyph-name="Lacute" unicode="&#x139;" horiz-adv-x="498" d="M106 0 L106 708 L128 708 L128 20 L480 20 L480 0 L106 0 Z M125 764 L106 764 L209 908 L236 908 L125 764 Z " />
<glyph glyph-name="lacute" unicode="&#x13a;" horiz-adv-x="226" d="M102 0 L102 756 L124 756 L124 0 L102 0 Z M121 792 L102 792 L205 936 L232 936 L121 792 Z " />
<glyph glyph-name="Lcommaaccent" unicode="&#x13b;" horiz-adv-x="498" d="M106 0 L106 708 L128 708 L128 20 L480 20 L480 0 L106 0 Z M250 -230 L233 -230 L284 -45 L308 -45 L250 -230 Z " />
<glyph glyph-name="lcommaaccent" unicode="&#x13c;" horiz-adv-x="226" d="M102 0 L102 756 L124 756 L124 0 L102 0 Z M82 -231 L65 -231 L116 -46 L140 -46 L82 -231 Z " />
<glyph glyph-name="Lcaron" unicode="&#x13d;" horiz-adv-x="498" d="M106 0 L106 708 L128 708 L128 20 L480 20 L480 0 L106 0 Z M226 523 L209 523 L260 708 L284 708 L226 523 Z " />
<glyph glyph-name="lcaron" unicode="&#x13e;" horiz-adv-x="226" d="M102 0 L102 756 L124 756 L124 0 L102 0 Z M196 523 L179 523 L230 708 L254 708 L196 523 Z " />
<glyph glyph-name="Ldot" unicode="&#x13f;" horiz-adv-x="498" d="M106 0 L106 708 L128 708 L128 20 L480 20 L480 0 L106 0 Z M367 273 Q358 273 351 280 Q344 287 344 299 Q344 310 351 317 Q358 324 367 324 Q376 324 383 317 Q390 310 390 299 Q390 287 382.5 280 Q375 273 367 273 Z " />
<glyph glyph-name="ldot" unicode="&#x140;" horiz-adv-x="226" d="M102 0 L102 756 L124 756 L124 0 L102 0 Z M224 273 Q215 273 208 280 Q201 287 201 299 Q201 310 208 317 Q215 324 224 324 Q233 324 240 317 Q247 310 247 299 Q247 287 239.5 280 Q232 273 224 273 Z " />
<glyph glyph-name="Lslash" unicode="&#x141;" horiz-adv-x="498" d="M41 198 L41 225 L106 285 L106 708 L128 708 L128 302 L335 488 L335 464 L128 275 L128 20 L480 20 L480 0 L106 0 L106 258 L41 198 Z " />
<glyph glyph-name="lslash" unicode="&#x142;" horiz-adv-x="226" d="M41 302 L41 329 L106 389 L106 756 L128 756 L128 406 L201 469 L201 445 L128 379 L128 0 L106 0 L106 362 L41 302 Z " />
<glyph glyph-name="Nacute" unicode="&#x143;" horiz-adv-x="777" d="M639 0 L131 680 L128 680 L128 0 L106 0 L106 708 L137 708 L646 29 L649 29 L649 708 L671 708 L671 0 L639 0 Z M386 764 L367 764 L470 908 L497 908 L386 764 Z " />
<glyph glyph-name="nacute" unicode="&#x144;" horiz-adv-x="572" d="M128 339 Q138 371 157 396 Q176 421 200 438.5 Q224 456 252 465 Q280 474 310 474 Q358 474 390 457 Q422 440 441 412 Q460 384 468 349 Q476 314 476 278 L476 0 L454 0 L454 276 Q454 304 448 336 Q442 368 425.5 394 Q409 420 381 437.5 Q353 455 310 455 Q272 455 238.5 439.5 Q205 424 180.5 395 Q156 366 141.5 324.5 Q127 283 127 230 L127 0 L105 0 L105 344 Q105 355 104.5 371 Q104 387 103.5 403.5 Q103 420 102 435 Q101 450 100 460 L122 460 Q123 450 123.5 435 Q124 420 124.5 402.5 Q125 385 125.5 368.5 Q126 352 126 339 L128 339 Z M284 564 L265 564 L368 708 L395 708 L284 564 Z " />
<glyph glyph-name="Ncommaaccent" unicode="&#x145;" horiz-adv-x="777" d="M639 0 L131 680 L128 680 L128 0 L106 0 L106 708 L137 708 L646 29 L649 29 L649 708 L671 708 L671 0 L639 0 Z M344 -230 L327 -230 L378 -45 L402 -45 L344 -230 Z " />
<glyph glyph-name="ncommaaccent" unicode="&#x146;" horiz-adv-x="572" d="M128 339 Q138 371 157 396 Q176 421 200 438.5 Q224 456 252 465 Q280 474 310 474 Q358 474 390 457 Q422 440 441 412 Q460 384 468 349 Q476 314 476 278 L476 0 L454 0 L454 276 Q454 304 448 336 Q442 368 425.5 394 Q409 420 381 437.5 Q353 455 310 455 Q272 455 238.5 439.5 Q205 424 180.5 395 Q156 366 141.5 324.5 Q127 283 127 230 L127 0 L105 0 L105 344 Q105 355 104.5 371 Q104 387 103.5 403.5 Q103 420 102 435 Q101 450 100 460 L122 460 Q123 450 123.5 435 Q124 420 124.5 402.5 Q125 385 125.5 368.5 Q126 352 126 339 L128 339 Z M257 -230 L240 -230 L291 -45 L315 -45 L257 -230 Z " />
<glyph glyph-name="Ncaron" unicode="&#x147;" horiz-adv-x="777" d="M639 0 L131 680 L128 680 L128 0 L106 0 L106 708 L137 708 L646 29 L649 29 L649 708 L671 708 L671 0 L639 0 Z M374 764 L271 908 L294 908 L388 776 L482 908 L505 908 L402 764 L374 764 Z " />
<glyph glyph-name="ncaron" unicode="&#x148;" horiz-adv-x="572" d="M128 339 Q138 371 157 396 Q176 421 200 438.5 Q224 456 252 465 Q280 474 310 474 Q358 474 390 457 Q422 440 441 412 Q460 384 468 349 Q476 314 476 278 L476 0 L454 0 L454 276 Q454 304 448 336 Q442 368 425.5 394 Q409 420 381 437.5 Q353 455 310 455 Q272 455 238.5 439.5 Q205 424 180.5 395 Q156 366 141.5 324.5 Q127 283 127 230 L127 0 L105 0 L105 344 Q105 355 104.5 371 Q104 387 103.5 403.5 Q103 420 102 435 Q101 450 100 460 L122 460 Q123 450 123.5 435 Q124 420 124.5 402.5 Q125 385 125.5 368.5 Q126 352 126 339 L128 339 Z M279 564 L176 708 L199 708 L293 576 L387 708 L410 708 L307 564 L279 564 Z " />
<glyph glyph-name="napostrophe" unicode="&#x149;" horiz-adv-x="572" d="M128 339 Q138 371 157 396 Q176 421 200 438.5 Q224 456 252 465 Q280 474 310 474 Q358 474 390 457 Q422 440 441 412 Q460 384 468 349 Q476 314 476 278 L476 0 L454 0 L454 276 Q454 304 448 336 Q442 368 425.5 394 Q409 420 381 437.5 Q353 455 310 455 Q272 455 238.5 439.5 Q205 424 180.5 395 Q156 366 141.5 324.5 Q127 283 127 230 L127 0 L105 0 L105 344 Q105 355 104.5 371 Q104 387 103.5 403.5 Q103 420 102 435 Q101 450 100 460 L122 460 Q123 450 123.5 435 Q124 420 124.5 402.5 Q125 385 125.5 368.5 Q126 352 126 339 L128 339 Z M75 523 L58 523 L109 708 L133 708 L75 523 Z " />
<glyph glyph-name="Omacron" unicode="&#x14c;" horiz-adv-x="872" d="M800 354 Q800 272 772.5 203.5 Q745 135 696.5 85.5 Q648 36 581 8 Q514 -20 436 -20 Q358 -20 291 8 Q224 36 175.5 85.5 Q127 135 99.5 203.5 Q72 272 72 354 Q72 436 99.5 504.5 Q127 573 175.5 622.5 Q224 672 290.5 700 Q357 728 436 728 Q515 728 581.5 700 Q648 672 696.5 622.5 Q745 573 772.5 504.5 Q800 436 800 354 Z M778 354 Q778 428 753 492.5 Q728 557 682.5 605 Q637 653 574 680.5 Q511 708 436 708 Q361 708 298 680.5 Q235 653 189.5 605 Q144 557 119 492.5 Q94 428 94 354 Q94 280 118.5 215.5 Q143 151 188 103 Q233 55 296 27.5 Q359 0 436 0 Q513 0 576 27.5 Q639 55 684 103 Q729 151 753.5 215.5 Q778 280 778 354 Z M322 821 L322 841 L554 841 L554 821 L322 821 Z " />
<glyph glyph-name="omacron" unicode="&#x14d;" horiz-adv-x="605" d="M543 231 Q543 177 525.5 132 Q508 87 476 54.5 Q444 22 399.5 4 Q355 -14 302 -14 Q249 -14 205 4 Q161 22 129 54.5 Q97 87 79.5 132 Q62 177 62 231 Q62 285 79.5 329.5 Q97 374 129 406 Q161 438 205 456 Q249 474 302 474 Q355 474 399.5 456 Q444 438 476 406 Q508 374 525.5 329.5 Q543 285 543 231 Z M521 231 Q521 277 506 318 Q491 359 462.5 389.5 Q434 420 393.5 437.5 Q353 455 302 455 Q251 455 211 437.5 Q171 420 142.5 389.5 Q114 359 99 318 Q84 277 84 231 Q84 184 99 143 Q114 102 142.5 71.5 Q171 41 211 23 Q251 5 302 5 Q353 5 393.5 23 Q434 41 462.5 71.5 Q491 102 506 143 Q521 184 521 231 Z M185 621 L185 641 L417 641 L417 621 L185 621 Z " />
<glyph glyph-name="Obreve" unicode="&#x14e;" horiz-adv-x="872" d="M800 354 Q800 272 772.5 203.5 Q745 135 696.5 85.5 Q648 36 581 8 Q514 -20 436 -20 Q358 -20 291 8 Q224 36 175.5 85.5 Q127 135 99.5 203.5 Q72 272 72 354 Q72 436 99.5 504.5 Q127 573 175.5 622.5 Q224 672 290.5 700 Q357 728 436 728 Q515 728 581.5 700 Q648 672 696.5 622.5 Q745 573 772.5 504.5 Q800 436 800 354 Z M778 354 Q778 428 753 492.5 Q728 557 682.5 605 Q637 653 574 680.5 Q511 708 436 708 Q361 708 298 680.5 Q235 653 189.5 605 Q144 557 119 492.5 Q94 428 94 354 Q94 280 118.5 215.5 Q143 151 188 103 Q233 55 296 27.5 Q359 0 436 0 Q513 0 576 27.5 Q639 55 684 103 Q729 151 753.5 215.5 Q778 280 778 354 Z M561 898 Q551 837 517.5 804.5 Q484 772 434 772 Q385 772 351.5 804.5 Q318 837 310 898 L329 898 Q339 846 367 819 Q395 792 434 792 Q479 792 505 817 Q531 842 543 898 L561 898 Z " />
<glyph glyph-name="obreve" unicode="&#x14f;" horiz-adv-x="605" d="M543 231 Q543 177 525.5 132 Q508 87 476 54.5 Q444 22 399.5 4 Q355 -14 302 -14 Q249 -14 205 4 Q161 22 129 54.5 Q97 87 79.5 132 Q62 177 62 231 Q62 285 79.5 329.5 Q97 374 129 406 Q161 438 205 456 Q249 474 302 474 Q355 474 399.5 456 Q444 438 476 406 Q508 374 525.5 329.5 Q543 285 543 231 Z M521 231 Q521 277 506 318 Q491 359 462.5 389.5 Q434 420 393.5 437.5 Q353 455 302 455 Q251 455 211 437.5 Q171 420 142.5 389.5 Q114 359 99 318 Q84 277 84 231 Q84 184 99 143 Q114 102 142.5 71.5 Q171 41 211 23 Q251 5 302 5 Q353 5 393.5 23 Q434 41 462.5 71.5 Q491 102 506 143 Q521 184 521 231 Z M428 698 Q418 637 384.5 604.5 Q351 572 301 572 Q252 572 218.5 604.5 Q185 637 177 698 L196 698 Q206 646 234 619 Q262 592 301 592 Q346 592 372 617 Q398 642 410 698 L428 698 Z " />
<glyph glyph-name="Ohungarumlaut" unicode="&#x150;" horiz-adv-x="872" d="M800 354 Q800 272 772.5 203.5 Q745 135 696.5 85.5 Q648 36 581 8 Q514 -20 436 -20 Q358 -20 291 8 Q224 36 175.5 85.5 Q127 135 99.5 203.5 Q72 272 72 354 Q72 436 99.5 504.5 Q127 573 175.5 622.5 Q224 672 290.5 700 Q357 728 436 728 Q515 728 581.5 700 Q648 672 696.5 622.5 Q745 573 772.5 504.5 Q800 436 800 354 Z M778 354 Q778 428 753 492.5 Q728 557 682.5 605 Q637 653 574 680.5 Q511 708 436 708 Q361 708 298 680.5 Q235 653 189.5 605 Q144 557 119 492.5 Q94 428 94 354 Q94 280 118.5 215.5 Q143 151 188 103 Q233 55 296 27.5 Q359 0 436 0 Q513 0 576 27.5 Q639 55 684 103 Q729 151 753.5 215.5 Q778 280 778 354 Z M384 763 L365 763 L468 908 L495 908 L384 763 Z M501 763 L482 763 L585 908 L612 908 L501 763 Z " />
<glyph glyph-name="ohungarumlaut" unicode="&#x151;" horiz-adv-x="605" d="M543 231 Q543 177 525.5 132 Q508 87 476 54.5 Q444 22 399.5 4 Q355 -14 302 -14 Q249 -14 205 4 Q161 22 129 54.5 Q97 87 79.5 132 Q62 177 62 231 Q62 285 79.5 329.5 Q97 374 129 406 Q161 438 205 456 Q249 474 302 474 Q355 474 399.5 456 Q444 438 476 406 Q508 374 525.5 329.5 Q543 285 543 231 Z M521 231 Q521 277 506 318 Q491 359 462.5 389.5 Q434 420 393.5 437.5 Q353 455 302 455 Q251 455 211 437.5 Q171 420 142.5 389.5 Q114 359 99 318 Q84 277 84 231 Q84 184 99 143 Q114 102 142.5 71.5 Q171 41 211 23 Q251 5 302 5 Q353 5 393.5 23 Q434 41 462.5 71.5 Q491 102 506 143 Q521 184 521 231 Z M248 563 L229 563 L332 708 L359 708 L248 563 Z M365 563 L346 563 L449 708 L476 708 L365 563 Z " />
<glyph glyph-name="OE" unicode="&#x152;" horiz-adv-x="978" d="M468 688 Q390 688 321.5 668.5 Q253 649 203 608.5 Q153 568 124 505 Q95 442 95 354 Q95 266 124 202.5 Q153 139 203 98.5 Q253 58 321.5 39 Q390 20 468 20 L532 20 L532 688 L468 688 Z M463 0 Q380 0 309 20.5 Q238 41 185 84.5 Q132 128 102 195 Q72 262 72 354 Q72 446 102 512.5 Q132 579 185 622.5 Q238 666 309 687 Q380 708 463 708 L906 708 L906 688 L553 688 L553 377 L884 377 L884 357 L553 357 L553 20 L922 20 L922 0 L463 0 Z " />
<glyph glyph-name="oe" unicode="&#x153;" horiz-adv-x="1012" d="M530 316 Q552 388 607.5 431 Q663 474 737 474 Q791 474 831 455 Q871 436 897.5 405 Q924 374 937 334.5 Q950 295 950 254 L950 235 L541 235 Q541 193 553.5 152 Q566 111 591.5 78.5 Q617 46 655.5 26 Q694 6 747 6 Q801 6 843 27.5 Q885 49 916 90 L932 76 Q898 32 852.5 9 Q807 -14 747 -14 Q667 -14 610 30 Q553 74 531 148 Q508 74 447.5 30 Q387 -14 302 -14 Q249 -14 205 4 Q161 22 129 54.5 Q97 87 79.5 132 Q62 177 62 231 Q62 285 79.5 329.5 Q97 374 129 406 Q161 438 205 456 Q249 474 302 474 Q385 474 446 431 Q507 388 530 316 Z M929 254 Q928 299 913.5 336 Q899 373 874 399.5 Q849 426 814 440.5 Q779 455 736 455 Q684 455 647 433.5 Q610 412 587 380.5 Q564 349 553 314.5 Q542 280 542 254 L929 254 Z M520 231 Q520 277 505 318 Q490 359 461.5 389.5 Q433 420 393 437.5 Q353 455 302 455 Q251 455 211 437.5 Q171 420 142.5 389.5 Q114 359 99 318 Q84 277 84 231 Q84 184 99 143 Q114 102 142.5 71.5 Q171 41 211 23 Q251 5 302 5 Q353 5 393 23 Q433 41 461.5 71.5 Q490 102 505 143 Q520 184 520 231 Z " />
<glyph glyph-name="Racute" unicode="&#x154;" horiz-adv-x="594" d="M508 0 L294 357 L128 357 L128 0 L106 0 L106 708 L302 708 Q341 708 381 701 Q421 694 452.5 674.5 Q484 655 504 621 Q524 587 524 533 Q524 483 505 450 Q486 417 456 396.5 Q426 376 389.5 367 Q353 358 318 358 L533 0 L508 0 Z M502 533 Q502 579 484 609.5 Q466 640 436.5 657.5 Q407 675 368.5 682 Q330 689 290 689 L128 689 L128 376 L301 376 Q399 376 450.5 417 Q502 458 502 533 Z M258 764 L239 764 L342 908 L369 908 L258 764 Z " />
<glyph glyph-name="racute" unicode="&#x155;" horiz-adv-x="317" d="M128 339 Q148 411 192 442.5 Q236 474 287 474 Q292 474 296 474 Q300 474 305 473 L305 454 Q301 455 297.5 455 Q294 455 292 455 Q248 455 217 435.5 Q186 416 166 384.5 Q146 353 136.5 314.5 Q127 276 127 238 L127 0 L105 0 L105 344 Q105 355 104.5 371 Q104 387 103.5 403.5 Q103 420 102 435 Q101 450 100 460 L122 460 Q123 450 123.5 435 Q124 420 124.5 402.5 Q125 385 125.5 368.5 Q126 352 126 339 L128 339 Z M144 564 L125 564 L228 708 L255 708 L144 564 Z " />
<glyph glyph-name="Rcommaaccent" unicode="&#x156;" horiz-adv-x="594" d="M508 0 L294 357 L128 357 L128 0 L106 0 L106 708 L302 708 Q341 708 381 701 Q421 694 452.5 674.5 Q484 655 504 621 Q524 587 524 533 Q524 483 505 450 Q486 417 456 396.5 Q426 376 389.5 367 Q353 358 318 358 L533 0 L508 0 Z M502 533 Q502 579 484 609.5 Q466 640 436.5 657.5 Q407 675 368.5 682 Q330 689 290 689 L128 689 L128 376 L301 376 Q399 376 450.5 417 Q502 458 502 533 Z M264 -230 L247 -230 L298 -45 L322 -45 L264 -230 Z " />
<glyph glyph-name="rcommaaccent" unicode="&#x157;" horiz-adv-x="317" d="M128 339 Q148 411 192 442.5 Q236 474 287 474 Q292 474 296 474 Q300 474 305 473 L305 454 Q301 455 297.5 455 Q294 455 292 455 Q248 455 217 435.5 Q186 416 166 384.5 Q146 353 136.5 314.5 Q127 276 127 238 L127 0 L105 0 L105 344 Q105 355 104.5 371 Q104 387 103.5 403.5 Q103 420 102 435 Q101 450 100 460 L122 460 Q123 450 123.5 435 Q124 420 124.5 402.5 Q125 385 125.5 368.5 Q126 352 126 339 L128 339 Z M85 -231 L68 -231 L119 -46 L143 -46 L85 -231 Z " />
<glyph glyph-name="Rcaron" unicode="&#x158;" horiz-adv-x="594" d="M508 0 L294 357 L128 357 L128 0 L106 0 L106 708 L302 708 Q341 708 381 701 Q421 694 452.5 674.5 Q484 655 504 621 Q524 587 524 533 Q524 483 505 450 Q486 417 456 396.5 Q426 376 389.5 367 Q353 358 318 358 L533 0 L508 0 Z M502 533 Q502 579 484 609.5 Q466 640 436.5 657.5 Q407 675 368.5 682 Q330 689 290 689 L128 689 L128 376 L301 376 Q399 376 450.5 417 Q502 458 502 533 Z M255 764 L152 908 L175 908 L269 776 L363 908 L386 908 L283 764 L255 764 Z " />
<glyph glyph-name="rcaron" unicode="&#x159;" horiz-adv-x="317" d="M128 339 Q148 411 192 442.5 Q236 474 287 474 Q292 474 296 474 Q300 474 305 473 L305 454 Q301 455 297.5 455 Q294 455 292 455 Q248 455 217 435.5 Q186 416 166 384.5 Q146 353 136.5 314.5 Q127 276 127 238 L127 0 L105 0 L105 344 Q105 355 104.5 371 Q104 387 103.5 403.5 Q103 420 102 435 Q101 450 100 460 L122 460 Q123 450 123.5 435 Q124 420 124.5 402.5 Q125 385 125.5 368.5 Q126 352 126 339 L128 339 Z M180 564 L77 708 L100 708 L194 576 L288 708 L311 708 L208 564 L180 564 Z " />
<glyph glyph-name="Sacute" unicode="&#x15a;" horiz-adv-x="570" d="M498 170 Q498 125 480.5 89.5 Q463 54 434 29.5 Q405 5 365.5 -7.5 Q326 -20 283 -20 Q217 -20 162.5 3.5 Q108 27 72 67 L89 82 Q127 41 177.5 20.5 Q228 0 282 0 Q321 0 356 11.5 Q391 23 418 44.5 Q445 66 460.5 97.5 Q476 129 476 170 Q476 211 459 239 Q442 267 415 287 Q388 307 353.5 320.5 Q319 334 284 345 Q240 359 203.5 374.5 Q167 390 140.5 412.5 Q114 435 99.5 466.5 Q85 498 85 543 Q85 587 102.5 621.5 Q120 656 150 679.5 Q180 703 219.5 715.5 Q259 728 303 728 Q357 728 405.5 707.5 Q454 687 485 649 L468 634 Q440 669 396.5 688.5 Q353 708 302 708 Q266 708 231.5 698 Q197 688 169 667.5 Q141 647 124 616 Q107 585 107 543 Q107 502 122 473.5 Q137 445 162 425 Q187 405 218.5 392 Q250 379 283 368 Q328 353 367 337.5 Q406 322 435.5 300 Q465 278 481.5 246.5 Q498 215 498 170 Z M282 764 L263 764 L366 908 L393 908 L282 764 Z " />
<glyph glyph-name="sacute" unicode="&#x15b;" horiz-adv-x="415" d="M361 120 Q361 89 349 64.5 Q337 40 316.5 23 Q296 6 269 -3 Q242 -12 211 -12 Q160 -12 118.5 7.5 Q77 27 50 65 L68 77 Q118 7 212 7 Q234 7 256.5 14 Q279 21 297.5 35 Q316 49 327.5 70 Q339 91 339 118 Q339 150 324.5 170 Q310 190 288 202 Q266 214 239.5 221.5 Q213 229 190 235 Q165 242 143 250.5 Q121 259 104.5 272.5 Q88 286 78.5 306 Q69 326 69 356 Q69 386 81 408 Q93 430 113 444.5 Q133 459 158.5 466.5 Q184 474 210 474 Q304 474 351 407 L332 396 Q309 426 280 440.5 Q251 455 210 455 Q191 455 170 450 Q149 445 131.5 433.5 Q114 422 102.5 403 Q91 384 91 357 Q91 327 100.5 309 Q110 291 127 280 Q144 269 168 261.5 Q192 254 221 247 Q248 240 273.5 230.5 Q299 221 318.5 207 Q338 193 349.5 172 Q361 151 361 120 Z M197 564 L178 564 L281 708 L308 708 L197 564 Z " />
<glyph glyph-name="Scircumflex" unicode="&#x15c;" horiz-adv-x="570" d="M498 170 Q498 125 480.5 89.5 Q463 54 434 29.5 Q405 5 365.5 -7.5 Q326 -20 283 -20 Q217 -20 162.5 3.5 Q108 27 72 67 L89 82 Q127 41 177.5 20.5 Q228 0 282 0 Q321 0 356 11.5 Q391 23 418 44.5 Q445 66 460.5 97.5 Q476 129 476 170 Q476 211 459 239 Q442 267 415 287 Q388 307 353.5 320.5 Q319 334 284 345 Q240 359 203.5 374.5 Q167 390 140.5 412.5 Q114 435 99.5 466.5 Q85 498 85 543 Q85 587 102.5 621.5 Q120 656 150 679.5 Q180 703 219.5 715.5 Q259 728 303 728 Q357 728 405.5 707.5 Q454 687 485 649 L468 634 Q440 669 396.5 688.5 Q353 708 302 708 Q266 708 231.5 698 Q197 688 169 667.5 Q141 647 124 616 Q107 585 107 543 Q107 502 122 473.5 Q137 445 162 425 Q187 405 218.5 392 Q250 379 283 368 Q328 353 367 337.5 Q406 322 435.5 300 Q465 278 481.5 246.5 Q498 215 498 170 Z M316 908 L419 764 L396 764 L302 896 L208 764 L185 764 L288 908 L316 908 Z " />
<glyph glyph-name="scircumflex" unicode="&#x15d;" horiz-adv-x="415" d="M361 120 Q361 89 349 64.5 Q337 40 316.5 23 Q296 6 269 -3 Q242 -12 211 -12 Q160 -12 118.5 7.5 Q77 27 50 65 L68 77 Q118 7 212 7 Q234 7 256.5 14 Q279 21 297.5 35 Q316 49 327.5 70 Q339 91 339 118 Q339 150 324.5 170 Q310 190 288 202 Q266 214 239.5 221.5 Q213 229 190 235 Q165 242 143 250.5 Q121 259 104.5 272.5 Q88 286 78.5 306 Q69 326 69 356 Q69 386 81 408 Q93 430 113 444.5 Q133 459 158.5 466.5 Q184 474 210 474 Q304 474 351 407 L332 396 Q309 426 280 440.5 Q251 455 210 455 Q191 455 170 450 Q149 445 131.5 433.5 Q114 422 102.5 403 Q91 384 91 357 Q91 327 100.5 309 Q110 291 127 280 Q144 269 168 261.5 Q192 254 221 247 Q248 240 273.5 230.5 Q299 221 318.5 207 Q338 193 349.5 172 Q361 151 361 120 Z M228 708 L331 564 L308 564 L214 696 L120 564 L97 564 L200 708 L228 708 Z " />
<glyph glyph-name="Scedilla" unicode="&#x15e;" horiz-adv-x="570" d="M384 -146 Q384 -170 372.5 -185.5 Q361 -201 344 -210 Q327 -219 307.5 -222.5 Q288 -226 272 -226 Q253 -226 228.5 -221 Q204 -216 182 -206 L187 -189 Q206 -199 230.5 -203 Q255 -207 273 -207 Q288 -207 303.5 -204.5 Q319 -202 332.5 -195.5 Q346 -189 354.5 -177 Q363 -165 363 -146 Q363 -130 356 -120 Q349 -110 338.5 -104.5 Q328 -99 315.5 -97 Q303 -95 291 -95 Q277 -95 255.5 -99 Q234 -103 222 -110 L212 -101 L267 -19 Q206 -16 156 6.5 Q106 29 72 67 L89 82 Q127 41 177.5 20.5 Q228 0 282 0 Q321 0 356 11.5 Q391 23 418 44.5 Q445 66 460.5 97.5 Q476 129 476 170 Q476 211 459 239 Q442 267 415 287 Q388 307 353.5 320.5 Q319 334 284 345 Q240 359 203.5 374.5 Q167 390 140.5 412.5 Q114 435 99.5 466.5 Q85 498 85 543 Q85 587 102.5 621.5 Q120 656 150 679.5 Q180 703 219.5 715.5 Q259 728 303 728 Q357 728 405.5 707.5 Q454 687 485 649 L468 634 Q440 669 396.5 688.5 Q353 708 302 708 Q266 708 231.5 698 Q197 688 169 667.5 Q141 647 124 616 Q107 585 107 543 Q107 502 122 473.5 Q137 445 162 425 Q187 405 218.5 392 Q250 379 283 368 Q328 353 367 337.5 Q406 322 435.5 300 Q465 278 481.5 246.5 Q498 215 498 170 Q498 125 481 90 Q464 55 435.5 31 Q407 7 369 -6 Q331 -19 288 -20 L243 -86 Q257 -81 270 -79.5 Q283 -78 297 -78 Q312 -78 327.5 -81.5 Q343 -85 355.5 -92.5 Q368 -100 376 -113.5 Q384 -127 384 -146 Z " />
<glyph glyph-name="scedilla" unicode="&#x15f;" horiz-adv-x="415" d="M310 -146 Q310 -170 298.5 -185.5 Q287 -201 270 -210 Q253 -219 233.5 -222.5 Q214 -226 198 -226 Q179 -226 154.5 -221 Q130 -216 108 -206 L113 -189 Q132 -199 156.5 -203 Q181 -207 199 -207 Q214 -207 229.5 -204.5 Q245 -202 258.5 -195.5 Q272 -189 280.5 -177 Q289 -165 289 -146 Q289 -130 282 -120 Q275 -110 264.5 -104.5 Q254 -99 241.5 -97 Q229 -95 217 -95 Q203 -95 181.5 -99 Q160 -103 148 -110 L138 -101 L198 -12 Q151 -10 113.5 10 Q76 30 50 65 L68 77 Q118 7 212 7 Q234 7 256.5 14 Q279 21 297.5 35 Q316 49 327.5 70 Q339 91 339 118 Q339 150 324.5 170 Q310 190 288 202 Q266 214 239.5 221.5 Q213 229 190 235 Q165 242 143 250.5 Q121 259 104.5 272.5 Q88 286 78.5 306 Q69 326 69 356 Q69 386 81 408 Q93 430 113 444.5 Q133 459 158.5 466.5 Q184 474 210 474 Q304 474 351 407 L332 396 Q309 426 280 440.5 Q251 455 210 455 Q191 455 170 450 Q149 445 131.5 433.5 Q114 422 102.5 403 Q91 384 91 357 Q91 327 100.5 309 Q110 291 127 280 Q144 269 168 261.5 Q192 254 221 247 Q248 240 273.5 230.5 Q299 221 318.5 207 Q338 193 349.5 172 Q361 151 361 120 Q361 90 350 66.5 Q339 43 319.5 26 Q300 9 274 -1 Q248 -11 219 -12 L169 -86 Q183 -81 196 -79.5 Q209 -78 223 -78 Q238 -78 253.5 -81.5 Q269 -85 281.5 -92.5 Q294 -100 302 -113.5 Q310 -127 310 -146 Z " />
<glyph glyph-name="Scaron" unicode="&#x160;" horiz-adv-x="570" d="M498 170 Q498 125 480.5 89.5 Q463 54 434 29.5 Q405 5 365.5 -7.5 Q326 -20 283 -20 Q217 -20 162.5 3.5 Q108 27 72 67 L89 82 Q127 41 177.5 20.5 Q228 0 282 0 Q321 0 356 11.5 Q391 23 418 44.5 Q445 66 460.5 97.5 Q476 129 476 170 Q476 211 459 239 Q442 267 415 287 Q388 307 353.5 320.5 Q319 334 284 345 Q240 359 203.5 374.5 Q167 390 140.5 412.5 Q114 435 99.5 466.5 Q85 498 85 543 Q85 587 102.5 621.5 Q120 656 150 679.5 Q180 703 219.5 715.5 Q259 728 303 728 Q357 728 405.5 707.5 Q454 687 485 649 L468 634 Q440 669 396.5 688.5 Q353 708 302 708 Q266 708 231.5 698 Q197 688 169 667.5 Q141 647 124 616 Q107 585 107 543 Q107 502 122 473.5 Q137 445 162 425 Q187 405 218.5 392 Q250 379 283 368 Q328 353 367 337.5 Q406 322 435.5 300 Q465 278 481.5 246.5 Q498 215 498 170 Z M285 764 L182 908 L205 908 L299 776 L393 908 L416 908 L313 764 L285 764 Z " />
<glyph glyph-name="scaron" unicode="&#x161;" horiz-adv-x="415" d="M361 120 Q361 89 349 64.5 Q337 40 316.5 23 Q296 6 269 -3 Q242 -12 211 -12 Q160 -12 118.5 7.5 Q77 27 50 65 L68 77 Q118 7 212 7 Q234 7 256.5 14 Q279 21 297.5 35 Q316 49 327.5 70 Q339 91 339 118 Q339 150 324.5 170 Q310 190 288 202 Q266 214 239.5 221.5 Q213 229 190 235 Q165 242 143 250.5 Q121 259 104.5 272.5 Q88 286 78.5 306 Q69 326 69 356 Q69 386 81 408 Q93 430 113 444.5 Q133 459 158.5 466.5 Q184 474 210 474 Q304 474 351 407 L332 396 Q309 426 280 440.5 Q251 455 210 455 Q191 455 170 450 Q149 445 131.5 433.5 Q114 422 102.5 403 Q91 384 91 357 Q91 327 100.5 309 Q110 291 127 280 Q144 269 168 261.5 Q192 254 221 247 Q248 240 273.5 230.5 Q299 221 318.5 207 Q338 193 349.5 172 Q361 151 361 120 Z M200 564 L97 708 L120 708 L214 576 L308 708 L331 708 L228 564 L200 564 Z " />
<glyph glyph-name="Tcommaaccent" unicode="&#x162;" horiz-adv-x="540" d="M281 688 L281 0 L259 0 L259 688 L18 688 L18 708 L522 708 L522 688 L281 688 Z M362 -146 Q362 -170 350.5 -185.5 Q339 -201 322 -210 Q305 -219 285.5 -222.5 Q266 -226 250 -226 Q231 -226 206.5 -221 Q182 -216 160 -206 L165 -189 Q184 -199 208.5 -203 Q233 -207 251 -207 Q266 -207 281.5 -204.5 Q297 -202 310.5 -195.5 Q324 -189 332.5 -177 Q341 -165 341 -146 Q341 -130 334 -120 Q327 -110 316.5 -104.5 Q306 -99 293.5 -97 Q281 -95 269 -95 Q255 -95 233.5 -99 Q212 -103 200 -110 L190 -101 L259 0 L280 0 L221 -86 Q235 -81 248 -79.5 Q261 -78 275 -78 Q290 -78 305.5 -81.5 Q321 -85 333.5 -92.5 Q346 -100 354 -113.5 Q362 -127 362 -146 Z " />
<glyph glyph-name="tcommaaccent" unicode="&#x163;" horiz-adv-x="304" d="M280 -1 Q268 -6 252 -9 Q236 -12 221 -12 Q167 -12 143.5 18.5 Q120 49 120 95 L120 441 L20 441 L20 460 L119 460 L119 595 L142 595 L142 460 L277 460 L277 441 L142 441 L142 95 Q142 48 165 27.5 Q188 7 226 7 Q254 7 277 16 L280 -1 Z M306 -146 Q306 -170 294.5 -185.5 Q283 -201 266 -210 Q249 -219 229.5 -222.5 Q210 -226 194 -226 Q175 -226 150.5 -221 Q126 -216 104 -206 L109 -189 Q128 -199 152.5 -203 Q177 -207 195 -207 Q210 -207 225.5 -204.5 Q241 -202 254.5 -195.5 Q268 -189 276.5 -177 Q285 -165 285 -146 Q285 -130 278 -120 Q271 -110 260.5 -104.5 Q250 -99 237.5 -97 Q225 -95 213 -95 Q199 -95 177.5 -99 Q156 -103 144 -110 L134 -101 L203 0 L224 0 L165 -86 Q179 -81 192 -79.5 Q205 -78 219 -78 Q234 -78 249.5 -81.5 Q265 -85 277.5 -92.5 Q290 -100 298 -113.5 Q306 -127 306 -146 Z " />
<glyph glyph-name="Tcaron" unicode="&#x164;" horiz-adv-x="540" d="M281 688 L281 0 L259 0 L259 688 L18 688 L18 708 L522 708 L522 688 L281 688 Z M256 764 L153 908 L176 908 L270 776 L364 908 L387 908 L284 764 L256 764 Z " />
<glyph glyph-name="tcaron" unicode="&#x165;" horiz-adv-x="304" d="M280 -1 Q268 -6 252 -9 Q236 -12 221 -12 Q167 -12 143.5 18.5 Q120 49 120 95 L120 441 L20 441 L20 460 L119 460 L119 595 L142 595 L142 460 L277 460 L277 441 L142 441 L142 95 Q142 48 165 27.5 Q188 7 226 7 Q254 7 277 16 L280 -1 Z M247 546 L230 546 L281 731 L305 731 L247 546 Z " />
<glyph glyph-name="Tbar" unicode="&#x166;" horiz-adv-x="540" d="M281 527 L281 0 L259 0 L259 527 L60 527 L60 545 L259 545 L259 688 L18 688 L18 708 L522 708 L522 688 L281 688 L281 545 L480 545 L480 527 L281 527 Z " />
<glyph glyph-name="tbar" unicode="&#x167;" horiz-adv-x="304" d="M142 259 L142 95 Q142 48 165 27.5 Q188 7 226 7 Q254 7 277 16 L280 -1 Q268 -6 252 -9 Q236 -12 221 -12 Q167 -12 143.5 18.5 Q120 49 120 95 L120 259 L28 259 L28 277 L120 277 L120 441 L20 441 L20 460 L119 460 L119 595 L142 595 L142 460 L277 460 L277 441 L142 441 L142 277 L262 277 L262 259 L142 259 Z " />
<glyph glyph-name="Utilde" unicode="&#x168;" horiz-adv-x="732" d="M636 268 Q636 208 622 155.5 Q608 103 576 64 Q544 25 492.5 2.5 Q441 -20 366 -20 Q291 -20 239.5 2.5 Q188 25 156 64 Q124 103 110 155.5 Q96 208 96 268 L96 708 L118 708 L118 272 Q118 230 126.5 182.5 Q135 135 161.5 94.5 Q188 54 236.5 27 Q285 0 366 0 Q445 0 493.5 26 Q542 52 569 92.5 Q596 133 605 180.5 Q614 228 614 272 L614 708 L636 708 L636 268 Z M370 838 Q383 830 392 825 Q401 820 407.5 817.5 Q414 815 418.5 814.5 Q423 814 429 814 Q462 814 469 862 L485 862 Q481 826 465 810.5 Q449 795 429 795 Q413 795 400.5 800 Q388 805 365 819 Q339 835 328 839 Q317 843 306 843 Q274 843 266 792 L250 792 Q254 828 270 845 Q286 862 306 862 Q322 862 335 857 Q348 852 370 838 Z " />
<glyph glyph-name="utilde" unicode="&#x169;" horiz-adv-x="572" d="M442 121 Q431 89 412.5 63.5 Q394 38 370 21 Q346 4 318 -5 Q290 -14 260 -14 Q212 -14 180 3 Q148 20 129 48 Q110 76 102 111 Q94 146 94 182 L94 460 L116 460 L116 184 Q116 155 122 123.5 Q128 92 144.5 66 Q161 40 188.5 22.5 Q216 5 260 5 Q298 5 331.5 20.5 Q365 36 389.5 65 Q414 94 428.5 135.5 Q443 177 443 230 L443 460 L465 460 L465 116 Q465 105 465.5 89 Q466 73 466.5 56.5 Q467 40 468 25 Q469 10 470 0 L448 0 Q447 10 446.5 25 Q446 40 445.5 57.5 Q445 75 444.5 91.5 Q444 108 444 121 L442 121 Z M285 638 Q298 630 307 625 Q316 620 322.5 617.5 Q329 615 333.5 614.5 Q338 614 344 614 Q377 614 384 662 L400 662 Q396 626 380 610.5 Q364 595 344 595 Q328 595 315.5 600 Q303 605 280 619 Q254 635 243 639 Q232 643 221 643 Q189 643 181 592 L165 592 Q169 628 185 645 Q201 662 221 662 Q237 662 250 657 Q263 652 285 638 Z " />
<glyph glyph-name="Umacron" unicode="&#x16a;" horiz-adv-x="732" d="M636 268 Q636 208 622 155.5 Q608 103 576 64 Q544 25 492.5 2.5 Q441 -20 366 -20 Q291 -20 239.5 2.5 Q188 25 156 64 Q124 103 110 155.5 Q96 208 96 268 L96 708 L118 708 L118 272 Q118 230 126.5 182.5 Q135 135 161.5 94.5 Q188 54 236.5 27 Q285 0 366 0 Q445 0 493.5 26 Q542 52 569 92.5 Q596 133 605 180.5 Q614 228 614 272 L614 708 L636 708 L636 268 Z M251 821 L251 841 L483 841 L483 821 L251 821 Z " />
<glyph glyph-name="umacron" unicode="&#x16b;" horiz-adv-x="572" d="M442 121 Q431 89 412.5 63.5 Q394 38 370 21 Q346 4 318 -5 Q290 -14 260 -14 Q212 -14 180 3 Q148 20 129 48 Q110 76 102 111 Q94 146 94 182 L94 460 L116 460 L116 184 Q116 155 122 123.5 Q128 92 144.5 66 Q161 40 188.5 22.5 Q216 5 260 5 Q298 5 331.5 20.5 Q365 36 389.5 65 Q414 94 428.5 135.5 Q443 177 443 230 L443 460 L465 460 L465 116 Q465 105 465.5 89 Q466 73 466.5 56.5 Q467 40 468 25 Q469 10 470 0 L448 0 Q447 10 446.5 25 Q446 40 445.5 57.5 Q445 75 444.5 91.5 Q444 108 444 121 L442 121 Z M165 621 L165 641 L397 641 L397 621 L165 621 Z " />
<glyph glyph-name="Ubreve" unicode="&#x16c;" horiz-adv-x="732" d="M636 268 Q636 208 622 155.5 Q608 103 576 64 Q544 25 492.5 2.5 Q441 -20 366 -20 Q291 -20 239.5 2.5 Q188 25 156 64 Q124 103 110 155.5 Q96 208 96 268 L96 708 L118 708 L118 272 Q118 230 126.5 182.5 Q135 135 161.5 94.5 Q188 54 236.5 27 Q285 0 366 0 Q445 0 493.5 26 Q542 52 569 92.5 Q596 133 605 180.5 Q614 228 614 272 L614 708 L636 708 L636 268 Z M493 898 Q483 837 449.5 804.5 Q416 772 366 772 Q317 772 283.5 804.5 Q250 837 242 898 L261 898 Q271 846 299 819 Q327 792 366 792 Q411 792 437 817 Q463 842 475 898 L493 898 Z " />
<glyph glyph-name="ubreve" unicode="&#x16d;" horiz-adv-x="572" d="M442 121 Q431 89 412.5 63.5 Q394 38 370 21 Q346 4 318 -5 Q290 -14 260 -14 Q212 -14 180 3 Q148 20 129 48 Q110 76 102 111 Q94 146 94 182 L94 460 L116 460 L116 184 Q116 155 122 123.5 Q128 92 144.5 66 Q161 40 188.5 22.5 Q216 5 260 5 Q298 5 331.5 20.5 Q365 36 389.5 65 Q414 94 428.5 135.5 Q443 177 443 230 L443 460 L465 460 L465 116 Q465 105 465.5 89 Q466 73 466.5 56.5 Q467 40 468 25 Q469 10 470 0 L448 0 Q447 10 446.5 25 Q446 40 445.5 57.5 Q445 75 444.5 91.5 Q444 108 444 121 L442 121 Z M406 698 Q396 637 362.5 604.5 Q329 572 279 572 Q230 572 196.5 604.5 Q163 637 155 698 L174 698 Q184 646 212 619 Q240 592 279 592 Q324 592 350 617 Q376 642 388 698 L406 698 Z " />
<glyph glyph-name="Uring" unicode="&#x16e;" horiz-adv-x="732" d="M636 268 Q636 208 622 155.5 Q608 103 576 64 Q544 25 492.5 2.5 Q441 -20 366 -20 Q291 -20 239.5 2.5 Q188 25 156 64 Q124 103 110 155.5 Q96 208 96 268 L96 708 L118 708 L118 272 Q118 230 126.5 182.5 Q135 135 161.5 94.5 Q188 54 236.5 27 Q285 0 366 0 Q445 0 493.5 26 Q542 52 569 92.5 Q596 133 605 180.5 Q614 228 614 272 L614 708 L636 708 L636 268 Z M464 850 Q464 830 456.5 812.5 Q449 795 435.5 782 Q422 769 404.5 762 Q387 755 368 755 Q348 755 331 762 Q314 769 300.5 782 Q287 795 279.5 812.5 Q272 830 272 850 Q272 870 279.5 887.5 Q287 905 300.5 917.5 Q314 930 331 937.5 Q348 945 368 945 Q387 945 404.5 937.5 Q422 930 435.5 917.5 Q449 905 456.5 887.5 Q464 870 464 850 Z M445 850 Q445 882 422.5 905 Q400 928 368 928 Q336 928 313.5 905 Q291 882 291 850 Q291 818 313.5 795 Q336 772 368 772 Q400 772 422.5 795 Q445 818 445 850 Z " />
<glyph glyph-name="uring" unicode="&#x16f;" horiz-adv-x="572" d="M442 121 Q431 89 412.5 63.5 Q394 38 370 21 Q346 4 318 -5 Q290 -14 260 -14 Q212 -14 180 3 Q148 20 129 48 Q110 76 102 111 Q94 146 94 182 L94 460 L116 460 L116 184 Q116 155 122 123.5 Q128 92 144.5 66 Q161 40 188.5 22.5 Q216 5 260 5 Q298 5 331.5 20.5 Q365 36 389.5 65 Q414 94 428.5 135.5 Q443 177 443 230 L443 460 L465 460 L465 116 Q465 105 465.5 89 Q466 73 466.5 56.5 Q467 40 468 25 Q469 10 470 0 L448 0 Q447 10 446.5 25 Q446 40 445.5 57.5 Q445 75 444.5 91.5 Q444 108 444 121 L442 121 Z M377 650 Q377 630 369.5 612.5 Q362 595 348.5 582 Q335 569 317.5 562 Q300 555 281 555 Q261 555 244 562 Q227 569 213.5 582 Q200 595 192.5 612.5 Q185 630 185 650 Q185 670 192.5 687.5 Q200 705 213.5 717.5 Q227 730 244 737.5 Q261 745 281 745 Q300 745 317.5 737.5 Q335 730 348.5 717.5 Q362 705 369.5 687.5 Q377 670 377 650 Z M358 650 Q358 682 335.5 705 Q313 728 281 728 Q249 728 226.5 705 Q204 682 204 650 Q204 618 226.5 595 Q249 572 281 572 Q313 572 335.5 595 Q358 618 358 650 Z " />
<glyph glyph-name="Uhungarumlaut" unicode="&#x170;" horiz-adv-x="732" d="M636 268 Q636 208 622 155.5 Q608 103 576 64 Q544 25 492.5 2.5 Q441 -20 366 -20 Q291 -20 239.5 2.5 Q188 25 156 64 Q124 103 110 155.5 Q96 208 96 268 L96 708 L118 708 L118 272 Q118 230 126.5 182.5 Q135 135 161.5 94.5 Q188 54 236.5 27 Q285 0 366 0 Q445 0 493.5 26 Q542 52 569 92.5 Q596 133 605 180.5 Q614 228 614 272 L614 708 L636 708 L636 268 Z M313 763 L294 763 L397 908 L424 908 L313 763 Z M430 763 L411 763 L514 908 L541 908 L430 763 Z " />
<glyph glyph-name="uhungarumlaut" unicode="&#x171;" horiz-adv-x="572" d="M442 121 Q431 89 412.5 63.5 Q394 38 370 21 Q346 4 318 -5 Q290 -14 260 -14 Q212 -14 180 3 Q148 20 129 48 Q110 76 102 111 Q94 146 94 182 L94 460 L116 460 L116 184 Q116 155 122 123.5 Q128 92 144.5 66 Q161 40 188.5 22.5 Q216 5 260 5 Q298 5 331.5 20.5 Q365 36 389.5 65 Q414 94 428.5 135.5 Q443 177 443 230 L443 460 L465 460 L465 116 Q465 105 465.5 89 Q466 73 466.5 56.5 Q467 40 468 25 Q469 10 470 0 L448 0 Q447 10 446.5 25 Q446 40 445.5 57.5 Q445 75 444.5 91.5 Q444 108 444 121 L442 121 Z M227 563 L208 563 L311 708 L338 708 L227 563 Z M344 563 L325 563 L428 708 L455 708 L344 563 Z " />
<glyph glyph-name="Uogonek" unicode="&#x172;" horiz-adv-x="732" d="M479 -192 Q463 -206 441.5 -214.5 Q420 -223 397 -223 Q362 -223 337.5 -202 Q313 -181 313 -143 Q313 -109 334.5 -78.5 Q356 -48 385 -19 Q380 -20 375.5 -20 Q371 -20 366 -20 Q291 -20 239.5 2.5 Q188 25 156 64 Q124 103 110 155.5 Q96 208 96 268 L96 708 L118 708 L118 272 Q118 230 126.5 182.5 Q135 135 161.5 94.5 Q188 54 236.5 27 Q285 0 366 0 Q445 0 493.5 26 Q542 52 569 92.5 Q596 133 605 180.5 Q614 228 614 272 L614 708 L636 708 L636 268 Q636 213 624 164 Q612 115 585.5 77 Q559 39 516 14 Q473 -11 411 -17 Q373 -55 354 -82.5 Q335 -110 335 -141 Q335 -171 353 -188 Q371 -205 400 -205 Q420 -205 438.5 -197 Q457 -189 469 -176 L479 -192 Z " />
<glyph glyph-name="uogonek" unicode="&#x173;" horiz-adv-x="572" d="M521 -192 Q505 -206 483.5 -214.5 Q462 -223 439 -223 Q404 -223 379.5 -202 Q355 -181 355 -143 Q355 -104 383 -69.5 Q411 -35 447 0 L448 0 Q447 10 446.5 25 Q446 40 445.5 57.5 Q445 75 444.5 91.5 Q444 108 444 121 L442 121 Q431 89 412.5 63.5 Q394 38 370 21 Q346 4 318 -5 Q290 -14 260 -14 Q212 -14 180 3 Q148 20 129 48 Q110 76 102 111 Q94 146 94 182 L94 460 L116 460 L116 184 Q116 155 122 123.5 Q128 92 144.5 66 Q161 40 188.5 22.5 Q216 5 260 5 Q298 5 331.5 20.5 Q365 36 389.5 65 Q414 94 428.5 135.5 Q443 177 443 230 L443 460 L465 460 L465 116 Q465 105 465.5 89 Q466 73 466.5 56.5 Q467 40 468 25 Q469 10 470 0 Q424 -46 400.5 -76.5 Q377 -107 377 -141 Q377 -171 395 -188 Q413 -205 442 -205 Q462 -205 480.5 -197 Q499 -189 511 -176 L521 -192 Z " />
<glyph glyph-name="Wcircumflex" unicode="&#x174;" horiz-adv-x="956" d="M716 0 L682 0 L477 687 L475 687 L274 0 L240 0 L28 708 L51 708 L255 20 L258 20 L459 708 L493 708 L698 20 L701 20 L905 708 L928 708 L716 0 Z M490 908 L593 764 L570 764 L476 896 L382 764 L359 764 L462 908 L490 908 Z " />
<glyph glyph-name="wcircumflex" unicode="&#x175;" horiz-adv-x="698" d="M529 0 L499 0 L349 436 L347 436 L198 0 L168 0 L34 460 L57 460 L183 22 L185 22 L333 460 L364 460 L513 22 L515 22 L641 460 L664 460 L529 0 Z M362 708 L465 564 L442 564 L348 696 L254 564 L231 564 L334 708 L362 708 Z " />
<glyph glyph-name="Ycircumflex" unicode="&#x176;" horiz-adv-x="538" d="M280 310 L280 0 L258 0 L258 310 L15 708 L41 708 L270 332 L498 708 L523 708 L280 310 Z M284 908 L387 764 L364 764 L270 896 L176 764 L153 764 L256 908 L284 908 Z " />
<glyph glyph-name="ycircumflex" unicode="&#x177;" horiz-adv-x="428" d="M176 -152 Q160 -195 133.5 -218.5 Q107 -242 65 -242 Q56 -242 44 -240 Q32 -238 24 -235 L30 -216 Q36 -218 46.5 -220 Q57 -222 67 -222 Q88 -222 103.5 -214 Q119 -206 130 -193.5 Q141 -181 148.5 -165 Q156 -149 162 -133 L206 -13 L24 460 L48 460 L217 12 L380 460 L404 460 L176 -152 Z M232 708 L335 564 L312 564 L218 696 L124 564 L101 564 L204 708 L232 708 Z " />
<glyph glyph-name="Ydieresis" unicode="&#x178;" horiz-adv-x="538" d="M280 310 L280 0 L258 0 L258 310 L15 708 L41 708 L270 332 L498 708 L523 708 L280 310 Z M193 833 Q184 833 177 840 Q170 847 170 859 Q170 870 177 877 Q184 884 193 884 Q202 884 209 877 Q216 870 216 859 Q216 847 208.5 840 Q201 833 193 833 Z M347 833 Q338 833 331 840 Q324 847 324 859 Q324 870 331 877 Q338 884 347 884 Q356 884 363 877 Q370 870 370 859 Q370 847 362.5 840 Q355 833 347 833 Z " />
<glyph glyph-name="Zacute" unicode="&#x179;" horiz-adv-x="594" d="M54 0 L54 27 L520 688 L67 688 L67 708 L540 708 L540 679 L75 20 L552 20 L552 0 L54 0 Z M298 764 L279 764 L382 908 L409 908 L298 764 Z " />
<glyph glyph-name="zacute" unicode="&#x17a;" horiz-adv-x="438" d="M49 0 L49 21 L353 441 L65 441 L65 460 L375 460 L375 438 L74 19 L387 19 L387 0 L49 0 Z M216 564 L197 564 L300 708 L327 708 L216 564 Z " />
<glyph glyph-name="Zdotaccent" unicode="&#x17b;" horiz-adv-x="594" d="M54 0 L54 27 L520 688 L67 688 L67 708 L540 708 L540 679 L75 20 L552 20 L552 0 L54 0 Z M305 833 Q296 833 289 840 Q282 847 282 859 Q282 870 289 877 Q296 884 305 884 Q314 884 321 877 Q328 870 328 859 Q328 847 320.5 840 Q313 833 305 833 Z " />
<glyph glyph-name="zdotaccent" unicode="&#x17c;" horiz-adv-x="438" d="M49 0 L49 21 L353 441 L65 441 L65 460 L375 460 L375 438 L74 19 L387 19 L387 0 L49 0 Z M223 633 Q214 633 207 640 Q200 647 200 659 Q200 670 207 677 Q214 684 223 684 Q232 684 239 677 Q246 670 246 659 Q246 647 238.5 640 Q231 633 223 633 Z " />
<glyph glyph-name="Zcaron" unicode="&#x17d;" horiz-adv-x="594" d="M54 0 L54 27 L520 688 L67 688 L67 708 L540 708 L540 679 L75 20 L552 20 L552 0 L54 0 Z M289 764 L186 908 L209 908 L303 776 L397 908 L420 908 L317 764 L289 764 Z " />
<glyph glyph-name="zcaron" unicode="&#x17e;" horiz-adv-x="438" d="M49 0 L49 21 L353 441 L65 441 L65 460 L375 460 L375 438 L74 19 L387 19 L387 0 L49 0 Z M209 564 L106 708 L129 708 L223 576 L317 708 L340 708 L237 564 L209 564 Z " />
<glyph glyph-name="florin" unicode="&#x192;" horiz-adv-x="560" d="M472 683 Q462 691 447 696 Q432 701 418 701 Q392 701 373.5 691 Q355 681 343 665 Q331 649 324 629 Q317 609 313 589 L280 408 L398 408 L398 389 L277 389 L203 -20 Q198 -48 189.5 -70.5 Q181 -93 167.5 -109.5 Q154 -126 133.5 -135 Q113 -144 84 -144 Q68 -144 53 -141.5 Q38 -139 26 -131 L36 -112 Q60 -124 84 -124 Q110 -124 127.5 -114.5 Q145 -105 156.5 -87.5 Q168 -70 175 -46.5 Q182 -23 187 5 L255 389 L144 389 L144 408 L258 408 L289 581 Q294 608 302.5 633 Q311 658 325.5 677.5 Q340 697 362.5 708.5 Q385 720 417 720 Q460 720 484 701 L472 683 Z " />
<glyph glyph-name="Scommaaccent" unicode="&#x218;" horiz-adv-x="570" d="M498 170 Q498 125 480.5 89.5 Q463 54 434 29.5 Q405 5 365.5 -7.5 Q326 -20 283 -20 Q217 -20 162.5 3.5 Q108 27 72 67 L89 82 Q127 41 177.5 20.5 Q228 0 282 0 Q321 0 356 11.5 Q391 23 418 44.5 Q445 66 460.5 97.5 Q476 129 476 170 Q476 211 459 239 Q442 267 415 287 Q388 307 353.5 320.5 Q319 334 284 345 Q240 359 203.5 374.5 Q167 390 140.5 412.5 Q114 435 99.5 466.5 Q85 498 85 543 Q85 587 102.5 621.5 Q120 656 150 679.5 Q180 703 219.5 715.5 Q259 728 303 728 Q357 728 405.5 707.5 Q454 687 485 649 L468 634 Q440 669 396.5 688.5 Q353 708 302 708 Q266 708 231.5 698 Q197 688 169 667.5 Q141 647 124 616 Q107 585 107 543 Q107 502 122 473.5 Q137 445 162 425 Q187 405 218.5 392 Q250 379 283 368 Q328 353 367 337.5 Q406 322 435.5 300 Q465 278 481.5 246.5 Q498 215 498 170 Z M256 -230 L239 -230 L290 -45 L314 -45 L256 -230 Z " />
<glyph glyph-name="scommaaccent" unicode="&#x219;" horiz-adv-x="415" d="M361 120 Q361 89 349 64.5 Q337 40 316.5 23 Q296 6 269 -3 Q242 -12 211 -12 Q160 -12 118.5 7.5 Q77 27 50 65 L68 77 Q118 7 212 7 Q234 7 256.5 14 Q279 21 297.5 35 Q316 49 327.5 70 Q339 91 339 118 Q339 150 324.5 170 Q310 190 288 202 Q266 214 239.5 221.5 Q213 229 190 235 Q165 242 143 250.5 Q121 259 104.5 272.5 Q88 286 78.5 306 Q69 326 69 356 Q69 386 81 408 Q93 430 113 444.5 Q133 459 158.5 466.5 Q184 474 210 474 Q304 474 351 407 L332 396 Q309 426 280 440.5 Q251 455 210 455 Q191 455 170 450 Q149 445 131.5 433.5 Q114 422 102.5 403 Q91 384 91 357 Q91 327 100.5 309 Q110 291 127 280 Q144 269 168 261.5 Q192 254 221 247 Q248 240 273.5 230.5 Q299 221 318.5 207 Q338 193 349.5 172 Q361 151 361 120 Z M176 -230 L159 -230 L210 -45 L234 -45 L176 -230 Z " />
<glyph glyph-name="uni021A" unicode="&#x21a;" horiz-adv-x="540" d="M281 688 L281 0 L259 0 L259 688 L18 688 L18 708 L522 708 L522 688 L281 688 Z M238 -230 L221 -230 L272 -45 L296 -45 L238 -230 Z " />
<glyph glyph-name="uni021B" unicode="&#x21b;" horiz-adv-x="304" d="M280 -1 Q268 -6 252 -9 Q236 -12 221 -12 Q167 -12 143.5 18.5 Q120 49 120 95 L120 441 L20 441 L20 460 L119 460 L119 595 L142 595 L142 460 L277 460 L277 441 L142 441 L142 95 Q142 48 165 27.5 Q188 7 226 7 Q254 7 277 16 L280 -1 Z M156 -230 L139 -230 L190 -45 L214 -45 L156 -230 Z " />
<glyph glyph-name="circumflex" unicode="&#x2c6;" horiz-adv-x="240" d="M134 708 L237 564 L214 564 L120 696 L26 564 L3 564 L106 708 L134 708 Z " />
<glyph glyph-name="caron" unicode="&#x2c7;" horiz-adv-x="240" d="M106 564 L3 708 L26 708 L120 576 L214 708 L237 708 L134 564 L106 564 Z " />
<glyph glyph-name="uni02C9" unicode="&#x2c9;" horiz-adv-x="240" d="M4 821 L4 841 L236 841 L236 821 L4 821 Z " />
<glyph glyph-name="breve" unicode="&#x2d8;" horiz-adv-x="240" d="M245 698 Q235 637 201.5 604.5 Q168 572 118 572 Q69 572 35.5 604.5 Q2 637 -6 698 L13 698 Q23 646 51 619 Q79 592 118 592 Q163 592 189 617 Q215 642 227 698 L245 698 L245 698 Z " />
<glyph glyph-name="dotaccent" unicode="&#x2d9;" horiz-adv-x="240" d="M120 633 Q111 633 104 640 Q97 647 97 659 Q97 670 104 677 Q111 684 120 684 Q129 684 136 677 Q143 670 143 659 Q143 647 135.5 640 Q128 633 120 633 Z " />
<glyph glyph-name="ring" unicode="&#x2da;" horiz-adv-x="240" d="M216 650 Q216 630 208.5 612.5 Q201 595 187.5 582 Q174 569 156.5 562 Q139 555 120 555 Q100 555 83 562 Q66 569 52.5 582 Q39 595 31.5 612.5 Q24 630 24 650 Q24 670 31.5 687.5 Q39 705 52.5 717.5 Q66 730 83 737.5 Q100 745 120 745 Q139 745 156.5 737.5 Q174 730 187.5 717.5 Q201 705 208.5 687.5 Q216 670 216 650 Z M197 650 Q197 682 174.5 705 Q152 728 120 728 Q88 728 65.5 705 Q43 682 43 650 Q43 618 65.5 595 Q88 572 120 572 Q152 572 174.5 595 Q197 618 197 650 Z " />
<glyph glyph-name="ogonek" unicode="&#x2db;" horiz-adv-x="240" d="M206 -192 Q190 -206 168.5 -214.5 Q147 -223 124 -223 Q89 -223 64.5 -202 Q40 -181 40 -143 Q40 -104 68 -69.5 Q96 -35 132 0 L155 0 Q109 -46 85.5 -76.5 Q62 -107 62 -141 Q62 -171 80 -188 Q98 -205 127 -205 Q147 -205 165.5 -197 Q184 -189 196 -176 L206 -192 Z " />
<glyph glyph-name="tilde" unicode="&#x2dc;" horiz-adv-x="240" d="M123 638 Q136 630 145 625 Q154 620 160.5 617.5 Q167 615 171.5 614.5 Q176 614 182 614 Q215 614 222 662 L238 662 Q234 626 218 610.5 Q202 595 182 595 Q166 595 153.5 600 Q141 605 118 619 Q92 635 81 639 Q70 643 59 643 Q27 643 19 592 L3 592 Q7 628 23 645 Q39 662 59 662 Q75 662 88 657 Q101 652 123 638 Z " />
<glyph glyph-name="hungarumlaut" unicode="&#x2dd;" horiz-adv-x="240" d="M60 563 L41 563 L144 708 L171 708 L60 563 Z M177 563 L158 563 L261 708 L288 708 L177 563 Z " />
<glyph glyph-name="endash" unicode="&#x2013;" horiz-adv-x="400" d="M30 244 L30 264 L370 264 L370 244 L30 244 Z " />
<glyph glyph-name="emdash" unicode="&#x2014;" horiz-adv-x="600" d="M30 244 L30 264 L570 264 L570 244 L30 244 Z " />
<glyph glyph-name="quoteleft" unicode="&#x2018;" horiz-adv-x="220" d="M133 708 L150 708 L94 480 L70 480 L133 708 Z " />
<glyph glyph-name="quoteright" unicode="&#x2019;" horiz-adv-x="220" d="M87 480 L70 480 L126 708 L150 708 L87 480 Z " />
<glyph glyph-name="quotesinglbase" unicode="&#x201a;" horiz-adv-x="220" d="M87 -138 L70 -138 L126 90 L150 90 L87 -138 Z " />
<glyph glyph-name="quotedblleft" unicode="&#x201c;" horiz-adv-x="350" d="M263 708 L280 708 L224 480 L200 480 L263 708 Z M135 708 L152 708 L94 480 L70 480 L135 708 Z " />
<glyph glyph-name="quotedblright" unicode="&#x201d;" horiz-adv-x="350" d="M87 480 L70 480 L126 708 L150 708 L87 480 Z M215 480 L198 480 L256 708 L280 708 L215 480 Z " />
<glyph glyph-name="quotedblbase" unicode="&#x201e;" horiz-adv-x="350" d="M87 -138 L70 -138 L126 90 L150 90 L87 -138 Z M215 -138 L198 -138 L256 90 L280 90 L215 -138 Z " />
<glyph glyph-name="dagger" unicode="&#x2020;" horiz-adv-x="520" d="M272 481 L272 -126 L250 -126 L250 481 L54 481 L54 501 L250 501 L250 708 L272 708 L272 501 L466 501 L466 481 L272 481 Z " />
<glyph glyph-name="daggerdbl" unicode="&#x2021;" horiz-adv-x="520" d="M54 481 L54 501 L250 501 L250 708 L272 708 L272 501 L466 501 L466 481 L272 481 L272 101 L466 101 L466 81 L272 81 L272 -126 L250 -126 L250 81 L54 81 L54 101 L250 101 L250 481 L54 481 Z " />
<glyph glyph-name="bullet" unicode="&#x2022;" horiz-adv-x="500" d="M73 354 Q73 391 87 423 Q101 455 125 479 Q149 503 181 517 Q213 531 250 531 Q287 531 319 517 Q351 503 375 479 Q399 455 413 423 Q427 391 427 354 Q427 317 413 285 Q399 253 375 229 Q351 205 319 191 Q287 177 250 177 Q213 177 181 191 Q149 205 125 229 Q101 253 87 285 Q73 317 73 354 Z " />
<glyph glyph-name="ellipsis" unicode="&#x2026;" horiz-adv-x="1000" d="M165 -6 Q156 -6 149 1 Q142 8 142 20 Q142 31 149 38 Q156 45 165 45 Q174 45 181 38 Q188 31 188 20 Q188 8 180.5 1 Q173 -6 165 -6 Z M835 -6 Q826 -6 819 1 Q812 8 812 20 Q812 31 819 38 Q826 45 835 45 Q844 45 851 38 Q858 31 858 20 Q858 8 850.5 1 Q843 -6 835 -6 Z M500 -6 Q491 -6 484 1 Q477 8 477 20 Q477 31 484 38 Q491 45 500 45 Q509 45 516 38 Q523 31 523 20 Q523 8 515.5 1 Q508 -6 500 -6 Z " />
<glyph glyph-name="perthousand" unicode="&#x2030;" horiz-adv-x="1000" d="M334 570 Q334 539 322.5 512 Q311 485 291 465.5 Q271 446 244.5 435 Q218 424 188 424 Q158 424 131.5 435 Q105 446 85.5 465.5 Q66 485 54.5 512 Q43 539 43 570 Q43 601 54.5 628 Q66 655 85.5 675 Q105 695 131.5 706.5 Q158 718 188 718 Q218 718 244.5 706.5 Q271 695 291 675 Q311 655 322.5 628 Q334 601 334 570 Z M312 570 Q312 597 302.5 620.5 Q293 644 276 661.5 Q259 679 236.5 688.5 Q214 698 188 698 Q162 698 140 688.5 Q118 679 101.5 661.5 Q85 644 75.5 620.5 Q66 597 66 570 Q66 543 75.5 519.5 Q85 496 101.5 479 Q118 462 140 452.5 Q162 443 188 443 Q214 443 236.5 452.5 Q259 462 276 479 Q293 496 302.5 519.5 Q312 543 312 570 Z M623 141 Q623 110 611.5 83 Q600 56 580 36.5 Q560 17 533.5 6 Q507 -5 477 -5 Q447 -5 420.5 6 Q394 17 374.5 36.5 Q355 56 343.5 83 Q332 110 332 141 Q332 172 343.5 199 Q355 226 374.5 246 Q394 266 420.5 277.5 Q447 289 477 289 Q507 289 533.5 277.5 Q560 266 580 246 Q600 226 611.5 199 Q623 172 623 141 Z M601 141 Q601 168 591.5 191.5 Q582 215 565 232.5 Q548 250 525.5 259.5 Q503 269 477 269 Q451 269 429 259.5 Q407 250 390.5 232.5 Q374 215 364.5 191.5 Q355 168 355 141 Q355 114 364.5 90.5 Q374 67 390.5 50 Q407 33 429 23.5 Q451 14 477 14 Q503 14 525.5 23.5 Q548 33 565 50 Q582 67 591.5 90.5 Q601 114 601 141 Z M965 141 Q965 110 953.5 83 Q942 56 922 36.5 Q902 17 875.5 6 Q849 -5 819 -5 Q789 -5 762.5 6 Q736 17 716.5 36.5 Q697 56 685.5 83 Q674 110 674 141 Q674 172 685.5 199 Q697 226 716.5 246 Q736 266 762.5 277.5 Q789 289 819 289 Q849 289 875.5 277.5 Q902 266 922 246 Q942 226 953.5 199 Q965 172 965 141 Z M943 141 Q943 168 933.5 191.5 Q924 215 907 232.5 Q890 250 867.5 259.5 Q845 269 819 269 Q793 269 771 259.5 Q749 250 732.5 232.5 Q716 215 706.5 191.5 Q697 168 697 141 Q697 114 706.5 90.5 Q716 67 732.5 50 Q749 33 771 23.5 Q793 14 819 14 Q845 14 867.5 23.5 Q890 33 907 50 Q924 67 933.5 90.5 Q943 114 943 141 Z M108 -24 L92 -13 L544 732 L560 721 L108 -24 Z " />
<glyph glyph-name="guilsinglleft" unicode="&#x2039;" horiz-adv-x="315" d="M205 40 L82 237 L204 433 L220 422 L107 237 L221 52 L205 40 Z " />
<glyph glyph-name="guilsinglright" unicode="&#x203a;" horiz-adv-x="315" d="M111 41 L95 52 L208 237 L94 422 L110 434 L233 237 L111 41 Z " />
<glyph glyph-name="fraction" unicode="&#x2044;" horiz-adv-x="100" d="M-178 -27 L-194 -16 L246 736 L262 725 L-178 -27 Z " />
<glyph glyph-name="Euro" unicode="&#x20ac;" horiz-adv-x="560" d="M508 675 Q479 692 446.5 700 Q414 708 372 708 Q274 708 204 640 Q134 572 110 444 L452 444 L445 425 L107 425 Q105 410 103.5 388.5 Q102 367 102 348 Q102 334 102.5 315.5 Q103 297 105 284 L402 284 L396 265 L107 265 Q116 204 139 155 Q162 106 196.5 71.5 Q231 37 274.5 18.5 Q318 0 368 0 Q459 0 518 46 L529 27 Q465 -20 362 -20 Q304 -20 257 2 Q210 24 175 62.5 Q140 101 117.5 153 Q95 205 86 265 L21 265 L29 284 L84 284 Q82 297 81.5 315.5 Q81 334 81 348 Q81 365 82 387 Q83 409 85 425 L23 425 L29 444 L88 444 Q101 514 128 567.5 Q155 621 192.5 656.5 Q230 692 276 710 Q322 728 374 728 Q414 728 451.5 719 Q489 710 517 695 L508 675 L508 675 Z " />
<glyph glyph-name="afii61289" unicode="&#x2113;" horiz-adv-x="500" d="M286 -14 Q267 -14 249 -8.5 Q231 -3 216.5 10.5 Q202 24 193.5 46 Q185 68 185 101 L185 265 L124 194 L122 194 L112 204 L185 287 L185 561 Q185 644 213 682.5 Q241 721 279 721 Q314 721 337 692 Q360 663 360 608 Q360 536 318.5 452.5 Q277 369 203 281 L203 104 Q203 73 211 53.5 Q219 34 231.5 22.5 Q244 11 259 7 Q274 3 288 3 Q310 3 333 12.5 Q356 22 376 43 L378 43 L387 32 Q364 9 338 -2.5 Q312 -14 286 -14 Z M343 605 Q343 651 324 677.5 Q305 704 279 704 Q265 704 251 696 Q237 688 226.5 671 Q216 654 209.5 627 Q203 600 203 561 L203 303 Q268 381 305.5 460.5 Q343 540 343 605 Z " />
<glyph glyph-name="trademark" unicode="&#x2122;" horiz-adv-x="1000" d="M869 296 L869 687 L867 687 L698 296 L685 296 L519 687 L517 687 L517 296 L495 296 L495 708 L532 708 L692 331 L853 708 L891 708 L891 296 L869 296 Z M255 689 L255 296 L233 296 L233 689 L100 689 L100 708 L389 708 L389 689 L255 689 Z " />
<glyph glyph-name="Omega" unicode="&#x2126;" horiz-adv-x="738" d="M364 701 Q307 701 256.5 679.5 Q206 658 168.5 620 Q131 582 109.5 530.5 Q88 479 88 419 Q88 372 100 329.5 Q112 287 135.5 252 Q159 217 194 193 Q229 169 276 160 L276 0 L66 0 L66 20 L258 20 L258 142 Q212 155 176.5 182 Q141 209 116.5 246 Q92 283 79 327 Q66 371 66 419 Q66 483 89.5 538.5 Q113 594 153.5 634.5 Q194 675 248.5 698 Q303 721 364 721 Q425 721 479.5 698 Q534 675 575 634.5 Q616 594 639.5 538.5 Q663 483 663 419 Q663 371 650 327 Q637 283 612.5 246 Q588 209 552.5 182 Q517 155 471 142 L471 20 L663 20 L663 0 L453 0 L453 160 Q500 169 535 193 Q570 217 593.5 252 Q617 287 629 329.5 Q641 372 641 419 Q641 479 619.5 530.5 Q598 582 560.5 620 Q523 658 472.5 679.5 Q422 701 364 701 Z " />
<glyph glyph-name="estimated" unicode="&#x212e;" horiz-adv-x="800" d="M595 402 L595 595 Q513 674 401 674 Q289 674 210 595 L210 402 L595 402 Z M210 355 L210 115 Q286 37 402 37 Q485 37 546 74.5 Q607 112 658 196 L704 168 Q674 120 642.5 86 Q611 52 575 30.5 Q539 9 496.5 -1.5 Q454 -12 402 -12 Q324 -12 261 16.5 Q198 45 153 95 Q108 145 84 211.5 Q60 278 60 355 Q60 432 84 498.5 Q108 565 153 614.5 Q198 664 261 692 Q324 720 402 720 Q478 720 541.5 693 Q605 666 650 617.5 Q695 569 720 502 Q745 435 745 355 L210 355 Z " />
<glyph glyph-name="partialdiff" unicode="&#x2202;" horiz-adv-x="475" d="M401 298 Q402 320 402.5 339 Q403 358 403 380 Q403 458 388.5 518.5 Q374 579 347.5 620.5 Q321 662 284 683.5 Q247 705 203 705 Q169 705 144 695 Q119 685 93 665 L82 681 Q110 704 138.5 714.5 Q167 725 201 725 Q261 725 303 698 Q345 671 371.5 623.5 Q398 576 410.5 510 Q423 444 423 366 Q423 255 406 187.5 Q389 120 366 78 Q336 24 299.5 3.5 Q263 -17 218 -17 Q179 -17 146.5 0 Q114 17 90.5 47 Q67 77 53.5 117 Q40 157 40 203 Q40 255 54 294.5 Q68 334 92 360.5 Q116 387 148 400 Q180 413 216 413 Q275 413 324 381.5 Q373 350 401 298 Z M397 276 Q366 327 320.5 359.5 Q275 392 219 392 Q180 392 151 376 Q122 360 102.5 333.5 Q83 307 73.5 273 Q64 239 64 204 Q64 171 73.5 136 Q83 101 102.5 71.5 Q122 42 151 23.5 Q180 5 219 5 Q269 5 302.5 33.5 Q336 62 356 103.5 Q376 145 385.5 192 Q395 239 397 276 Z " />
<glyph glyph-name="Delta" unicode="&#x2206;" horiz-adv-x="657" d="M39 0 L312 712 L343 712 L620 0 L39 0 Z M327 693 L67 20 L590 20 L327 693 Z " />
<glyph glyph-name="product" unicode="&#x220f;" horiz-adv-x="704" d="M590 -214 L590 766 L114 766 L114 -214 L92 -214 L92 786 L612 786 L612 -214 L590 -214 Z " />
<glyph glyph-name="summation" unicode="&#x2211;" horiz-adv-x="593" d="M45 -214 L45 -192 L384 289 L59 764 L59 786 L537 786 L537 766 L85 766 L415 289 L73 -194 L548 -194 L548 -214 L45 -214 Z " />
<glyph glyph-name="minus" unicode="&#x2212;" horiz-adv-x="666" d="M100 297 L100 316 L566 316 L566 297 L100 297 Z " />
<glyph glyph-name="uni2215" unicode="&#x2215;" horiz-adv-x="100" d="M-178 -27 L-194 -16 L246 736 L262 725 L-178 -27 Z " />
<glyph glyph-name="uni2219" unicode="&#x2219;" horiz-adv-x="240" d="M120 229 Q111 229 104 236 Q97 243 97 255 Q97 266 104 273 Q111 280 120 280 Q129 280 136 273 Q143 266 143 255 Q143 243 135.5 236 Q128 229 120 229 Z " />
<glyph glyph-name="radical" unicode="&#x221a;" horiz-adv-x="475" d="M230 -215 L62 153 L0 123 L-8 143 L73 180 L243 -193 L448 786 L470 786 L261 -215 L230 -215 Z " />
<glyph glyph-name="infinity" unicode="&#x221e;" horiz-adv-x="722" d="M370 234 Q353 214 331.5 193 Q310 172 286.5 154.5 Q263 137 239 125.5 Q215 114 192 114 Q140 114 106.5 151 Q73 188 73 248 Q73 308 106.5 344.5 Q140 381 192 381 Q215 381 239 369.5 Q263 358 286.5 340.5 Q310 323 331.5 301.5 Q353 280 370 260 Q387 280 408.5 301.5 Q430 323 453.5 340.5 Q477 358 501 369.5 Q525 381 548 381 Q600 381 633.5 344.5 Q667 308 667 248 Q667 188 633.5 151 Q600 114 548 114 Q525 114 501 125.5 Q477 137 453.5 154.5 Q430 172 408.5 193 Q387 214 370 234 Z M382 246 Q411 215 434 193.5 Q457 172 476.5 158.5 Q496 145 513.5 138.5 Q531 132 548 132 Q572 132 590.5 141.5 Q609 151 621.5 167 Q634 183 640.5 203.5 Q647 224 647 246 Q647 269 640.5 290.5 Q634 312 621.5 328 Q609 344 590.5 353.5 Q572 363 548 363 Q531 363 513.5 356.5 Q496 350 476.5 335.5 Q457 321 433.5 299 Q410 277 382 246 Z M358 246 Q301 308 263.5 335.5 Q226 363 192 363 Q168 363 149.5 353.5 Q131 344 118.5 328 Q106 312 99.5 290.5 Q93 269 93 246 Q93 224 99.5 203.5 Q106 183 118.5 167 Q131 151 149.5 141.5 Q168 132 192 132 Q209 132 226.5 138.5 Q244 145 263.5 158.5 Q283 172 306 193.5 Q329 215 358 246 Z " />
<glyph glyph-name="integral" unicode="&#x222b;" horiz-adv-x="535" d="M258 71 Q258 30 257.5 1.5 Q257 -27 256.5 -47 Q256 -67 254.5 -80 Q253 -93 252 -102 Q244 -150 221.5 -177 Q199 -204 163 -204 Q144 -204 131 -196.5 Q118 -189 118 -174 Q118 -164 124.5 -159 Q131 -154 138 -154 Q145 -154 150.5 -160 Q156 -166 160 -174 Q165 -185 180 -185 Q205 -185 220.5 -141.5 Q236 -98 236 -10 L236 499 Q236 539 236.5 568 Q237 597 237.5 617 Q238 637 239 650 Q240 663 242 672 Q250 720 272.5 747 Q295 774 331 774 Q350 774 363 766.5 Q376 759 376 744 Q376 734 369.5 729 Q363 724 356 724 Q349 724 343.5 730 Q338 736 334 744 Q329 755 314 755 Q289 755 273.5 712 Q258 669 258 583 L258 71 L258 71 Z " />
<glyph glyph-name="approxequal" unicode="&#x2248;" horiz-adv-x="666" d="M437 328 Q464 328 482.5 335.5 Q501 343 512.5 355.5 Q524 368 530 384 Q536 400 539 417 L557 417 Q555 396 547.5 376.5 Q540 357 525.5 341.5 Q511 326 489 316.5 Q467 307 436 307 Q403 307 366.5 318 Q330 329 294 341.5 Q258 354 224.5 365 Q191 376 164 376 Q135 376 116 368.5 Q97 361 85 349 Q73 337 67 321 Q61 305 58 288 L40 288 Q42 309 49.5 328.5 Q57 348 71 363 Q85 378 106.5 387.5 Q128 397 158 397 Q191 397 227.5 386 Q264 375 301 362.5 Q338 350 373 339 Q408 328 437 328 Z M437 140 Q464 140 482.5 147.5 Q501 155 512.5 167.5 Q524 180 530 196 Q536 212 539 229 L557 229 Q555 208 547.5 188.5 Q540 169 525.5 153.5 Q511 138 489 128.5 Q467 119 436 119 Q403 119 366.5 130 Q330 141 294 153.5 Q258 166 224.5 177 Q191 188 164 188 Q135 188 116 180.5 Q97 173 85 161 Q73 149 67 133 Q61 117 58 100 L40 100 Q42 121 49.5 140.5 Q57 160 71 175 Q85 190 106.5 199.5 Q128 209 158 209 Q191 209 227.5 198 Q264 187 301 174.5 Q338 162 373 151 Q408 140 437 140 Z " />
<glyph glyph-name="notequal" unicode="&#x2260;" horiz-adv-x="666" d="M100 380 L100 399 L361 399 L434 546 L452 538 L383 399 L566 399 L566 380 L374 380 L299 228 L566 228 L566 209 L289 209 L204 37 L187 46 L268 209 L100 209 L100 228 L277 228 L352 380 L100 380 Z " />
<glyph glyph-name="lessequal" unicode="&#x2264;" horiz-adv-x="666" d="M100 0 L100 20 L566 20 L566 0 L100 0 Z M100 291 L100 315 L566 539 L566 519 L112 303 L566 87 L566 67 L100 291 Z " />
<glyph glyph-name="greaterequal" unicode="&#x2265;" horiz-adv-x="666" d="M100 20 L566 20 L566 0 L100 0 L100 20 Z M100 87 L554 303 L100 519 L100 539 L566 315 L566 291 L100 67 L100 87 Z " />
<glyph glyph-name="lozenge" unicode="&#x25ca;" horiz-adv-x="593" d="M307 -35 L283 -35 L122 356 L283 747 L307 747 L470 356 L307 -35 Z M295 733 L144 356 L295 -21 L446 356 L295 733 Z " />
<glyph glyph-name="dotlessj" unicode="&#xf6be;" horiz-adv-x="226" d="M124 -97 Q124 -132 119.5 -159 Q115 -186 102.5 -204 Q90 -222 68 -231.5 Q46 -241 12 -241 Q5 -241 -3 -240.5 Q-11 -240 -17 -238 L-13 -219 Q0 -222 12 -222 Q44 -222 62 -211 Q80 -200 89 -182.5 Q98 -165 100 -143 Q102 -121 102 -99 L102 460 L124 460 L124 -97 L124 -97 Z " />
<glyph glyph-name="commaaccent" unicode="&#xf6c3;" horiz-adv-x="240" d="M92 -230 L75 -230 L126 -45 L150 -45 L92 -230 Z " />
<glyph glyph-name="fl" unicode="&#xfb02;" horiz-adv-x="494" d="M370 0 L370 756 L392 756 L392 0 L370 0 Z M282 745 Q272 747 262 748.5 Q252 750 241 750 Q214 750 195 739 Q176 728 164.5 710.5 Q153 693 148 671 Q143 649 143 626 L143 460 L268 460 L268 441 L143 441 L143 0 L121 0 L121 441 L24 441 L24 460 L120 460 L120 625 Q120 667 131 695 Q142 723 159.5 739 Q177 755 198 761.5 Q219 768 240 768 Q266 768 286 762 L282 745 Z " />
<glyph glyph-name="uniF8FF" unicode="&#xf8ff;" horiz-adv-x="876" d="M484 664 Q508 693 539 707.5 Q570 722 591 722 Q591 655 545 603 Q499 551 435 551 Q435 582 449 612 Q457 629 484 664 Z M678 237 Q697 208 722.5 185.5 Q748 163 766 158 Q761 144 757 133 Q753 122 749 114 Q726 64 701 36 Q661 -8 643 -21 Q617 -38 583 -38 Q554 -38 514 -21 Q476 -5 455 -5 Q436 -5 380 -27 Q350 -38 332 -38 Q283 -38 229 20 Q207 43 185 76 Q144 136 124 191.5 Q104 247 104 319 Q104 407 158 478 Q216 554 304 554 Q346 554 375 542 Q438 516 453 516 Q480 516 510 528 Q576 554 600 554 Q658 554 690 531 Q705 519 750 467 Q708 448 683 407.5 Q658 367 658 321 Q658 266 678 237 Z " />
<glyph glyph-name="fi" unicode="&#xfb01;" horiz-adv-x="494" d="M381 633 Q372 633 365 640 Q358 647 358 659 Q358 670 365 677 Q372 684 381 684 Q390 684 397 677 Q404 670 404 659 Q404 647 396.5 640 Q389 633 381 633 Z M370 0 L370 460 L392 460 L392 0 L370 0 Z M282 745 Q272 747 262 748.5 Q252 750 241 750 Q214 750 195 739 Q176 728 164.5 710.5 Q153 693 148 671 Q143 649 143 626 L143 460 L268 460 L268 441 L143 441 L143 0 L121 0 L121 441 L24 441 L24 460 L120 460 L120 625 Q120 667 131 695 Q142 723 159.5 739 Q177 755 198 761.5 Q219 768 240 768 Q266 768 286 762 L282 745 Z " />
<glyph glyph-name="Ohorn" unicode="&#x1a0;" horiz-adv-x="872" d="M696 639 Q691 639 687 639 Q683 639 678 640 Q731 593 765.5 521.5 Q800 450 800 354 Q800 272 772.5 203.5 Q745 135 696.5 85.5 Q648 36 581 8 Q514 -20 436 -20 Q358 -20 291 8 Q224 36 175.5 85.5 Q127 135 99.5 203.5 Q72 272 72 354 Q72 436 99.5 504.5 Q127 573 175.5 622.5 Q224 672 290.5 700 Q357 728 436 728 Q491 728 529.5 717 Q568 706 597 693.5 Q626 681 649 670 Q672 659 696 659 Q778 659 778 731 Q778 745 774 761 Q770 777 764 789 L787 796 Q800 768 800 731 Q800 687 773 663 Q746 639 696 639 Z M94 354 Q94 280 118.5 215.5 Q143 151 188 103 Q233 55 296 27.5 Q359 0 436 0 Q513 0 576 27.5 Q639 55 684 103 Q729 151 753.5 215.5 Q778 280 778 354 Q778 428 753 492.5 Q728 557 682.5 605 Q637 653 574 680.5 Q511 708 436 708 Q361 708 298 680.5 Q235 653 189.5 605 Q144 557 119 492.5 Q94 428 94 354 Z " />
<glyph glyph-name="ohorn" unicode="&#x1a1;" horiz-adv-x="610" d="M495 410 Q488 410 481.5 410 Q475 410 469 412 Q504 380 523.5 334 Q543 288 543 231 Q543 177 525.5 132 Q508 87 476 54.5 Q444 22 399.5 4 Q355 -14 302 -14 Q249 -14 205 4 Q161 22 129 54.5 Q97 87 79.5 132 Q62 177 62 231 Q62 285 79.5 329.5 Q97 374 129 406 Q161 438 205 456 Q249 474 302 474 Q339 474 364.5 467 Q390 460 411 452 Q432 444 451.5 437 Q471 430 495 430 Q577 430 577 502 Q577 516 573 532 Q569 548 563 560 L586 567 Q599 539 599 502 Q599 458 572 434 Q545 410 495 410 Z M302 455 Q251 455 211 437.5 Q171 420 142.5 389.5 Q114 359 99 318 Q84 277 84 231 Q84 184 99 143 Q114 102 142.5 71.5 Q171 41 211 23 Q251 5 302 5 Q353 5 393.5 23 Q434 41 462.5 71.5 Q491 102 506 143 Q521 184 521 231 Q521 277 506 318 Q491 359 462.5 389.5 Q434 420 393.5 437.5 Q353 455 302 455 Z " />
<glyph glyph-name="Uhorn" unicode="&#x1af;" horiz-adv-x="732" d="M636 268 Q636 208 622 155.5 Q608 103 576 64 Q544 25 492.5 2.5 Q441 -20 366 -20 Q291 -20 239.5 2.5 Q188 25 156 64 Q124 103 110 155.5 Q96 208 96 268 L96 708 L118 708 L118 272 Q118 230 126.5 182.5 Q135 135 161.5 94.5 Q188 54 236.5 27 Q285 0 366 0 Q445 0 493.5 26 Q542 52 569 92.5 Q596 133 605 180.5 Q614 228 614 272 L614 708 L636 708 Q718 708 718 780 Q718 794 714 810 Q710 826 704 838 L727 845 Q740 817 740 780 Q740 736 713 712 Q686 688 636 688 L636 268 Z " />
<glyph glyph-name="uhorn" unicode="&#x1b0;" horiz-adv-x="577" d="M442 121 Q431 89 412.5 63.5 Q394 38 370 21 Q346 4 318 -5 Q290 -14 260 -14 Q212 -14 180 3 Q148 20 129 48 Q110 76 102 111 Q94 146 94 182 L94 460 L116 460 L116 184 Q116 155 122 123.5 Q128 92 144.5 66 Q161 40 188.5 22.5 Q216 5 260 5 Q298 5 331.5 20.5 Q365 36 389.5 65 Q414 94 428.5 135.5 Q443 177 443 230 L443 460 L465 460 Q547 460 547 532 Q547 546 543 562 Q539 578 533 590 L556 597 Q569 569 569 532 Q569 488 542 464 Q515 440 465 440 L465 116 Q465 105 465.5 89 Q466 73 466.5 56.5 Q467 40 468 25 Q469 10 470 0 L448 0 Q447 10 446.5 25 Q446 40 445.5 57.5 Q445 75 444.5 91.5 Q444 108 444 121 L442 121 L442 121 Z " />
<glyph glyph-name="hookabovecomb" unicode="&#x309;" horiz-adv-x="240" d="M106 555 Q106 573 115.5 586 Q125 599 152 612 Q171 621 179.5 634.5 Q188 648 188 662 Q188 685 172 701 Q156 717 127 717 Q98 717 78 703 Q58 689 52 654 L33 657 Q41 698 65.5 717 Q90 736 127 736 Q164 736 186 715 Q208 694 208 662 Q208 641 195.5 623 Q183 605 159 594 Q139 584 132 575 Q125 566 125 555 L106 555 Z " />
<glyph glyph-name="uni037E" unicode="&#x37e;" horiz-adv-x="280" d="M140 409 Q131 409 124 416 Q117 423 117 435 Q117 446 124 453 Q131 460 140 460 Q149 460 156 453 Q163 446 163 435 Q163 423 155.5 416 Q148 409 140 409 Z M98 -138 L81 -138 L138 90 L162 90 L98 -138 Z " />
<glyph glyph-name="uni1E02" unicode="&#x1e02;" horiz-adv-x="612" d="M551 189 Q551 132 529.5 95.5 Q508 59 474.5 38 Q441 17 400.5 8.5 Q360 0 323 0 L106 0 L106 708 L299 708 Q339 708 378.5 700 Q418 692 449 673 Q480 654 499 622 Q518 590 518 541 Q518 503 506 475 Q494 447 473.5 427 Q453 407 427 394.5 Q401 382 374 376 L374 374 Q401 371 432 359.5 Q463 348 489.5 326 Q516 304 533.5 270 Q551 236 551 189 Z M496 538 Q496 581 479 610 Q462 639 434 656 Q406 673 369.5 680.5 Q333 688 293 688 L128 688 L128 383 L298 383 Q334 383 369.5 392 Q405 401 433 419.5 Q461 438 478.5 467.5 Q496 497 496 538 Z M529 186 Q529 234 509.5 268 Q490 302 460 323 Q430 344 394 353.5 Q358 363 324 363 L128 363 L128 20 L313 20 Q359 20 399 29.5 Q439 39 467.5 59 Q496 79 512.5 110.5 Q529 142 529 186 Z M292 833 Q283 833 276 840 Q269 847 269 859 Q269 870 276 877 Q283 884 292 884 Q301 884 308 877 Q315 870 315 859 Q315 847 307.5 840 Q300 833 292 833 Z " />
<glyph glyph-name="uni1E03" unicode="&#x1e03;" horiz-adv-x="626" d="M127 335 Q157 404 212.5 439 Q268 474 334 474 Q385 474 427.5 455.5 Q470 437 500.5 404.5 Q531 372 547.5 327 Q564 282 564 229 Q564 177 547 132.5 Q530 88 499.5 55.5 Q469 23 426.5 4.5 Q384 -14 334 -14 Q301 -14 269.5 -5 Q238 4 211 21.5 Q184 39 162 64.5 Q140 90 127 124 L124 124 L124 0 L102 0 L102 756 L124 756 L124 335 L127 335 Z M542 229 Q542 274 527.5 315 Q513 356 486 387 Q459 418 420.5 436.5 Q382 455 334 455 Q288 455 249.5 437 Q211 419 183 388.5 Q155 358 139 317 Q123 276 123 230 Q123 184 139 143 Q155 102 183 71.5 Q211 41 249.5 23 Q288 5 334 5 Q382 5 420.5 23 Q459 41 486 71.5 Q513 102 527.5 143 Q542 184 542 229 Z M328 797 Q319 797 312 804 Q305 811 305 823 Q305 834 312 841 Q319 848 328 848 Q337 848 344 841 Q351 834 351 823 Q351 811 343.5 804 Q336 797 328 797 Z " />
<glyph glyph-name="uni1E0A" unicode="&#x1e0a;" horiz-adv-x="770" d="M698 354 Q698 262 668 195.5 Q638 129 585 85.5 Q532 42 460.5 21 Q389 0 307 0 L106 0 L106 708 L307 708 Q389 708 460.5 687.5 Q532 667 585 623.5 Q638 580 668 513 Q698 446 698 354 Z M129 688 L129 20 L302 20 Q380 20 448.5 39.5 Q517 59 567 99.5 Q617 140 646 203 Q675 266 675 354 Q675 442 646 505.5 Q617 569 567 609.5 Q517 650 448.5 669 Q380 688 302 688 L129 688 Z M355 833 Q346 833 339 840 Q332 847 332 859 Q332 870 339 877 Q346 884 355 884 Q364 884 371 877 Q378 870 378 859 Q378 847 370.5 840 Q363 833 355 833 Z " />
<glyph glyph-name="uni1E0B" unicode="&#x1e0b;" horiz-adv-x="626" d="M502 756 L524 756 L524 0 L502 0 L502 124 L499 124 Q469 56 413.5 21 Q358 -14 292 -14 Q242 -14 199.5 4.5 Q157 23 126.5 55.5 Q96 88 79 132.5 Q62 177 62 229 Q62 281 79 326 Q96 371 126.5 404 Q157 437 199.5 455.5 Q242 474 292 474 Q358 474 413.5 439 Q469 404 499 335 L502 335 L502 756 Z M84 229 Q84 184 98.5 143 Q113 102 140 71.5 Q167 41 205.5 23 Q244 5 292 5 Q338 5 376.5 23 Q415 41 443 71.5 Q471 102 487 143 Q503 184 503 230 Q503 276 487 317 Q471 358 443 388.5 Q415 419 376.5 437 Q338 455 292 455 Q244 455 205.5 436.5 Q167 418 140 387 Q113 356 98.5 315 Q84 274 84 229 Z M300 797 Q291 797 284 804 Q277 811 277 823 Q277 834 284 841 Q291 848 300 848 Q309 848 316 841 Q323 834 323 823 Q323 811 315.5 804 Q308 797 300 797 Z " />
<glyph glyph-name="uni1E1E" unicode="&#x1e1e;" horiz-adv-x="560" d="M128 688 L128 377 L483 377 L483 357 L128 357 L128 0 L106 0 L106 708 L510 708 L510 688 L128 688 Z M308 833 Q299 833 292 840 Q285 847 285 859 Q285 870 292 877 Q299 884 308 884 Q317 884 324 877 Q331 870 331 859 Q331 847 323.5 840 Q316 833 308 833 Z " />
<glyph glyph-name="uni1E1F" unicode="&#x1e1f;" horiz-adv-x="282" d="M282 745 Q272 747 262 748.5 Q252 750 241 750 Q214 750 195 739 Q176 728 164.5 710.5 Q153 693 148 671 Q143 649 143 626 L143 460 L268 460 L268 441 L143 441 L143 0 L121 0 L121 441 L24 441 L24 460 L120 460 L120 625 Q120 667 131 695 Q142 723 159.5 739 Q177 755 198 761.5 Q219 768 240 768 Q266 768 286 762 L282 745 Z M160 853 Q151 853 144 860 Q137 867 137 879 Q137 890 144 897 Q151 904 160 904 Q169 904 176 897 Q183 890 183 879 Q183 867 175.5 860 Q168 853 160 853 Z " />
<glyph glyph-name="uni1E22" unicode="&#x1e22;" horiz-adv-x="732" d="M604 0 L604 356 L128 356 L128 0 L106 0 L106 708 L128 708 L128 376 L604 376 L604 708 L626 708 L626 0 L604 0 Z M367 833 Q358 833 351 840 Q344 847 344 859 Q344 870 351 877 Q358 884 367 884 Q376 884 383 877 Q390 870 390 859 Q390 847 382.5 840 Q375 833 367 833 Z " />
<glyph glyph-name="uni1E23" unicode="&#x1e23;" horiz-adv-x="569" d="M126 339 Q136 371 154.5 396 Q173 421 197 438.5 Q221 456 249 465 Q277 474 307 474 Q355 474 387 457 Q419 440 438 412 Q457 384 465 349 Q473 314 473 278 L473 0 L451 0 L451 276 Q451 304 445 336 Q439 368 422.5 394 Q406 420 378 437.5 Q350 455 307 455 Q269 455 235.5 439.5 Q202 424 177.5 395 Q153 366 138.5 324.5 Q124 283 124 230 L124 0 L102 0 L102 756 L124 756 L124 339 L126 339 Z M284 797 Q275 797 268 804 Q261 811 261 823 Q261 834 268 841 Q275 848 284 848 Q293 848 300 841 Q307 834 307 823 Q307 811 299.5 804 Q292 797 284 797 Z " />
<glyph glyph-name="uni1E56" unicode="&#x1e56;" horiz-adv-x="572" d="M517 532 Q517 487 500.5 452.5 Q484 418 456 395 Q428 372 390.5 360 Q353 348 311 348 L128 348 L128 0 L106 0 L106 708 L298 708 Q336 708 375 699.5 Q414 691 445.5 671 Q477 651 497 617 Q517 583 517 532 Z M495 532 Q495 577 478 607 Q461 637 434 655 Q407 673 373.5 681 Q340 689 307 689 L128 689 L128 367 L312 367 Q345 367 378 376 Q411 385 437 405 Q463 425 479 456.5 Q495 488 495 532 Z M300 833 Q291 833 284 840 Q277 847 277 859 Q277 870 284 877 Q291 884 300 884 Q309 884 316 877 Q323 870 323 859 Q323 847 315.5 840 Q308 833 300 833 Z " />
<glyph glyph-name="uni1E57" unicode="&#x1e57;" horiz-adv-x="626" d="M127 335 Q157 404 212.5 439 Q268 474 334 474 Q385 474 427.5 455.5 Q470 437 500.5 404.5 Q531 372 547.5 327 Q564 282 564 229 Q564 177 547 132.5 Q530 88 499.5 55.5 Q469 23 426.5 4.5 Q384 -14 334 -14 Q301 -14 269.5 -5 Q238 4 211 21.5 Q184 39 162 64.5 Q140 90 127 124 L124 124 L124 -240 L102 -240 L102 460 L124 460 L124 335 L127 335 Z M542 229 Q542 274 527.5 315 Q513 356 486 387 Q459 418 420.5 436.5 Q382 455 334 455 Q288 455 249.5 437 Q211 419 183 388.5 Q155 358 139 317 Q123 276 123 230 Q123 184 139 143 Q155 102 183 71.5 Q211 41 249.5 23 Q288 5 334 5 Q382 5 420.5 23 Q459 41 486 71.5 Q513 102 527.5 143 Q542 184 542 229 Z M330 633 Q321 633 314 640 Q307 647 307 659 Q307 670 314 677 Q321 684 330 684 Q339 684 346 677 Q353 670 353 659 Q353 647 345.5 640 Q338 633 330 633 Z " />
<glyph glyph-name="uni1E60" unicode="&#x1e60;" horiz-adv-x="570" d="M498 170 Q498 125 480.5 89.5 Q463 54 434 29.5 Q405 5 365.5 -7.5 Q326 -20 283 -20 Q217 -20 162.5 3.5 Q108 27 72 67 L89 82 Q127 41 177.5 20.5 Q228 0 282 0 Q321 0 356 11.5 Q391 23 418 44.5 Q445 66 460.5 97.5 Q476 129 476 170 Q476 211 459 239 Q442 267 415 287 Q388 307 353.5 320.5 Q319 334 284 345 Q240 359 203.5 374.5 Q167 390 140.5 412.5 Q114 435 99.5 466.5 Q85 498 85 543 Q85 587 102.5 621.5 Q120 656 150 679.5 Q180 703 219.5 715.5 Q259 728 303 728 Q357 728 405.5 707.5 Q454 687 485 649 L468 634 Q440 669 396.5 688.5 Q353 708 302 708 Q266 708 231.5 698 Q197 688 169 667.5 Q141 647 124 616 Q107 585 107 543 Q107 502 122 473.5 Q137 445 162 425 Q187 405 218.5 392 Q250 379 283 368 Q328 353 367 337.5 Q406 322 435.5 300 Q465 278 481.5 246.5 Q498 215 498 170 Z M302 833 Q293 833 286 840 Q279 847 279 859 Q279 870 286 877 Q293 884 302 884 Q311 884 318 877 Q325 870 325 859 Q325 847 317.5 840 Q310 833 302 833 Z " />
<glyph glyph-name="uni1E61" unicode="&#x1e61;" horiz-adv-x="415" d="M361 120 Q361 89 349 64.5 Q337 40 316.5 23 Q296 6 269 -3 Q242 -12 211 -12 Q160 -12 118.5 7.5 Q77 27 50 65 L68 77 Q118 7 212 7 Q234 7 256.5 14 Q279 21 297.5 35 Q316 49 327.5 70 Q339 91 339 118 Q339 150 324.5 170 Q310 190 288 202 Q266 214 239.5 221.5 Q213 229 190 235 Q165 242 143 250.5 Q121 259 104.5 272.5 Q88 286 78.5 306 Q69 326 69 356 Q69 386 81 408 Q93 430 113 444.5 Q133 459 158.5 466.5 Q184 474 210 474 Q304 474 351 407 L332 396 Q309 426 280 440.5 Q251 455 210 455 Q191 455 170 450 Q149 445 131.5 433.5 Q114 422 102.5 403 Q91 384 91 357 Q91 327 100.5 309 Q110 291 127 280 Q144 269 168 261.5 Q192 254 221 247 Q248 240 273.5 230.5 Q299 221 318.5 207 Q338 193 349.5 172 Q361 151 361 120 Z M214 633 Q205 633 198 640 Q191 647 191 659 Q191 670 198 677 Q205 684 214 684 Q223 684 230 677 Q237 670 237 659 Q237 647 229.5 640 Q222 633 214 633 Z " />
<glyph glyph-name="uni1E6A" unicode="&#x1e6a;" horiz-adv-x="540" d="M281 688 L281 0 L259 0 L259 688 L18 688 L18 708 L522 708 L522 688 L281 688 Z M270 833 Q261 833 254 840 Q247 847 247 859 Q247 870 254 877 Q261 884 270 884 Q279 884 286 877 Q293 870 293 859 Q293 847 285.5 840 Q278 833 270 833 Z " />
<glyph glyph-name="uni1E6B" unicode="&#x1e6b;" horiz-adv-x="304" d="M280 -1 Q268 -6 252 -9 Q236 -12 221 -12 Q167 -12 143.5 18.5 Q120 49 120 95 L120 441 L20 441 L20 460 L119 460 L119 595 L142 595 L142 460 L277 460 L277 441 L142 441 L142 95 Q142 48 165 27.5 Q188 7 226 7 Q254 7 277 16 L280 -1 Z M130 713 Q121 713 114 720 Q107 727 107 739 Q107 750 114 757 Q121 764 130 764 Q139 764 146 757 Q153 750 153 739 Q153 727 145.5 720 Q138 713 130 713 Z " />
<glyph glyph-name="uni1EA0" unicode="&#x1ea0;" horiz-adv-x="666" d="M624 0 L540 203 L129 203 L42 0 L18 0 L325 708 L353 708 L648 0 L624 0 Z M338 694 L137 222 L533 222 L338 694 Z M315 -144 Q315 -134 321.5 -126.5 Q328 -119 338 -119 Q348 -119 354.5 -126.5 Q361 -134 361 -144 Q361 -155 354.5 -162.5 Q348 -170 338 -170 Q328 -170 321.5 -162.5 Q315 -155 315 -144 Z " />
<glyph glyph-name="uni1EA1" unicode="&#x1ea1;" horiz-adv-x="512" d="M418 104 Q418 78 420.5 48.5 Q423 19 426 0 L405 0 Q403 10 402 24.5 Q401 39 399.5 54.5 Q398 70 397.5 85 Q397 100 397 110 L394 110 Q374 47 325 16.5 Q276 -14 220 -14 Q192 -14 164.5 -6 Q137 2 115 18 Q93 34 79.5 59 Q66 84 66 118 Q66 167 91.5 197 Q117 227 155 243.5 Q193 260 236.5 265 Q280 270 316 270 L396 270 L396 307 Q396 384 355 419.5 Q314 455 248 455 Q207 455 171.5 440 Q136 425 108 400 L96 417 Q128 445 168.5 459.5 Q209 474 248 474 Q327 474 372.5 433.5 Q418 393 418 306 L418 104 Z M396 251 L325 251 Q287 251 245 246.5 Q203 242 168 228 Q133 214 110.5 188 Q88 162 88 118 Q88 86 100.5 64.5 Q113 43 132.5 30 Q152 17 175.5 11 Q199 5 220 5 Q271 5 305 24 Q339 43 359.5 72.5 Q380 102 388 137.5 Q396 173 396 207 L396 251 Z M225 -144 Q225 -134 231.5 -126.5 Q238 -119 248 -119 Q258 -119 264.5 -126.5 Q271 -134 271 -144 Q271 -155 264.5 -162.5 Q258 -170 248 -170 Q238 -170 231.5 -162.5 Q225 -155 225 -144 Z " />
<glyph glyph-name="uni1EA2" unicode="&#x1ea2;" horiz-adv-x="666" d="M624 0 L540 203 L129 203 L42 0 L18 0 L325 708 L353 708 L648 0 L624 0 Z M338 694 L137 222 L533 222 L338 694 Z M324 755 Q324 773 333.5 786 Q343 799 370 812 Q389 821 397.5 834.5 Q406 848 406 862 Q406 885 390 901 Q374 917 345 917 Q316 917 296 903 Q276 889 270 854 L251 857 Q259 898 283.5 917 Q308 936 345 936 Q382 936 404 915 Q426 894 426 862 Q426 841 413.5 823 Q401 805 377 794 Q357 784 350 775 Q343 766 343 755 L324 755 Z " />
<glyph glyph-name="uni1EA3" unicode="&#x1ea3;" horiz-adv-x="512" d="M418 104 Q418 78 420.5 48.5 Q423 19 426 0 L405 0 Q403 10 402 24.5 Q401 39 399.5 54.5 Q398 70 397.5 85 Q397 100 397 110 L394 110 Q374 47 325 16.5 Q276 -14 220 -14 Q192 -14 164.5 -6 Q137 2 115 18 Q93 34 79.5 59 Q66 84 66 118 Q66 167 91.5 197 Q117 227 155 243.5 Q193 260 236.5 265 Q280 270 316 270 L396 270 L396 307 Q396 384 355 419.5 Q314 455 248 455 Q207 455 171.5 440 Q136 425 108 400 L96 417 Q128 445 168.5 459.5 Q209 474 248 474 Q327 474 372.5 433.5 Q418 393 418 306 L418 104 Z M396 251 L325 251 Q287 251 245 246.5 Q203 242 168 228 Q133 214 110.5 188 Q88 162 88 118 Q88 86 100.5 64.5 Q113 43 132.5 30 Q152 17 175.5 11 Q199 5 220 5 Q271 5 305 24 Q339 43 359.5 72.5 Q380 102 388 137.5 Q396 173 396 207 L396 251 Z M234 555 Q234 573 243.5 586 Q253 599 280 612 Q299 621 307.5 634.5 Q316 648 316 662 Q316 685 300 701 Q284 717 255 717 Q226 717 206 703 Q186 689 180 654 L161 657 Q169 698 193.5 717 Q218 736 255 736 Q292 736 314 715 Q336 694 336 662 Q336 641 323.5 623 Q311 605 287 594 Q267 584 260 575 Q253 566 253 555 L234 555 Z " />
<glyph glyph-name="uni1EA4" unicode="&#x1ea4;" horiz-adv-x="666" d="M624 0 L540 203 L129 203 L42 0 L18 0 L325 708 L353 708 L648 0 L624 0 Z M338 694 L137 222 L533 222 L338 694 Z M444 857 L532 981 L559 981 L463 857 L444 857 Z M338 896 L244 764 L221 764 L324 908 L352 908 L455 764 L432 764 L338 896 Z " />
<glyph glyph-name="uni1EA5" unicode="&#x1ea5;" horiz-adv-x="512" d="M418 104 Q418 78 420.5 48.5 Q423 19 426 0 L405 0 Q403 10 402 24.5 Q401 39 399.5 54.5 Q398 70 397.5 85 Q397 100 397 110 L394 110 Q374 47 325 16.5 Q276 -14 220 -14 Q192 -14 164.5 -6 Q137 2 115 18 Q93 34 79.5 59 Q66 84 66 118 Q66 167 91.5 197 Q117 227 155 243.5 Q193 260 236.5 265 Q280 270 316 270 L396 270 L396 307 Q396 384 355 419.5 Q314 455 248 455 Q207 455 171.5 440 Q136 425 108 400 L96 417 Q128 445 168.5 459.5 Q209 474 248 474 Q327 474 372.5 433.5 Q418 393 418 306 L418 104 Z M396 251 L325 251 Q287 251 245 246.5 Q203 242 168 228 Q133 214 110.5 188 Q88 162 88 118 Q88 86 100.5 64.5 Q113 43 132.5 30 Q152 17 175.5 11 Q199 5 220 5 Q271 5 305 24 Q339 43 359.5 72.5 Q380 102 388 137.5 Q396 173 396 207 L396 251 Z M354 657 L442 781 L469 781 L373 657 L354 657 Z M248 676 L154 544 L131 544 L234 688 L262 688 L365 544 L342 544 L248 676 Z " />
<glyph glyph-name="uni1EA6" unicode="&#x1ea6;" horiz-adv-x="666" d="M624 0 L540 203 L129 203 L42 0 L18 0 L325 708 L353 708 L648 0 L624 0 Z M338 694 L137 222 L533 222 L338 694 Z M213 857 L117 981 L144 981 L232 857 L213 857 Z M244 764 L221 764 L324 908 L352 908 L455 764 L432 764 L338 896 L244 764 Z " />
<glyph glyph-name="uni1EA7" unicode="&#x1ea7;" horiz-adv-x="512" d="M418 104 Q418 78 420.5 48.5 Q423 19 426 0 L405 0 Q403 10 402 24.5 Q401 39 399.5 54.5 Q398 70 397.5 85 Q397 100 397 110 L394 110 Q374 47 325 16.5 Q276 -14 220 -14 Q192 -14 164.5 -6 Q137 2 115 18 Q93 34 79.5 59 Q66 84 66 118 Q66 167 91.5 197 Q117 227 155 243.5 Q193 260 236.5 265 Q280 270 316 270 L396 270 L396 307 Q396 384 355 419.5 Q314 455 248 455 Q207 455 171.5 440 Q136 425 108 400 L96 417 Q128 445 168.5 459.5 Q209 474 248 474 Q327 474 372.5 433.5 Q418 393 418 306 L418 104 Z M396 251 L325 251 Q287 251 245 246.5 Q203 242 168 228 Q133 214 110.5 188 Q88 162 88 118 Q88 86 100.5 64.5 Q113 43 132.5 30 Q152 17 175.5 11 Q199 5 220 5 Q271 5 305 24 Q339 43 359.5 72.5 Q380 102 388 137.5 Q396 173 396 207 L396 251 Z M123 657 L27 781 L54 781 L142 657 L123 657 Z M154 544 L131 544 L234 688 L262 688 L365 544 L342 544 L248 676 L154 544 Z " />
<glyph glyph-name="uni1EA8" unicode="&#x1ea8;" horiz-adv-x="666" d="M624 0 L540 203 L129 203 L42 0 L18 0 L325 708 L353 708 L648 0 L624 0 Z M338 694 L137 222 L533 222 L338 694 Z M338 896 L244 764 L221 764 L324 908 L352 908 L455 764 L432 764 L338 896 Z M474 847 Q474 861 481.5 870.5 Q489 880 509 891 Q523 899 529.5 906.5 Q536 914 536 927 Q536 941 525 952 Q514 963 493 963 Q472 963 458.5 953 Q445 943 440 919 L421 922 Q427 952 445.5 966.5 Q464 981 493 981 Q522 981 539 965.5 Q556 950 556 927 Q556 908 546 895.5 Q536 883 517 874 Q493 863 493 847 L474 847 Z " />
<glyph glyph-name="uni1EA9" unicode="&#x1ea9;" horiz-adv-x="512" d="M418 104 Q418 78 420.5 48.5 Q423 19 426 0 L405 0 Q403 10 402 24.5 Q401 39 399.5 54.5 Q398 70 397.5 85 Q397 100 397 110 L394 110 Q374 47 325 16.5 Q276 -14 220 -14 Q192 -14 164.5 -6 Q137 2 115 18 Q93 34 79.5 59 Q66 84 66 118 Q66 167 91.5 197 Q117 227 155 243.5 Q193 260 236.5 265 Q280 270 316 270 L396 270 L396 307 Q396 384 355 419.5 Q314 455 248 455 Q207 455 171.5 440 Q136 425 108 400 L96 417 Q128 445 168.5 459.5 Q209 474 248 474 Q327 474 372.5 433.5 Q418 393 418 306 L418 104 Z M396 251 L325 251 Q287 251 245 246.5 Q203 242 168 228 Q133 214 110.5 188 Q88 162 88 118 Q88 86 100.5 64.5 Q113 43 132.5 30 Q152 17 175.5 11 Q199 5 220 5 Q271 5 305 24 Q339 43 359.5 72.5 Q380 102 388 137.5 Q396 173 396 207 L396 251 Z M248 676 L154 544 L131 544 L234 688 L262 688 L365 544 L342 544 L248 676 Z M384 647 Q384 661 391.5 670.5 Q399 680 419 691 Q433 699 439.5 706.5 Q446 714 446 727 Q446 741 435 752 Q424 763 403 763 Q382 763 368.5 753 Q355 743 350 719 L331 722 Q337 752 355.5 766.5 Q374 781 403 781 Q432 781 449 765.5 Q466 750 466 727 Q466 708 456 695.5 Q446 683 427 674 Q403 663 403 647 L384 647 Z " />
<glyph glyph-name="uni1EAA" unicode="&#x1eaa;" horiz-adv-x="666" d="M624 0 L540 203 L129 203 L42 0 L18 0 L325 708 L353 708 L648 0 L624 0 Z M338 694 L137 222 L533 222 L338 694 Z M338 876 L244 764 L221 764 L324 888 L352 888 L455 764 L432 764 L338 876 Z M341 968 Q354 960 363 955 Q372 950 378.5 947.5 Q385 945 389.5 944.5 Q394 944 400 944 Q433 944 440 992 L456 992 Q452 956 436 940.5 Q420 925 400 925 Q384 925 371.5 930 Q359 935 336 949 Q310 965 299 969 Q288 973 277 973 Q245 973 237 922 L221 922 Q225 958 241 975 Q257 992 277 992 Q293 992 306 987 Q319 982 341 968 Z " />
</font>
</svg>
