<?xml version="1.0" encoding="UTF-8"?>
<!DOCTYPE svg PUBLIC "-//W3C//DTD SVG 1.1//EN" "http://www.w3.org/Graphics/SVG/1.1/DTD/svg11.dtd">
<!-- Creator: CorelDRAW X7 -->
<svg xmlns="http://www.w3.org/2000/svg" xml:space="preserve" width="210mm" height="297mm" version="1.1" style="shape-rendering:geometricPrecision; text-rendering:geometricPrecision; image-rendering:optimizeQuality; fill-rule:evenodd; clip-rule:evenodd"
viewBox="0 0 21000 29700"
 xmlns:xlink="http://www.w3.org/1999/xlink">
 <defs>
  <style type="text/css">
   <![CDATA[
    .fil1 {fill:#2179B9}
    .fil0 {fill:#2B2A29;fill-rule:nonzero}
    .fil2 {fill:#2B2A29;fill-rule:nonzero}
    .fil3 {fill:#2179B9;fill-rule:nonzero}
   ]]>
  </style>
 </defs>
 <g id="Слой_x0020_1">
  <metadata id="CorelCorpID_0Corel-Layer"/>
  <path id="R" class="fil0" d="M20113 10734c-52,0 -105,6 -160,19 -56,13 -112,31 -167,52 -55,23 -107,49 -155,80 -48,31 -211,163 -230,219l0 -298c71,-87 278,-202 381,-235 105,-32 215,-48 331,-48l0 211zm-712 -199l0 2044 -219 0 0 -2044 219 0z"/>
  <path id="E" class="fil0" d="M18488 12300c-102,108 -218,186 -345,244 -126,57 -369,104 -548,83l0 -197 110 8c88,5 249,-30 366,-70 117,-41 215,-119 303,-213l114 145zm-1811 -746c0,-143 23,-278 67,-403 46,-125 108,-236 189,-333 80,-96 179,-170 290,-231 132,-74 341,-115 477,-104l0 191c-153,-14 -386,58 -489,143 -102,85 -179,190 -232,314 -53,125 -79,259 -81,403 -1,144 24,279 75,405 51,125 128,233 231,325 102,92 233,147 391,166l0 197c-135,-11 -259,-46 -372,-105 -113,-58 -210,-134 -290,-227 -81,-93 -143,-202 -189,-327 -44,-126 -67,-264 -67,-414zm1714 -102c0,-83 -14,-170 -42,-258 -28,-89 -71,-171 -128,-245 -56,-74 -128,-135 -214,-186 -86,-50 -188,-80 -307,-89l0 -191c146,6 277,39 392,100 115,60 212,139 289,237 76,98 135,211 175,339 40,128 60,265 60,409l0 58 -1715 -1c-10,-46 -11,-125 1,-172l1489 -1z"/>
  <path id="path3106" class="fil1" d="M12070 9888c45,-13 93,5 140,7 69,8 147,-34 209,14 127,78 146,241 248,339 60,31 117,-24 163,-56 -14,105 -137,155 -232,135 -59,148 -116,310 -249,411 -55,56 -151,27 -193,-31 -35,-35 -55,-95 -110,-99 -2,57 40,97 67,142 136,216 329,408 570,500 52,24 105,47 158,68 -33,-53 -76,-98 -121,-141 64,-101 156,-177 235,-265 59,-65 117,-129 180,-189 106,107 207,220 300,339 -103,105 -211,206 -314,311 -37,45 -59,100 -92,148 -57,-11 -114,-17 -171,-25 34,257 79,513 145,765 10,36 32,70 63,92 119,93 264,146 393,223 -211,6 -424,1 -635,2 11,-139 -18,-279 -77,-406 -46,-124 -85,-251 -136,-374 -82,62 -104,168 -163,249 -72,102 -119,221 -203,314 -61,71 -116,171 -201,216 -96,11 -199,0 -295,3 -121,-1 -225,-108 -281,-204 -76,-106 -106,-235 -136,-361 -38,-172 -28,-350 -24,-526 11,-141 48,-279 106,-409 46,-100 85,-205 155,-291 57,-70 105,-154 189,-195 55,-29 121,-69 126,-138 -18,-74 -51,-148 -46,-226 14,-73 51,-141 100,-197 42,-49 75,-110 132,-145zm-53 1322c157,41 308,99 462,148 -64,104 -144,198 -219,293 -85,116 -157,244 -264,342 -18,16 -51,14 -63,-9 -73,-121 -77,-273 -44,-408 34,-125 50,-258 128,-366z"/>
 </g>
 <g id="W">
  <metadata id="CorelCorpID_1Corel-Layer"/>
  <g id="_202338077584">
   <path class="fil2" d="M1812 10535l-571 2043 -28 -1 -98 -357 475 -1685 222 0zm1629 0l-582 2041c-25,1 -42,1 -42,1 -35,-120 -67,-242 -101,-362l462 -1680 263 0zm-1194 0l570 2042 -220 0 -569 -2042 219 0zm-1598 0l564 2042 -242 0 -585 -2042 263 0z"/>
   <path class="fil3" d="M386 10535l-223 -781 270 0 216 781 -263 0zm2792 0l215 -781 271 0 -223 781 -263 0zm-1150 0l-218 -781 219 0 218 781 -219 0zm-438 0l220 -781 110 395 -108 386 -222 0z"/>
  </g>
  <g id="_202338091312">
   <path class="fil2" d="M9430 10537l-571 2043 -28 -1 -99 -357 475 -1685 223 0zm1629 0l-582 2041c-25,1 -42,1 -42,1 -35,-120 -67,-242 -101,-362l462 -1680 263 0zm-1194 0l570 2042 -220 0 -569 -2042 219 0zm-1598 0l564 2042 -242 0 -585 -2042 263 0z"/>
   <path class="fil3" d="M8004 10537l-224 -781 271 0 216 781 -263 0zm2792 0l215 -781 271 0 -223 781 -263 0zm-1150 0l-218 -781 219 0 218 781 -219 0zm-439 0l221 -781 110 395 -108 386 -223 0z"/>
  </g>
 </g>
 <g id="I">
  <metadata id="CorelCorpID_2Corel-Layer"/>
  <g id="_202338090832">
   <polygon class="fil3" points="7357,10213 7138,10213 7138,9878 7357,9878 "/>
   <polygon class="fil0" points="7357,10535 7357,12579 7138,12579 7138,10535 "/>
  </g>
  <g id="_202338089680">
   <polygon class="fil0" points="4315,10535 4315,12579 4095,12579 4095,10535 "/>
   <polygon class="fil3" points="4315,10213 4095,10213 4095,9878 4315,9878 "/>
  </g>
 </g>
 <g id="K">
  <metadata id="CorelCorpID_3Corel-Layer"/>
  <g id="_202338089968">
   <path class="fil0" d="M5762 11451l952 1128 -295 0 -819 -973 162 -155zm661 -916l295 0 -1498 1436 0 -265 1203 -1171zm-1203 0l0 2044 -220 0 0 -2044 220 0z"/>
   <polygon class="fil3" points="5000,10535 5000,9756 5220,9756 5220,10535 "/>
  </g>
  <g id="_202338086544">
   <path class="fil0" d="M15415 11451l952 1128 -296 0 -818 -973 162 -155zm660 -916l296 0 -1498 1436 0 -265 1202 -1171zm-1202 0l0 2044 -220 0 0 -2044 220 0z"/>
   <polygon class="fil3" points="14653,10535 14653,9756 14873,9756 14873,10535 "/>
  </g>
 </g>
 <g id="L">
  <metadata id="CorelCorpID_4Corel-Layer"/>
  <g id="_202338087472">
   <polygon class="fil3" points="13748,10535 13748,9756 13967,9756 13967,10535 "/>
   <polygon class="fil0" points="13967,10535 13967,12579 13748,12579 13748,10535 "/>
  </g>
 </g>
</svg>
