<?xml version="1.0" encoding="UTF-8"?>
<!DOCTYPE svg PUBLIC "-//W3C//DTD SVG 1.1//EN" "http://www.w3.org/Graphics/SVG/1.1/DTD/svg11.dtd">
<!-- Creator: CorelDRAW X7 -->
<svg xmlns="http://www.w3.org/2000/svg" xml:space="preserve" width="200mm" height="30mm" version="1.1" style="shape-rendering:geometricPrecision; text-rendering:geometricPrecision; image-rendering:optimizeQuality; fill-rule:evenodd; clip-rule:evenodd"
viewBox="0 0 20000 3000"
 xmlns:xlink="http://www.w3.org/1999/xlink">
 <defs>
  <style type="text/css">
   <![CDATA[
    .fil2 {fill:#2179B9}
    .fil0 {fill:#2B2A29;fill-rule:nonzero}
    .fil1 {fill:#2179B9;fill-rule:nonzero}
   ]]>
  </style>
 </defs>
 <g id="Слой_x0020_1">
  <metadata id="CorelCorpID_0Corel-Layer"/>
  <g id="_23544450368">
   <path id="R" class="fil0" d="M19983 1057c-51,0 -104,7 -160,20 -56,13 -111,30 -167,52 -55,23 -107,49 -155,80 -48,31 -211,163 -229,219l0 -298c71,-88 277,-203 381,-235 104,-33 214,-49 330,-49l0 211zm-711 -198l0 2044 -219 0 0 -2044 219 0z"/>
   <path id="E" class="fil0" d="M18358 2624c-101,107 -218,186 -345,244 -126,57 -368,104 -547,82l0 -196 109 7c89,6 249,-29 366,-70 117,-41 215,-118 304,-212l113 145zm-1810 -746c0,-143 22,-278 67,-403 45,-126 107,-236 188,-333 81,-97 180,-170 290,-232 132,-73 342,-115 478,-103l0 190c-153,-13 -386,58 -489,143 -103,85 -180,190 -232,315 -53,124 -80,259 -81,403 -2,144 24,279 74,404 51,126 128,234 231,326 102,91 233,147 392,166l0 196c-136,-10 -260,-46 -373,-104 -113,-59 -209,-134 -290,-227 -81,-94 -143,-202 -188,-328 -45,-125 -67,-263 -67,-413zm1714 -102c0,-84 -15,-170 -43,-259 -28,-89 -71,-171 -127,-244 -57,-74 -128,-135 -214,-186 -86,-50 -189,-81 -307,-90l0 -190c146,5 276,39 391,99 115,61 212,140 289,238 77,97 135,211 176,339 40,128 60,264 60,409l0 58 -1716 -1c-9,-47 -10,-126 1,-173l1490 0z"/>
   <path class="fil0" d="M1683 859l-571 2042 -28 0 -99 -357 475 -1685 223 0zm1629 0l-582 2041c-25,1 -43,1 -43,1 -35,-120 -66,-243 -101,-362l463 -1680 263 0zm-1194 0l569 2042 -219 0 -570 -2042 220 0zm-1598 0l564 2042 -242 0 -585 -2042 263 0z"/>
   <path class="fil1" d="M257 859l-224 -782 271 0 216 782 -263 0zm2792 0l215 -782 271 0 -223 782 -263 0zm-1151 0l-218 -782 220 0 218 782 -220 0zm-438 0l220 -782 111 396 -108 386 -223 0z"/>
   <path class="fil0" d="M9300 861l-570 2042 -29 0 -98 -357 475 -1685 222 0zm1629 0l-582 2041c-25,1 -42,1 -42,1 -35,-120 -66,-243 -101,-362l462 -1680 263 0zm-1193 0l569 2042 -219 0 -570 -2042 220 0zm-1598 0l563 2042 -242 0 -584 -2042 263 0z"/>
   <path class="fil1" d="M7875 861l-224 -782 271 0 216 782 -263 0zm2791 0l215 -782 271 0 -223 782 -263 0zm-1150 0l-218 -782 220 0 218 782 -220 0zm-438 0l220 -782 110 396 -108 386 -222 0z"/>
   <polygon class="fil1" points="7227,537 7008,537 7008,201 7227,201 "/>
   <polygon class="fil0" points="7227,859 7227,2903 7008,2903 7008,859 "/>
   <polygon class="fil0" points="4185,859 4185,2903 3966,2903 3966,859 "/>
   <polygon class="fil1" points="4185,537 3966,537 3966,201 4185,201 "/>
   <path class="fil0" d="M5632 1775l953 1128 -296 0 -818 -973 161 -155zm661 -916l296 0 -1499 1436 0 -265 1203 -1171zm-1203 0l0 2044 -219 0 0 -2044 219 0z"/>
   <polygon class="fil1" points="4871,859 4871,79 5090,79 5090,859 "/>
   <path class="fil0" d="M15285 1775l952 1128 -295 0 -819 -973 162 -155zm661 -916l296 0 -1499 1436 0 -265 1203 -1171zm-1203 0l0 2044 -219 0 0 -2044 219 0z"/>
   <polygon class="fil1" points="14524,859 14524,79 14743,79 14743,859 "/>
   <polygon class="fil1" points="13618,859 13618,79 13838,79 13838,859 "/>
   <polygon class="fil0" points="13838,859 13838,2903 13618,2903 13618,859 "/>
   <path id="path3106" class="fil2" d="M11940 211c46,-12 94,6 140,7 70,9 148,-34 210,14 126,78 145,242 247,340 60,30 118,-24 164,-57 -15,106 -137,156 -232,135 -59,149 -117,311 -249,412 -56,55 -152,27 -194,-31 -34,-35 -54,-95 -110,-99 -1,56 40,97 68,142 136,216 328,407 570,500 52,23 104,47 158,68 -34,-53 -77,-98 -121,-142 63,-100 156,-177 235,-264 58,-65 117,-129 180,-190 106,108 207,221 299,340 -103,105 -211,205 -314,310 -36,46 -59,100 -91,148 -57,-10 -115,-16 -172,-25 34,258 80,514 146,765 10,37 31,70 62,93 120,93 264,146 394,222 -212,6 -424,2 -636,3 12,-140 -17,-279 -77,-406 -46,-124 -85,-252 -136,-374 -81,62 -104,168 -162,248 -72,103 -119,221 -203,315 -62,71 -116,170 -201,215 -96,12 -199,1 -296,3 -121,0 -225,-108 -280,-203 -77,-107 -106,-236 -136,-361 -38,-173 -28,-351 -25,-526 11,-141 48,-280 106,-409 46,-100 85,-205 156,-291 57,-70 104,-154 188,-196 55,-28 122,-68 127,-137 -19,-74 -52,-148 -46,-226 13,-74 50,-141 99,-197 42,-50 75,-110 132,-146zm-53 1323c157,41 309,98 462,148 -64,104 -143,197 -219,292 -84,117 -157,244 -263,343 -18,16 -52,14 -63,-9 -74,-122 -78,-273 -44,-409 33,-124 50,-258 127,-365z"/>
  </g>
 </g>
</svg>
