<?xml version="1.0" encoding="UTF-8"?>
<!DOCTYPE svg PUBLIC "-//W3C//DTD SVG 1.1//EN" "http://www.w3.org/Graphics/SVG/1.1/DTD/svg11.dtd">
<!-- Creator: CorelDRAW X7 -->
<svg xmlns="http://www.w3.org/2000/svg" xml:space="preserve" width="210mm" height="297mm" version="1.1" style="shape-rendering:geometricPrecision; text-rendering:geometricPrecision; image-rendering:optimizeQuality; fill-rule:evenodd; clip-rule:evenodd"
viewBox="0 0 21000 29700"
 xmlns:xlink="http://www.w3.org/1999/xlink">
 <defs>
  <style type="text/css">
   <![CDATA[
    .fil2 {fill:#2179B9}
    .fil0 {fill:#2B2A29;fill-rule:nonzero}
    .fil1 {fill:#2179B9;fill-rule:nonzero}
   ]]>
  </style>
 </defs>
 <g id="Слой_x0020_1">
  <metadata id="CorelCorpID_0Corel-Layer"/>
  <path id="R" class="fil0" d="M19977 1006c-52,0 -105,6 -160,20 -56,13 -112,30 -167,52 -55,23 -107,49 -155,80 -48,31 -211,162 -229,219l0 -299c70,-87 277,-202 381,-234 104,-33 214,-49 330,-49l0 211zm-711 -198l0 2044 -220 0 0 -2044 220 0z"/>
  <path id="E" class="fil0" d="M18352 2572c-102,108 -218,186 -345,245 -126,57 -369,104 -548,82l0 -196 110 7c89,6 249,-29 366,-70 117,-41 215,-118 303,-212l114 144zm-1811 -745c0,-144 23,-278 68,-403 45,-126 107,-237 188,-333 80,-97 179,-170 290,-232 132,-73 341,-115 478,-103l0 190c-154,-13 -387,58 -489,143 -103,85 -180,190 -233,315 -52,124 -79,259 -81,403 -1,144 24,279 75,404 51,126 128,234 231,325 102,92 233,148 391,167l0 196c-135,-11 -259,-46 -372,-104 -113,-59 -210,-134 -290,-228 -81,-93 -143,-201 -188,-327 -45,-125 -68,-263 -68,-413zm1714 -102c0,-84 -14,-170 -42,-259 -28,-89 -71,-171 -128,-244 -56,-74 -127,-135 -214,-186 -86,-50 -188,-81 -306,-90l0 -190c146,5 276,38 391,99 115,61 212,140 289,238 77,97 135,211 175,339 41,128 60,264 60,409l0 58 -1715 -1c-10,-47 -10,-126 1,-173l1489 0z"/>
  <path class="fil0" d="M1676 808l-570 2042 -29 0 -98 -357 475 -1685 222 0zm1629 0l-582 2040c-25,2 -42,2 -42,2 -35,-120 -67,-243 -101,-363l462 -1679 263 0zm-1193 0l569 2042 -219 0 -570 -2042 220 0zm-1599 0l564 2042 -242 0 -584 -2042 262 0z"/>
  <path class="fil1" d="M251 808l-224 -782 271 0 215 782 -262 0zm2791 0l215 -782 271 0 -223 782 -263 0zm-1150 0l-218 -782 220 0 218 782 -220 0zm-438 0l220 -782 110 395 -108 387 -222 0z"/>
  <path class="fil0" d="M9294 810l-571 2042 -28 0 -99 -357 476 -1685 222 0zm1629 0l-582 2040c-25,2 -42,2 -42,2 -35,-120 -67,-243 -101,-363l462 -1679 263 0zm-1194 0l570 2042 -220 0 -569 -2042 219 0zm-1598 0l564 2042 -242 0 -585 -2042 263 0z"/>
  <path class="fil1" d="M7868 810l-224 -782 271 0 216 782 -263 0zm2792 0l215 -782 271 0 -223 782 -263 0zm-1150 0l-218 -782 219 0 218 782 -219 0zm-438 0l220 -782 110 395 -108 387 -222 0z"/>
  <polygon class="fil1" points="7221,485 7002,485 7002,150 7221,150 "/>
  <polygon class="fil0" points="7221,808 7221,2852 7002,2852 7002,808 "/>
  <polygon class="fil0" points="4179,808 4179,2852 3959,2852 3959,808 "/>
  <polygon class="fil1" points="4179,485 3959,485 3959,150 4179,150 "/>
  <path class="fil0" d="M5626 1724l952 1128 -295 0 -819 -973 162 -155zm661 -916l296 0 -1499 1436 0 -265 1203 -1171zm-1203 0l0 2044 -219 0 0 -2044 219 0z"/>
  <polygon class="fil1" points="4865,808 4865,28 5084,28 5084,808 "/>
  <path class="fil0" d="M15279 1724l952 1128 -296 0 -818 -973 162 -155zm661 -916l295 0 -1498 1436 0 -265 1203 -1171zm-1203 0l0 2044 -220 0 0 -2044 220 0z"/>
  <polygon class="fil1" points="14517,808 14517,28 14737,28 14737,808 "/>
  <polygon class="fil1" points="13612,808 13612,28 13831,28 13831,808 "/>
  <polygon class="fil0" points="13831,808 13831,2852 13612,2852 13612,808 "/>
  <path id="path3106" class="fil2" d="M11934 160c46,-12 93,6 140,7 69,9 147,-34 210,14 126,78 145,242 247,340 60,30 117,-24 164,-57 -15,105 -138,156 -232,135 -60,149 -117,311 -249,412 -56,55 -152,27 -194,-31 -35,-36 -54,-95 -110,-99 -2,56 40,97 67,142 136,216 329,407 570,500 53,23 105,47 158,68 -33,-53 -76,-99 -121,-142 64,-100 157,-177 236,-264 58,-65 117,-129 180,-190 105,108 206,221 299,340 -103,105 -211,205 -314,310 -37,46 -59,100 -92,148 -56,-10 -114,-16 -171,-25 34,258 80,514 145,765 11,37 32,70 63,92 119,94 264,147 394,223 -212,6 -424,1 -636,3 11,-140 -18,-279 -77,-406 -46,-124 -85,-252 -136,-374 -82,62 -104,168 -163,248 -72,103 -118,221 -202,315 -62,71 -117,170 -202,215 -96,12 -198,1 -295,3 -121,0 -225,-108 -280,-204 -77,-106 -106,-235 -137,-360 -38,-173 -28,-351 -24,-526 11,-141 48,-280 106,-409 46,-100 85,-205 155,-292 57,-69 105,-153 189,-195 55,-28 122,-68 127,-137 -19,-74 -52,-148 -46,-226 13,-74 50,-141 99,-197 42,-50 75,-110 132,-146zm-53 1323c157,40 308,98 462,148 -64,104 -143,197 -219,292 -85,117 -157,244 -264,343 -17,16 -51,14 -63,-9 -73,-122 -77,-273 -44,-409 34,-124 50,-258 128,-365z"/>
 </g>
</svg>
