<?xml version="1.0" encoding="UTF-8"?>
<svg xmlns="http://www.w3.org/2000/svg" xmlns:xlink="http://www.w3.org/1999/xlink" version="1.2" >
<font id="Avenir Next Heavy Italic">
<font-face  font-family="Avenir Next" units-per-em="1000" ascent="1000" descent="-366" font-style="italic" font-weight="900" font-stretch="normal" slope="-12" cap-height="708" x-height="526" underline-position="-75" underline-thickness="50" />
<missing-glyph  horiz-adv-x="512" d="M222 117 L222 184 L278 184 L278 117 L222 117 Z M225 234 L223 251 Q223 307 236 332 Q243 345 254 359.5 Q265 374 282 391 Q298 406 308 417.5 Q318 429 323 438.5 Q328 448 330 456.5 Q332 465 332 474 Q332 510 309.5 534.5 Q287 559 256 559 Q225 559 202.5 537 Q180 515 174 464 L124 472 Q131 544 168 576.5 Q205 609 259 609 Q313 609 348 573.5 Q383 538 383 478 Q383 446 370.5 419.5 Q358 393 320 358 Q283 325 277 306 Q271 286 271 234 L225 234 Z M462 50 L462 667 L50 667 L50 50 L462 50 Z M512 718 L512 0 L0 0 L0 718 L512 718 Z " />
<glyph glyph-name=".null" horiz-adv-x="500" d="" />
<glyph glyph-name="nonmarkingreturn" unicode="&#xd;" d="" />
<glyph glyph-name="space" unicode="&#x20;" horiz-adv-x="250" d="" />
<glyph glyph-name="exclam" unicode="&#x21;" horiz-adv-x="439" d="M88 258 L168 708 L401 708 L321 258 L88 258 Z M179 -13 Q152 -13 130.5 -4.5 Q109 4 94 18 Q79 32 71 50.5 Q63 69 63 89 Q63 116 72.5 140.5 Q82 165 99.5 183.5 Q117 202 141.5 212.5 Q166 223 196 223 Q222 223 243 214.5 Q264 206 279 192 Q294 178 302.5 159.5 Q311 141 311 121 Q311 93 301.5 68.5 Q292 44 274.5 26 Q257 8 232.5 -2.5 Q208 -13 179 -13 Z " />
<glyph glyph-name="quotedbl" unicode="&#x22;" horiz-adv-x="550" d="M313 427 L362 708 L530 708 L480 427 L313 427 Z M93 427 L143 708 L312 708 L262 427 L93 427 Z " />
<glyph glyph-name="numbersign" unicode="&#x23;" horiz-adv-x="618" d="M487 389 L464 319 L542 319 L519 188 L424 188 L363 0 L222 0 L281 188 L237 188 L177 0 L36 0 L95 188 L18 188 L41 319 L136 319 L160 389 L82 389 L105 520 L200 520 L260 708 L402 708 L342 520 L387 520 L447 708 L588 708 L528 520 L605 520 L582 389 L487 389 Z M300 389 L278 319 L323 319 L346 389 L300 389 Z " />
<glyph glyph-name="dollar" unicode="&#x24;" horiz-adv-x="695" d="M354 786 L457 786 L443 716 Q504 711 559.5 689 Q615 667 647 634 L502 494 Q485 514 459 526 Q433 538 398 538 Q371 538 348.5 526.5 Q326 515 326 491 Q326 471 345 460 Q364 449 400 438 Q490 409 540 361.5 Q590 314 590 235 Q590 177 567 133.5 Q544 90 507.5 60.5 Q471 31 424.5 14.5 Q378 -2 331 -6 L317 -83 L215 -83 L229 -7 Q160 -2 96 23 Q32 48 -10 89 L145 232 Q168 205 207.5 189 Q247 173 279 173 Q312 173 333 184.5 Q354 196 354 217 Q354 234 336.5 248 Q319 262 273 277 Q235 289 202.5 304 Q170 319 146 341.5 Q122 364 108.5 394.5 Q95 425 95 469 Q95 517 112.5 559 Q130 601 162.5 633.5 Q195 666 240 687.5 Q285 709 340 716 L354 786 Z " />
<glyph glyph-name="percent" unicode="&#x25;" horiz-adv-x="915" d="M234 344 Q195 344 161.5 354.5 Q128 365 103.5 385.5 Q79 406 65.5 436 Q52 466 52 505 Q52 550 67.5 589 Q83 628 111 657.5 Q139 687 178.5 703.5 Q218 720 265 720 Q305 720 338.5 709 Q372 698 396.5 677.5 Q421 657 435 627 Q449 597 449 558 Q449 513 433 474 Q417 435 388 406 Q359 377 319.5 360.5 Q280 344 234 344 Z M309 546 Q309 567 296 581.5 Q283 596 258 596 Q228 596 210 573.5 Q192 551 192 519 Q192 496 205 482 Q218 468 242 468 Q273 468 291 491 Q309 514 309 546 Z M677 -11 Q638 -11 604.5 -0.5 Q571 10 546.5 30.5 Q522 51 508.5 81 Q495 111 495 150 Q495 195 510.5 234 Q526 273 554 302.5 Q582 332 621.5 348.5 Q661 365 708 365 Q748 365 781.5 354 Q815 343 839.5 322.5 Q864 302 878 272 Q892 242 892 203 Q892 158 876 119 Q860 80 831.5 51 Q803 22 763.5 5.5 Q724 -11 677 -11 Z M752 191 Q752 212 739 226.5 Q726 241 701 241 Q671 241 653 218.5 Q635 196 635 164 Q635 141 648 127 Q661 113 685 113 Q716 113 734 136 Q752 159 752 191 Z M235 -39 L149 19 L695 739 L782 683 L235 -39 Z " />
<glyph glyph-name="ampersand" unicode="&#x26;" horiz-adv-x="834" d="M285 276 Q262 269 244.5 252.5 Q227 236 227 207 Q227 182 246.5 168 Q266 154 289 154 Q310 154 328.5 160.5 Q347 167 361 181 L285 276 Z M440 535 Q440 555 428 567.5 Q416 580 394 580 Q369 580 354 564 Q339 548 339 525 Q339 508 347 491 Q355 474 368 463 Q400 474 420 493 Q440 512 440 535 Z M193 399 Q167 428 156.5 460.5 Q146 493 146 522 Q146 563 164 600 Q182 637 215 665.5 Q248 694 294.5 711 Q341 728 398 728 Q448 728 490 716.5 Q532 705 562 682.5 Q592 660 609 625.5 Q626 591 626 546 Q626 475 581 429 Q536 383 460 354 L501 308 L563 387 L807 387 L626 182 L784 0 L508 0 L470 47 Q428 17 378.5 1 Q329 -15 275 -15 Q224 -15 176 -4.5 Q128 6 91 30 Q54 54 32 92 Q10 130 10 184 Q10 261 58 315 Q106 369 193 399 Z " />
<glyph glyph-name="quotesingle" unicode="&#x27;" horiz-adv-x="330" d="M93 427 L142 708 L310 708 L260 427 L93 427 Z " />
<glyph glyph-name="parenleft" unicode="&#x28;" horiz-adv-x="360" d="M83 -180 Q62 -144 45.5 -102.5 Q29 -61 18 -16.5 Q7 28 1.5 73.5 Q-4 119 -4 163 Q-4 247 13.5 328.5 Q31 410 63 485.5 Q95 561 140 629.5 Q185 698 239 756 L374 685 Q268 565 213 431.5 Q158 298 158 163 Q158 127 162.5 88 Q167 49 176.5 10 Q186 -29 200 -65.5 Q214 -102 233 -134 L83 -180 Z " />
<glyph glyph-name="parenright" unicode="&#x29;" horiz-adv-x="360" d="M253 756 Q274 720 290.5 678.5 Q307 637 318 592.5 Q329 548 334.5 502.5 Q340 457 340 413 Q340 329 322.5 247.5 Q305 166 273 90.5 Q241 15 196 -53.5 Q151 -122 97 -180 L-38 -109 Q68 11 123 144.5 Q178 278 178 413 Q178 449 173.5 488 Q169 527 159.5 566 Q150 605 136 641.5 Q122 678 103 710 L253 756 Z " />
<glyph glyph-name="asterisk" unicode="&#x2a;" horiz-adv-x="523" d="M496 374 L375 291 L301 386 L230 296 L110 379 L184 468 L67 505 L115 635 L229 597 L229 708 L378 708 L378 596 L494 631 L538 501 L424 467 L496 374 Z " />
<glyph glyph-name="plus" unicode="&#x2b;" horiz-adv-x="666" d="M253 378 L253 576 L411 576 L411 378 L617 378 L617 228 L413 228 L413 30 L255 30 L255 228 L49 228 L49 378 L253 378 Z " />
<glyph glyph-name="comma" unicode="&#x2c;" horiz-adv-x="354" d="M114 -120 L-66 -120 L70 190 L282 190 L114 -120 Z " />
<glyph glyph-name="hyphen" unicode="&#x2d;" horiz-adv-x="335" d="M6 199 L36 367 L309 367 L279 199 L6 199 Z " />
<glyph glyph-name="period" unicode="&#x2e;" horiz-adv-x="354" d="M132 -12 Q104 -12 81.5 -3.5 Q59 5 43.5 20 Q28 35 19.5 54 Q11 73 11 94 Q11 123 21 148.5 Q31 174 49.5 193 Q68 212 93.5 223 Q119 234 150 234 Q177 234 199 225.5 Q221 217 236.5 202 Q252 187 261 168 Q270 149 270 128 Q270 99 260 73.5 Q250 48 232 29 Q214 10 188.5 -1 Q163 -12 132 -12 Z " />
<glyph glyph-name="slash" unicode="&#x2f;" horiz-adv-x="451" d="M79 -58 L-65 -11 L375 766 L521 719 L79 -58 Z " />
<glyph glyph-name="zero" unicode="0" horiz-adv-x="695" d="M398 726 Q477 726 531 702 Q585 678 618.5 639.5 Q652 601 666.5 552 Q681 503 681 454 Q681 404 672.5 350 Q664 296 646 243.5 Q628 191 599 143.5 Q570 96 529.5 60 Q489 24 435.5 3 Q382 -18 314 -18 Q234 -18 179 6 Q124 30 90 68.5 Q56 107 41.5 155.5 Q27 204 27 254 Q27 304 35.5 358 Q44 412 62.5 464.5 Q81 517 110 564.5 Q139 612 180 648 Q221 684 275 705 Q329 726 398 726 Z M379 534 Q350 534 327 509.5 Q304 485 288 447.5 Q272 410 264 366 Q256 322 256 283 Q256 239 272.5 208.5 Q289 178 324 178 Q352 178 374.5 201.5 Q397 225 413 261.5 Q429 298 437 342.5 Q445 387 445 429 Q445 473 430 503.5 Q415 534 379 534 Z " />
<glyph glyph-name="one" unicode="1" horiz-adv-x="695" d="M227 0 L309 465 L175 393 L107 568 L372 708 L585 708 L460 0 L227 0 Z " />
<glyph glyph-name="two" unicode="2" horiz-adv-x="695" d="M6 0 L39 183 L361 409 Q379 422 398 440.5 Q417 459 417 478 Q417 499 405 513 Q393 527 364 527 Q329 527 307.5 504 Q286 481 277 443 L64 474 Q77 532 106 579 Q135 626 176 659 Q217 692 270 710 Q323 728 386 728 Q436 728 485 716 Q534 704 573 678.5 Q612 653 636 612.5 Q660 572 660 516 Q660 467 644.5 430.5 Q629 394 605 366 Q581 338 551 316 Q521 294 492 275 L371 194 L623 194 L589 0 L6 0 Z " />
<glyph glyph-name="three" unicode="3" horiz-adv-x="695" d="M626 227 Q626 162 597.5 115 Q569 68 524 38 Q479 8 424 -6 Q369 -20 316 -20 Q260 -20 209.5 -7 Q159 6 119 32 Q79 58 51 98.5 Q23 139 11 195 L223 246 Q232 212 257 193 Q282 174 320 174 Q332 174 345 177 Q358 180 368.5 186.5 Q379 193 386 202.5 Q393 212 393 226 Q393 261 366 272 Q339 283 291 283 L225 283 L252 441 L328 441 Q347 441 366 444 Q385 447 399 453.5 Q413 460 422 470.5 Q431 481 431 497 Q431 522 414.5 531.5 Q398 541 375 541 Q346 541 322 526 Q298 511 289 486 L86 540 Q105 589 137 624.5 Q169 660 209 683 Q249 706 295.5 717 Q342 728 391 728 Q438 728 486.5 719 Q535 710 574 687 Q613 664 637.5 625.5 Q662 587 662 529 Q662 496 649 469.5 Q636 443 616.5 423.5 Q597 404 573.5 392 Q550 380 528 375 L527 371 Q574 354 600 316.5 Q626 279 626 227 Z " />
<glyph glyph-name="four" unicode="4" horiz-adv-x="695" d="M546 126 L524 0 L314 0 L336 126 L1 126 L35 315 L357 708 L645 708 L574 307 L675 307 L643 126 L546 126 Z M400 495 L396 495 L243 307 L367 307 L400 495 Z " />
<glyph glyph-name="five" unicode="5" horiz-adv-x="695" d="M627 255 Q627 182 598.5 130 Q570 78 526 44.5 Q482 11 427.5 -4.5 Q373 -20 322 -20 Q264 -20 214 -6.5 Q164 7 124 34 Q84 61 56 100.5 Q28 140 15 191 L230 249 Q238 216 263 196 Q288 176 322 176 Q334 176 346.5 179 Q359 182 369.5 189 Q380 196 387 207.5 Q394 219 394 236 Q394 275 364 287.5 Q334 300 287 300 Q245 300 191 293.5 Q137 287 90 278 L190 708 L667 708 L633 515 L352 515 L338 458 Q350 460 365.5 461.5 Q381 463 392 463 Q435 463 477.5 453 Q520 443 553 419 Q586 395 606.5 355 Q627 315 627 255 Z " />
<glyph glyph-name="six" unicode="6" horiz-adv-x="695" d="M422 479 Q427 480 432 480 Q437 480 441 480 Q490 480 528 462.5 Q566 445 592.5 416.5 Q619 388 632.5 351.5 Q646 315 646 277 Q646 218 624 164.5 Q602 111 559 70.5 Q516 30 454 6 Q392 -18 313 -18 Q253 -18 200 -4.5 Q147 9 107 38.5 Q67 68 43.5 114.5 Q20 161 20 227 Q20 288 46.5 348 Q73 408 136 478 L344 708 L645 708 L438 496 L422 479 Z M249 236 Q249 204 271 185.5 Q293 167 321 167 Q363 167 387 193 Q411 219 411 261 Q411 294 389.5 312 Q368 330 342 330 Q298 330 273.5 303 Q249 276 249 236 Z " />
<glyph glyph-name="seven" unicode="7" horiz-adv-x="695" d="M319 0 L43 0 L409 515 L110 515 L144 708 L703 708 L674 543 L319 0 Z " />
<glyph glyph-name="eight" unicode="8" horiz-adv-x="695" d="M255 215 Q255 186 272.5 171 Q290 156 312 156 Q352 156 371 176 Q390 196 390 225 Q390 248 373.5 266.5 Q357 285 331 285 Q297 285 276 265 Q255 245 255 215 Z M505 368 Q523 360 542 346.5 Q561 333 576.5 313.5 Q592 294 602 269.5 Q612 245 612 217 Q612 158 590 114 Q568 70 528 40.5 Q488 11 431.5 -3.5 Q375 -18 305 -18 Q260 -18 212 -8.5 Q164 1 125 24.5 Q86 48 60.5 86 Q35 124 35 181 Q35 223 49.5 256 Q64 289 87 313.5 Q110 338 138.5 354 Q167 370 195 377 L195 381 Q153 399 130.5 433.5 Q108 468 108 512 Q108 566 134 606.5 Q160 647 201.5 673.5 Q243 700 295 713 Q347 726 400 726 Q449 726 494 715.5 Q539 705 573.5 683 Q608 661 629 627 Q650 593 650 545 Q650 506 636.5 476 Q623 446 602 425 Q581 404 555.5 390.5 Q530 377 505 371 L505 368 Z M311 495 Q311 475 325 458 Q339 441 366 441 Q396 441 414.5 459 Q433 477 433 504 Q433 530 418.5 545 Q404 560 379 560 Q348 560 329.5 542 Q311 524 311 495 Z " />
<glyph glyph-name="nine" unicode="9" horiz-adv-x="695" d="M269 229 Q264 228 259 228 Q254 228 250 228 Q201 228 163 245.5 Q125 263 98.5 291.5 Q72 320 58.5 356.5 Q45 393 45 431 Q45 490 67 543.5 Q89 597 132 637.5 Q175 678 236.5 702 Q298 726 378 726 Q438 726 491 712.5 Q544 699 584 669.5 Q624 640 647.5 593.5 Q671 547 671 481 Q671 420 644.5 360 Q618 300 555 230 L347 0 L46 0 L253 212 L269 229 Z M442 472 Q442 504 420 522.5 Q398 541 370 541 Q328 541 304 515 Q280 489 280 447 Q280 414 301.5 396 Q323 378 349 378 Q393 378 417.5 405 Q442 432 442 472 Z " />
<glyph glyph-name="colon" unicode="&#x3a;" horiz-adv-x="375" d="M136 -5 Q84 -5 53.5 25 Q23 55 23 95 Q23 122 32.5 146 Q42 170 59 187.5 Q76 205 100 215.5 Q124 226 153 226 Q178 226 199 218 Q220 210 235 196 Q250 182 258 164 Q266 146 266 127 Q266 100 256.5 76 Q247 52 230 34 Q213 16 189 5.5 Q165 -5 136 -5 Z M192 295 Q140 295 109.5 325 Q79 355 79 395 Q79 422 88.5 446 Q98 470 115 487.5 Q132 505 156 515.5 Q180 526 209 526 Q234 526 255 518 Q276 510 291 496 Q306 482 314 464 Q322 446 322 427 Q322 400 312.5 376 Q303 352 286 334 Q269 316 245 305.5 Q221 295 192 295 Z " />
<glyph glyph-name="semicolon" unicode="&#x3b;" horiz-adv-x="375" d="M137 -120 L-45 -120 L92 190 L304 190 L137 -120 Z M192 295 Q140 295 109.5 325 Q79 355 79 395 Q79 422 88.5 446 Q98 470 115 487.5 Q132 505 156 515.5 Q180 526 209 526 Q234 526 255 518 Q276 510 291 496 Q306 482 314 464 Q322 446 322 427 Q322 400 312.5 376 Q303 352 286 334 Q269 316 245 305.5 Q221 295 192 295 Z " />
<glyph glyph-name="less" unicode="&#x3c;" horiz-adv-x="666" d="M588 32 Q460 83 333 133.5 Q206 184 78 235 L78 369 Q206 420 333 470.5 Q460 521 588 572 L588 410 Q519 381 451 354.5 Q383 328 314 299 Q383 273 451 247.5 Q519 222 588 196 L588 32 L588 32 Z " />
<glyph glyph-name="equal" unicode="&#x3d;" horiz-adv-x="666" d="M610 472 L610 328 L56 328 L56 472 L610 472 Z M610 282 L610 138 L56 138 L56 282 L610 282 Z " />
<glyph glyph-name="greater" unicode="&#x3e;" horiz-adv-x="666" d="M78 572 Q206 521 333 470.5 Q460 420 588 369 L588 235 Q460 184 333 133.5 Q206 83 78 32 L78 196 Q147 222 215 247.5 Q283 273 352 299 Q283 328 215 354.5 Q147 381 78 410 L78 572 L78 572 Z " />
<glyph glyph-name="question" unicode="&#x3f;" horiz-adv-x="583" d="M441 330 Q416 316 406 303 Q396 290 393 275 L389 249 L182 249 L188 286 Q193 316 204.5 338 Q216 360 232 378 Q248 396 268 411.5 Q288 427 312 443 L333 457 Q359 474 367.5 485 Q376 496 376 512 Q376 530 363.5 537.5 Q351 545 335 545 Q301 545 283 521 Q265 497 260 465 L58 501 Q72 561 102 604 Q132 647 173 674.5 Q214 702 262.5 715 Q311 728 362 728 Q411 728 455.5 718.5 Q500 709 534 687 Q568 665 587.5 629.5 Q607 594 607 542 Q607 502 596 472 Q585 442 564 418 Q543 394 512 373 Q481 352 441 330 Z M267 -13 Q240 -13 218.5 -4.5 Q197 4 182 18 Q167 32 159 50.5 Q151 69 151 89 Q151 116 160.5 140.5 Q170 165 187.5 183.5 Q205 202 229.5 212.5 Q254 223 284 223 Q310 223 331 214.5 Q352 206 367 192 Q382 178 390.5 159.5 Q399 141 399 121 Q399 93 389.5 68.5 Q380 44 362.5 26 Q345 8 320.5 -2.5 Q296 -13 267 -13 Z " />
<glyph glyph-name="at" unicode="&#x40;" horiz-adv-x="800" d="M546 160 Q506 160 476 175.5 Q446 191 441 220 L439 220 Q425 198 393.5 179 Q362 160 326 160 Q259 160 226.5 199.5 Q194 239 194 299 Q194 344 209 391 Q224 438 253.5 475.5 Q283 513 325.5 537 Q368 561 422 561 Q464 561 483.5 544 Q503 527 506 509 L508 509 L517 534 L650 534 L610 421 Q596 382 584.5 346.5 Q573 311 573 296 Q573 280 595 280 Q632 280 656.5 319 Q681 358 681 427 Q681 480 664.5 517 Q648 554 618.5 577.5 Q589 601 548 611.5 Q507 622 458 622 Q395 622 339 601.5 Q283 581 241 542 Q199 503 174 447 Q149 391 149 321 Q149 265 167.5 221.5 Q186 178 220 149 Q254 120 302.5 105 Q351 90 410 90 Q464 90 516 108 Q568 126 614 160 L674 77 Q624 36 553.5 9 Q483 -18 399 -18 Q317 -18 247.5 3.5 Q178 25 128 66.5 Q78 108 49.5 169 Q21 230 21 309 Q21 406 57.5 483.5 Q94 561 155 615 Q216 669 296 697.5 Q376 726 463 726 Q528 726 588 707.5 Q648 689 694.5 653.5 Q741 618 769 565.5 Q797 513 797 445 Q797 395 783 344 Q769 293 738.5 252 Q708 211 660.5 185.5 Q613 160 546 160 Z M457 406 Q457 423 446.5 434 Q436 445 418 445 Q403 445 389.5 432.5 Q376 420 365 401.5 Q354 383 347.5 361.5 Q341 340 341 322 Q341 281 379 281 Q395 281 409.5 293.5 Q424 306 434.5 324.5 Q445 343 451 365 Q457 387 457 406 Z " />
<glyph glyph-name="A" unicode="A" horiz-adv-x="775" d="M480 0 L464 108 L234 108 L175 0 L-83 0 L352 708 L596 708 L720 0 L480 0 Z M424 467 L323 285 L445 285 L424 467 Z " />
<glyph glyph-name="B" unicode="B" horiz-adv-x="690" d="M456 708 Q493 708 530 700 Q567 692 597 673.5 Q627 655 645.5 625.5 Q664 596 664 553 Q664 480 623.5 434.5 Q583 389 521 372 L521 370 Q545 365 566.5 353 Q588 341 604.5 321.5 Q621 302 630.5 276 Q640 250 640 219 Q640 165 617.5 124 Q595 83 554.5 55.5 Q514 28 458 14 Q402 0 336 0 L7 0 L132 708 L456 708 Z M314 529 L298 432 L362 432 Q375 432 388.5 434 Q402 436 413 442 Q424 448 431 458.5 Q438 469 438 486 Q438 509 419.5 519 Q401 529 372 529 L314 529 Z M273 287 L254 180 L313 180 Q332 180 350 182.5 Q368 185 381.5 191.5 Q395 198 403 209.5 Q411 221 411 239 Q411 262 393 274.5 Q375 287 341 287 L273 287 Z " />
<glyph glyph-name="C" unicode="C" horiz-adv-x="686" d="M655 81 Q634 63 606.5 44.5 Q579 26 544 12 Q509 -2 465.5 -11 Q422 -20 369 -20 Q289 -20 226.5 2 Q164 24 120.5 65 Q77 106 54 164 Q31 222 31 293 Q31 384 62.5 463 Q94 542 151 601 Q208 660 286 694 Q364 728 457 728 Q549 728 619 699.5 Q689 671 726 629 L565 463 Q547 489 517.5 501.5 Q488 514 451 514 Q413 514 382 498.5 Q351 483 329 456.5 Q307 430 295 395 Q283 360 283 320 Q283 268 315.5 232 Q348 196 413 196 Q451 196 484 212 Q517 228 541 251 L655 81 L655 81 Z " />
<glyph glyph-name="D" unicode="D" horiz-adv-x="787" d="M132 708 L425 708 Q485 708 545.5 691.5 Q606 675 654.5 639 Q703 603 734 545.5 Q765 488 765 406 Q765 313 732.5 237.5 Q700 162 642 109.5 Q584 57 505 28.5 Q426 0 333 0 L7 0 L132 708 Z M268 199 L343 199 Q388 199 422 214.5 Q456 230 479 255.5 Q502 281 513.5 313.5 Q525 346 525 381 Q525 408 517 432 Q509 456 492 473.5 Q475 491 448.5 501.5 Q422 512 386 512 L324 512 L268 199 Z " />
<glyph glyph-name="E" unicode="E" horiz-adv-x="592" d="M7 0 L132 708 L595 708 L561 515 L316 515 L304 447 L538 447 L506 267 L272 267 L259 193 L533 193 L499 0 L7 0 Z " />
<glyph glyph-name="F" unicode="F" horiz-adv-x="569" d="M324 514 L309 432 L527 432 L494 244 L277 244 L234 0 L7 0 L132 708 L588 708 L554 514 L324 514 Z " />
<glyph glyph-name="G" unicode="G" horiz-adv-x="763" d="M570 465 Q553 491 524.5 507 Q496 523 451 523 Q416 523 383.5 508.5 Q351 494 326.5 467.5 Q302 441 287 403 Q272 365 272 317 Q272 258 306 219.5 Q340 181 414 181 Q431 181 448.5 184 Q466 187 477 192 L488 254 L372 254 L404 436 L725 436 L657 50 Q602 21 532.5 0.5 Q463 -20 385 -20 Q305 -20 240 0.5 Q175 21 128.5 61 Q82 101 56.5 159.5 Q31 218 31 293 Q31 384 62 463 Q93 542 148.5 601 Q204 660 281.5 694 Q359 728 452 728 Q544 728 616 701.5 Q688 675 726 629 L570 465 Z " />
<glyph glyph-name="H" unicode="H" horiz-adv-x="798" d="M440 0 L488 272 L286 272 L238 0 L7 0 L132 708 L362 708 L319 465 L521 465 L564 708 L796 708 L671 0 L440 0 Z " />
<glyph glyph-name="I" unicode="I" horiz-adv-x="367" d="M7 0 L132 708 L365 708 L240 0 L7 0 Z " />
<glyph glyph-name="J" unicode="J" horiz-adv-x="562" d="M489 255 Q481 208 465.5 159.5 Q450 111 419.5 71 Q389 31 337.5 5.5 Q286 -20 206 -20 Q107 -20 42 27 Q-23 74 -48 159 L164 234 Q167 217 178 204 Q189 191 209 191 Q232 191 242 208 Q252 225 257 251 L338 708 L570 708 L489 255 L489 255 Z " />
<glyph glyph-name="K" unicode="K" horiz-adv-x="740" d="M441 0 L286 298 L284 298 L232 0 L7 0 L132 708 L356 708 L308 437 L311 437 L535 708 L817 708 L499 366 L718 0 L441 0 Z " />
<glyph glyph-name="L" unicode="L" horiz-adv-x="547" d="M7 0 L132 708 L365 708 L275 198 L514 198 L479 0 L7 0 Z " />
<glyph glyph-name="M" unicode="M" horiz-adv-x="1003" d="M651 0 L730 410 L724 410 L515 0 L352 0 L289 410 L284 410 L223 0 L7 0 L132 708 L427 708 L489 320 L494 320 L678 708 L1001 708 L876 0 L651 0 Z " />
<glyph glyph-name="N" unicode="N" horiz-adv-x="791" d="M431 0 L291 351 L287 351 L232 0 L7 0 L132 708 L359 708 L502 339 L506 339 L564 708 L789 708 L664 0 L431 0 Z " />
<glyph glyph-name="O" unicode="O" horiz-adv-x="833" d="M382 -18 Q297 -18 231.5 5.5 Q166 29 121.5 72 Q77 115 54 174 Q31 233 31 304 Q31 392 62 469 Q93 546 149 603 Q205 660 284.5 693 Q364 726 461 726 Q547 726 612.5 702.5 Q678 679 722.5 636 Q767 593 790 534 Q813 475 813 404 Q813 316 782.5 239 Q752 162 695.5 105 Q639 48 559.5 15 Q480 -18 382 -18 Z M572 387 Q572 414 563.5 437.5 Q555 461 538.5 478.5 Q522 496 497.5 506 Q473 516 442 516 Q403 516 371.5 499.5 Q340 483 318 456 Q296 429 284 394 Q272 359 272 323 Q272 296 280.5 272.5 Q289 249 305.5 231.5 Q322 214 346.5 204 Q371 194 403 194 Q442 194 473 210 Q504 226 526 253 Q548 280 560 315 Q572 350 572 387 Z " />
<glyph glyph-name="P" unicode="P" horiz-adv-x="680" d="M237 0 L7 0 L132 708 L396 708 Q533 708 605.5 651 Q678 594 678 494 Q678 426 655.5 376 Q633 326 590 294 Q547 262 486 246.5 Q425 231 347 231 L279 231 L237 0 Z M346 405 Q394 405 421 421 Q448 437 448 471 Q448 503 426 515 Q404 527 366 527 L331 527 L309 405 L346 405 Z " />
<glyph glyph-name="Q" unicode="Q" horiz-adv-x="863" d="M813 423 Q813 378 802.5 338.5 Q792 299 776.5 267.5 Q761 236 742.5 213 Q724 190 708 179 L707 175 L823 182 L791 0 L382 0 Q302 0 237.5 20.5 Q173 41 127 80 Q81 119 56 174.5 Q31 230 31 300 Q31 388 62.5 466 Q94 544 150.5 601.5 Q207 659 286 692.5 Q365 726 461 726 Q542 726 607 704.5 Q672 683 717.5 643.5 Q763 604 788 548 Q813 492 813 423 Z M572 391 Q572 417 563.5 440 Q555 463 538.5 480 Q522 497 497.5 507 Q473 517 442 517 Q403 517 371.5 501 Q340 485 318 458.5 Q296 432 284 398 Q272 364 272 328 Q272 302 280 278.5 Q288 255 304.5 237.5 Q321 220 345.5 209.5 Q370 199 403 199 Q443 199 474.5 215.5 Q506 232 528 259 Q550 286 561 320.5 Q572 355 572 391 Z " />
<glyph glyph-name="R" unicode="R" horiz-adv-x="704" d="M399 0 L302 259 L274 259 L230 0 L7 0 L132 708 L423 708 Q481 708 528 695 Q575 682 608 657 Q641 632 658.5 595.5 Q676 559 676 512 Q676 424 634.5 367 Q593 310 521 289 L659 0 L399 0 Z M348 406 Q394 406 420 421.5 Q446 437 446 471 Q446 502 424.5 513.5 Q403 525 366 525 L323 525 L302 406 L348 406 Z " />
<glyph glyph-name="S" unicode="S" horiz-adv-x="601" d="M473 497 Q456 517 429 529.5 Q402 542 366 542 Q338 542 315.5 530 Q293 518 293 493 Q293 473 312 462 Q331 451 368 439 Q414 424 450 405 Q486 386 511 361 Q536 336 549.5 304 Q563 272 563 232 Q563 164 533 116 Q503 68 456.5 38 Q410 8 354 -6 Q298 -20 245 -20 Q203 -20 161 -13 Q119 -6 80.5 7 Q42 20 8 39 Q-26 58 -51 82 L107 228 Q119 214 136 203 Q153 192 171.5 184.5 Q190 177 209 172.5 Q228 168 244 168 Q279 168 300 179.5 Q321 191 321 213 Q321 231 303.5 245 Q286 259 238 274 Q200 286 166.5 302 Q133 318 108.5 340.5 Q84 363 70 394.5 Q56 426 56 471 Q56 526 78.5 573 Q101 620 142.5 654.5 Q184 689 241.5 708.5 Q299 728 368 728 Q406 728 443 721.5 Q480 715 513 703.5 Q546 692 574 676 Q602 660 621 640 L473 497 Z " />
<glyph glyph-name="T" unicode="T" horiz-adv-x="583" d="M440 513 L350 0 L118 0 L208 513 L29 513 L64 708 L648 708 L613 513 L440 513 Z " />
<glyph glyph-name="U" unicode="U" horiz-adv-x="771" d="M696 260 Q685 197 658.5 145.5 Q632 94 588.5 58 Q545 22 484 2 Q423 -18 344 -18 Q276 -18 220 -3 Q164 12 124 40.5 Q84 69 62 110 Q40 151 40 203 Q40 217 42 235.5 Q44 254 46 269 L121 708 L350 708 L277 299 Q275 291 275 282 Q275 273 275 266 Q275 233 295 208 Q315 183 363 183 Q394 183 413.5 193 Q433 203 445 219 Q457 235 463 255 Q469 275 473 295 L548 708 L773 708 L696 260 L696 260 Z " />
<glyph glyph-name="V" unicode="V" horiz-adv-x="720" d="M415 0 L157 0 L55 708 L304 708 L336 264 L340 264 L553 708 L820 708 L415 0 Z " />
<glyph glyph-name="W" unicode="W" horiz-adv-x="1050" d="M802 0 L564 0 L544 408 L540 408 L354 0 L119 0 L64 708 L309 708 L309 303 L313 303 L479 708 L717 708 L725 303 L729 303 L895 708 L1136 708 L802 0 Z " />
<glyph glyph-name="X" unicode="X" horiz-adv-x="766" d="M453 0 L364 211 L196 0 L-88 0 L243 369 L70 708 L333 708 L410 519 L556 708 L836 708 L530 372 L720 0 L453 0 Z " />
<glyph glyph-name="Y" unicode="Y" horiz-adv-x="677" d="M440 291 L389 0 L158 0 L209 291 L22 708 L280 708 L356 489 L507 708 L789 708 L440 291 Z " />
<glyph glyph-name="Z" unicode="Z" horiz-adv-x="668" d="M-17 0 L17 194 L347 516 L85 516 L119 708 L682 708 L652 540 L304 197 L600 197 L565 0 L-17 0 Z " />
<glyph glyph-name="bracketleft" unicode="&#x5b;" horiz-adv-x="360" d="M-46 -156 L111 732 L360 732 L337 599 L250 599 L140 -23 L227 -23 L203 -156 L-46 -156 Z " />
<glyph glyph-name="backslash" unicode="&#x5c;" horiz-adv-x="455" d="M-3 719 L155 767 L458 -11 L301 -59 L-3 719 Z " />
<glyph glyph-name="bracketright" unicode="&#x5d;" horiz-adv-x="360" d="M-21 -156 L3 -23 L90 -23 L200 599 L113 599 L136 732 L384 732 L227 -156 L-21 -156 Z " />
<glyph glyph-name="asciicircum" unicode="&#x5e;" horiz-adv-x="714" d="M77 343 Q128 435 178.5 525.5 Q229 616 280 708 L434 708 Q485 616 534.5 525.5 Q584 435 635 343 L457 343 Q432 390 406.5 436.5 Q381 483 356 530 Q330 483 305.5 436.5 Q281 390 255 343 L77 343 Z " />
<glyph glyph-name="underscore" unicode="&#x5f;" horiz-adv-x="500" d="M0 -75 L500 -75 L500 -185 L0 -185 L0 -75 Z " />
<glyph glyph-name="grave" unicode="&#x60;" horiz-adv-x="360" d="M211 728 L337 584 L172 584 L3 728 L211 728 Z " />
<glyph glyph-name="a" unicode="a" horiz-adv-x="588" d="M331 216 L318 216 Q293 216 271 213 Q249 210 232.5 203.5 Q216 197 206 186.5 Q196 176 196 160 Q196 137 210.5 130.5 Q225 124 242 124 Q275 124 298.5 145 Q322 166 328 199 L331 216 Z M504 81 Q500 59 498.5 36 Q497 13 497 0 L305 0 Q305 7 305.5 22.5 Q306 38 307 48 L305 48 Q276 15 239 0.5 Q202 -14 157 -14 Q129 -14 101 -6 Q73 2 50.5 18.5 Q28 35 14 61.5 Q0 88 0 125 Q0 186 27.5 225.5 Q55 265 101.5 288 Q148 311 209 320.5 Q270 330 337 330 Q338 334 338 336.5 Q338 339 338 341 Q338 361 320.5 371.5 Q303 382 275 382 Q243 382 213 369.5 Q183 357 158 336 L60 448 Q84 471 114.5 488.5 Q145 506 177 518 Q209 530 242 536 Q275 542 305 542 Q425 542 485.5 493.5 Q546 445 546 357 Q546 320 538 274 L504 81 Z " />
<glyph glyph-name="b" unicode="b" horiz-adv-x="690" d="M443 538 Q495 538 534.5 520.5 Q574 503 601 472.5 Q628 442 641.5 401 Q655 360 655 313 Q655 246 633 186.5 Q611 127 571.5 83 Q532 39 478.5 13 Q425 -13 362 -13 Q311 -13 270 6 Q229 25 208 56 L206 56 L196 0 L-6 0 L127 756 L351 756 L303 480 L305 480 Q329 506 366.5 522 Q404 538 443 538 Z M437 283 Q437 315 416.5 337 Q396 359 357 359 Q334 359 315.5 349.5 Q297 340 283.5 324.5 Q270 309 262.5 288 Q255 267 255 244 Q255 211 275.5 189.5 Q296 168 334 168 Q358 168 377 177 Q396 186 409.5 202 Q423 218 430 238.5 Q437 259 437 283 Z " />
<glyph glyph-name="c" unicode="c" horiz-adv-x="504" d="M402 333 Q395 343 377.5 352 Q360 361 335 361 Q284 361 254 328 Q224 295 224 249 Q224 219 244.5 195.5 Q265 172 309 172 Q334 172 354.5 181.5 Q375 191 386 202 L475 51 Q435 19 384.5 1.5 Q334 -16 268 -16 Q210 -16 162 0.5 Q114 17 80 48 Q46 79 27.5 122 Q9 165 9 219 Q9 284 32.5 342.5 Q56 401 99 445.5 Q142 490 202 516 Q262 542 334 542 Q394 542 447 524.5 Q500 507 529 472 L402 333 Z " />
<glyph glyph-name="d" unicode="d" horiz-adv-x="690" d="M221 -13 Q169 -13 129.5 4.5 Q90 22 63 52.5 Q36 83 22.5 124 Q9 165 9 212 Q9 279 31 338.5 Q53 398 92 442 Q131 486 185 512 Q239 538 302 538 Q321 538 341 534 Q361 530 379 522.5 Q397 515 412 504 Q427 493 436 480 L438 480 L486 756 L709 756 L576 0 L375 0 L385 56 L383 56 Q360 26 318.5 6.5 Q277 -13 221 -13 Z M227 244 Q227 212 247.5 190 Q268 168 307 168 Q330 168 348.5 177 Q367 186 380.5 202 Q394 218 401.5 239 Q409 260 409 283 Q409 316 388.5 337.5 Q368 359 330 359 Q306 359 287 350 Q268 341 254.5 325 Q241 309 234 288.5 Q227 268 227 244 Z " />
<glyph glyph-name="e" unicode="e" horiz-adv-x="622" d="M215 211 Q214 208 214 204 Q214 187 223 176.5 Q232 166 245 159.5 Q258 153 273 150.5 Q288 148 300 148 Q325 148 349 156.5 Q373 165 392 183 L543 79 Q491 26 424 5 Q357 -16 285 -16 Q229 -16 178.5 -1 Q128 14 90.5 44 Q53 74 31 118.5 Q9 163 9 223 Q9 290 33 348.5 Q57 407 100.5 450 Q144 493 204.5 517.5 Q265 542 338 542 Q396 542 442 525.5 Q488 509 520 478.5 Q552 448 569.5 404.5 Q587 361 587 307 Q587 285 583.5 259 Q580 233 573 211 L215 211 Z M392 330 Q393 333 393 336.5 Q393 340 393 342 Q393 367 374.5 382 Q356 397 323 397 Q302 397 285.5 390 Q269 383 257 373 Q245 363 237.5 351.5 Q230 340 227 330 L392 330 Z " />
<glyph glyph-name="f" unicode="f" horiz-adv-x="418" d="M457 602 Q449 606 437.5 608.5 Q426 611 414 611 Q379 611 365 590.5 Q351 570 345 538 L343 526 L454 526 L426 365 L318 365 L253 0 L30 0 L95 365 L5 365 L33 526 L120 526 L123 542 Q132 591 148.5 635 Q165 679 195.5 712.5 Q226 746 274 765.5 Q322 785 393 785 Q416 785 445 781.5 Q474 778 493 770 L457 602 Z " />
<glyph glyph-name="g" unicode="g" horiz-adv-x="693" d="M230 0 Q175 0 133.5 16 Q92 32 64.5 60.5 Q37 89 23 128 Q9 167 9 213 Q9 280 30.5 339 Q52 398 90.5 442.5 Q129 487 183 512.5 Q237 538 302 538 Q340 538 380.5 521.5 Q421 505 445 469 L448 469 L457 526 L668 526 L585 53 Q557 -102 471 -171 Q385 -240 237 -240 Q200 -240 161.5 -235 Q123 -230 87 -219.5 Q51 -209 19.5 -193.5 Q-12 -178 -36 -158 L70 -4 Q102 -35 147 -51 Q192 -67 230 -67 Q264 -67 287.5 -59 Q311 -51 327 -37.5 Q343 -24 351.5 -6.5 Q360 11 363 31 L368 57 L365 57 Q357 48 344 38 Q331 28 314 19.5 Q297 11 275.5 5.5 Q254 0 230 0 Z M224 242 Q224 230 227.5 216 Q231 202 240 191 Q249 180 265 172.5 Q281 165 305 165 Q329 165 348.5 175.5 Q368 186 381.5 202.5 Q395 219 402.5 240.5 Q410 262 410 285 Q410 320 388.5 340 Q367 360 330 360 Q304 360 284.5 349.5 Q265 339 251.5 322 Q238 305 231 284 Q224 263 224 242 Z " />
<glyph glyph-name="h" unicode="h" horiz-adv-x="661" d="M327 0 L376 279 Q378 288 378.5 297.5 Q379 307 379 313 Q379 333 368 345.5 Q357 358 333 358 Q310 358 292.5 337.5 Q275 317 268 278 L219 0 L-6 0 L127 756 L352 756 L301 465 L303 465 Q327 494 366.5 516 Q406 538 452 538 Q496 538 526.5 525 Q557 512 576.5 490.5 Q596 469 604.5 441 Q613 413 613 383 Q613 367 611.5 349.5 Q610 332 607 316 L552 0 L327 0 Z " />
<glyph glyph-name="i" unicode="i" horiz-adv-x="335" d="M-5 0 L88 526 L312 526 L219 0 L-5 0 Z M213 565 Q187 565 166.5 573 Q146 581 132 594.5 Q118 608 110 625.5 Q102 643 102 662 Q102 689 111 712.5 Q120 736 137 753.5 Q154 771 177 781 Q200 791 229 791 Q253 791 273.5 783 Q294 775 308.5 761.5 Q323 748 331 730.5 Q339 713 339 694 Q339 667 330 643.5 Q321 620 304.5 602.5 Q288 585 264.5 575 Q241 565 213 565 Z " />
<glyph glyph-name="j" unicode="j" horiz-adv-x="341" d="M227 1 Q218 -49 201.5 -94 Q185 -139 154.5 -173.5 Q124 -208 76 -228.5 Q28 -249 -44 -249 Q-64 -249 -90.5 -246 Q-117 -243 -136 -237 L-98 -55 Q-87 -58 -78 -59 Q-69 -60 -62 -60 Q-35 -60 -18.5 -44 Q-2 -28 4 7 L96 526 L320 526 L227 1 Z M220 565 Q194 565 173.5 573 Q153 581 139 594.5 Q125 608 117 625.5 Q109 643 109 662 Q109 689 118 712.5 Q127 736 144 753.5 Q161 771 184 781 Q207 791 236 791 Q260 791 280.5 783 Q301 775 315.5 761.5 Q330 748 338 730.5 Q346 713 346 694 Q346 667 337 643.5 Q328 620 311.5 602.5 Q295 585 271.5 575 Q248 565 220 565 Z " />
<glyph glyph-name="k" unicode="k" horiz-adv-x="650" d="M257 229 L218 0 L-6 0 L127 756 L352 756 L274 325 L277 325 L425 526 L698 526 L482 276 L612 0 L350 0 L260 229 L257 229 Z " />
<glyph glyph-name="l" unicode="l" horiz-adv-x="338" d="M-6 0 L127 756 L356 756 L223 0 L-6 0 Z " />
<glyph glyph-name="m" unicode="m" horiz-adv-x="971" d="M68 423 Q72 442 76.5 472 Q81 502 83 526 L299 526 Q298 511 296 491.5 Q294 472 292 458 L296 458 Q318 488 357 513 Q396 538 450 538 Q508 538 542.5 517 Q577 496 594 460 Q620 492 657.5 515 Q695 538 752 538 Q798 538 830.5 523 Q863 508 883.5 484 Q904 460 913.5 430 Q923 400 923 370 Q923 356 921.5 343.5 Q920 331 918 319 L862 0 L637 0 L686 279 Q688 287 688.5 296.5 Q689 306 689 312 Q689 358 648 358 Q626 358 610.5 336.5 Q595 315 588 278 L539 0 L315 0 L364 277 Q366 285 366.5 293.5 Q367 302 367 307 Q367 330 356.5 344 Q346 358 326 358 Q307 358 291 339 Q275 320 267 278 L218 0 L-6 0 L68 423 L68 423 Z " />
<glyph glyph-name="n" unicode="n" horiz-adv-x="661" d="M68 423 Q72 442 76.5 472 Q81 502 83 526 L299 526 Q298 511 296 491.5 Q294 472 292 458 L296 458 Q319 490 360.5 514 Q402 538 452 538 Q496 538 526.5 525 Q557 512 576.5 490.5 Q596 469 604.5 441 Q613 413 613 383 Q613 367 611.5 349.5 Q610 332 607 316 L552 0 L327 0 L376 279 Q378 288 378.5 297.5 Q379 307 379 313 Q379 333 368 345.5 Q357 358 333 358 Q310 358 292.5 337.5 Q275 317 268 278 L218 0 L-6 0 L68 423 L68 423 Z " />
<glyph glyph-name="o" unicode="o" horiz-adv-x="660" d="M295 -16 Q235 -16 183 -1 Q131 14 92 44 Q53 74 31 118 Q9 162 9 219 Q9 285 31 344 Q53 403 94.5 447 Q136 491 196.5 516.5 Q257 542 335 542 Q396 542 449 527 Q502 512 541 482 Q580 452 602.5 408 Q625 364 625 307 Q625 241 603 182 Q581 123 539 79 Q497 35 435.5 9.5 Q374 -16 295 -16 Z M407 283 Q407 315 387 337 Q367 359 328 359 Q305 359 286.5 349.5 Q268 340 254.5 324.5 Q241 309 234 288 Q227 267 227 244 Q227 211 247 189.5 Q267 168 305 168 Q329 168 348 177 Q367 186 380 202 Q393 218 400 238.5 Q407 259 407 283 Z " />
<glyph glyph-name="p" unicode="p" horiz-adv-x="690" d="M439 538 Q492 538 532.5 520.5 Q573 503 600 472.5 Q627 442 641 401 Q655 360 655 313 Q655 246 633 186.5 Q611 127 571.5 83 Q532 39 478.5 13 Q425 -13 362 -13 Q323 -13 284 1.5 Q245 16 226 42 L224 42 L173 -240 L-50 -240 L86 526 L298 526 L288 469 L290 469 Q316 501 355 519.5 Q394 538 439 538 Z M437 283 Q437 315 416.5 337 Q396 359 357 359 Q334 359 315.5 349.5 Q297 340 283.5 324.5 Q270 309 262.5 288 Q255 267 255 244 Q255 211 275.5 189.5 Q296 168 334 168 Q358 168 377 177 Q396 186 409.5 202 Q423 218 430 238.5 Q437 259 437 283 Z " />
<glyph glyph-name="q" unicode="q" horiz-adv-x="690" d="M222 -13 Q170 -13 130 4.5 Q90 22 63 52.5 Q36 83 22 124 Q8 165 8 212 Q8 279 30 338.5 Q52 398 91.5 442 Q131 486 185 512 Q239 538 302 538 Q345 538 383.5 521 Q422 504 442 469 L446 469 L457 526 L668 526 L534 -240 L312 -240 L361 42 L359 42 Q337 17 302.5 2 Q268 -13 222 -13 Z M225 244 Q225 212 245.5 190 Q266 168 305 168 Q328 168 346.5 177 Q365 186 378.5 202 Q392 218 399.5 239 Q407 260 407 283 Q407 316 386.5 337.5 Q366 359 328 359 Q304 359 285 350 Q266 341 252.5 325 Q239 309 232 288.5 Q225 268 225 244 Z " />
<glyph glyph-name="r" unicode="r" horiz-adv-x="440" d="M69 423 Q73 442 77.5 472 Q82 502 84 526 L299 526 Q299 521 298 513 Q297 505 295.5 495.5 Q294 486 292.5 477 Q291 468 290 462 L293 462 Q316 494 349 515.5 Q382 537 427 537 Q454 537 469 532 L427 342 Q417 345 404 346 Q391 347 380 347 Q328 347 299 319.5 Q270 292 263 255 L218 0 L-6 0 L69 423 L69 423 Z " />
<glyph glyph-name="s" unicode="s" horiz-adv-x="494" d="M69 190 Q95 164 129 151 Q163 138 192 138 Q212 138 223.5 143.5 Q235 149 235 161 Q235 173 219.5 181 Q204 189 180 196 Q145 206 117.5 219 Q90 232 70.5 250 Q51 268 40.5 292 Q30 316 30 348 Q30 397 51.5 434 Q73 471 108.5 495 Q144 519 188.5 531 Q233 543 278 543 Q340 543 397.5 525.5 Q455 508 491 476 L376 344 Q359 362 329 374.5 Q299 387 270 387 Q250 387 237.5 381.5 Q225 376 225 364 Q225 354 235.5 348.5 Q246 343 272 336 Q309 327 339.5 313.5 Q370 300 392 281 Q414 262 426 236 Q438 210 438 175 Q438 122 414.5 85 Q391 48 354.5 25 Q318 2 273.5 -8 Q229 -18 186 -18 Q129 -18 66 -2 Q3 14 -45 54 L69 190 Z " />
<glyph glyph-name="t" unicode="t" horiz-adv-x="401" d="M291 365 L264 217 Q263 211 262.5 203 Q262 195 262 190 Q262 167 273.5 159.5 Q285 152 306 152 Q318 152 330 154 Q342 156 350 158 L323 4 Q310 -4 277 -9 Q244 -14 213 -14 Q180 -14 148 -8 Q116 -2 91 13 Q66 28 50.5 54 Q35 80 35 121 Q35 132 36.5 146 Q38 160 40 172 L75 365 L-3 365 L25 526 L99 526 L120 645 L337 645 L316 526 L417 526 L389 365 L291 365 Z " />
<glyph glyph-name="u" unicode="u" horiz-adv-x="658" d="M562 103 Q558 84 553.5 54 Q549 24 547 0 L331 0 Q332 15 334 34.5 Q336 54 338 68 L334 68 Q311 36 269.5 12 Q228 -12 178 -12 Q134 -12 103.5 1 Q73 14 53.5 35.5 Q34 57 25.5 85 Q17 113 17 143 Q17 159 18.5 176.5 Q20 194 23 210 L78 526 L303 526 L254 247 Q252 238 251.5 228.5 Q251 219 251 213 Q251 193 262 180.5 Q273 168 297 168 Q320 168 337.5 188.5 Q355 209 362 248 L412 526 L636 526 L562 103 L562 103 Z " />
<glyph glyph-name="v" unicode="v" horiz-adv-x="622" d="M358 0 L114 0 L25 526 L261 526 L281 235 L285 235 L418 526 L666 526 L358 0 Z " />
<glyph glyph-name="w" unicode="w" horiz-adv-x="963" d="M711 0 L488 0 L461 274 L459 274 L322 0 L100 0 L28 526 L262 526 L273 247 L277 247 L404 526 L621 526 L639 247 L642 247 L765 526 L1000 526 L711 0 Z " />
<glyph glyph-name="x" unicode="x" horiz-adv-x="620" d="M335 0 L274 125 L163 0 L-96 0 L164 271 L25 526 L269 526 L324 410 L423 526 L675 526 L432 271 L580 0 L335 0 Z " />
<glyph glyph-name="y" unicode="y" horiz-adv-x="631" d="M150 7 L24 526 L272 526 L304 238 L308 238 L431 526 L671 526 L366 -32 Q339 -82 312.5 -120.5 Q286 -159 253 -185.5 Q220 -212 177.5 -226 Q135 -240 77 -240 Q41 -240 11 -235 Q-19 -230 -38 -224 L0 -47 Q12 -52 25 -55.5 Q38 -59 53 -59 Q90 -59 110.5 -43.5 Q131 -28 144 -4 L150 7 Z " />
<glyph glyph-name="z" unicode="z" horiz-adv-x="552" d="M-27 0 L1 158 L238 360 L42 360 L71 526 L545 526 L519 379 L265 167 L487 167 L458 0 L-27 0 Z " />
<glyph glyph-name="braceleft" unicode="&#x7b;" horiz-adv-x="360" d="M125 -156 Q92 -156 69 -146.5 Q46 -137 31.5 -120 Q17 -103 10 -80 Q3 -57 3 -31 Q3 -20 4 -9 Q5 2 7 13 L31 148 Q33 154 33 160 Q33 166 33 171 Q33 200 18.5 209.5 Q4 219 -21 219 L3 357 Q32 357 52 370.5 Q72 384 80 427 L104 563 Q110 597 124 627.5 Q138 658 160 681 Q182 704 212.5 718 Q243 732 282 732 L377 732 L353 598 L317 598 Q288 598 275 579 Q262 560 258 538 L234 400 Q229 371 216.5 350.5 Q204 330 188.5 317 Q173 304 156.5 297 Q140 290 128 289 L128 287 Q138 285 150 280 Q162 275 172 264.5 Q182 254 189 238.5 Q196 223 196 202 Q196 191 193 172 L170 39 Q167 25 167 14 Q167 -22 208 -22 L244 -22 L220 -156 L125 -156 Z " />
<glyph glyph-name="bar" unicode="&#x7c;" horiz-adv-x="269" d="M49 750 L221 750 L221 -250 L49 -250 L49 750 Z " />
<glyph glyph-name="braceright" unicode="&#x7d;" horiz-adv-x="360" d="M214 732 Q247 732 270 722.5 Q293 713 307.5 696 Q322 679 329 656 Q336 633 336 607 Q336 596 335 585 Q334 574 332 563 L308 428 Q306 422 306 416 Q306 410 306 405 Q306 376 320.5 366.5 Q335 357 360 357 L336 219 Q307 219 287 205.5 Q267 192 259 149 L235 13 Q229 -21 215 -51.5 Q201 -82 179 -105.5 Q157 -129 126.5 -142.5 Q96 -156 57 -156 L-38 -156 L-14 -22 L22 -22 Q51 -22 64 -3 Q77 16 81 38 L105 176 Q110 205 122.5 225.5 Q135 246 150.5 259 Q166 272 182.5 278.5 Q199 285 211 287 L211 289 Q201 290 189 295.5 Q177 301 167 311.5 Q157 322 150 337.5 Q143 353 143 374 Q143 384 146 404 L169 537 Q172 550 172 562 Q172 598 131 598 L95 598 L119 732 L214 732 Z " />
<glyph glyph-name="asciitilde" unicode="&#x7e;" horiz-adv-x="666" d="M355 384 Q376 370 389.5 363 Q403 356 412.5 353 Q422 350 430 349.5 Q438 349 449 349 Q473 349 495 367.5 Q517 386 533 416 L607 281 Q572 223 530 199 Q488 175 448 175 Q416 175 388 183.5 Q360 192 327 213 Q307 225 293 232 Q279 239 268.5 242.5 Q258 246 250 246.5 Q242 247 234 247 Q223 247 209.5 243.5 Q196 240 182 232 Q168 224 155 211.5 Q142 199 133 181 L59 316 Q77 346 99.5 366.5 Q122 387 145.5 399.5 Q169 412 192 417 Q215 422 235 422 Q272 422 298 413 Q324 404 355 384 Z " />
<glyph glyph-name="uni00A0" unicode="&#xa0;" horiz-adv-x="250" d="" />
<glyph glyph-name="exclamdown" unicode="&#xa1;" horiz-adv-x="439" d="M325 271 L245 -179 L12 -179 L92 271 L325 271 Z M234 542 Q261 542 282.5 533.5 Q304 525 319 511 Q334 497 342 478.5 Q350 460 350 440 Q350 413 340.5 388.5 Q331 364 313.5 345.5 Q296 327 271.5 316.5 Q247 306 217 306 Q191 306 170 314.5 Q149 323 134 337 Q119 351 110.5 369.5 Q102 388 102 408 Q102 436 111.5 460.5 Q121 485 138.5 503 Q156 521 180.5 531.5 Q205 542 234 542 Z " />
<glyph glyph-name="cent" unicode="&#xa2;" horiz-adv-x="695" d="M487 535 Q525 529 559 513 Q593 497 613 472 L486 333 Q479 343 461.5 352 Q444 361 419 361 Q368 361 338 328 Q308 295 308 249 Q308 219 328.5 195.5 Q349 172 393 172 Q418 172 438.5 181.5 Q459 191 470 202 L559 51 Q525 25 484 7.5 Q443 -10 392 -14 L381 -73 L275 -73 L287 -10 Q198 7 145.5 67 Q93 127 93 219 Q93 280 114 335 Q135 390 173 433.5 Q211 477 264.5 505.5 Q318 534 383 540 L394 599 L500 599 L487 535 L487 535 Z " />
<glyph glyph-name="sterling" unicode="&#xa3;" horiz-adv-x="695" d="M569 504 Q558 516 541.5 524.5 Q525 533 502 533 Q479 533 462.5 525 Q446 517 435.5 505 Q425 493 419 479 Q413 465 411 453 L408 439 L557 439 L530 282 L384 282 L367 188 L619 188 L586 0 L19 0 L52 188 L144 188 L161 282 L69 282 L96 439 L185 439 L193 474 Q203 518 222.5 563 Q242 608 276 645 Q310 682 361 705 Q412 728 486 728 Q519 728 551 722 Q583 716 611 706 Q639 696 661.5 682 Q684 668 698 653 L569 504 Z " />
<glyph glyph-name="currency" unicode="&#xa4;" horiz-adv-x="695" d="M575 424 Q590 398 598.5 366.5 Q607 335 607 297 Q607 222 573 165 L654 84 L560 -11 L475 74 Q419 46 352 46 Q321 46 291.5 52.5 Q262 59 227 76 L140 -11 L46 84 L129 167 Q98 223 98 297 Q98 367 128 421 L46 503 L141 597 L225 514 Q283 543 352 543 Q422 543 477 515 L559 597 L654 503 L575 424 Z M352 385 Q334 385 318 377.5 Q302 370 291 358 Q280 346 273.5 330 Q267 314 267 297 Q267 259 291 232.5 Q315 206 352 206 Q389 206 412.5 232.5 Q436 259 436 297 Q436 314 429.5 330 Q423 346 412 358 Q401 370 385.5 377.5 Q370 385 352 385 Z " />
<glyph glyph-name="yen" unicode="&#xa5;" horiz-adv-x="695" d="M558 454 L658 454 L634 317 L450 317 L441 269 L625 269 L601 132 L417 132 L394 0 L184 0 L207 132 L26 132 L50 269 L231 269 L240 317 L59 317 L83 454 L195 454 L85 708 L314 708 L376 487 L516 708 L763 708 L558 454 Z " />
<glyph glyph-name="brokenbar" unicode="&#xa6;" horiz-adv-x="269" d="M221 718 L221 312 L49 312 L49 718 L221 718 Z M221 200 L221 -206 L49 -206 L49 200 L221 200 Z " />
<glyph glyph-name="section" unicode="&#xa7;" horiz-adv-x="625" d="M585 300 Q585 243 557.5 209 Q530 175 494 156 Q506 144 516.5 120 Q527 96 527 67 Q527 22 513.5 -12 Q500 -46 477.5 -70.5 Q455 -95 426.5 -111 Q398 -127 367 -136.5 Q336 -146 306 -149.5 Q276 -153 251 -153 Q210 -153 168.5 -145 Q127 -137 89 -121.5 Q51 -106 18 -82.5 Q-15 -59 -39 -28 L117 95 Q130 75 148 62 Q166 49 185.5 41.5 Q205 34 224 30.5 Q243 27 259 27 Q274 27 289 32.5 Q304 38 304 53 Q304 60 300 66 Q296 72 285.5 78.5 Q275 85 256 92 Q237 99 207 109 Q172 120 139.5 133.5 Q107 147 82.5 167 Q58 187 43.5 214.5 Q29 242 29 282 Q29 309 37.5 332 Q46 355 59.5 373.5 Q73 392 91 406 Q109 420 128 430 Q117 443 110.5 462.5 Q104 482 104 506 Q104 569 132 611.5 Q160 654 202 679.5 Q244 705 292 716 Q340 727 380 727 Q474 727 539 693.5 Q604 660 630 612 L462 503 Q450 526 422.5 537 Q395 548 371 548 Q353 548 339 542 Q325 536 325 523 Q325 516 328.5 510.5 Q332 505 342 499.5 Q352 494 369.5 487 Q387 480 416 471 Q449 460 479.5 446 Q510 432 533.5 412.5 Q557 393 571 366 Q585 339 585 300 Z M389 261 Q389 284 371.5 295.5 Q354 307 325 318 L247 348 Q236 344 230 334.5 Q224 325 224 315 Q224 298 238.5 287 Q253 276 292 262 L369 233 Q389 241 389 261 Z " />
<glyph glyph-name="dieresis" unicode="&#xa8;" horiz-adv-x="360" d="M94 583 Q51 583 26 608 Q1 633 1 665 Q1 687 8.5 706.5 Q16 726 30.5 741 Q45 756 64.5 764.5 Q84 773 108 773 Q128 773 145 766 Q162 759 174 748 Q186 737 193 722 Q200 707 200 691 Q200 669 192.5 649.5 Q185 630 171 615 Q157 600 137.5 591.5 Q118 583 94 583 Z M345 583 Q302 583 277 608 Q252 633 252 665 Q252 687 259.5 706.5 Q267 726 281.5 741 Q296 756 315.5 764.5 Q335 773 359 773 Q379 773 396 766 Q413 759 425 748 Q437 737 444 722 Q451 707 451 691 Q451 669 443.5 649.5 Q436 630 422 615 Q408 600 388.5 591.5 Q369 583 345 583 Z " />
<glyph glyph-name="copyright" unicode="&#xa9;" horiz-adv-x="800" d="M596 515 Q567 551 520 571 Q473 591 421 591 Q370 591 325 574.5 Q280 558 246.5 527 Q213 496 193 452 Q173 408 173 353 Q173 296 192.5 251.5 Q212 207 246 176.5 Q280 146 325 130 Q370 114 421 114 Q473 114 518 131.5 Q563 149 595 181 L503 269 Q489 252 467.5 244 Q446 236 423 236 Q397 236 377.5 246.5 Q358 257 345 273.5 Q332 290 325.5 311 Q319 332 319 354 Q319 376 325.5 397 Q332 418 344.5 434.5 Q357 451 375 461 Q393 471 417 471 Q442 471 463 462.5 Q484 454 498 435 L596 515 Z M20 353 Q20 432 50 500.5 Q80 569 131.5 620 Q183 671 252.5 700.5 Q322 730 401 730 Q479 730 548 700.5 Q617 671 668.5 620 Q720 569 750 500.5 Q780 432 780 353 Q780 275 750 206.5 Q720 138 668.5 87 Q617 36 548 7 Q479 -22 401 -22 Q322 -22 252.5 7 Q183 36 131.5 87 Q80 138 50 206.5 Q20 275 20 353 Z M80 353 Q80 287 104.5 229 Q129 171 172 127.5 Q215 84 273 59 Q331 34 397 34 Q463 34 521.5 59 Q580 84 624.5 127.5 Q669 171 694.5 229 Q720 287 720 353 Q720 419 695 477.5 Q670 536 626.5 579.5 Q583 623 525 648.5 Q467 674 401 674 Q335 674 276.5 648.5 Q218 623 174.5 579.5 Q131 536 105.5 477.5 Q80 419 80 353 Z " />
<glyph glyph-name="ordfeminine" unicode="&#xaa;" horiz-adv-x="390" d="M264 547 L257 547 Q230 547 210.5 540.5 Q191 534 191 517 Q191 505 199 501 Q207 497 216 497 Q234 497 246.5 508.5 Q259 520 262 538 L264 547 Z M358 474 Q356 462 355 449.5 Q354 437 354 430 L250 430 Q250 434 250 442.5 Q250 451 251 456 L250 456 Q220 423 170 423 Q155 423 140 427.5 Q125 432 112.5 441 Q100 450 92.5 464 Q85 478 85 498 Q85 531 100 552.5 Q115 574 140 586.5 Q165 599 198.5 604 Q232 609 268 609 L268 615 Q268 626 258.5 631.5 Q249 637 234 637 Q217 637 200.5 630 Q184 623 171 612 L117 673 Q144 698 181 711 Q218 724 250 724 Q316 724 348.5 697.5 Q381 671 381 624 Q381 613 379.5 602 Q378 591 376 579 L358 474 Z " />
<glyph glyph-name="guillemotleft" unicode="&#xab;" horiz-adv-x="583" d="M223 525 L333 444 L182 273 L268 107 L137 35 L6 282 L223 525 Z M456 513 L568 432 L417 261 L500 107 L367 35 L239 270 L456 513 Z " />
<glyph glyph-name="logicalnot" unicode="&#xac;" horiz-adv-x="666" d="M447 314 L37 314 L37 458 L605 458 L605 143 L447 143 L447 314 Z " />
<glyph glyph-name="uni00AD" unicode="&#xad;" horiz-adv-x="335" d="M6 199 L36 367 L309 367 L279 199 L6 199 Z " />
<glyph glyph-name="registered" unicode="&#xae;" horiz-adv-x="600" d="M345 521 Q357 521 365 527.5 Q373 534 373 544 Q373 552 364.5 557 Q356 562 345 562 L319 562 L319 521 L345 521 Z M379 365 L335 459 L319 459 L319 365 L231 365 L231 631 L345 631 Q366 631 388 627 Q410 623 427 613 Q444 603 455 586.5 Q466 570 466 545 Q466 490 418 471 L479 365 L379 365 Z M112 492 Q112 539 130 580.5 Q148 622 179 652.5 Q210 683 252 701 Q294 719 341 719 Q388 719 429.5 701 Q471 683 501.5 652.5 Q532 622 550 580.5 Q568 539 568 492 Q568 445 550 404 Q532 363 501.5 332.5 Q471 302 429.5 284.5 Q388 267 341 267 Q294 267 252 284.5 Q210 302 179 332.5 Q148 363 130 404 Q112 445 112 492 Z M148 492 Q148 453 163 418 Q178 383 204.5 356.5 Q231 330 266 315 Q301 300 341 300 Q381 300 415.5 315 Q450 330 476 356.5 Q502 383 517 418 Q532 453 532 492 Q532 532 517 567 Q502 602 476 628 Q450 654 415.5 669 Q381 684 341 684 Q301 684 266 669 Q231 654 204.5 628 Q178 602 163 567 Q148 532 148 492 Z " />
<glyph glyph-name="macron" unicode="&#xaf;" horiz-adv-x="360" d="M46 611 L62 706 L420 706 L404 611 L46 611 Z " />
<glyph glyph-name="degree" unicode="&#xb0;" horiz-adv-x="440" d="M439 554 Q439 515 425.5 482.5 Q412 450 388 426 Q364 402 331.5 388.5 Q299 375 260 375 Q221 375 188.5 388.5 Q156 402 132 426 Q108 450 94.5 482.5 Q81 515 81 554 Q81 593 94.5 625.5 Q108 658 132 682 Q156 706 188.5 719.5 Q221 733 260 733 Q299 733 331.5 719.5 Q364 706 388 682 Q412 658 425.5 625.5 Q439 593 439 554 Z M357 554 Q357 595 329 623 Q301 651 260 651 Q219 651 191 623 Q163 595 163 554 Q163 513 191 485 Q219 457 260 457 Q301 457 329 485 Q357 513 357 554 Z " />
<glyph glyph-name="plusminus" unicode="&#xb1;" horiz-adv-x="666" d="M251 606 L415 606 L415 485 L635 485 L635 333 L415 333 L415 212 L251 212 L251 333 L31 333 L31 485 L251 485 L251 606 Z M31 182 L635 182 L635 30 L31 30 L31 182 Z " />
<glyph glyph-name="twosuperior" unicode="&#xb2;" horiz-adv-x="450" d="M30 263 L50 377 L252 518 Q265 527 277 539.5 Q289 552 289 563 Q289 577 281.5 585.5 Q274 594 255 594 Q233 594 219.5 579.5 Q206 565 201 541 L67 561 Q84 632 138.5 676 Q193 720 274 720 Q307 720 337 712 Q367 704 390.5 688 Q414 672 427.5 647.5 Q441 623 441 589 Q441 558 431 535 Q421 512 405.5 494 Q390 476 371 462 Q352 448 333 436 L252 386 L418 386 L397 263 L30 263 Z " />
<glyph glyph-name="threesuperior" unicode="&#xb3;" horiz-adv-x="450" d="M410 409 Q410 368 392.5 339.5 Q375 311 347 292 Q319 273 285 264.5 Q251 256 218 256 Q183 256 152 264 Q121 272 96 288.5 Q71 305 53.5 330 Q36 355 29 389 L160 421 Q165 400 181 388 Q197 376 220 376 Q235 376 250 384 Q265 392 265 409 Q265 430 248 437 Q231 444 202 444 L161 444 L178 542 L225 542 Q249 542 269 549 Q289 556 289 576 Q289 592 278.5 598 Q268 604 254 604 Q236 604 221 594.5 Q206 585 201 570 L75 603 Q87 633 107 655 Q127 677 151.5 691.5 Q176 706 205 712.5 Q234 719 264 719 Q293 719 323 713.5 Q353 708 377 694 Q401 680 416.5 656 Q432 632 432 596 Q432 576 424.5 559.5 Q417 543 405 531 Q393 519 378.5 510.5 Q364 502 350 498 Q378 487 394 464 Q410 441 410 409 Z " />
<glyph glyph-name="acute" unicode="&#xb4;" horiz-adv-x="360" d="M285 584 L120 584 L255 728 L463 728 L285 584 Z " />
<glyph glyph-name="mu" unicode="&#xb5;" horiz-adv-x="758" d="M375 526 L319 263 Q317 255 315.5 242 Q314 229 314 220 Q314 194 324.5 175 Q335 156 363 156 Q404 156 425.5 185 Q447 214 456 256 L513 526 L747 526 L636 0 L410 0 L417 37 Q400 20 377.5 9 Q355 -2 324 -2 Q287 -2 266 14 L216 -224 L-18 -224 L141 526 L375 526 Z " />
<glyph glyph-name="paragraph" unicode="&#xb6;" horiz-adv-x="643" d="M350 -133 L474 570 L418 570 L294 -133 L144 -133 L225 330 Q137 335 89.5 373 Q42 411 42 479 Q42 539 63 582 Q84 625 123 653 Q162 681 216.5 694.5 Q271 708 337 708 L649 708 L501 -133 L350 -133 Z " />
<glyph glyph-name="periodcentered" unicode="&#xb7;" horiz-adv-x="354" d="M158 168 Q130 168 107.5 176.5 Q85 185 69.5 200 Q54 215 45.5 234 Q37 253 37 274 Q37 303 47 328.5 Q57 354 75.5 373 Q94 392 119.5 403 Q145 414 176 414 Q203 414 225 405.5 Q247 397 262.5 382 Q278 367 287 348 Q296 329 296 308 Q296 279 286 253.5 Q276 228 258 209 Q240 190 214.5 179 Q189 168 158 168 Z " />
<glyph glyph-name="cedilla" unicode="&#xb8;" horiz-adv-x="360" d="M235 -130 Q235 -160 220.5 -181 Q206 -202 183 -215 Q160 -228 130.5 -233.5 Q101 -239 71 -239 Q55 -239 36.5 -237 Q18 -235 -0.5 -232 Q-19 -229 -36 -225 Q-53 -221 -65 -216 L-24 -140 Q-7 -148 17.5 -152 Q42 -156 61 -156 Q76 -156 88 -151.5 Q100 -147 100 -134 Q100 -123 90 -119 Q80 -115 66 -115 Q56 -115 44.5 -116.5 Q33 -118 23 -121 L-13 -87 L77 1 L190 1 L131 -53 Q136 -52 139.5 -52 Q143 -52 148 -52 Q159 -52 174 -55.5 Q189 -59 202.5 -67.5 Q216 -76 225.5 -91 Q235 -106 235 -130 Z " />
<glyph glyph-name="onesuperior" unicode="&#xb9;" horiz-adv-x="450" d="M182 263 L234 555 L150 510 L107 620 L274 708 L408 708 L329 263 L182 263 Z " />
<glyph glyph-name="ordmasculine" unicode="&#xba;" horiz-adv-x="390" d="M221 424 Q189 424 160.5 432 Q132 440 111 456 Q90 472 78 496 Q66 520 66 551 Q66 587 78 619 Q90 651 112.5 674.5 Q135 698 168 712 Q201 726 243 726 Q276 726 305 718 Q334 710 355 694 Q376 678 388 654 Q400 630 400 599 Q400 563 388 531 Q376 499 353.5 475.5 Q331 452 297.5 438 Q264 424 221 424 Z M282 586 Q282 603 271 615 Q260 627 239 627 Q214 627 199 608.5 Q184 590 184 565 Q184 547 195.5 535 Q207 523 227 523 Q253 523 267.5 541.5 Q282 560 282 586 Z " />
<glyph glyph-name="guillemotright" unicode="&#xbb;" horiz-adv-x="583" d="M345 27 L235 108 L386 279 L300 445 L431 517 L562 270 L345 27 Z M112 39 L0 120 L151 291 L68 445 L201 517 L329 282 L112 39 Z " />
<glyph glyph-name="onequarter" unicode="&#xbc;" horiz-adv-x="1000" d="M856 80 L842 0 L710 0 L724 80 L514 80 L535 198 L737 445 L918 445 L874 193 L937 193 L917 80 L856 80 Z M764 311 L762 311 L666 193 L744 193 L764 311 Z M182 263 L234 555 L150 510 L107 620 L274 708 L408 708 L329 263 L182 263 Z M305 -35 L220 19 L704 739 L790 687 L305 -35 Z " />
<glyph glyph-name="onehalf" unicode="&#xbd;" horiz-adv-x="1000" d="M547 0 L567 114 L769 255 Q782 264 794 276.5 Q806 289 806 300 Q806 314 798.5 322.5 Q791 331 772 331 Q750 331 736.5 316.5 Q723 302 718 278 L584 298 Q601 369 655.5 413 Q710 457 791 457 Q824 457 854 449 Q884 441 907.5 425 Q931 409 944.5 384.5 Q958 360 958 326 Q958 295 948 272 Q938 249 922.5 231 Q907 213 888 199 Q869 185 850 173 L769 123 L935 123 L914 0 L547 0 Z M182 263 L234 555 L150 510 L107 620 L274 708 L408 708 L329 263 L182 263 Z M305 -35 L220 19 L704 739 L790 687 L305 -35 Z " />
<glyph glyph-name="threequarters" unicode="&#xbe;" horiz-adv-x="1000" d="M853 79 L839 0 L706 0 L720 79 L506 79 L527 198 L740 445 L917 445 L873 194 L932 194 L912 79 L853 79 Z M761 309 L760 309 L663 194 L741 194 L761 309 Z M410 409 Q410 368 392.5 339.5 Q375 311 347 292 Q319 273 285 264.5 Q251 256 218 256 Q183 256 152 264 Q121 272 96 288.5 Q71 305 53.5 330 Q36 355 29 389 L160 421 Q165 400 181 388 Q197 376 220 376 Q235 376 250 384 Q265 392 265 409 Q265 430 248 437 Q231 444 202 444 L161 444 L178 542 L225 542 Q249 542 269 549 Q289 556 289 576 Q289 592 278.5 598 Q268 604 254 604 Q236 604 221 594.5 Q206 585 201 570 L75 603 Q87 633 107 655 Q127 677 151.5 691.5 Q176 706 205 712.5 Q234 719 264 719 Q293 719 323 713.5 Q353 708 377 694 Q401 680 416.5 656 Q432 632 432 596 Q432 576 424.5 559.5 Q417 543 405 531 Q393 519 378.5 510.5 Q364 502 350 498 Q378 487 394 464 Q410 441 410 409 Z M305 -35 L220 19 L704 739 L790 687 L305 -35 Z " />
<glyph glyph-name="questiondown" unicode="&#xbf;" horiz-adv-x="583" d="M126 199 Q151 213 161 226 Q171 239 174 254 L178 280 L385 280 L379 243 Q374 213 362.5 191 Q351 169 335 151 Q319 133 299 117.5 Q279 102 255 86 L234 72 Q208 55 199.5 44 Q191 33 191 17 Q191 -1 203.5 -8.5 Q216 -16 232 -16 Q266 -16 284 8 Q302 32 307 64 L509 28 Q495 -32 465 -75 Q435 -118 394 -145.5 Q353 -173 304.5 -186 Q256 -199 205 -199 Q155 -199 111 -189.5 Q67 -180 33 -158 Q-1 -136 -20.5 -100.5 Q-40 -65 -40 -13 Q-40 27 -29 57 Q-18 87 3 111 Q24 135 55 156 Q86 177 126 199 Z M300 542 Q327 542 348.5 533.5 Q370 525 385 511 Q400 497 408 478.5 Q416 460 416 440 Q416 413 406.5 388.5 Q397 364 379.5 345.5 Q362 327 337.5 316.5 Q313 306 283 306 Q257 306 236 314.5 Q215 323 200 337 Q185 351 176.5 369.5 Q168 388 168 408 Q168 436 177.5 460.5 Q187 485 204.5 503 Q222 521 246.5 531.5 Q271 542 300 542 Z " />
<glyph glyph-name="Agrave" unicode="&#xc0;" horiz-adv-x="775" d="M480 0 L464 108 L234 108 L175 0 L-83 0 L352 708 L596 708 L720 0 L480 0 Z M424 467 L323 285 L445 285 L424 467 Z M465 908 L591 764 L426 764 L257 908 L465 908 Z " />
<glyph glyph-name="Aacute" unicode="&#xc1;" horiz-adv-x="775" d="M480 0 L464 108 L234 108 L175 0 L-83 0 L352 708 L596 708 L720 0 L480 0 Z M424 467 L323 285 L445 285 L424 467 Z M539 764 L374 764 L509 908 L717 908 L539 764 Z " />
<glyph glyph-name="Acircumflex" unicode="&#xc2;" horiz-adv-x="775" d="M480 0 L464 108 L234 108 L175 0 L-83 0 L352 708 L596 708 L720 0 L480 0 Z M424 467 L323 285 L445 285 L424 467 Z M545 764 L490 833 L411 764 L261 764 L422 908 L589 908 L697 764 L545 764 Z " />
<glyph glyph-name="Atilde" unicode="&#xc3;" horiz-adv-x="775" d="M480 0 L464 108 L234 108 L175 0 L-83 0 L352 708 L596 708 L720 0 L480 0 Z M424 467 L323 285 L445 285 L424 467 Z M688 900 Q681 871 668 845.5 Q655 820 637 801 Q619 782 597 771.5 Q575 761 549 761 Q528 761 509.5 767 Q491 773 472 784 Q450 797 439 801.5 Q428 806 413 806 Q397 806 385.5 795.5 Q374 785 369 770 L290 770 Q297 798 309.5 822.5 Q322 847 339.5 865.5 Q357 884 379 894.5 Q401 905 427 905 Q450 905 467.5 898.5 Q485 892 505 881 Q527 870 539 865 Q551 860 567 860 Q583 860 592.5 870 Q602 880 610 900 L688 900 Z " />
<glyph glyph-name="Adieresis" unicode="&#xc4;" horiz-adv-x="775" d="M480 0 L464 108 L234 108 L175 0 L-83 0 L352 708 L596 708 L720 0 L480 0 Z M424 467 L323 285 L445 285 L424 467 Z M359 763 Q316 763 291 788 Q266 813 266 845 Q266 867 273.5 886.5 Q281 906 295.5 921 Q310 936 329.5 944.5 Q349 953 373 953 Q393 953 410 946 Q427 939 439 928 Q451 917 458 902 Q465 887 465 871 Q465 849 457.5 829.5 Q450 810 436 795 Q422 780 402.5 771.5 Q383 763 359 763 Z M610 763 Q567 763 542 788 Q517 813 517 845 Q517 867 524.5 886.5 Q532 906 546.5 921 Q561 936 580.5 944.5 Q600 953 624 953 Q644 953 661 946 Q678 939 690 928 Q702 917 709 902 Q716 887 716 871 Q716 849 708.5 829.5 Q701 810 687 795 Q673 780 653.5 771.5 Q634 763 610 763 Z " />
<glyph glyph-name="Aring" unicode="&#xc5;" horiz-adv-x="775" d="M480 0 L464 108 L234 108 L175 0 L-83 0 L352 708 L596 708 L720 0 L480 0 Z M424 467 L323 285 L445 285 L424 467 Z M478 745 Q434 745 406.5 770.5 Q379 796 379 837 Q379 864 388.5 888 Q398 912 414.5 930 Q431 948 454.5 958.5 Q478 969 505 969 Q550 969 577.5 944 Q605 919 605 877 Q605 850 595.5 826 Q586 802 569 784 Q552 766 529 755.5 Q506 745 478 745 Z M554 872 Q554 894 540 909 Q526 924 501 924 Q470 924 450 900 Q430 876 430 843 Q430 820 444 805.5 Q458 791 482 791 Q514 791 534 815 Q554 839 554 872 Z " />
<glyph glyph-name="AE" unicode="&#xc6;" horiz-adv-x="1012" d="M981 515 L736 515 L724 447 L958 447 L926 267 L692 267 L679 193 L953 193 L919 0 L434 0 L453 109 L274 109 L202 0 L-58 0 L425 708 L1015 708 L981 515 Z M525 515 L521 515 L373 287 L485 287 L525 515 Z " />
<glyph glyph-name="Ccedilla" unicode="&#xc7;" horiz-adv-x="686" d="M477 -130 Q477 -160 462.5 -181 Q448 -202 425 -215 Q402 -228 372.5 -233.5 Q343 -239 313 -239 Q297 -239 278.5 -237 Q260 -235 241.5 -232 Q223 -229 206 -225 Q189 -221 177 -216 L218 -140 Q235 -148 259.5 -152 Q284 -156 303 -156 Q318 -156 330 -151.5 Q342 -147 342 -134 Q342 -123 332 -119 Q322 -115 308 -115 Q298 -115 286.5 -116.5 Q275 -118 265 -121 L229 -87 L302 -15 Q237 -6 187 19 Q137 44 102 84 Q67 124 49 177 Q31 230 31 293 Q31 384 62.5 463 Q94 542 151 601 Q208 660 286 694 Q364 728 457 728 Q549 728 619 699.5 Q689 671 726 629 L565 463 Q547 489 517.5 501.5 Q488 514 451 514 Q413 514 382 498.5 Q351 483 329 456.5 Q307 430 295 395 Q283 360 283 320 Q283 268 315.5 232 Q348 196 413 196 Q451 196 484 212 Q517 228 541 251 L655 81 Q636 64 612 48 Q588 32 558 18.5 Q528 5 491.5 -5 Q455 -15 411 -18 L373 -53 Q378 -52 381.5 -52 Q385 -52 390 -52 Q401 -52 416 -55.5 Q431 -59 444.5 -67.5 Q458 -76 467.5 -91 Q477 -106 477 -130 Z " />
<glyph glyph-name="Egrave" unicode="&#xc8;" horiz-adv-x="592" d="M7 0 L132 708 L595 708 L561 515 L316 515 L304 447 L538 447 L506 267 L272 267 L259 193 L533 193 L499 0 L7 0 Z M362 908 L488 764 L323 764 L154 908 L362 908 Z " />
<glyph glyph-name="Eacute" unicode="&#xc9;" horiz-adv-x="592" d="M7 0 L132 708 L595 708 L561 515 L316 515 L304 447 L538 447 L506 267 L272 267 L259 193 L533 193 L499 0 L7 0 Z M439 764 L274 764 L409 908 L617 908 L439 764 Z " />
<glyph glyph-name="Ecircumflex" unicode="&#xca;" horiz-adv-x="592" d="M7 0 L132 708 L595 708 L561 515 L316 515 L304 447 L538 447 L506 267 L272 267 L259 193 L533 193 L499 0 L7 0 Z M444 764 L389 833 L310 764 L160 764 L321 908 L488 908 L596 764 L444 764 Z " />
<glyph glyph-name="Edieresis" unicode="&#xcb;" horiz-adv-x="592" d="M7 0 L132 708 L595 708 L561 515 L316 515 L304 447 L538 447 L506 267 L272 267 L259 193 L533 193 L499 0 L7 0 Z M259 763 Q216 763 191 788 Q166 813 166 845 Q166 867 173.5 886.5 Q181 906 195.5 921 Q210 936 229.5 944.5 Q249 953 273 953 Q293 953 310 946 Q327 939 339 928 Q351 917 358 902 Q365 887 365 871 Q365 849 357.5 829.5 Q350 810 336 795 Q322 780 302.5 771.5 Q283 763 259 763 Z M510 763 Q467 763 442 788 Q417 813 417 845 Q417 867 424.5 886.5 Q432 906 446.5 921 Q461 936 480.5 944.5 Q500 953 524 953 Q544 953 561 946 Q578 939 590 928 Q602 917 609 902 Q616 887 616 871 Q616 849 608.5 829.5 Q601 810 587 795 Q573 780 553.5 771.5 Q534 763 510 763 Z " />
<glyph glyph-name="Igrave" unicode="&#xcc;" horiz-adv-x="367" d="M7 0 L132 708 L365 708 L240 0 L7 0 Z M240 908 L366 764 L201 764 L32 908 L240 908 Z " />
<glyph glyph-name="Iacute" unicode="&#xcd;" horiz-adv-x="367" d="M7 0 L132 708 L365 708 L240 0 L7 0 Z M302 764 L137 764 L272 908 L480 908 L302 764 Z " />
<glyph glyph-name="Icircumflex" unicode="&#xce;" horiz-adv-x="367" d="M7 0 L132 708 L365 708 L240 0 L7 0 Z M324 764 L269 833 L190 764 L40 764 L201 908 L368 908 L476 764 L324 764 Z " />
<glyph glyph-name="Idieresis" unicode="&#xcf;" horiz-adv-x="367" d="M7 0 L132 708 L365 708 L240 0 L7 0 Z M134 763 Q91 763 66 788 Q41 813 41 845 Q41 867 48.5 886.5 Q56 906 70.5 921 Q85 936 104.5 944.5 Q124 953 148 953 Q168 953 185 946 Q202 939 214 928 Q226 917 233 902 Q240 887 240 871 Q240 849 232.5 829.5 Q225 810 211 795 Q197 780 177.5 771.5 Q158 763 134 763 Z M385 763 Q342 763 317 788 Q292 813 292 845 Q292 867 299.5 886.5 Q307 906 321.5 921 Q336 936 355.5 944.5 Q375 953 399 953 Q419 953 436 946 Q453 939 465 928 Q477 917 484 902 Q491 887 491 871 Q491 849 483.5 829.5 Q476 810 462 795 Q448 780 428.5 771.5 Q409 763 385 763 Z " />
<glyph glyph-name="Eth" unicode="&#xd0;" horiz-adv-x="787" d="M11 286 L36 428 L83 428 L132 708 L425 708 Q485 708 545.5 691.5 Q606 675 654.5 639 Q703 603 734 545.5 Q765 488 765 406 Q765 313 732.5 237.5 Q700 162 642 109.5 Q584 57 505 28.5 Q426 0 333 0 L7 0 L57 286 L11 286 Z M422 428 L397 286 L284 286 L268 199 L343 199 Q388 199 422 214.5 Q456 230 479 255.5 Q502 281 513.5 313.5 Q525 346 525 381 Q525 408 517 432 Q509 456 492 473.5 Q475 491 448.5 501.5 Q422 512 386 512 L324 512 L309 428 L422 428 Z " />
<glyph glyph-name="Ntilde" unicode="&#xd1;" horiz-adv-x="791" d="M431 0 L291 351 L287 351 L232 0 L7 0 L132 708 L359 708 L502 339 L506 339 L564 708 L789 708 L664 0 L431 0 Z M680 900 Q673 871 660 845.5 Q647 820 629 801 Q611 782 589 771.5 Q567 761 541 761 Q520 761 501.5 767 Q483 773 464 784 Q442 797 431 801.5 Q420 806 405 806 Q389 806 377.5 795.5 Q366 785 361 770 L282 770 Q289 798 301.5 822.5 Q314 847 331.5 865.5 Q349 884 371 894.5 Q393 905 419 905 Q442 905 459.5 898.5 Q477 892 497 881 Q519 870 531 865 Q543 860 559 860 Q575 860 584.5 870 Q594 880 602 900 L680 900 Z " />
<glyph glyph-name="Ograve" unicode="&#xd2;" horiz-adv-x="833" d="M382 -18 Q297 -18 231.5 5.5 Q166 29 121.5 72 Q77 115 54 174 Q31 233 31 304 Q31 392 62 469 Q93 546 149 603 Q205 660 284.5 693 Q364 726 461 726 Q547 726 612.5 702.5 Q678 679 722.5 636 Q767 593 790 534 Q813 475 813 404 Q813 316 782.5 239 Q752 162 695.5 105 Q639 48 559.5 15 Q480 -18 382 -18 Z M572 387 Q572 414 563.5 437.5 Q555 461 538.5 478.5 Q522 496 497.5 506 Q473 516 442 516 Q403 516 371.5 499.5 Q340 483 318 456 Q296 429 284 394 Q272 359 272 323 Q272 296 280.5 272.5 Q289 249 305.5 231.5 Q322 214 346.5 204 Q371 194 403 194 Q442 194 473 210 Q504 226 526 253 Q548 280 560 315 Q572 350 572 387 Z M479 908 L605 764 L440 764 L271 908 L479 908 Z " />
<glyph glyph-name="Oacute" unicode="&#xd3;" horiz-adv-x="833" d="M382 -18 Q297 -18 231.5 5.5 Q166 29 121.5 72 Q77 115 54 174 Q31 233 31 304 Q31 392 62 469 Q93 546 149 603 Q205 660 284.5 693 Q364 726 461 726 Q547 726 612.5 702.5 Q678 679 722.5 636 Q767 593 790 534 Q813 475 813 404 Q813 316 782.5 239 Q752 162 695.5 105 Q639 48 559.5 15 Q480 -18 382 -18 Z M572 387 Q572 414 563.5 437.5 Q555 461 538.5 478.5 Q522 496 497.5 506 Q473 516 442 516 Q403 516 371.5 499.5 Q340 483 318 456 Q296 429 284 394 Q272 359 272 323 Q272 296 280.5 272.5 Q289 249 305.5 231.5 Q322 214 346.5 204 Q371 194 403 194 Q442 194 473 210 Q504 226 526 253 Q548 280 560 315 Q572 350 572 387 Z M552 764 L387 764 L522 908 L730 908 L552 764 Z " />
<glyph glyph-name="Ocircumflex" unicode="&#xd4;" horiz-adv-x="833" d="M382 -18 Q297 -18 231.5 5.5 Q166 29 121.5 72 Q77 115 54 174 Q31 233 31 304 Q31 392 62 469 Q93 546 149 603 Q205 660 284.5 693 Q364 726 461 726 Q547 726 612.5 702.5 Q678 679 722.5 636 Q767 593 790 534 Q813 475 813 404 Q813 316 782.5 239 Q752 162 695.5 105 Q639 48 559.5 15 Q480 -18 382 -18 Z M572 387 Q572 414 563.5 437.5 Q555 461 538.5 478.5 Q522 496 497.5 506 Q473 516 442 516 Q403 516 371.5 499.5 Q340 483 318 456 Q296 429 284 394 Q272 359 272 323 Q272 296 280.5 272.5 Q289 249 305.5 231.5 Q322 214 346.5 204 Q371 194 403 194 Q442 194 473 210 Q504 226 526 253 Q548 280 560 315 Q572 350 572 387 Z M559 764 L504 833 L425 764 L275 764 L436 908 L603 908 L711 764 L559 764 Z " />
<glyph glyph-name="Otilde" unicode="&#xd5;" horiz-adv-x="833" d="M382 -18 Q297 -18 231.5 5.5 Q166 29 121.5 72 Q77 115 54 174 Q31 233 31 304 Q31 392 62 469 Q93 546 149 603 Q205 660 284.5 693 Q364 726 461 726 Q547 726 612.5 702.5 Q678 679 722.5 636 Q767 593 790 534 Q813 475 813 404 Q813 316 782.5 239 Q752 162 695.5 105 Q639 48 559.5 15 Q480 -18 382 -18 Z M572 387 Q572 414 563.5 437.5 Q555 461 538.5 478.5 Q522 496 497.5 506 Q473 516 442 516 Q403 516 371.5 499.5 Q340 483 318 456 Q296 429 284 394 Q272 359 272 323 Q272 296 280.5 272.5 Q289 249 305.5 231.5 Q322 214 346.5 204 Q371 194 403 194 Q442 194 473 210 Q504 226 526 253 Q548 280 560 315 Q572 350 572 387 Z M702 900 Q695 871 682 845.5 Q669 820 651 801 Q633 782 611 771.5 Q589 761 563 761 Q542 761 523.5 767 Q505 773 486 784 Q464 797 453 801.5 Q442 806 427 806 Q411 806 399.5 795.5 Q388 785 383 770 L304 770 Q311 798 323.5 822.5 Q336 847 353.5 865.5 Q371 884 393 894.5 Q415 905 441 905 Q464 905 481.5 898.5 Q499 892 519 881 Q541 870 553 865 Q565 860 581 860 Q597 860 606.5 870 Q616 880 624 900 L702 900 Z " />
<glyph glyph-name="Odieresis" unicode="&#xd6;" horiz-adv-x="833" d="M382 -18 Q297 -18 231.5 5.5 Q166 29 121.5 72 Q77 115 54 174 Q31 233 31 304 Q31 392 62 469 Q93 546 149 603 Q205 660 284.5 693 Q364 726 461 726 Q547 726 612.5 702.5 Q678 679 722.5 636 Q767 593 790 534 Q813 475 813 404 Q813 316 782.5 239 Q752 162 695.5 105 Q639 48 559.5 15 Q480 -18 382 -18 Z M572 387 Q572 414 563.5 437.5 Q555 461 538.5 478.5 Q522 496 497.5 506 Q473 516 442 516 Q403 516 371.5 499.5 Q340 483 318 456 Q296 429 284 394 Q272 359 272 323 Q272 296 280.5 272.5 Q289 249 305.5 231.5 Q322 214 346.5 204 Q371 194 403 194 Q442 194 473 210 Q504 226 526 253 Q548 280 560 315 Q572 350 572 387 Z M375 763 Q332 763 307 788 Q282 813 282 845 Q282 867 289.5 886.5 Q297 906 311.5 921 Q326 936 345.5 944.5 Q365 953 389 953 Q409 953 426 946 Q443 939 455 928 Q467 917 474 902 Q481 887 481 871 Q481 849 473.5 829.5 Q466 810 452 795 Q438 780 418.5 771.5 Q399 763 375 763 Z M626 763 Q583 763 558 788 Q533 813 533 845 Q533 867 540.5 886.5 Q548 906 562.5 921 Q577 936 596.5 944.5 Q616 953 640 953 Q660 953 677 946 Q694 939 706 928 Q718 917 725 902 Q732 887 732 871 Q732 849 724.5 829.5 Q717 810 703 795 Q689 780 669.5 771.5 Q650 763 626 763 Z " />
<glyph glyph-name="multiply" unicode="&#xd7;" horiz-adv-x="666" d="M164 575 Q207 533 249.5 493.5 Q292 454 335 412 Q377 452 418 493 Q459 534 501 574 Q529 548 557 522 Q585 496 613 470 Q571 428 529.5 387.5 Q488 347 446 305 Q490 264 532.5 223 Q575 182 619 141 Q591 113 562 85 Q533 57 505 29 Q462 71 419.5 111.5 Q377 152 334 194 Q290 152 248.5 111.5 Q207 71 163 29 Q135 56 107 81.5 Q79 107 51 134 Q93 176 135.5 218 Q178 260 220 302 Q177 343 134 383 Q91 423 48 464 Q77 491 106 519.5 Q135 548 164 575 Z " />
<glyph glyph-name="Oslash" unicode="&#xd8;" horiz-adv-x="833" d="M49 -55 L-31 25 L78 124 Q55 161 43 206.5 Q31 252 31 304 Q31 392 62 469 Q93 546 149 603 Q205 660 284.5 693 Q364 726 461 726 Q528 726 583 711 Q638 696 682 669 L784 765 L864 684 L761 591 Q813 513 813 404 Q813 316 782.5 239 Q752 162 695.5 105 Q639 48 559.5 15 Q480 -18 382 -18 Q313 -18 257 -2 Q201 14 157 43 L49 -55 Z M392 188 Q440 188 475 205.5 Q510 223 533 251 Q556 279 567 315 Q578 351 578 388 Q578 395 577 402.5 Q576 410 574 418 L334 198 Q345 193 360.5 190.5 Q376 188 392 188 Z M449 519 Q401 519 366 501.5 Q331 484 308 455.5 Q285 427 274 391 Q263 355 263 318 Q263 305 266 290 L506 510 Q495 515 480 517 Q465 519 449 519 Z " />
<glyph glyph-name="Ugrave" unicode="&#xd9;" horiz-adv-x="771" d="M696 260 Q685 197 658.5 145.5 Q632 94 588.5 58 Q545 22 484 2 Q423 -18 344 -18 Q276 -18 220 -3 Q164 12 124 40.5 Q84 69 62 110 Q40 151 40 203 Q40 217 42 235.5 Q44 254 46 269 L121 708 L350 708 L277 299 Q275 291 275 282 Q275 273 275 266 Q275 233 295 208 Q315 183 363 183 Q394 183 413.5 193 Q433 203 445 219 Q457 235 463 255 Q469 275 473 295 L548 708 L773 708 L696 260 Z M441 908 L567 764 L402 764 L233 908 L441 908 Z " />
<glyph glyph-name="Uacute" unicode="&#xda;" horiz-adv-x="771" d="M696 260 Q685 197 658.5 145.5 Q632 94 588.5 58 Q545 22 484 2 Q423 -18 344 -18 Q276 -18 220 -3 Q164 12 124 40.5 Q84 69 62 110 Q40 151 40 203 Q40 217 42 235.5 Q44 254 46 269 L121 708 L350 708 L277 299 Q275 291 275 282 Q275 273 275 266 Q275 233 295 208 Q315 183 363 183 Q394 183 413.5 193 Q433 203 445 219 Q457 235 463 255 Q469 275 473 295 L548 708 L773 708 L696 260 Z M524 764 L359 764 L494 908 L702 908 L524 764 Z " />
<glyph glyph-name="Ucircumflex" unicode="&#xdb;" horiz-adv-x="771" d="M696 260 Q685 197 658.5 145.5 Q632 94 588.5 58 Q545 22 484 2 Q423 -18 344 -18 Q276 -18 220 -3 Q164 12 124 40.5 Q84 69 62 110 Q40 151 40 203 Q40 217 42 235.5 Q44 254 46 269 L121 708 L350 708 L277 299 Q275 291 275 282 Q275 273 275 266 Q275 233 295 208 Q315 183 363 183 Q394 183 413.5 193 Q433 203 445 219 Q457 235 463 255 Q469 275 473 295 L548 708 L773 708 L696 260 Z M526 764 L471 833 L392 764 L242 764 L403 908 L570 908 L678 764 L526 764 Z " />
<glyph glyph-name="Udieresis" unicode="&#xdc;" horiz-adv-x="771" d="M696 260 Q685 197 658.5 145.5 Q632 94 588.5 58 Q545 22 484 2 Q423 -18 344 -18 Q276 -18 220 -3 Q164 12 124 40.5 Q84 69 62 110 Q40 151 40 203 Q40 217 42 235.5 Q44 254 46 269 L121 708 L350 708 L277 299 Q275 291 275 282 Q275 273 275 266 Q275 233 295 208 Q315 183 363 183 Q394 183 413.5 193 Q433 203 445 219 Q457 235 463 255 Q469 275 473 295 L548 708 L773 708 L696 260 Z M343 763 Q300 763 275 788 Q250 813 250 845 Q250 867 257.5 886.5 Q265 906 279.5 921 Q294 936 313.5 944.5 Q333 953 357 953 Q377 953 394 946 Q411 939 423 928 Q435 917 442 902 Q449 887 449 871 Q449 849 441.5 829.5 Q434 810 420 795 Q406 780 386.5 771.5 Q367 763 343 763 Z M594 763 Q551 763 526 788 Q501 813 501 845 Q501 867 508.5 886.5 Q516 906 530.5 921 Q545 936 564.5 944.5 Q584 953 608 953 Q628 953 645 946 Q662 939 674 928 Q686 917 693 902 Q700 887 700 871 Q700 849 692.5 829.5 Q685 810 671 795 Q657 780 637.5 771.5 Q618 763 594 763 Z " />
<glyph glyph-name="Yacute" unicode="&#xdd;" horiz-adv-x="677" d="M440 291 L389 0 L158 0 L209 291 L22 708 L280 708 L356 489 L507 708 L789 708 L440 291 Z M490 764 L325 764 L460 908 L668 908 L490 764 Z " />
<glyph glyph-name="Thorn" unicode="&#xde;" horiz-adv-x="690" d="M237 0 L7 0 L132 708 L363 708 L345 604 L378 604 Q515 604 587.5 547 Q660 490 660 390 Q660 322 637.5 272 Q615 222 572 190 Q529 158 468 142.5 Q407 127 329 127 L261 127 L237 0 Z M328 301 Q376 301 403 317 Q430 333 430 367 Q430 399 408 411 Q386 423 348 423 L313 423 L291 301 L328 301 Z " />
<glyph glyph-name="germandbls" unicode="&#xdf;" horiz-adv-x="712" d="M354 -12 Q332 -12 306.5 -9.5 Q281 -7 258 -1 L286 163 Q294 160 308.5 158 Q323 156 334 156 Q385 156 407 180 Q429 204 429 246 Q429 281 403 299 Q377 317 339 317 L330 317 L357 478 L367 478 Q382 478 397 481.5 Q412 485 424.5 493 Q437 501 445 515 Q453 529 453 549 Q453 578 435.5 590.5 Q418 603 394 603 Q373 603 358.5 594.5 Q344 586 334 572 Q324 558 318 540 Q312 522 309 504 L220 0 L-7 0 L83 509 Q92 560 111 607 Q130 654 167 689.5 Q204 725 261.5 746.5 Q319 768 406 768 Q449 768 496 759 Q543 750 581 729 Q619 708 644 672.5 Q669 637 669 583 Q669 543 657 513 Q645 483 625.5 461.5 Q606 440 579.5 426.5 Q553 413 525 407 L525 405 Q548 399 571 385.5 Q594 372 612.5 351 Q631 330 642.5 301 Q654 272 654 236 Q654 115 577 51.5 Q500 -12 354 -12 Z " />
<glyph glyph-name="agrave" unicode="&#xe0;" horiz-adv-x="588" d="M332 216 L319 216 Q294 216 272 213 Q250 210 233.5 203.5 Q217 197 207 186.5 Q197 176 197 160 Q197 137 211.5 130.5 Q226 124 243 124 Q276 124 299.5 145 Q323 166 329 199 L332 216 Z M505 81 Q501 59 499.5 36 Q498 13 498 0 L306 0 Q306 7 306.5 22.5 Q307 38 308 48 L306 48 Q277 15 240 0.5 Q203 -14 158 -14 Q130 -14 102 -6 Q74 2 51.5 18.5 Q29 35 15 61.5 Q1 88 1 125 Q1 186 28.5 225.5 Q56 265 102.5 288 Q149 311 210 320.5 Q271 330 338 330 Q339 334 339 336.5 Q339 339 339 341 Q339 361 321.5 371.5 Q304 382 276 382 Q244 382 214 369.5 Q184 357 159 336 L61 448 Q85 471 115.5 488.5 Q146 506 178 518 Q210 530 243 536 Q276 542 306 542 Q426 542 486.5 493.5 Q547 445 547 357 Q547 320 539 274 L505 81 Z M327 728 L453 584 L288 584 L119 728 L327 728 Z " />
<glyph glyph-name="aacute" unicode="&#xe1;" horiz-adv-x="588" d="M331 216 L318 216 Q293 216 271 213 Q249 210 232.5 203.5 Q216 197 206 186.5 Q196 176 196 160 Q196 137 210.5 130.5 Q225 124 242 124 Q275 124 298.5 145 Q322 166 328 199 L331 216 Z M504 81 Q500 59 498.5 36 Q497 13 497 0 L305 0 Q305 7 305.5 22.5 Q306 38 307 48 L305 48 Q276 15 239 0.5 Q202 -14 157 -14 Q129 -14 101 -6 Q73 2 50.5 18.5 Q28 35 14 61.5 Q0 88 0 125 Q0 186 27.5 225.5 Q55 265 101.5 288 Q148 311 209 320.5 Q270 330 337 330 Q338 334 338 336.5 Q338 339 338 341 Q338 361 320.5 371.5 Q303 382 275 382 Q243 382 213 369.5 Q183 357 158 336 L60 448 Q84 471 114.5 488.5 Q145 506 177 518 Q209 530 242 536 Q275 542 305 542 Q425 542 485.5 493.5 Q546 445 546 357 Q546 320 538 274 L504 81 Z M397 584 L232 584 L367 728 L575 728 L397 584 Z " />
<glyph glyph-name="acircumflex" unicode="&#xe2;" horiz-adv-x="588" d="M331 216 L318 216 Q293 216 271 213 Q249 210 232.5 203.5 Q216 197 206 186.5 Q196 176 196 160 Q196 137 210.5 130.5 Q225 124 242 124 Q275 124 298.5 145 Q322 166 328 199 L331 216 Z M504 81 Q500 59 498.5 36 Q497 13 497 0 L305 0 Q305 7 305.5 22.5 Q306 38 307 48 L305 48 Q276 15 239 0.5 Q202 -14 157 -14 Q129 -14 101 -6 Q73 2 50.5 18.5 Q28 35 14 61.5 Q0 88 0 125 Q0 186 27.5 225.5 Q55 265 101.5 288 Q148 311 209 320.5 Q270 330 337 330 Q338 334 338 336.5 Q338 339 338 341 Q338 361 320.5 371.5 Q303 382 275 382 Q243 382 213 369.5 Q183 357 158 336 L60 448 Q84 471 114.5 488.5 Q145 506 177 518 Q209 530 242 536 Q275 542 305 542 Q425 542 485.5 493.5 Q546 445 546 357 Q546 320 538 274 L504 81 Z M399 584 L344 653 L265 584 L115 584 L276 728 L443 728 L551 584 L399 584 Z " />
<glyph glyph-name="atilde" unicode="&#xe3;" horiz-adv-x="588" d="M331 216 L318 216 Q293 216 271 213 Q249 210 232.5 203.5 Q216 197 206 186.5 Q196 176 196 160 Q196 137 210.5 130.5 Q225 124 242 124 Q275 124 298.5 145 Q322 166 328 199 L331 216 Z M504 81 Q500 59 498.5 36 Q497 13 497 0 L305 0 Q305 7 305.5 22.5 Q306 38 307 48 L305 48 Q276 15 239 0.5 Q202 -14 157 -14 Q129 -14 101 -6 Q73 2 50.5 18.5 Q28 35 14 61.5 Q0 88 0 125 Q0 186 27.5 225.5 Q55 265 101.5 288 Q148 311 209 320.5 Q270 330 337 330 Q338 334 338 336.5 Q338 339 338 341 Q338 361 320.5 371.5 Q303 382 275 382 Q243 382 213 369.5 Q183 357 158 336 L60 448 Q84 471 114.5 488.5 Q145 506 177 518 Q209 530 242 536 Q275 542 305 542 Q425 542 485.5 493.5 Q546 445 546 357 Q546 320 538 274 L504 81 Z M541 720 Q534 691 521 665.5 Q508 640 490 621 Q472 602 450 591.5 Q428 581 402 581 Q381 581 362.5 587 Q344 593 325 604 Q303 617 292 621.5 Q281 626 266 626 Q250 626 238.5 615.5 Q227 605 222 590 L143 590 Q150 618 162.5 642.5 Q175 667 192.5 685.5 Q210 704 232 714.5 Q254 725 280 725 Q303 725 320.5 718.5 Q338 712 358 701 Q380 690 392 685 Q404 680 420 680 Q436 680 445.5 690 Q455 700 463 720 L541 720 Z " />
<glyph glyph-name="adieresis" unicode="&#xe4;" horiz-adv-x="588" d="M331 216 L318 216 Q293 216 271 213 Q249 210 232.5 203.5 Q216 197 206 186.5 Q196 176 196 160 Q196 137 210.5 130.5 Q225 124 242 124 Q275 124 298.5 145 Q322 166 328 199 L331 216 Z M504 81 Q500 59 498.5 36 Q497 13 497 0 L305 0 Q305 7 305.5 22.5 Q306 38 307 48 L305 48 Q276 15 239 0.5 Q202 -14 157 -14 Q129 -14 101 -6 Q73 2 50.5 18.5 Q28 35 14 61.5 Q0 88 0 125 Q0 186 27.5 225.5 Q55 265 101.5 288 Q148 311 209 320.5 Q270 330 337 330 Q338 334 338 336.5 Q338 339 338 341 Q338 361 320.5 371.5 Q303 382 275 382 Q243 382 213 369.5 Q183 357 158 336 L60 448 Q84 471 114.5 488.5 Q145 506 177 518 Q209 530 242 536 Q275 542 305 542 Q425 542 485.5 493.5 Q546 445 546 357 Q546 320 538 274 L504 81 Z M215 583 Q172 583 147 608 Q122 633 122 665 Q122 687 129.5 706.5 Q137 726 151.5 741 Q166 756 185.5 764.5 Q205 773 229 773 Q249 773 266 766 Q283 759 295 748 Q307 737 314 722 Q321 707 321 691 Q321 669 313.5 649.5 Q306 630 292 615 Q278 600 258.5 591.5 Q239 583 215 583 Z M466 583 Q423 583 398 608 Q373 633 373 665 Q373 687 380.5 706.5 Q388 726 402.5 741 Q417 756 436.5 764.5 Q456 773 480 773 Q500 773 517 766 Q534 759 546 748 Q558 737 565 722 Q572 707 572 691 Q572 669 564.5 649.5 Q557 630 543 615 Q529 600 509.5 591.5 Q490 583 466 583 Z " />
<glyph glyph-name="aring" unicode="&#xe5;" horiz-adv-x="588" d="M331 216 L318 216 Q293 216 271 213 Q249 210 232.5 203.5 Q216 197 206 186.5 Q196 176 196 160 Q196 137 210.5 130.5 Q225 124 242 124 Q275 124 298.5 145 Q322 166 328 199 L331 216 Z M504 81 Q500 59 498.5 36 Q497 13 497 0 L305 0 Q305 7 305.5 22.5 Q306 38 307 48 L305 48 Q276 15 239 0.5 Q202 -14 157 -14 Q129 -14 101 -6 Q73 2 50.5 18.5 Q28 35 14 61.5 Q0 88 0 125 Q0 186 27.5 225.5 Q55 265 101.5 288 Q148 311 209 320.5 Q270 330 337 330 Q338 334 338 336.5 Q338 339 338 341 Q338 361 320.5 371.5 Q303 382 275 382 Q243 382 213 369.5 Q183 357 158 336 L60 448 Q84 471 114.5 488.5 Q145 506 177 518 Q209 530 242 536 Q275 542 305 542 Q425 542 485.5 493.5 Q546 445 546 357 Q546 320 538 274 L504 81 Z M333 565 Q289 565 261.5 590.5 Q234 616 234 657 Q234 684 243.5 708 Q253 732 269.5 750 Q286 768 309.5 778.5 Q333 789 360 789 Q405 789 432.5 764 Q460 739 460 697 Q460 670 450.5 646 Q441 622 424 604 Q407 586 384 575.5 Q361 565 333 565 Z M409 692 Q409 714 395 729 Q381 744 356 744 Q325 744 305 720 Q285 696 285 663 Q285 640 299 625.5 Q313 611 337 611 Q369 611 389 635 Q409 659 409 692 Z " />
<glyph glyph-name="ae" unicode="&#xe6;" horiz-adv-x="922" d="M331 216 L318 216 Q293 216 271 213 Q249 210 232.5 203.5 Q216 197 206 186.5 Q196 176 196 160 Q196 137 210.5 130.5 Q225 124 242 124 Q275 124 298.5 145 Q322 166 328 199 L331 216 Z M638 542 Q696 542 742 525.5 Q788 509 820 478.5 Q852 448 869.5 404.5 Q887 361 887 307 Q887 285 883.5 259 Q880 233 873 211 L515 211 Q514 208 514 204 Q514 187 523 176.5 Q532 166 545 159.5 Q558 153 573 150.5 Q588 148 600 148 Q625 148 649 156.5 Q673 165 692 183 L843 79 Q791 26 724 5 Q657 -16 585 -16 Q558 -16 530 -12 Q502 -8 476.5 1.5 Q451 11 430 26 Q409 41 395 63 Q368 27 319.5 6.5 Q271 -14 199 -14 Q159 -14 123 -6.5 Q87 1 59.5 17.5 Q32 34 16 60.5 Q0 87 0 125 Q0 186 27.5 225.5 Q55 265 101.5 288 Q148 311 209 320.5 Q270 330 337 330 Q338 334 338 336.5 Q338 339 338 341 Q338 361 320.5 371.5 Q303 382 275 382 Q243 382 213 369.5 Q183 357 158 336 L60 448 Q84 471 114.5 488.5 Q145 506 177 518 Q209 530 242 536 Q275 542 305 542 Q341 542 368.5 537 Q396 532 415.5 524 Q435 516 448 504.5 Q461 493 470 481 Q496 508 538.5 525 Q581 542 638 542 Z M692 330 Q693 333 693 336.5 Q693 340 693 342 Q693 367 674.5 382 Q656 397 623 397 Q602 397 585.5 390 Q569 383 557 373 Q545 363 537.5 351.5 Q530 340 527 330 L692 330 Z " />
<glyph glyph-name="ccedilla" unicode="&#xe7;" horiz-adv-x="504" d="M367 -130 Q367 -160 352.5 -181 Q338 -202 315 -215 Q292 -228 262.5 -233.5 Q233 -239 203 -239 Q187 -239 168.5 -237 Q150 -235 131.5 -232 Q113 -229 96 -225 Q79 -221 67 -216 L108 -140 Q125 -148 149.5 -152 Q174 -156 193 -156 Q208 -156 220 -151.5 Q232 -147 232 -134 Q232 -123 222 -119 Q212 -115 198 -115 Q188 -115 176.5 -116.5 Q165 -118 155 -121 L119 -87 L198 -9 Q110 8 59.5 68 Q9 128 9 219 Q9 284 32.5 342.5 Q56 401 99 445.5 Q142 490 202 516 Q262 542 334 542 Q394 542 447 524.5 Q500 507 529 472 L402 333 Q395 343 377.5 352 Q360 361 335 361 Q284 361 254 328 Q224 295 224 249 Q224 219 244.5 195.5 Q265 172 309 172 Q334 172 354.5 181.5 Q375 191 386 202 L475 51 Q440 24 399 7.5 Q358 -9 305 -14 L263 -53 Q268 -52 271.5 -52 Q275 -52 280 -52 Q291 -52 306 -55.5 Q321 -59 334.5 -67.5 Q348 -76 357.5 -91 Q367 -106 367 -130 Z " />
<glyph glyph-name="egrave" unicode="&#xe8;" horiz-adv-x="622" d="M215 211 Q214 208 214 204 Q214 187 223 176.5 Q232 166 245 159.5 Q258 153 273 150.5 Q288 148 300 148 Q325 148 349 156.5 Q373 165 392 183 L543 79 Q491 26 424 5 Q357 -16 285 -16 Q229 -16 178.5 -1 Q128 14 90.5 44 Q53 74 31 118.5 Q9 163 9 223 Q9 290 33 348.5 Q57 407 100.5 450 Q144 493 204.5 517.5 Q265 542 338 542 Q396 542 442 525.5 Q488 509 520 478.5 Q552 448 569.5 404.5 Q587 361 587 307 Q587 285 583.5 259 Q580 233 573 211 L215 211 Z M392 330 Q393 333 393 336.5 Q393 340 393 342 Q393 367 374.5 382 Q356 397 323 397 Q302 397 285.5 390 Q269 383 257 373 Q245 363 237.5 351.5 Q230 340 227 330 L392 330 Z M343 728 L469 584 L304 584 L135 728 L343 728 Z " />
<glyph glyph-name="eacute" unicode="&#xe9;" horiz-adv-x="622" d="M215 211 Q214 208 214 204 Q214 187 223 176.5 Q232 166 245 159.5 Q258 153 273 150.5 Q288 148 300 148 Q325 148 349 156.5 Q373 165 392 183 L543 79 Q491 26 424 5 Q357 -16 285 -16 Q229 -16 178.5 -1 Q128 14 90.5 44 Q53 74 31 118.5 Q9 163 9 223 Q9 290 33 348.5 Q57 407 100.5 450 Q144 493 204.5 517.5 Q265 542 338 542 Q396 542 442 525.5 Q488 509 520 478.5 Q552 448 569.5 404.5 Q587 361 587 307 Q587 285 583.5 259 Q580 233 573 211 L215 211 Z M392 330 Q393 333 393 336.5 Q393 340 393 342 Q393 367 374.5 382 Q356 397 323 397 Q302 397 285.5 390 Q269 383 257 373 Q245 363 237.5 351.5 Q230 340 227 330 L392 330 Z M423 584 L258 584 L393 728 L601 728 L423 584 Z " />
<glyph glyph-name="ecircumflex" unicode="&#xea;" horiz-adv-x="622" d="M215 211 Q214 208 214 204 Q214 187 223 176.5 Q232 166 245 159.5 Q258 153 273 150.5 Q288 148 300 148 Q325 148 349 156.5 Q373 165 392 183 L543 79 Q491 26 424 5 Q357 -16 285 -16 Q229 -16 178.5 -1 Q128 14 90.5 44 Q53 74 31 118.5 Q9 163 9 223 Q9 290 33 348.5 Q57 407 100.5 450 Q144 493 204.5 517.5 Q265 542 338 542 Q396 542 442 525.5 Q488 509 520 478.5 Q552 448 569.5 404.5 Q587 361 587 307 Q587 285 583.5 259 Q580 233 573 211 L215 211 Z M392 330 Q393 333 393 336.5 Q393 340 393 342 Q393 367 374.5 382 Q356 397 323 397 Q302 397 285.5 390 Q269 383 257 373 Q245 363 237.5 351.5 Q230 340 227 330 L392 330 Z M429 584 L374 653 L295 584 L145 584 L306 728 L473 728 L581 584 L429 584 Z " />
<glyph glyph-name="edieresis" unicode="&#xeb;" horiz-adv-x="622" d="M215 211 Q214 208 214 204 Q214 187 223 176.5 Q232 166 245 159.5 Q258 153 273 150.5 Q288 148 300 148 Q325 148 349 156.5 Q373 165 392 183 L543 79 Q491 26 424 5 Q357 -16 285 -16 Q229 -16 178.5 -1 Q128 14 90.5 44 Q53 74 31 118.5 Q9 163 9 223 Q9 290 33 348.5 Q57 407 100.5 450 Q144 493 204.5 517.5 Q265 542 338 542 Q396 542 442 525.5 Q488 509 520 478.5 Q552 448 569.5 404.5 Q587 361 587 307 Q587 285 583.5 259 Q580 233 573 211 L215 211 Z M392 330 Q393 333 393 336.5 Q393 340 393 342 Q393 367 374.5 382 Q356 397 323 397 Q302 397 285.5 390 Q269 383 257 373 Q245 363 237.5 351.5 Q230 340 227 330 L392 330 Z M243 583 Q200 583 175 608 Q150 633 150 665 Q150 687 157.5 706.5 Q165 726 179.5 741 Q194 756 213.5 764.5 Q233 773 257 773 Q277 773 294 766 Q311 759 323 748 Q335 737 342 722 Q349 707 349 691 Q349 669 341.5 649.5 Q334 630 320 615 Q306 600 286.5 591.5 Q267 583 243 583 Z M494 583 Q451 583 426 608 Q401 633 401 665 Q401 687 408.5 706.5 Q416 726 430.5 741 Q445 756 464.5 764.5 Q484 773 508 773 Q528 773 545 766 Q562 759 574 748 Q586 737 593 722 Q600 707 600 691 Q600 669 592.5 649.5 Q585 630 571 615 Q557 600 537.5 591.5 Q518 583 494 583 Z " />
<glyph glyph-name="igrave" unicode="&#xec;" horiz-adv-x="335" d="M-5 0 L88 526 L312 526 L219 0 L-5 0 Z M187 728 L313 584 L148 584 L-21 728 L187 728 Z " />
<glyph glyph-name="iacute" unicode="&#xed;" horiz-adv-x="335" d="M-5 0 L88 526 L312 526 L219 0 L-5 0 Z M256 584 L91 584 L226 728 L434 728 L256 584 Z " />
<glyph glyph-name="icircumflex" unicode="&#xee;" horiz-adv-x="335" d="M-5 0 L88 526 L312 526 L219 0 L-5 0 Z M275 584 L220 653 L141 584 L-9 584 L152 728 L319 728 L427 584 L275 584 Z " />
<glyph glyph-name="idieresis" unicode="&#xef;" horiz-adv-x="335" d="M-5 0 L88 526 L312 526 L219 0 L-5 0 Z M89 583 Q46 583 21 608 Q-4 633 -4 665 Q-4 687 3.5 706.5 Q11 726 25.5 741 Q40 756 59.5 764.5 Q79 773 103 773 Q123 773 140 766 Q157 759 169 748 Q181 737 188 722 Q195 707 195 691 Q195 669 187.5 649.5 Q180 630 166 615 Q152 600 132.5 591.5 Q113 583 89 583 Z M340 583 Q297 583 272 608 Q247 633 247 665 Q247 687 254.5 706.5 Q262 726 276.5 741 Q291 756 310.5 764.5 Q330 773 354 773 Q374 773 391 766 Q408 759 420 748 Q432 737 439 722 Q446 707 446 691 Q446 669 438.5 649.5 Q431 630 417 615 Q403 600 383.5 591.5 Q364 583 340 583 Z " />
<glyph glyph-name="eth" unicode="&#xf0;" horiz-adv-x="660" d="M332 534 Q338 534 347 533.5 Q356 533 368 531 L370 532 Q359 547 348.5 559 Q338 571 327 581 L213 538 L119 627 L233 670 Q226 677 208 691.5 Q190 706 172 719 L377 813 Q400 793 415 778 Q430 763 442 748 L557 790 L662 696 L526 647 Q573 584 599 502.5 Q625 421 625 322 Q625 250 603 188 Q581 126 539 81 Q497 36 435.5 10 Q374 -16 295 -16 Q235 -16 183 -1 Q131 14 92 44 Q53 74 31 118 Q9 162 9 219 Q9 285 29 342.5 Q49 400 89 442.5 Q129 485 190 509.5 Q251 534 332 534 Z M407 283 Q407 315 387 337 Q367 359 328 359 Q305 359 286.5 349.5 Q268 340 254.5 324.5 Q241 309 234 288 Q227 267 227 244 Q227 211 247 189.5 Q267 168 305 168 Q329 168 348 177 Q367 186 380 202 Q393 218 400 238.5 Q407 259 407 283 Z " />
<glyph glyph-name="ntilde" unicode="&#xf1;" horiz-adv-x="661" d="M68 423 Q72 442 76.5 472 Q81 502 83 526 L299 526 Q298 511 296 491.5 Q294 472 292 458 L296 458 Q319 490 360.5 514 Q402 538 452 538 Q496 538 526.5 525 Q557 512 576.5 490.5 Q596 469 604.5 441 Q613 413 613 383 Q613 367 611.5 349.5 Q610 332 607 316 L552 0 L327 0 L376 279 Q378 288 378.5 297.5 Q379 307 379 313 Q379 333 368 345.5 Q357 358 333 358 Q310 358 292.5 337.5 Q275 317 268 278 L218 0 L-6 0 L68 423 Z M580 720 Q573 691 560 665.5 Q547 640 529 621 Q511 602 489 591.5 Q467 581 441 581 Q420 581 401.5 587 Q383 593 364 604 Q342 617 331 621.5 Q320 626 305 626 Q289 626 277.5 615.5 Q266 605 261 590 L182 590 Q189 618 201.5 642.5 Q214 667 231.5 685.5 Q249 704 271 714.5 Q293 725 319 725 Q342 725 359.5 718.5 Q377 712 397 701 Q419 690 431 685 Q443 680 459 680 Q475 680 484.5 690 Q494 700 502 720 L580 720 Z " />
<glyph glyph-name="ograve" unicode="&#xf2;" horiz-adv-x="660" d="M295 -16 Q235 -16 183 -1 Q131 14 92 44 Q53 74 31 118 Q9 162 9 219 Q9 285 31 344 Q53 403 94.5 447 Q136 491 196.5 516.5 Q257 542 335 542 Q396 542 449 527 Q502 512 541 482 Q580 452 602.5 408 Q625 364 625 307 Q625 241 603 182 Q581 123 539 79 Q497 35 435.5 9.5 Q374 -16 295 -16 Z M407 283 Q407 315 387 337 Q367 359 328 359 Q305 359 286.5 349.5 Q268 340 254.5 324.5 Q241 309 234 288 Q227 267 227 244 Q227 211 247 189.5 Q267 168 305 168 Q329 168 348 177 Q367 186 380 202 Q393 218 400 238.5 Q407 259 407 283 Z M336 728 L462 584 L297 584 L128 728 L336 728 Z " />
<glyph glyph-name="oacute" unicode="&#xf3;" horiz-adv-x="660" d="M295 -16 Q235 -16 183 -1 Q131 14 92 44 Q53 74 31 118 Q9 162 9 219 Q9 285 31 344 Q53 403 94.5 447 Q136 491 196.5 516.5 Q257 542 335 542 Q396 542 449 527 Q502 512 541 482 Q580 452 602.5 408 Q625 364 625 307 Q625 241 603 182 Q581 123 539 79 Q497 35 435.5 9.5 Q374 -16 295 -16 Z M407 283 Q407 315 387 337 Q367 359 328 359 Q305 359 286.5 349.5 Q268 340 254.5 324.5 Q241 309 234 288 Q227 267 227 244 Q227 211 247 189.5 Q267 168 305 168 Q329 168 348 177 Q367 186 380 202 Q393 218 400 238.5 Q407 259 407 283 Z M432 584 L267 584 L402 728 L610 728 L432 584 Z " />
<glyph glyph-name="ocircumflex" unicode="&#xf4;" horiz-adv-x="660" d="M295 -16 Q235 -16 183 -1 Q131 14 92 44 Q53 74 31 118 Q9 162 9 219 Q9 285 31 344 Q53 403 94.5 447 Q136 491 196.5 516.5 Q257 542 335 542 Q396 542 449 527 Q502 512 541 482 Q580 452 602.5 408 Q625 364 625 307 Q625 241 603 182 Q581 123 539 79 Q497 35 435.5 9.5 Q374 -16 295 -16 Z M407 283 Q407 315 387 337 Q367 359 328 359 Q305 359 286.5 349.5 Q268 340 254.5 324.5 Q241 309 234 288 Q227 267 227 244 Q227 211 247 189.5 Q267 168 305 168 Q329 168 348 177 Q367 186 380 202 Q393 218 400 238.5 Q407 259 407 283 Z M440 584 L385 653 L306 584 L156 584 L317 728 L484 728 L592 584 L440 584 Z " />
<glyph glyph-name="otilde" unicode="&#xf5;" horiz-adv-x="660" d="M295 -16 Q235 -16 183 -1 Q131 14 92 44 Q53 74 31 118 Q9 162 9 219 Q9 285 31 344 Q53 403 94.5 447 Q136 491 196.5 516.5 Q257 542 335 542 Q396 542 449 527 Q502 512 541 482 Q580 452 602.5 408 Q625 364 625 307 Q625 241 603 182 Q581 123 539 79 Q497 35 435.5 9.5 Q374 -16 295 -16 Z M407 283 Q407 315 387 337 Q367 359 328 359 Q305 359 286.5 349.5 Q268 340 254.5 324.5 Q241 309 234 288 Q227 267 227 244 Q227 211 247 189.5 Q267 168 305 168 Q329 168 348 177 Q367 186 380 202 Q393 218 400 238.5 Q407 259 407 283 Z M582 720 Q575 691 562 665.5 Q549 640 531 621 Q513 602 491 591.5 Q469 581 443 581 Q422 581 403.5 587 Q385 593 366 604 Q344 617 333 621.5 Q322 626 307 626 Q291 626 279.5 615.5 Q268 605 263 590 L184 590 Q191 618 203.5 642.5 Q216 667 233.5 685.5 Q251 704 273 714.5 Q295 725 321 725 Q344 725 361.5 718.5 Q379 712 399 701 Q421 690 433 685 Q445 680 461 680 Q477 680 486.5 690 Q496 700 504 720 L582 720 Z " />
<glyph glyph-name="odieresis" unicode="&#xf6;" horiz-adv-x="660" d="M295 -16 Q235 -16 183 -1 Q131 14 92 44 Q53 74 31 118 Q9 162 9 219 Q9 285 31 344 Q53 403 94.5 447 Q136 491 196.5 516.5 Q257 542 335 542 Q396 542 449 527 Q502 512 541 482 Q580 452 602.5 408 Q625 364 625 307 Q625 241 603 182 Q581 123 539 79 Q497 35 435.5 9.5 Q374 -16 295 -16 Z M407 283 Q407 315 387 337 Q367 359 328 359 Q305 359 286.5 349.5 Q268 340 254.5 324.5 Q241 309 234 288 Q227 267 227 244 Q227 211 247 189.5 Q267 168 305 168 Q329 168 348 177 Q367 186 380 202 Q393 218 400 238.5 Q407 259 407 283 Z M257 583 Q214 583 189 608 Q164 633 164 665 Q164 687 171.5 706.5 Q179 726 193.5 741 Q208 756 227.5 764.5 Q247 773 271 773 Q291 773 308 766 Q325 759 337 748 Q349 737 356 722 Q363 707 363 691 Q363 669 355.5 649.5 Q348 630 334 615 Q320 600 300.5 591.5 Q281 583 257 583 Z M508 583 Q465 583 440 608 Q415 633 415 665 Q415 687 422.5 706.5 Q430 726 444.5 741 Q459 756 478.5 764.5 Q498 773 522 773 Q542 773 559 766 Q576 759 588 748 Q600 737 607 722 Q614 707 614 691 Q614 669 606.5 649.5 Q599 630 585 615 Q571 600 551.5 591.5 Q532 583 508 583 Z " />
<glyph glyph-name="divide" unicode="&#xf7;" horiz-adv-x="666" d="M235 495 Q235 514 243 531 Q251 548 264.5 560.5 Q278 573 296 580.5 Q314 588 334 588 Q354 588 371.5 580.5 Q389 573 402.5 560.5 Q416 548 423.5 531 Q431 514 431 495 Q431 455 402.5 427.5 Q374 400 334 400 Q314 400 296 407.5 Q278 415 264.5 427.5 Q251 440 243 457.5 Q235 475 235 495 Z M235 111 Q235 130 243 147 Q251 164 264.5 176.5 Q278 189 296 196.5 Q314 204 334 204 Q354 204 371.5 196.5 Q389 189 402.5 176.5 Q416 164 423.5 147 Q431 130 431 111 Q431 92 423.5 74.5 Q416 57 402.5 44 Q389 31 371.5 23.5 Q354 16 334 16 Q314 16 296 23.5 Q278 31 264.5 44 Q251 57 243 74.5 Q235 92 235 111 Z M79 230 L79 377 L587 377 L587 230 L79 230 Z " />
<glyph glyph-name="oslash" unicode="&#xf8;" horiz-adv-x="660" d="M589 423 Q606 400 615.5 371 Q625 342 625 307 Q625 241 603 182 Q581 123 539 79 Q497 35 435.5 9.5 Q374 -16 295 -16 Q245 -16 201 -5.5 Q157 5 124 28 L30 -54 L-39 28 L48 100 Q28 123 18.5 157.5 Q9 192 9 223 Q9 286 31 343.5 Q53 401 94.5 445.5 Q136 490 196.5 516 Q257 542 335 542 Q444 542 512 497 L596 568 L666 487 L589 423 Z M413 268 Q413 271 412.5 276 Q412 281 411 283 L279 169 Q282 167 292 164.5 Q302 162 310 162 Q337 162 356 171.5 Q375 181 388 196 Q401 211 407 230 Q413 249 413 268 Z M222 263 Q222 260 222 255.5 Q222 251 223 249 L355 364 Q347 368 330 368 Q304 368 283.5 359 Q263 350 249.5 335 Q236 320 229 301 Q222 282 222 263 Z " />
<glyph glyph-name="ugrave" unicode="&#xf9;" horiz-adv-x="658" d="M562 103 Q558 84 553.5 54 Q549 24 547 0 L331 0 Q332 15 334 34.5 Q336 54 338 68 L334 68 Q311 36 269.5 12 Q228 -12 178 -12 Q134 -12 103.5 1 Q73 14 53.5 35.5 Q34 57 25.5 85 Q17 113 17 143 Q17 159 18.5 176.5 Q20 194 23 210 L78 526 L303 526 L254 247 Q252 238 251.5 228.5 Q251 219 251 213 Q251 193 262 180.5 Q273 168 297 168 Q320 168 337.5 188.5 Q355 209 362 248 L412 526 L636 526 L562 103 Z M330 728 L456 584 L291 584 L122 728 L330 728 Z " />
<glyph glyph-name="uacute" unicode="&#xfa;" horiz-adv-x="658" d="M562 103 Q558 84 553.5 54 Q549 24 547 0 L331 0 Q332 15 334 34.5 Q336 54 338 68 L334 68 Q311 36 269.5 12 Q228 -12 178 -12 Q134 -12 103.5 1 Q73 14 53.5 35.5 Q34 57 25.5 85 Q17 113 17 143 Q17 159 18.5 176.5 Q20 194 23 210 L78 526 L303 526 L254 247 Q252 238 251.5 228.5 Q251 219 251 213 Q251 193 262 180.5 Q273 168 297 168 Q320 168 337.5 188.5 Q355 209 362 248 L412 526 L636 526 L562 103 Z M440 584 L275 584 L410 728 L618 728 L440 584 Z " />
<glyph glyph-name="ucircumflex" unicode="&#xfb;" horiz-adv-x="658" d="M562 103 Q558 84 553.5 54 Q549 24 547 0 L331 0 Q332 15 334 34.5 Q336 54 338 68 L334 68 Q311 36 269.5 12 Q228 -12 178 -12 Q134 -12 103.5 1 Q73 14 53.5 35.5 Q34 57 25.5 85 Q17 113 17 143 Q17 159 18.5 176.5 Q20 194 23 210 L78 526 L303 526 L254 247 Q252 238 251.5 228.5 Q251 219 251 213 Q251 193 262 180.5 Q273 168 297 168 Q320 168 337.5 188.5 Q355 209 362 248 L412 526 L636 526 L562 103 Z M437 584 L382 653 L303 584 L153 584 L314 728 L481 728 L589 584 L437 584 Z " />
<glyph glyph-name="udieresis" unicode="&#xfc;" horiz-adv-x="658" d="M562 103 Q558 84 553.5 54 Q549 24 547 0 L331 0 Q332 15 334 34.5 Q336 54 338 68 L334 68 Q311 36 269.5 12 Q228 -12 178 -12 Q134 -12 103.5 1 Q73 14 53.5 35.5 Q34 57 25.5 85 Q17 113 17 143 Q17 159 18.5 176.5 Q20 194 23 210 L78 526 L303 526 L254 247 Q252 238 251.5 228.5 Q251 219 251 213 Q251 193 262 180.5 Q273 168 297 168 Q320 168 337.5 188.5 Q355 209 362 248 L412 526 L636 526 L562 103 Z M252 583 Q209 583 184 608 Q159 633 159 665 Q159 687 166.5 706.5 Q174 726 188.5 741 Q203 756 222.5 764.5 Q242 773 266 773 Q286 773 303 766 Q320 759 332 748 Q344 737 351 722 Q358 707 358 691 Q358 669 350.5 649.5 Q343 630 329 615 Q315 600 295.5 591.5 Q276 583 252 583 Z M503 583 Q460 583 435 608 Q410 633 410 665 Q410 687 417.5 706.5 Q425 726 439.5 741 Q454 756 473.5 764.5 Q493 773 517 773 Q537 773 554 766 Q571 759 583 748 Q595 737 602 722 Q609 707 609 691 Q609 669 601.5 649.5 Q594 630 580 615 Q566 600 546.5 591.5 Q527 583 503 583 Z " />
<glyph glyph-name="yacute" unicode="&#xfd;" horiz-adv-x="631" d="M150 7 L24 526 L272 526 L304 238 L308 238 L431 526 L671 526 L366 -32 Q339 -82 312.5 -120.5 Q286 -159 253 -185.5 Q220 -212 177.5 -226 Q135 -240 77 -240 Q41 -240 11 -235 Q-19 -230 -38 -224 L0 -47 Q12 -52 25 -55.5 Q38 -59 53 -59 Q90 -59 110.5 -43.5 Q131 -28 144 -4 L150 7 Z M434 584 L269 584 L404 728 L612 728 L434 584 Z " />
<glyph glyph-name="thorn" unicode="&#xfe;" horiz-adv-x="690" d="M437 283 Q437 315 416.5 337 Q396 359 357 359 Q334 359 315.5 349.5 Q297 340 283.5 324.5 Q270 309 262.5 288 Q255 267 255 244 Q255 211 275.5 189.5 Q296 168 334 168 Q358 168 377 177 Q396 186 409.5 202 Q423 218 430 238.5 Q437 259 437 283 Z M-49 -240 L127 756 L351 756 L303 480 L305 480 Q329 506 366.5 522 Q404 538 443 538 Q495 538 534.5 520.5 Q574 503 601 472.5 Q628 442 641.5 401 Q655 360 655 313 Q655 246 633 186.5 Q611 127 571.5 83 Q532 39 478.5 13 Q425 -13 362 -13 Q323 -13 284 1.5 Q245 16 226 42 L224 42 L173 -240 L-49 -240 Z " />
<glyph glyph-name="ydieresis" unicode="&#xff;" horiz-adv-x="631" d="M150 7 L24 526 L272 526 L304 238 L308 238 L431 526 L671 526 L366 -32 Q339 -82 312.5 -120.5 Q286 -159 253 -185.5 Q220 -212 177.5 -226 Q135 -240 77 -240 Q41 -240 11 -235 Q-19 -230 -38 -224 L0 -47 Q12 -52 25 -55.5 Q38 -59 53 -59 Q90 -59 110.5 -43.5 Q131 -28 144 -4 L150 7 Z M248 583 Q205 583 180 608 Q155 633 155 665 Q155 687 162.5 706.5 Q170 726 184.5 741 Q199 756 218.5 764.5 Q238 773 262 773 Q282 773 299 766 Q316 759 328 748 Q340 737 347 722 Q354 707 354 691 Q354 669 346.5 649.5 Q339 630 325 615 Q311 600 291.5 591.5 Q272 583 248 583 Z M499 583 Q456 583 431 608 Q406 633 406 665 Q406 687 413.5 706.5 Q421 726 435.5 741 Q450 756 469.5 764.5 Q489 773 513 773 Q533 773 550 766 Q567 759 579 748 Q591 737 598 722 Q605 707 605 691 Q605 669 597.5 649.5 Q590 630 576 615 Q562 600 542.5 591.5 Q523 583 499 583 Z " />
<glyph glyph-name="Amacron" unicode="&#x100;" horiz-adv-x="775" d="M480 0 L464 108 L234 108 L175 0 L-83 0 L352 708 L596 708 L720 0 L480 0 Z M424 467 L323 285 L445 285 L424 467 Z M302 791 L318 886 L676 886 L660 791 L302 791 Z " />
<glyph glyph-name="amacron" unicode="&#x101;" horiz-adv-x="588" d="M331 216 L318 216 Q293 216 271 213 Q249 210 232.5 203.5 Q216 197 206 186.5 Q196 176 196 160 Q196 137 210.5 130.5 Q225 124 242 124 Q275 124 298.5 145 Q322 166 328 199 L331 216 Z M504 81 Q500 59 498.5 36 Q497 13 497 0 L305 0 Q305 7 305.5 22.5 Q306 38 307 48 L305 48 Q276 15 239 0.5 Q202 -14 157 -14 Q129 -14 101 -6 Q73 2 50.5 18.5 Q28 35 14 61.5 Q0 88 0 125 Q0 186 27.5 225.5 Q55 265 101.5 288 Q148 311 209 320.5 Q270 330 337 330 Q338 334 338 336.5 Q338 339 338 341 Q338 361 320.5 371.5 Q303 382 275 382 Q243 382 213 369.5 Q183 357 158 336 L60 448 Q84 471 114.5 488.5 Q145 506 177 518 Q209 530 242 536 Q275 542 305 542 Q425 542 485.5 493.5 Q546 445 546 357 Q546 320 538 274 L504 81 Z M152 611 L168 706 L526 706 L510 611 L152 611 Z " />
<glyph glyph-name="Abreve" unicode="&#x102;" horiz-adv-x="775" d="M480 0 L464 108 L234 108 L175 0 L-83 0 L352 708 L596 708 L720 0 L480 0 Z M424 467 L323 285 L445 285 L424 467 Z M668 908 Q660 866 640.5 838 Q621 810 595 793.5 Q569 777 538 770.5 Q507 764 475 764 Q442 764 412.5 770.5 Q383 777 360 793.5 Q337 810 323.5 838 Q310 866 310 908 L417 908 Q417 884 437.5 875.5 Q458 867 479 867 Q492 867 506 869 Q520 871 531.5 875.5 Q543 880 551 888 Q559 896 561 908 L668 908 Z " />
<glyph glyph-name="abreve" unicode="&#x103;" horiz-adv-x="588" d="M331 216 L318 216 Q293 216 271 213 Q249 210 232.5 203.5 Q216 197 206 186.5 Q196 176 196 160 Q196 137 210.5 130.5 Q225 124 242 124 Q275 124 298.5 145 Q322 166 328 199 L331 216 Z M504 81 Q500 59 498.5 36 Q497 13 497 0 L305 0 Q305 7 305.5 22.5 Q306 38 307 48 L305 48 Q276 15 239 0.5 Q202 -14 157 -14 Q129 -14 101 -6 Q73 2 50.5 18.5 Q28 35 14 61.5 Q0 88 0 125 Q0 186 27.5 225.5 Q55 265 101.5 288 Q148 311 209 320.5 Q270 330 337 330 Q338 334 338 336.5 Q338 339 338 341 Q338 361 320.5 371.5 Q303 382 275 382 Q243 382 213 369.5 Q183 357 158 336 L60 448 Q84 471 114.5 488.5 Q145 506 177 518 Q209 530 242 536 Q275 542 305 542 Q425 542 485.5 493.5 Q546 445 546 357 Q546 320 538 274 L504 81 Z M520 728 Q512 686 492.5 658 Q473 630 447 613.5 Q421 597 390 590.5 Q359 584 327 584 Q294 584 264.5 590.5 Q235 597 212 613.5 Q189 630 175.5 658 Q162 686 162 728 L269 728 Q269 704 289.5 695.5 Q310 687 331 687 Q344 687 358 689 Q372 691 383.5 695.5 Q395 700 403 708 Q411 716 413 728 L520 728 Z " />
<glyph glyph-name="Aogonek" unicode="&#x104;" horiz-adv-x="775" d="M590 -196 Q560 -216 524.5 -227.5 Q489 -239 451 -239 Q431 -239 411 -235.5 Q391 -232 375.5 -222 Q360 -212 350.5 -195.5 Q341 -179 341 -152 Q341 -127 354.5 -105 Q368 -83 388 -64 Q408 -45 432.5 -29 Q457 -13 480 0 L464 108 L234 108 L175 0 L-83 0 L352 708 L596 708 L720 0 L611 0 Q543 -43 512 -69.5 Q481 -96 481 -116 Q481 -124 487.5 -128.5 Q494 -133 502 -133 Q529 -133 562 -115 L590 -196 Z M424 467 L323 285 L445 285 L424 467 Z " />
<glyph glyph-name="aogonek" unicode="&#x105;" horiz-adv-x="588" d="M415 -196 Q385 -216 349.5 -227.5 Q314 -239 276 -239 Q256 -239 236 -235.5 Q216 -232 200.5 -222 Q185 -212 175.5 -195.5 Q166 -179 166 -152 Q166 -127 179.5 -105 Q193 -83 213 -64 Q233 -45 257.5 -29 Q282 -13 305 0 Q305 8 305.5 23 Q306 38 307 48 L305 48 Q276 15 239 0.5 Q202 -14 157 -14 Q129 -14 101 -6 Q73 2 50.5 18.5 Q28 35 14 61.5 Q0 88 0 125 Q0 186 27.5 225.5 Q55 265 101.5 288 Q148 311 209 320.5 Q270 330 337 330 Q338 334 338 336.5 Q338 339 338 341 Q338 361 320.5 371.5 Q303 382 275 382 Q243 382 213 369.5 Q183 357 158 336 L60 448 Q84 471 114.5 488.5 Q145 506 177 518 Q209 530 242 536 Q275 542 305 542 Q425 542 485.5 493.5 Q546 445 546 357 Q546 320 538 274 L504 81 Q500 59 498.5 36 Q497 13 497 0 L436 0 Q368 -43 337 -69.5 Q306 -96 306 -116 Q306 -124 312.5 -128.5 Q319 -133 327 -133 Q354 -133 387 -115 L415 -196 Z M331 216 L318 216 Q293 216 271 213 Q249 210 232.5 203.5 Q216 197 206 186.5 Q196 176 196 160 Q196 137 210.5 130.5 Q225 124 242 124 Q275 124 298.5 145 Q322 166 328 199 L331 216 Z " />
<glyph glyph-name="Cacute" unicode="&#x106;" horiz-adv-x="686" d="M655 81 Q634 63 606.5 44.5 Q579 26 544 12 Q509 -2 465.5 -11 Q422 -20 369 -20 Q289 -20 226.5 2 Q164 24 120.5 65 Q77 106 54 164 Q31 222 31 293 Q31 384 62.5 463 Q94 542 151 601 Q208 660 286 694 Q364 728 457 728 Q549 728 619 699.5 Q689 671 726 629 L565 463 Q547 489 517.5 501.5 Q488 514 451 514 Q413 514 382 498.5 Q351 483 329 456.5 Q307 430 295 395 Q283 360 283 320 Q283 268 315.5 232 Q348 196 413 196 Q451 196 484 212 Q517 228 541 251 L655 81 Z M526 764 L361 764 L496 908 L704 908 L526 764 Z " />
<glyph glyph-name="cacute" unicode="&#x107;" horiz-adv-x="504" d="M402 333 Q395 343 377.5 352 Q360 361 335 361 Q284 361 254 328 Q224 295 224 249 Q224 219 244.5 195.5 Q265 172 309 172 Q334 172 354.5 181.5 Q375 191 386 202 L475 51 Q435 19 384.5 1.5 Q334 -16 268 -16 Q210 -16 162 0.5 Q114 17 80 48 Q46 79 27.5 122 Q9 165 9 219 Q9 284 32.5 342.5 Q56 401 99 445.5 Q142 490 202 516 Q262 542 334 542 Q394 542 447 524.5 Q500 507 529 472 L402 333 Z M414 584 L249 584 L384 728 L592 728 L414 584 Z " />
<glyph glyph-name="Ccircumflex" unicode="&#x108;" horiz-adv-x="686" d="M655 81 Q634 63 606.5 44.5 Q579 26 544 12 Q509 -2 465.5 -11 Q422 -20 369 -20 Q289 -20 226.5 2 Q164 24 120.5 65 Q77 106 54 164 Q31 222 31 293 Q31 384 62.5 463 Q94 542 151 601 Q208 660 286 694 Q364 728 457 728 Q549 728 619 699.5 Q689 671 726 629 L565 463 Q547 489 517.5 501.5 Q488 514 451 514 Q413 514 382 498.5 Q351 483 329 456.5 Q307 430 295 395 Q283 360 283 320 Q283 268 315.5 232 Q348 196 413 196 Q451 196 484 212 Q517 228 541 251 L655 81 Z M545 764 L490 833 L411 764 L261 764 L422 908 L589 908 L697 764 L545 764 Z " />
<glyph glyph-name="ccircumflex" unicode="&#x109;" horiz-adv-x="504" d="M402 333 Q395 343 377.5 352 Q360 361 335 361 Q284 361 254 328 Q224 295 224 249 Q224 219 244.5 195.5 Q265 172 309 172 Q334 172 354.5 181.5 Q375 191 386 202 L475 51 Q435 19 384.5 1.5 Q334 -16 268 -16 Q210 -16 162 0.5 Q114 17 80 48 Q46 79 27.5 122 Q9 165 9 219 Q9 284 32.5 342.5 Q56 401 99 445.5 Q142 490 202 516 Q262 542 334 542 Q394 542 447 524.5 Q500 507 529 472 L402 333 Z M419 584 L364 653 L285 584 L135 584 L296 728 L463 728 L571 584 L419 584 Z " />
<glyph glyph-name="Cdotaccent" unicode="&#x10a;" horiz-adv-x="686" d="M655 81 Q634 63 606.5 44.5 Q579 26 544 12 Q509 -2 465.5 -11 Q422 -20 369 -20 Q289 -20 226.5 2 Q164 24 120.5 65 Q77 106 54 164 Q31 222 31 293 Q31 384 62.5 463 Q94 542 151 601 Q208 660 286 694 Q364 728 457 728 Q549 728 619 699.5 Q689 671 726 629 L565 463 Q547 489 517.5 501.5 Q488 514 451 514 Q413 514 382 498.5 Q351 483 329 456.5 Q307 430 295 395 Q283 360 283 320 Q283 268 315.5 232 Q348 196 413 196 Q451 196 484 212 Q517 228 541 251 L655 81 Z M483 757 Q437 757 410 783.5 Q383 810 383 845 Q383 869 391 890 Q399 911 414 927 Q429 943 450 952 Q471 961 497 961 Q542 961 569 934.5 Q596 908 596 873 Q596 849 588 828 Q580 807 565 791 Q550 775 529 766 Q508 757 483 757 Z " />
<glyph glyph-name="cdotaccent" unicode="&#x10b;" horiz-adv-x="504" d="M402 333 Q395 343 377.5 352 Q360 361 335 361 Q284 361 254 328 Q224 295 224 249 Q224 219 244.5 195.5 Q265 172 309 172 Q334 172 354.5 181.5 Q375 191 386 202 L475 51 Q435 19 384.5 1.5 Q334 -16 268 -16 Q210 -16 162 0.5 Q114 17 80 48 Q46 79 27.5 122 Q9 165 9 219 Q9 284 32.5 342.5 Q56 401 99 445.5 Q142 490 202 516 Q262 542 334 542 Q394 542 447 524.5 Q500 507 529 472 L402 333 Z M349 577 Q303 577 276 603.5 Q249 630 249 665 Q249 689 257 710 Q265 731 280 747 Q295 763 316 772 Q337 781 363 781 Q408 781 435 754.5 Q462 728 462 693 Q462 669 454 648 Q446 627 431 611 Q416 595 395 586 Q374 577 349 577 Z " />
<glyph glyph-name="Ccaron" unicode="&#x10c;" horiz-adv-x="686" d="M655 81 Q634 63 606.5 44.5 Q579 26 544 12 Q509 -2 465.5 -11 Q422 -20 369 -20 Q289 -20 226.5 2 Q164 24 120.5 65 Q77 106 54 164 Q31 222 31 293 Q31 384 62.5 463 Q94 542 151 601 Q208 660 286 694 Q364 728 457 728 Q549 728 619 699.5 Q689 671 726 629 L565 463 Q547 489 517.5 501.5 Q488 514 451 514 Q413 514 382 498.5 Q351 483 329 456.5 Q307 430 295 395 Q283 360 283 320 Q283 268 315.5 232 Q348 196 413 196 Q451 196 484 212 Q517 228 541 251 L655 81 Z M558 764 L391 764 L280 908 L430 908 L485 838 L564 908 L716 908 L558 764 Z " />
<glyph glyph-name="ccaron" unicode="&#x10d;" horiz-adv-x="504" d="M402 333 Q395 343 377.5 352 Q360 361 335 361 Q284 361 254 328 Q224 295 224 249 Q224 219 244.5 195.5 Q265 172 309 172 Q334 172 354.5 181.5 Q375 191 386 202 L475 51 Q435 19 384.5 1.5 Q334 -16 268 -16 Q210 -16 162 0.5 Q114 17 80 48 Q46 79 27.5 122 Q9 165 9 219 Q9 284 32.5 342.5 Q56 401 99 445.5 Q142 490 202 516 Q262 542 334 542 Q394 542 447 524.5 Q500 507 529 472 L402 333 Z M422 584 L255 584 L144 728 L294 728 L349 658 L428 728 L580 728 L422 584 Z " />
<glyph glyph-name="Dcaron" unicode="&#x10e;" horiz-adv-x="787" d="M132 708 L425 708 Q485 708 545.5 691.5 Q606 675 654.5 639 Q703 603 734 545.5 Q765 488 765 406 Q765 313 732.5 237.5 Q700 162 642 109.5 Q584 57 505 28.5 Q426 0 333 0 L7 0 L132 708 Z M268 199 L343 199 Q388 199 422 214.5 Q456 230 479 255.5 Q502 281 513.5 313.5 Q525 346 525 381 Q525 408 517 432 Q509 456 492 473.5 Q475 491 448.5 501.5 Q422 512 386 512 L324 512 L268 199 Z M503 764 L336 764 L225 908 L375 908 L430 838 L509 908 L661 908 L503 764 Z " />
<glyph glyph-name="dcaron" unicode="&#x10f;" horiz-adv-x="690" d="M221 -13 Q169 -13 129.5 4.5 Q90 22 63 52.5 Q36 83 22.5 124 Q9 165 9 212 Q9 279 31 338.5 Q53 398 92 442 Q131 486 185 512 Q239 538 302 538 Q321 538 341 534 Q361 530 379 522.5 Q397 515 412 504 Q427 493 436 480 L438 480 L486 756 L709 756 L576 0 L375 0 L385 56 L383 56 Q360 26 318.5 6.5 Q277 -13 221 -13 Z M227 244 Q227 212 247.5 190 Q268 168 307 168 Q330 168 348.5 177 Q367 186 380.5 202 Q394 218 401.5 239 Q409 260 409 283 Q409 316 388.5 337.5 Q368 359 330 359 Q306 359 287 350 Q268 341 254.5 325 Q241 309 234 288.5 Q227 268 227 244 Z M847 526 L686 526 L793 708 L978 708 L847 526 Z " />
<glyph glyph-name="Dcroat" unicode="&#x110;" horiz-adv-x="787" d="M11 286 L36 428 L83 428 L132 708 L425 708 Q485 708 545.5 691.5 Q606 675 654.5 639 Q703 603 734 545.5 Q765 488 765 406 Q765 313 732.5 237.5 Q700 162 642 109.5 Q584 57 505 28.5 Q426 0 333 0 L7 0 L57 286 L11 286 Z M422 428 L397 286 L284 286 L268 199 L343 199 Q388 199 422 214.5 Q456 230 479 255.5 Q502 281 513.5 313.5 Q525 346 525 381 Q525 408 517 432 Q509 456 492 473.5 Q475 491 448.5 501.5 Q422 512 386 512 L324 512 L309 428 L422 428 Z " />
<glyph glyph-name="dcroat" unicode="&#x111;" horiz-adv-x="690" d="M367 680 L472 680 L486 756 L709 756 L695 680 L748 680 L728 570 L676 570 L576 0 L375 0 L385 56 L383 56 Q360 26 318.5 6.5 Q277 -13 221 -13 Q169 -13 129.5 4.5 Q90 22 63 52.5 Q36 83 22.5 124 Q9 165 9 212 Q9 279 31 338.5 Q53 398 92 442 Q131 486 185 512 Q239 538 302 538 Q321 538 341 534 Q361 530 379 522.5 Q397 515 412 504 Q427 493 436 480 L438 480 L453 570 L347 570 L367 680 Z M227 244 Q227 212 247.5 190 Q268 168 307 168 Q330 168 348.5 177 Q367 186 380.5 202 Q394 218 401.5 239 Q409 260 409 283 Q409 316 388.5 337.5 Q368 359 330 359 Q306 359 287 350 Q268 341 254.5 325 Q241 309 234 288.5 Q227 268 227 244 Z " />
<glyph glyph-name="Emacron" unicode="&#x112;" horiz-adv-x="592" d="M7 0 L132 708 L595 708 L561 515 L316 515 L304 447 L538 447 L506 267 L272 267 L259 193 L533 193 L499 0 L7 0 Z M189 791 L205 886 L563 886 L547 791 L189 791 Z " />
<glyph glyph-name="emacron" unicode="&#x113;" horiz-adv-x="622" d="M215 211 Q214 208 214 204 Q214 187 223 176.5 Q232 166 245 159.5 Q258 153 273 150.5 Q288 148 300 148 Q325 148 349 156.5 Q373 165 392 183 L543 79 Q491 26 424 5 Q357 -16 285 -16 Q229 -16 178.5 -1 Q128 14 90.5 44 Q53 74 31 118.5 Q9 163 9 223 Q9 290 33 348.5 Q57 407 100.5 450 Q144 493 204.5 517.5 Q265 542 338 542 Q396 542 442 525.5 Q488 509 520 478.5 Q552 448 569.5 404.5 Q587 361 587 307 Q587 285 583.5 259 Q580 233 573 211 L215 211 Z M392 330 Q393 333 393 336.5 Q393 340 393 342 Q393 367 374.5 382 Q356 397 323 397 Q302 397 285.5 390 Q269 383 257 373 Q245 363 237.5 351.5 Q230 340 227 330 L392 330 Z M189 611 L205 706 L563 706 L547 611 L189 611 Z " />
<glyph glyph-name="Ebreve" unicode="&#x114;" horiz-adv-x="592" d="M7 0 L132 708 L595 708 L561 515 L316 515 L304 447 L538 447 L506 267 L272 267 L259 193 L533 193 L499 0 L7 0 Z M565 908 Q557 866 537.5 838 Q518 810 492 793.5 Q466 777 435 770.5 Q404 764 372 764 Q339 764 309.5 770.5 Q280 777 257 793.5 Q234 810 220.5 838 Q207 866 207 908 L314 908 Q314 884 334.5 875.5 Q355 867 376 867 Q389 867 403 869 Q417 871 428.5 875.5 Q440 880 448 888 Q456 896 458 908 L565 908 Z " />
<glyph glyph-name="ebreve" unicode="&#x115;" horiz-adv-x="622" d="M215 211 Q214 208 214 204 Q214 187 223 176.5 Q232 166 245 159.5 Q258 153 273 150.5 Q288 148 300 148 Q325 148 349 156.5 Q373 165 392 183 L543 79 Q491 26 424 5 Q357 -16 285 -16 Q229 -16 178.5 -1 Q128 14 90.5 44 Q53 74 31 118.5 Q9 163 9 223 Q9 290 33 348.5 Q57 407 100.5 450 Q144 493 204.5 517.5 Q265 542 338 542 Q396 542 442 525.5 Q488 509 520 478.5 Q552 448 569.5 404.5 Q587 361 587 307 Q587 285 583.5 259 Q580 233 573 211 L215 211 Z M392 330 Q393 333 393 336.5 Q393 340 393 342 Q393 367 374.5 382 Q356 397 323 397 Q302 397 285.5 390 Q269 383 257 373 Q245 363 237.5 351.5 Q230 340 227 330 L392 330 Z M561 728 Q553 686 533.5 658 Q514 630 488 613.5 Q462 597 431 590.5 Q400 584 368 584 Q335 584 305.5 590.5 Q276 597 253 613.5 Q230 630 216.5 658 Q203 686 203 728 L310 728 Q310 704 330.5 695.5 Q351 687 372 687 Q385 687 399 689 Q413 691 424.5 695.5 Q436 700 444 708 Q452 716 454 728 L561 728 Z " />
<glyph glyph-name="Edotaccent" unicode="&#x116;" horiz-adv-x="592" d="M7 0 L132 708 L595 708 L561 515 L316 515 L304 447 L538 447 L506 267 L272 267 L259 193 L533 193 L499 0 L7 0 Z M376 757 Q330 757 303 783.5 Q276 810 276 845 Q276 869 284 890 Q292 911 307 927 Q322 943 343 952 Q364 961 390 961 Q435 961 462 934.5 Q489 908 489 873 Q489 849 481 828 Q473 807 458 791 Q443 775 422 766 Q401 757 376 757 Z " />
<glyph glyph-name="edotaccent" unicode="&#x117;" horiz-adv-x="622" d="M215 211 Q214 208 214 204 Q214 187 223 176.5 Q232 166 245 159.5 Q258 153 273 150.5 Q288 148 300 148 Q325 148 349 156.5 Q373 165 392 183 L543 79 Q491 26 424 5 Q357 -16 285 -16 Q229 -16 178.5 -1 Q128 14 90.5 44 Q53 74 31 118.5 Q9 163 9 223 Q9 290 33 348.5 Q57 407 100.5 450 Q144 493 204.5 517.5 Q265 542 338 542 Q396 542 442 525.5 Q488 509 520 478.5 Q552 448 569.5 404.5 Q587 361 587 307 Q587 285 583.5 259 Q580 233 573 211 L215 211 Z M392 330 Q393 333 393 336.5 Q393 340 393 342 Q393 367 374.5 382 Q356 397 323 397 Q302 397 285.5 390 Q269 383 257 373 Q245 363 237.5 351.5 Q230 340 227 330 L392 330 Z M368 577 Q322 577 295 603.5 Q268 630 268 665 Q268 689 276 710 Q284 731 299 747 Q314 763 335 772 Q356 781 382 781 Q427 781 454 754.5 Q481 728 481 693 Q481 669 473 648 Q465 627 450 611 Q435 595 414 586 Q393 577 368 577 Z " />
<glyph glyph-name="Eogonek" unicode="&#x118;" horiz-adv-x="592" d="M432 -196 Q402 -216 366.5 -227.5 Q331 -239 293 -239 Q273 -239 253 -235.5 Q233 -232 217.5 -222 Q202 -212 192.5 -195.5 Q183 -179 183 -152 Q183 -127 196 -105 Q209 -83 229.5 -64 Q250 -45 274 -29 Q298 -13 321 0 L7 0 L132 708 L595 708 L561 515 L316 515 L304 447 L538 447 L506 267 L272 267 L259 193 L533 193 L499 0 L453 0 Q385 -43 354 -69.5 Q323 -96 323 -116 Q323 -124 329.5 -128.5 Q336 -133 344 -133 Q371 -133 404 -115 L432 -196 L432 -196 Z " />
<glyph glyph-name="eogonek" unicode="&#x119;" horiz-adv-x="622" d="M361 -196 Q331 -216 295.5 -227.5 Q260 -239 222 -239 Q202 -239 182 -235.5 Q162 -232 146.5 -222 Q131 -212 121.5 -195.5 Q112 -179 112 -152 Q112 -130 122.5 -110.5 Q133 -91 149.5 -73.5 Q166 -56 187 -40.5 Q208 -25 229 -12 Q182 -6 142 12 Q102 30 72.5 59.5 Q43 89 26 130 Q9 171 9 223 Q9 290 33 348.5 Q57 407 100.5 450 Q144 493 204.5 517.5 Q265 542 338 542 Q396 542 442 525.5 Q488 509 520 478.5 Q552 448 569.5 404.5 Q587 361 587 307 Q587 285 583.5 259 Q580 233 573 211 L215 211 Q214 208 214 204 Q214 187 223 176.5 Q232 166 245 159.5 Q258 153 273 150.5 Q288 148 300 148 Q325 148 349 156.5 Q373 165 392 183 L543 79 Q506 41 461.5 20 Q417 -1 368 -9 Q308 -48 280 -72.5 Q252 -97 252 -116 Q252 -124 258.5 -128.5 Q265 -133 273 -133 Q300 -133 333 -115 L361 -196 Z M392 330 Q393 333 393 336.5 Q393 340 393 342 Q393 367 374.5 382 Q356 397 323 397 Q302 397 285.5 390 Q269 383 257 373 Q245 363 237.5 351.5 Q230 340 227 330 L392 330 Z " />
<glyph glyph-name="Ecaron" unicode="&#x11a;" horiz-adv-x="592" d="M7 0 L132 708 L595 708 L561 515 L316 515 L304 447 L538 447 L506 267 L272 267 L259 193 L533 193 L499 0 L7 0 Z M450 764 L283 764 L172 908 L322 908 L377 838 L456 908 L608 908 L450 764 Z " />
<glyph glyph-name="ecaron" unicode="&#x11b;" horiz-adv-x="622" d="M215 211 Q214 208 214 204 Q214 187 223 176.5 Q232 166 245 159.5 Q258 153 273 150.5 Q288 148 300 148 Q325 148 349 156.5 Q373 165 392 183 L543 79 Q491 26 424 5 Q357 -16 285 -16 Q229 -16 178.5 -1 Q128 14 90.5 44 Q53 74 31 118.5 Q9 163 9 223 Q9 290 33 348.5 Q57 407 100.5 450 Q144 493 204.5 517.5 Q265 542 338 542 Q396 542 442 525.5 Q488 509 520 478.5 Q552 448 569.5 404.5 Q587 361 587 307 Q587 285 583.5 259 Q580 233 573 211 L215 211 Z M392 330 Q393 333 393 336.5 Q393 340 393 342 Q393 367 374.5 382 Q356 397 323 397 Q302 397 285.5 390 Q269 383 257 373 Q245 363 237.5 351.5 Q230 340 227 330 L392 330 Z M443 584 L276 584 L165 728 L315 728 L370 658 L449 728 L601 728 L443 584 Z " />
<glyph glyph-name="Gcircumflex" unicode="&#x11c;" horiz-adv-x="763" d="M570 465 Q553 491 524.5 507 Q496 523 451 523 Q416 523 383.5 508.5 Q351 494 326.5 467.5 Q302 441 287 403 Q272 365 272 317 Q272 258 306 219.5 Q340 181 414 181 Q431 181 448.5 184 Q466 187 477 192 L488 254 L372 254 L404 436 L725 436 L657 50 Q602 21 532.5 0.5 Q463 -20 385 -20 Q305 -20 240 0.5 Q175 21 128.5 61 Q82 101 56.5 159.5 Q31 218 31 293 Q31 384 62 463 Q93 542 148.5 601 Q204 660 281.5 694 Q359 728 452 728 Q544 728 616 701.5 Q688 675 726 629 L570 465 Z M548 764 L493 833 L414 764 L264 764 L425 908 L592 908 L700 764 L548 764 Z " />
<glyph glyph-name="gcircumflex" unicode="&#x11d;" horiz-adv-x="693" d="M230 0 Q175 0 133.5 16 Q92 32 64.5 60.5 Q37 89 23 128 Q9 167 9 213 Q9 280 30.5 339 Q52 398 90.5 442.5 Q129 487 183 512.5 Q237 538 302 538 Q340 538 380.5 521.5 Q421 505 445 469 L448 469 L457 526 L668 526 L585 53 Q557 -102 471 -171 Q385 -240 237 -240 Q200 -240 161.5 -235 Q123 -230 87 -219.5 Q51 -209 19.5 -193.5 Q-12 -178 -36 -158 L70 -4 Q102 -35 147 -51 Q192 -67 230 -67 Q264 -67 287.5 -59 Q311 -51 327 -37.5 Q343 -24 351.5 -6.5 Q360 11 363 31 L368 57 L365 57 Q357 48 344 38 Q331 28 314 19.5 Q297 11 275.5 5.5 Q254 0 230 0 Z M224 242 Q224 230 227.5 216 Q231 202 240 191 Q249 180 265 172.5 Q281 165 305 165 Q329 165 348.5 175.5 Q368 186 381.5 202.5 Q395 219 402.5 240.5 Q410 262 410 285 Q410 320 388.5 340 Q367 360 330 360 Q304 360 284.5 349.5 Q265 339 251.5 322 Q238 305 231 284 Q224 263 224 242 Z M454 584 L399 653 L320 584 L170 584 L331 728 L498 728 L606 584 L454 584 Z " />
<glyph glyph-name="Gbreve" unicode="&#x11e;" horiz-adv-x="763" d="M570 465 Q553 491 524.5 507 Q496 523 451 523 Q416 523 383.5 508.5 Q351 494 326.5 467.5 Q302 441 287 403 Q272 365 272 317 Q272 258 306 219.5 Q340 181 414 181 Q431 181 448.5 184 Q466 187 477 192 L488 254 L372 254 L404 436 L725 436 L657 50 Q602 21 532.5 0.5 Q463 -20 385 -20 Q305 -20 240 0.5 Q175 21 128.5 61 Q82 101 56.5 159.5 Q31 218 31 293 Q31 384 62 463 Q93 542 148.5 601 Q204 660 281.5 694 Q359 728 452 728 Q544 728 616 701.5 Q688 675 726 629 L570 465 Z M672 908 Q664 866 644.5 838 Q625 810 599 793.5 Q573 777 542 770.5 Q511 764 479 764 Q446 764 416.5 770.5 Q387 777 364 793.5 Q341 810 327.5 838 Q314 866 314 908 L421 908 Q421 884 441.5 875.5 Q462 867 483 867 Q496 867 510 869 Q524 871 535.5 875.5 Q547 880 555 888 Q563 896 565 908 L672 908 Z " />
<glyph glyph-name="gbreve" unicode="&#x11f;" horiz-adv-x="693" d="M230 0 Q175 0 133.5 16 Q92 32 64.5 60.5 Q37 89 23 128 Q9 167 9 213 Q9 280 30.5 339 Q52 398 90.5 442.5 Q129 487 183 512.5 Q237 538 302 538 Q340 538 380.5 521.5 Q421 505 445 469 L448 469 L457 526 L668 526 L585 53 Q557 -102 471 -171 Q385 -240 237 -240 Q200 -240 161.5 -235 Q123 -230 87 -219.5 Q51 -209 19.5 -193.5 Q-12 -178 -36 -158 L70 -4 Q102 -35 147 -51 Q192 -67 230 -67 Q264 -67 287.5 -59 Q311 -51 327 -37.5 Q343 -24 351.5 -6.5 Q360 11 363 31 L368 57 L365 57 Q357 48 344 38 Q331 28 314 19.5 Q297 11 275.5 5.5 Q254 0 230 0 Z M224 242 Q224 230 227.5 216 Q231 202 240 191 Q249 180 265 172.5 Q281 165 305 165 Q329 165 348.5 175.5 Q368 186 381.5 202.5 Q395 219 402.5 240.5 Q410 262 410 285 Q410 320 388.5 340 Q367 360 330 360 Q304 360 284.5 349.5 Q265 339 251.5 322 Q238 305 231 284 Q224 263 224 242 Z M591 728 Q583 686 563.5 658 Q544 630 518 613.5 Q492 597 461 590.5 Q430 584 398 584 Q365 584 335.5 590.5 Q306 597 283 613.5 Q260 630 246.5 658 Q233 686 233 728 L340 728 Q340 704 360.5 695.5 Q381 687 402 687 Q415 687 429 689 Q443 691 454.5 695.5 Q466 700 474 708 Q482 716 484 728 L591 728 Z " />
<glyph glyph-name="Gdotaccent" unicode="&#x120;" horiz-adv-x="763" d="M570 465 Q553 491 524.5 507 Q496 523 451 523 Q416 523 383.5 508.5 Q351 494 326.5 467.5 Q302 441 287 403 Q272 365 272 317 Q272 258 306 219.5 Q340 181 414 181 Q431 181 448.5 184 Q466 187 477 192 L488 254 L372 254 L404 436 L725 436 L657 50 Q602 21 532.5 0.5 Q463 -20 385 -20 Q305 -20 240 0.5 Q175 21 128.5 61 Q82 101 56.5 159.5 Q31 218 31 293 Q31 384 62 463 Q93 542 148.5 601 Q204 660 281.5 694 Q359 728 452 728 Q544 728 616 701.5 Q688 675 726 629 L570 465 Z M482 757 Q436 757 409 783.5 Q382 810 382 845 Q382 869 390 890 Q398 911 413 927 Q428 943 449 952 Q470 961 496 961 Q541 961 568 934.5 Q595 908 595 873 Q595 849 587 828 Q579 807 564 791 Q549 775 528 766 Q507 757 482 757 Z " />
<glyph glyph-name="gdotaccent" unicode="&#x121;" horiz-adv-x="693" d="M230 0 Q175 0 133.5 16 Q92 32 64.5 60.5 Q37 89 23 128 Q9 167 9 213 Q9 280 30.5 339 Q52 398 90.5 442.5 Q129 487 183 512.5 Q237 538 302 538 Q340 538 380.5 521.5 Q421 505 445 469 L448 469 L457 526 L668 526 L585 53 Q557 -102 471 -171 Q385 -240 237 -240 Q200 -240 161.5 -235 Q123 -230 87 -219.5 Q51 -209 19.5 -193.5 Q-12 -178 -36 -158 L70 -4 Q102 -35 147 -51 Q192 -67 230 -67 Q264 -67 287.5 -59 Q311 -51 327 -37.5 Q343 -24 351.5 -6.5 Q360 11 363 31 L368 57 L365 57 Q357 48 344 38 Q331 28 314 19.5 Q297 11 275.5 5.5 Q254 0 230 0 Z M224 242 Q224 230 227.5 216 Q231 202 240 191 Q249 180 265 172.5 Q281 165 305 165 Q329 165 348.5 175.5 Q368 186 381.5 202.5 Q395 219 402.5 240.5 Q410 262 410 285 Q410 320 388.5 340 Q367 360 330 360 Q304 360 284.5 349.5 Q265 339 251.5 322 Q238 305 231 284 Q224 263 224 242 Z M390 577 Q344 577 317 603.5 Q290 630 290 665 Q290 689 298 710 Q306 731 321 747 Q336 763 357 772 Q378 781 404 781 Q449 781 476 754.5 Q503 728 503 693 Q503 669 495 648 Q487 627 472 611 Q457 595 436 586 Q415 577 390 577 Z " />
<glyph glyph-name="Gcommaaccent" unicode="&#x122;" horiz-adv-x="763" d="M570 465 Q553 491 524.5 507 Q496 523 451 523 Q416 523 383.5 508.5 Q351 494 326.5 467.5 Q302 441 287 403 Q272 365 272 317 Q272 258 306 219.5 Q340 181 414 181 Q431 181 448.5 184 Q466 187 477 192 L488 254 L372 254 L404 436 L725 436 L657 50 Q602 21 532.5 0.5 Q463 -20 385 -20 Q305 -20 240 0.5 Q175 21 128.5 61 Q82 101 56.5 159.5 Q31 218 31 293 Q31 384 62 463 Q93 542 148.5 601 Q204 660 281.5 694 Q359 728 452 728 Q544 728 616 701.5 Q688 675 726 629 L570 465 Z M314 -240 L153 -240 L266 -45 L451 -45 L314 -240 Z " />
<glyph glyph-name="gcommaaccent" unicode="&#x123;" horiz-adv-x="693" d="M230 0 Q175 0 133.5 16 Q92 32 64.5 60.5 Q37 89 23 128 Q9 167 9 213 Q9 280 30.5 339 Q52 398 90.5 442.5 Q129 487 183 512.5 Q237 538 302 538 Q340 538 380.5 521.5 Q421 505 445 469 L448 469 L457 526 L668 526 L585 53 Q557 -102 471 -171 Q385 -240 237 -240 Q200 -240 161.5 -235 Q123 -230 87 -219.5 Q51 -209 19.5 -193.5 Q-12 -178 -36 -158 L70 -4 Q102 -35 147 -51 Q192 -67 230 -67 Q264 -67 287.5 -59 Q311 -51 327 -37.5 Q343 -24 351.5 -6.5 Q360 11 363 31 L368 57 L365 57 Q357 48 344 38 Q331 28 314 19.5 Q297 11 275.5 5.5 Q254 0 230 0 Z M224 242 Q224 230 227.5 216 Q231 202 240 191 Q249 180 265 172.5 Q281 165 305 165 Q329 165 348.5 175.5 Q368 186 381.5 202.5 Q395 219 402.5 240.5 Q410 262 410 285 Q410 320 388.5 340 Q367 360 330 360 Q304 360 284.5 349.5 Q265 339 251.5 322 Q238 305 231 284 Q224 263 224 242 Z M390 779 L551 779 L438 584 L253 584 L390 779 Z " />
<glyph glyph-name="Hcircumflex" unicode="&#x124;" horiz-adv-x="798" d="M440 0 L488 272 L286 272 L238 0 L7 0 L132 708 L362 708 L319 465 L521 465 L564 708 L796 708 L671 0 L440 0 Z M540 764 L485 833 L406 764 L256 764 L417 908 L584 908 L692 764 L540 764 Z " />
<glyph glyph-name="hcircumflex" unicode="&#x125;" horiz-adv-x="661" d="M327 0 L376 279 Q378 288 378.5 297.5 Q379 307 379 313 Q379 333 368 345.5 Q357 358 333 358 Q310 358 292.5 337.5 Q275 317 268 278 L219 0 L-6 0 L127 756 L352 756 L301 465 L303 465 Q327 494 366.5 516 Q406 538 452 538 Q496 538 526.5 525 Q557 512 576.5 490.5 Q596 469 604.5 441 Q613 413 613 383 Q613 367 611.5 349.5 Q610 332 607 316 L552 0 L327 0 Z M482 796 L427 865 L348 796 L198 796 L359 940 L526 940 L634 796 L482 796 Z " />
<glyph glyph-name="Hbar" unicode="&#x126;" horiz-adv-x="798" d="M440 0 L488 272 L286 272 L238 0 L7 0 L132 708 L362 708 L348 630 L550 630 L564 708 L796 708 L671 0 L440 0 Z M521 465 L530 520 L328 520 L319 465 L521 465 Z " />
<glyph glyph-name="hbar" unicode="&#x127;" horiz-adv-x="661" d="M65 680 L113 680 L127 756 L352 756 L338 680 L446 680 L426 570 L319 570 L301 465 L303 465 Q327 494 366.5 516 Q406 538 452 538 Q496 538 526.5 525 Q557 512 576.5 490.5 Q596 469 604.5 441 Q613 413 613 383 Q613 367 611.5 349.5 Q610 332 607 316 L552 0 L327 0 L376 279 Q378 288 378.5 297.5 Q379 307 379 313 Q379 333 368 345.5 Q357 358 333 358 Q310 358 292.5 337.5 Q275 317 268 278 L219 0 L-6 0 L94 570 L45 570 L65 680 Z " />
<glyph glyph-name="Itilde" unicode="&#x128;" horiz-adv-x="367" d="M7 0 L132 708 L365 708 L240 0 L7 0 Z M460 900 Q453 871 440 845.5 Q427 820 409 801 Q391 782 369 771.5 Q347 761 321 761 Q300 761 281.5 767 Q263 773 244 784 Q222 797 211 801.5 Q200 806 185 806 Q169 806 157.5 795.5 Q146 785 141 770 L62 770 Q69 798 81.5 822.5 Q94 847 111.5 865.5 Q129 884 151 894.5 Q173 905 199 905 Q222 905 239.5 898.5 Q257 892 277 881 Q299 870 311 865 Q323 860 339 860 Q355 860 364.5 870 Q374 880 382 900 L460 900 Z " />
<glyph glyph-name="itilde" unicode="&#x129;" horiz-adv-x="335" d="M-5 0 L88 526 L312 526 L219 0 L-5 0 Z M414 720 Q407 691 394 665.5 Q381 640 363 621 Q345 602 323 591.5 Q301 581 275 581 Q254 581 235.5 587 Q217 593 198 604 Q176 617 165 621.5 Q154 626 139 626 Q123 626 111.5 615.5 Q100 605 95 590 L16 590 Q23 618 35.5 642.5 Q48 667 65.5 685.5 Q83 704 105 714.5 Q127 725 153 725 Q176 725 193.5 718.5 Q211 712 231 701 Q253 690 265 685 Q277 680 293 680 Q309 680 318.5 690 Q328 700 336 720 L414 720 Z " />
<glyph glyph-name="Imacron" unicode="&#x12a;" horiz-adv-x="367" d="M7 0 L132 708 L365 708 L240 0 L7 0 Z M79 791 L95 886 L453 886 L437 791 L79 791 Z " />
<glyph glyph-name="imacron" unicode="&#x12b;" horiz-adv-x="335" d="M-5 0 L88 526 L312 526 L219 0 L-5 0 Z M29 611 L45 706 L403 706 L387 611 L29 611 Z " />
<glyph glyph-name="Iogonek" unicode="&#x12e;" horiz-adv-x="367" d="M214 -196 Q184 -216 148.5 -227.5 Q113 -239 75 -239 Q55 -239 35 -235.5 Q15 -232 -0.5 -222 Q-16 -212 -25.5 -195.5 Q-35 -179 -35 -152 Q-35 -127 -22 -105 Q-9 -83 11.5 -64 Q32 -45 56 -29 Q80 -13 103 0 L7 0 L132 708 L365 708 L240 0 L235 0 Q167 -43 136 -69.5 Q105 -96 105 -116 Q105 -124 111.5 -128.5 Q118 -133 126 -133 Q153 -133 186 -115 L214 -196 L214 -196 Z " />
<glyph glyph-name="iogonek" unicode="&#x12f;" horiz-adv-x="335" d="M195 -196 Q165 -216 129.5 -227.5 Q94 -239 56 -239 Q36 -239 16 -235.5 Q-4 -232 -19.5 -222 Q-35 -212 -44.5 -195.5 Q-54 -179 -54 -152 Q-54 -127 -41 -105 Q-28 -83 -7.5 -64 Q13 -45 37 -29 Q61 -13 84 0 L-5 0 L88 526 L312 526 L219 0 L216 0 Q148 -43 117 -69.5 Q86 -96 86 -116 Q86 -124 92.5 -128.5 Q99 -133 107 -133 Q134 -133 167 -115 L195 -196 Z M213 565 Q187 565 166.5 573 Q146 581 132 594.5 Q118 608 110 625.5 Q102 643 102 662 Q102 689 111 712.5 Q120 736 137 753.5 Q154 771 177 781 Q200 791 229 791 Q253 791 273.5 783 Q294 775 308.5 761.5 Q323 748 331 730.5 Q339 713 339 694 Q339 667 330 643.5 Q321 620 304.5 602.5 Q288 585 264.5 575 Q241 565 213 565 Z " />
<glyph glyph-name="Idotaccent" unicode="&#x130;" horiz-adv-x="367" d="M7 0 L132 708 L365 708 L240 0 L7 0 Z M258 757 Q212 757 185 783.5 Q158 810 158 845 Q158 869 166 890 Q174 911 189 927 Q204 943 225 952 Q246 961 272 961 Q317 961 344 934.5 Q371 908 371 873 Q371 849 363 828 Q355 807 340 791 Q325 775 304 766 Q283 757 258 757 Z " />
<glyph glyph-name="dotlessi" unicode="&#x131;" horiz-adv-x="335" d="M-5 0 L88 526 L312 526 L219 0 L-5 0 Z " />
<glyph glyph-name="IJ" unicode="&#x132;" horiz-adv-x="929" d="M7 0 L132 708 L365 708 L240 0 L7 0 Z M856 255 Q848 208 832.5 159.5 Q817 111 786.5 71 Q756 31 704.5 5.5 Q653 -20 573 -20 Q474 -20 409 27 Q344 74 319 159 L531 234 Q534 217 545 204 Q556 191 576 191 Q599 191 609 208 Q619 225 624 251 L705 708 L937 708 L856 255 Z " />
<glyph glyph-name="ij" unicode="&#x133;" horiz-adv-x="663" d="M-5 0 L88 526 L312 526 L219 0 L-5 0 Z M213 565 Q187 565 166.5 573 Q146 581 132 594.5 Q118 608 110 625.5 Q102 643 102 662 Q102 689 111 712.5 Q120 736 137 753.5 Q154 771 177 781 Q200 791 229 791 Q253 791 273.5 783 Q294 775 308.5 761.5 Q323 748 331 730.5 Q339 713 339 694 Q339 667 330 643.5 Q321 620 304.5 602.5 Q288 585 264.5 575 Q241 565 213 565 Z M549 1 Q540 -49 523.5 -94 Q507 -139 476.5 -173.5 Q446 -208 398 -228.5 Q350 -249 278 -249 Q258 -249 231.5 -246 Q205 -243 186 -237 L224 -55 Q235 -58 244 -59 Q253 -60 260 -60 Q287 -60 303.5 -44 Q320 -28 326 7 L418 526 L642 526 L549 1 Z M542 565 Q516 565 495.5 573 Q475 581 461 594.5 Q447 608 439 625.5 Q431 643 431 662 Q431 689 440 712.5 Q449 736 466 753.5 Q483 771 506 781 Q529 791 558 791 Q582 791 602.5 783 Q623 775 637.5 761.5 Q652 748 660 730.5 Q668 713 668 694 Q668 667 659 643.5 Q650 620 633.5 602.5 Q617 585 593.5 575 Q570 565 542 565 Z " />
<glyph glyph-name="Jcircumflex" unicode="&#x134;" horiz-adv-x="562" d="M489 255 Q481 208 465.5 159.5 Q450 111 419.5 71 Q389 31 337.5 5.5 Q286 -20 206 -20 Q107 -20 42 27 Q-23 74 -48 159 L164 234 Q167 217 178 204 Q189 191 209 191 Q232 191 242 208 Q252 225 257 251 L338 708 L570 708 L489 255 Z M525 758 L470 827 L391 758 L241 758 L402 902 L569 902 L677 758 L525 758 Z " />
<glyph glyph-name="jcircumflex" unicode="&#x135;" horiz-adv-x="341" d="M227 1 Q218 -49 201.5 -94 Q185 -139 154.5 -173.5 Q124 -208 76 -228.5 Q28 -249 -44 -249 Q-64 -249 -90.5 -246 Q-117 -243 -136 -237 L-98 -55 Q-87 -58 -78 -59 Q-69 -60 -62 -60 Q-35 -60 -18.5 -44 Q-2 -28 4 7 L96 526 L320 526 L227 1 Z M280 584 L225 653 L146 584 L-4 584 L157 728 L324 728 L432 584 L280 584 Z " />
<glyph glyph-name="Kcommaaccent" unicode="&#x136;" horiz-adv-x="740" d="M441 0 L286 298 L284 298 L232 0 L7 0 L132 708 L356 708 L308 437 L311 437 L535 708 L817 708 L499 366 L718 0 L441 0 Z M290 -240 L129 -240 L242 -45 L427 -45 L290 -240 Z " />
<glyph glyph-name="kcommaaccent" unicode="&#x137;" horiz-adv-x="650" d="M257 229 L218 0 L-6 0 L127 756 L352 756 L274 325 L277 325 L425 526 L698 526 L482 276 L612 0 L350 0 L260 229 L257 229 Z M244 -240 L83 -240 L196 -45 L381 -45 L244 -240 Z " />
<glyph glyph-name="Lacute" unicode="&#x139;" horiz-adv-x="547" d="M7 0 L132 708 L365 708 L275 198 L514 198 L479 0 L7 0 Z M334 764 L169 764 L304 908 L512 908 L334 764 Z " />
<glyph glyph-name="lacute" unicode="&#x13a;" horiz-adv-x="338" d="M-6 0 L127 756 L356 756 L223 0 L-6 0 Z M297 792 L132 792 L267 936 L475 936 L297 792 Z " />
<glyph glyph-name="Lcommaaccent" unicode="&#x13b;" horiz-adv-x="547" d="M7 0 L132 708 L365 708 L275 198 L514 198 L479 0 L7 0 Z M199 -240 L38 -240 L151 -45 L336 -45 L199 -240 Z " />
<glyph glyph-name="lcommaaccent" unicode="&#x13c;" horiz-adv-x="338" d="M-6 0 L127 756 L356 756 L223 0 L-6 0 Z M65 -241 L-96 -241 L17 -46 L202 -46 L65 -241 Z " />
<glyph glyph-name="Lcaron" unicode="&#x13d;" horiz-adv-x="547" d="M7 0 L132 708 L365 708 L275 198 L514 198 L479 0 L7 0 Z M521 526 L360 526 L467 708 L652 708 L521 526 Z " />
<glyph glyph-name="lcaron" unicode="&#x13e;" horiz-adv-x="338" d="M-6 0 L127 756 L356 756 L223 0 L-6 0 Z M497 526 L336 526 L443 708 L628 708 L497 526 Z " />
<glyph glyph-name="Ldot" unicode="&#x13f;" horiz-adv-x="547" d="M7 0 L132 708 L365 708 L275 198 L514 198 L479 0 L7 0 Z M459 287 Q413 287 386 313.5 Q359 340 359 375 Q359 399 367 420 Q375 441 390 457 Q405 473 426 482 Q447 491 473 491 Q518 491 545 464.5 Q572 438 572 403 Q572 379 564 358 Q556 337 541 321 Q526 305 505 296 Q484 287 459 287 Z " />
<glyph glyph-name="ldot" unicode="&#x140;" horiz-adv-x="524" d="M-6 0 L127 756 L356 756 L223 0 L-6 0 Z M431 287 Q385 287 358 313.5 Q331 340 331 375 Q331 399 339 420 Q347 441 362 457 Q377 473 398 482 Q419 491 445 491 Q490 491 517 464.5 Q544 438 544 403 Q544 379 536 358 Q528 337 513 321 Q498 305 477 296 Q456 287 431 287 Z " />
<glyph glyph-name="Lslash" unicode="&#x141;" horiz-adv-x="547" d="M-32 94 L1 284 L65 332 L131 708 L365 708 L329 504 L525 650 L491 461 L296 316 L274 199 L514 199 L479 0 L6 0 L31 142 L-32 94 Z " />
<glyph glyph-name="lslash" unicode="&#x142;" horiz-adv-x="338" d="M229 0 L-7 0 L32 221 L-16 183 L18 377 L66 416 L126 756 L362 756 L334 597 L382 635 L348 441 L300 402 L229 0 Z " />
<glyph glyph-name="Nacute" unicode="&#x143;" horiz-adv-x="791" d="M431 0 L291 351 L287 351 L232 0 L7 0 L132 708 L359 708 L502 339 L506 339 L564 708 L789 708 L664 0 L431 0 Z M518 764 L353 764 L488 908 L696 908 L518 764 Z " />
<glyph glyph-name="nacute" unicode="&#x144;" horiz-adv-x="661" d="M68 423 Q72 442 76.5 472 Q81 502 83 526 L299 526 Q298 511 296 491.5 Q294 472 292 458 L296 458 Q319 490 360.5 514 Q402 538 452 538 Q496 538 526.5 525 Q557 512 576.5 490.5 Q596 469 604.5 441 Q613 413 613 383 Q613 367 611.5 349.5 Q610 332 607 316 L552 0 L327 0 L376 279 Q378 288 378.5 297.5 Q379 307 379 313 Q379 333 368 345.5 Q357 358 333 358 Q310 358 292.5 337.5 Q275 317 268 278 L218 0 L-6 0 L68 423 Z M411 584 L246 584 L381 728 L589 728 L411 584 Z " />
<glyph glyph-name="Ncommaaccent" unicode="&#x145;" horiz-adv-x="791" d="M431 0 L291 351 L287 351 L232 0 L7 0 L132 708 L359 708 L502 339 L506 339 L564 708 L789 708 L664 0 L431 0 Z M302 -240 L141 -240 L254 -45 L439 -45 L302 -240 Z " />
<glyph glyph-name="ncommaaccent" unicode="&#x146;" horiz-adv-x="661" d="M68 423 Q72 442 76.5 472 Q81 502 83 526 L299 526 Q298 511 296 491.5 Q294 472 292 458 L296 458 Q319 490 360.5 514 Q402 538 452 538 Q496 538 526.5 525 Q557 512 576.5 490.5 Q596 469 604.5 441 Q613 413 613 383 Q613 367 611.5 349.5 Q610 332 607 316 L552 0 L327 0 L376 279 Q378 288 378.5 297.5 Q379 307 379 313 Q379 333 368 345.5 Q357 358 333 358 Q310 358 292.5 337.5 Q275 317 268 278 L218 0 L-6 0 L68 423 Z M229 -240 L68 -240 L181 -45 L366 -45 L229 -240 Z " />
<glyph glyph-name="Ncaron" unicode="&#x147;" horiz-adv-x="791" d="M431 0 L291 351 L287 351 L232 0 L7 0 L132 708 L359 708 L502 339 L506 339 L564 708 L789 708 L664 0 L431 0 Z M539 764 L372 764 L261 908 L411 908 L466 838 L545 908 L697 908 L539 764 Z " />
<glyph glyph-name="ncaron" unicode="&#x148;" horiz-adv-x="661" d="M68 423 Q72 442 76.5 472 Q81 502 83 526 L299 526 Q298 511 296 491.5 Q294 472 292 458 L296 458 Q319 490 360.5 514 Q402 538 452 538 Q496 538 526.5 525 Q557 512 576.5 490.5 Q596 469 604.5 441 Q613 413 613 383 Q613 367 611.5 349.5 Q610 332 607 316 L552 0 L327 0 L376 279 Q378 288 378.5 297.5 Q379 307 379 313 Q379 333 368 345.5 Q357 358 333 358 Q310 358 292.5 337.5 Q275 317 268 278 L218 0 L-6 0 L68 423 Z M448 584 L281 584 L170 728 L320 728 L375 658 L454 728 L606 728 L448 584 Z " />
<glyph glyph-name="napostrophe" unicode="&#x149;" horiz-adv-x="800" d="M207 423 Q211 442 215.5 472 Q220 502 222 526 L438 526 Q437 511 435 491.5 Q433 472 431 458 L435 458 Q458 490 499.5 514 Q541 538 591 538 Q635 538 665.5 525 Q696 512 715.5 490.5 Q735 469 743.5 441 Q752 413 752 383 Q752 367 750.5 349.5 Q749 332 746 316 L691 0 L466 0 L515 279 Q517 288 517.5 297.5 Q518 307 518 313 Q518 333 507 345.5 Q496 358 472 358 Q449 358 431.5 337.5 Q414 317 407 278 L357 0 L133 0 L207 423 Z M182 526 L21 526 L128 708 L313 708 L182 526 Z " />
<glyph glyph-name="Omacron" unicode="&#x14c;" horiz-adv-x="833" d="M382 -18 Q297 -18 231.5 5.5 Q166 29 121.5 72 Q77 115 54 174 Q31 233 31 304 Q31 392 62 469 Q93 546 149 603 Q205 660 284.5 693 Q364 726 461 726 Q547 726 612.5 702.5 Q678 679 722.5 636 Q767 593 790 534 Q813 475 813 404 Q813 316 782.5 239 Q752 162 695.5 105 Q639 48 559.5 15 Q480 -18 382 -18 Z M572 387 Q572 414 563.5 437.5 Q555 461 538.5 478.5 Q522 496 497.5 506 Q473 516 442 516 Q403 516 371.5 499.5 Q340 483 318 456 Q296 429 284 394 Q272 359 272 323 Q272 296 280.5 272.5 Q289 249 305.5 231.5 Q322 214 346.5 204 Q371 194 403 194 Q442 194 473 210 Q504 226 526 253 Q548 280 560 315 Q572 350 572 387 Z M317 791 L333 886 L691 886 L675 791 L317 791 Z " />
<glyph glyph-name="omacron" unicode="&#x14d;" horiz-adv-x="660" d="M295 -16 Q235 -16 183 -1 Q131 14 92 44 Q53 74 31 118 Q9 162 9 219 Q9 285 31 344 Q53 403 94.5 447 Q136 491 196.5 516.5 Q257 542 335 542 Q396 542 449 527 Q502 512 541 482 Q580 452 602.5 408 Q625 364 625 307 Q625 241 603 182 Q581 123 539 79 Q497 35 435.5 9.5 Q374 -16 295 -16 Z M407 283 Q407 315 387 337 Q367 359 328 359 Q305 359 286.5 349.5 Q268 340 254.5 324.5 Q241 309 234 288 Q227 267 227 244 Q227 211 247 189.5 Q267 168 305 168 Q329 168 348 177 Q367 186 380 202 Q393 218 400 238.5 Q407 259 407 283 Z M197 611 L213 706 L571 706 L555 611 L197 611 Z " />
<glyph glyph-name="Obreve" unicode="&#x14e;" horiz-adv-x="833" d="M382 -18 Q297 -18 231.5 5.5 Q166 29 121.5 72 Q77 115 54 174 Q31 233 31 304 Q31 392 62 469 Q93 546 149 603 Q205 660 284.5 693 Q364 726 461 726 Q547 726 612.5 702.5 Q678 679 722.5 636 Q767 593 790 534 Q813 475 813 404 Q813 316 782.5 239 Q752 162 695.5 105 Q639 48 559.5 15 Q480 -18 382 -18 Z M572 387 Q572 414 563.5 437.5 Q555 461 538.5 478.5 Q522 496 497.5 506 Q473 516 442 516 Q403 516 371.5 499.5 Q340 483 318 456 Q296 429 284 394 Q272 359 272 323 Q272 296 280.5 272.5 Q289 249 305.5 231.5 Q322 214 346.5 204 Q371 194 403 194 Q442 194 473 210 Q504 226 526 253 Q548 280 560 315 Q572 350 572 387 Z M681 908 Q673 866 653.5 838 Q634 810 608 793.5 Q582 777 551 770.5 Q520 764 488 764 Q455 764 425.5 770.5 Q396 777 373 793.5 Q350 810 336.5 838 Q323 866 323 908 L430 908 Q430 884 450.5 875.5 Q471 867 492 867 Q505 867 519 869 Q533 871 544.5 875.5 Q556 880 564 888 Q572 896 574 908 L681 908 Z " />
<glyph glyph-name="obreve" unicode="&#x14f;" horiz-adv-x="660" d="M295 -16 Q235 -16 183 -1 Q131 14 92 44 Q53 74 31 118 Q9 162 9 219 Q9 285 31 344 Q53 403 94.5 447 Q136 491 196.5 516.5 Q257 542 335 542 Q396 542 449 527 Q502 512 541 482 Q580 452 602.5 408 Q625 364 625 307 Q625 241 603 182 Q581 123 539 79 Q497 35 435.5 9.5 Q374 -16 295 -16 Z M407 283 Q407 315 387 337 Q367 359 328 359 Q305 359 286.5 349.5 Q268 340 254.5 324.5 Q241 309 234 288 Q227 267 227 244 Q227 211 247 189.5 Q267 168 305 168 Q329 168 348 177 Q367 186 380 202 Q393 218 400 238.5 Q407 259 407 283 Z M562 728 Q554 686 534.5 658 Q515 630 489 613.5 Q463 597 432 590.5 Q401 584 369 584 Q336 584 306.5 590.5 Q277 597 254 613.5 Q231 630 217.5 658 Q204 686 204 728 L311 728 Q311 704 331.5 695.5 Q352 687 373 687 Q386 687 400 689 Q414 691 425.5 695.5 Q437 700 445 708 Q453 716 455 728 L562 728 Z " />
<glyph glyph-name="Ohungarumlaut" unicode="&#x150;" horiz-adv-x="833" d="M382 -18 Q297 -18 231.5 5.5 Q166 29 121.5 72 Q77 115 54 174 Q31 233 31 304 Q31 392 62 469 Q93 546 149 603 Q205 660 284.5 693 Q364 726 461 726 Q547 726 612.5 702.5 Q678 679 722.5 636 Q767 593 790 534 Q813 475 813 404 Q813 316 782.5 239 Q752 162 695.5 105 Q639 48 559.5 15 Q480 -18 382 -18 Z M572 387 Q572 414 563.5 437.5 Q555 461 538.5 478.5 Q522 496 497.5 506 Q473 516 442 516 Q403 516 371.5 499.5 Q340 483 318 456 Q296 429 284 394 Q272 359 272 323 Q272 296 280.5 272.5 Q289 249 305.5 231.5 Q322 214 346.5 204 Q371 194 403 194 Q442 194 473 210 Q504 226 526 253 Q548 280 560 315 Q572 350 572 387 Z M690 764 L526 764 L661 908 L868 908 L690 764 Z M450 764 L285 764 L420 908 L628 908 L450 764 Z " />
<glyph glyph-name="ohungarumlaut" unicode="&#x151;" horiz-adv-x="660" d="M295 -16 Q235 -16 183 -1 Q131 14 92 44 Q53 74 31 118 Q9 162 9 219 Q9 285 31 344 Q53 403 94.5 447 Q136 491 196.5 516.5 Q257 542 335 542 Q396 542 449 527 Q502 512 541 482 Q580 452 602.5 408 Q625 364 625 307 Q625 241 603 182 Q581 123 539 79 Q497 35 435.5 9.5 Q374 -16 295 -16 Z M407 283 Q407 315 387 337 Q367 359 328 359 Q305 359 286.5 349.5 Q268 340 254.5 324.5 Q241 309 234 288 Q227 267 227 244 Q227 211 247 189.5 Q267 168 305 168 Q329 168 348 177 Q367 186 380 202 Q393 218 400 238.5 Q407 259 407 283 Z M567 584 L403 584 L538 728 L745 728 L567 584 Z M327 584 L162 584 L297 728 L505 728 L327 584 Z " />
<glyph glyph-name="OE" unicode="&#x152;" horiz-adv-x="992" d="M995 708 L961 515 L716 515 L704 447 L938 447 L906 267 L672 267 L659 193 L933 193 L899 0 L371 0 Q311 0 250.5 16.5 Q190 33 141.5 69 Q93 105 62 162.5 Q31 220 31 302 Q31 395 63.5 470.5 Q96 546 154 598.5 Q212 651 291 679.5 Q370 708 463 708 L995 708 Z M505 509 L453 509 Q408 509 374 493.5 Q340 478 317 452.5 Q294 427 282.5 394 Q271 361 271 327 Q271 300 279 276 Q287 252 304 234.5 Q321 217 347.5 206.5 Q374 196 410 196 L449 196 L505 509 Z " />
<glyph glyph-name="oe" unicode="&#x153;" horiz-adv-x="1007" d="M483 54 Q454 21 405 2.5 Q356 -16 295 -16 Q235 -16 183 -1 Q131 14 92 44 Q53 74 31 118 Q9 162 9 219 Q9 285 31 344 Q53 403 94.5 447 Q136 491 196.5 516.5 Q257 542 335 542 Q395 542 443 525 Q491 508 526 467 Q557 504 609 523 Q661 542 723 542 Q781 542 827 525.5 Q873 509 905 478.5 Q937 448 954.5 404.5 Q972 361 972 307 Q972 285 968.5 259 Q965 233 958 211 L600 211 Q599 208 599 204 Q599 187 608 176.5 Q617 166 630 159.5 Q643 153 658 150.5 Q673 148 685 148 Q710 148 734 156.5 Q758 165 777 183 L928 79 Q876 26 809 5 Q742 -16 670 -16 Q644 -16 616.5 -12 Q589 -8 564 0.5 Q539 9 518 22 Q497 35 483 54 Z M407 283 Q407 315 387 337 Q367 359 328 359 Q305 359 286.5 349.5 Q268 340 254.5 324.5 Q241 309 234 288 Q227 267 227 244 Q227 211 247 189.5 Q267 168 305 168 Q329 168 348 177 Q367 186 380 202 Q393 218 400 238.5 Q407 259 407 283 Z M777 330 Q778 333 778 336.5 Q778 340 778 342 Q778 367 759.5 382 Q741 397 708 397 Q687 397 670.5 390 Q654 383 642 373 Q630 363 622.5 351.5 Q615 340 612 330 L777 330 Z " />
<glyph glyph-name="Racute" unicode="&#x154;" horiz-adv-x="704" d="M399 0 L302 259 L274 259 L230 0 L7 0 L132 708 L423 708 Q481 708 528 695 Q575 682 608 657 Q641 632 658.5 595.5 Q676 559 676 512 Q676 424 634.5 367 Q593 310 521 289 L659 0 L399 0 Z M348 406 Q394 406 420 421.5 Q446 437 446 471 Q446 502 424.5 513.5 Q403 525 366 525 L323 525 L302 406 L348 406 Z M448 764 L283 764 L418 908 L626 908 L448 764 Z " />
<glyph glyph-name="racute" unicode="&#x155;" horiz-adv-x="440" d="M69 423 Q73 442 77.5 472 Q82 502 84 526 L299 526 Q299 521 298 513 Q297 505 295.5 495.5 Q294 486 292.5 477 Q291 468 290 462 L293 462 Q316 494 349 515.5 Q382 537 427 537 Q454 537 469 532 L427 342 Q417 345 404 346 Q391 347 380 347 Q328 347 299 319.5 Q270 292 263 255 L218 0 L-6 0 L69 423 Z M304 584 L139 584 L274 728 L482 728 L304 584 Z " />
<glyph glyph-name="Rcommaaccent" unicode="&#x156;" horiz-adv-x="704" d="M399 0 L302 259 L274 259 L230 0 L7 0 L132 708 L423 708 Q481 708 528 695 Q575 682 608 657 Q641 632 658.5 595.5 Q676 559 676 512 Q676 424 634.5 367 Q593 310 521 289 L659 0 L399 0 Z M348 406 Q394 406 420 421.5 Q446 437 446 471 Q446 502 424.5 513.5 Q403 525 366 525 L323 525 L302 406 L348 406 Z M274 -240 L113 -240 L226 -45 L411 -45 L274 -240 Z " />
<glyph glyph-name="rcommaaccent" unicode="&#x157;" horiz-adv-x="440" d="M69 423 Q73 442 77.5 472 Q82 502 84 526 L299 526 Q299 521 298 513 Q297 505 295.5 495.5 Q294 486 292.5 477 Q291 468 290 462 L293 462 Q316 494 349 515.5 Q382 537 427 537 Q454 537 469 532 L427 342 Q417 345 404 346 Q391 347 380 347 Q328 347 299 319.5 Q270 292 263 255 L218 0 L-6 0 L69 423 Z M64 -241 L-97 -241 L16 -46 L201 -46 L64 -241 Z " />
<glyph glyph-name="Rcaron" unicode="&#x158;" horiz-adv-x="704" d="M399 0 L302 259 L274 259 L230 0 L7 0 L132 708 L423 708 Q481 708 528 695 Q575 682 608 657 Q641 632 658.5 595.5 Q676 559 676 512 Q676 424 634.5 367 Q593 310 521 289 L659 0 L399 0 Z M348 406 Q394 406 420 421.5 Q446 437 446 471 Q446 502 424.5 513.5 Q403 525 366 525 L323 525 L302 406 L348 406 Z M473 764 L306 764 L195 908 L345 908 L400 838 L479 908 L631 908 L473 764 Z " />
<glyph glyph-name="rcaron" unicode="&#x159;" horiz-adv-x="440" d="M69 423 Q73 442 77.5 472 Q82 502 84 526 L299 526 Q299 521 298 513 Q297 505 295.5 495.5 Q294 486 292.5 477 Q291 468 290 462 L293 462 Q316 494 349 515.5 Q382 537 427 537 Q454 537 469 532 L427 342 Q417 345 404 346 Q391 347 380 347 Q328 347 299 319.5 Q270 292 263 255 L218 0 L-6 0 L69 423 Z M359 584 L192 584 L81 728 L231 728 L286 658 L365 728 L517 728 L359 584 Z " />
<glyph glyph-name="Sacute" unicode="&#x15a;" horiz-adv-x="601" d="M473 497 Q456 517 429 529.5 Q402 542 366 542 Q338 542 315.5 530 Q293 518 293 493 Q293 473 312 462 Q331 451 368 439 Q414 424 450 405 Q486 386 511 361 Q536 336 549.5 304 Q563 272 563 232 Q563 164 533 116 Q503 68 456.5 38 Q410 8 354 -6 Q298 -20 245 -20 Q203 -20 161 -13 Q119 -6 80.5 7 Q42 20 8 39 Q-26 58 -51 82 L107 228 Q119 214 136 203 Q153 192 171.5 184.5 Q190 177 209 172.5 Q228 168 244 168 Q279 168 300 179.5 Q321 191 321 213 Q321 231 303.5 245 Q286 259 238 274 Q200 286 166.5 302 Q133 318 108.5 340.5 Q84 363 70 394.5 Q56 426 56 471 Q56 526 78.5 573 Q101 620 142.5 654.5 Q184 689 241.5 708.5 Q299 728 368 728 Q406 728 443 721.5 Q480 715 513 703.5 Q546 692 574 676 Q602 660 621 640 L473 497 Z M444 764 L279 764 L414 908 L622 908 L444 764 Z " />
<glyph glyph-name="sacute" unicode="&#x15b;" horiz-adv-x="494" d="M69 190 Q95 164 129 151 Q163 138 192 138 Q212 138 223.5 143.5 Q235 149 235 161 Q235 173 219.5 181 Q204 189 180 196 Q145 206 117.5 219 Q90 232 70.5 250 Q51 268 40.5 292 Q30 316 30 348 Q30 397 51.5 434 Q73 471 108.5 495 Q144 519 188.5 531 Q233 543 278 543 Q340 543 397.5 525.5 Q455 508 491 476 L376 344 Q359 362 329 374.5 Q299 387 270 387 Q250 387 237.5 381.5 Q225 376 225 364 Q225 354 235.5 348.5 Q246 343 272 336 Q309 327 339.5 313.5 Q370 300 392 281 Q414 262 426 236 Q438 210 438 175 Q438 122 414.5 85 Q391 48 354.5 25 Q318 2 273.5 -8 Q229 -18 186 -18 Q129 -18 66 -2 Q3 14 -45 54 L69 190 Z M349 584 L184 584 L319 728 L527 728 L349 584 Z " />
<glyph glyph-name="Scircumflex" unicode="&#x15c;" horiz-adv-x="601" d="M473 497 Q456 517 429 529.5 Q402 542 366 542 Q338 542 315.5 530 Q293 518 293 493 Q293 473 312 462 Q331 451 368 439 Q414 424 450 405 Q486 386 511 361 Q536 336 549.5 304 Q563 272 563 232 Q563 164 533 116 Q503 68 456.5 38 Q410 8 354 -6 Q298 -20 245 -20 Q203 -20 161 -13 Q119 -6 80.5 7 Q42 20 8 39 Q-26 58 -51 82 L107 228 Q119 214 136 203 Q153 192 171.5 184.5 Q190 177 209 172.5 Q228 168 244 168 Q279 168 300 179.5 Q321 191 321 213 Q321 231 303.5 245 Q286 259 238 274 Q200 286 166.5 302 Q133 318 108.5 340.5 Q84 363 70 394.5 Q56 426 56 471 Q56 526 78.5 573 Q101 620 142.5 654.5 Q184 689 241.5 708.5 Q299 728 368 728 Q406 728 443 721.5 Q480 715 513 703.5 Q546 692 574 676 Q602 660 621 640 L473 497 Z M462 764 L407 833 L328 764 L178 764 L339 908 L506 908 L614 764 L462 764 Z " />
<glyph glyph-name="scircumflex" unicode="&#x15d;" horiz-adv-x="494" d="M69 190 Q95 164 129 151 Q163 138 192 138 Q212 138 223.5 143.5 Q235 149 235 161 Q235 173 219.5 181 Q204 189 180 196 Q145 206 117.5 219 Q90 232 70.5 250 Q51 268 40.5 292 Q30 316 30 348 Q30 397 51.5 434 Q73 471 108.5 495 Q144 519 188.5 531 Q233 543 278 543 Q340 543 397.5 525.5 Q455 508 491 476 L376 344 Q359 362 329 374.5 Q299 387 270 387 Q250 387 237.5 381.5 Q225 376 225 364 Q225 354 235.5 348.5 Q246 343 272 336 Q309 327 339.5 313.5 Q370 300 392 281 Q414 262 426 236 Q438 210 438 175 Q438 122 414.5 85 Q391 48 354.5 25 Q318 2 273.5 -8 Q229 -18 186 -18 Q129 -18 66 -2 Q3 14 -45 54 L69 190 Z M356 584 L301 653 L222 584 L72 584 L233 728 L400 728 L508 584 L356 584 Z " />
<glyph glyph-name="Scedilla" unicode="&#x15e;" horiz-adv-x="601" d="M354 -130 Q354 -160 339.5 -181 Q325 -202 302 -215 Q279 -228 249.5 -233.5 Q220 -239 190 -239 Q174 -239 155.5 -237 Q137 -235 118.5 -232 Q100 -229 83 -225 Q66 -221 54 -216 L95 -140 Q112 -148 136.5 -152 Q161 -156 180 -156 Q195 -156 207 -151.5 Q219 -147 219 -134 Q219 -123 209 -119 Q199 -115 185 -115 Q175 -115 163.5 -116.5 Q152 -118 142 -121 L106 -87 L179 -15 Q111 -7 50.5 18 Q-10 43 -51 82 L107 228 Q119 214 136 203 Q153 192 171.5 184.5 Q190 177 209 172.5 Q228 168 244 168 Q279 168 300 179.5 Q321 191 321 213 Q321 231 303.5 245 Q286 259 238 274 Q200 286 166.5 302 Q133 318 108.5 340.5 Q84 363 70 394.5 Q56 426 56 471 Q56 526 78.5 573 Q101 620 142.5 654.5 Q184 689 241.5 708.5 Q299 728 368 728 Q406 728 443 721.5 Q480 715 513 703.5 Q546 692 574 676 Q602 660 621 640 L473 497 Q456 517 429 529.5 Q402 542 366 542 Q338 542 315.5 530 Q293 518 293 493 Q293 473 312 462 Q331 451 368 439 Q414 424 450 405 Q486 386 511 361 Q536 336 549.5 304 Q563 272 563 232 Q563 170 538.5 125.5 Q514 81 475 50.5 Q436 20 386.5 3.5 Q337 -13 288 -18 L250 -53 Q255 -52 258.5 -52 Q262 -52 267 -52 Q278 -52 293 -55.5 Q308 -59 321.5 -67.5 Q335 -76 344.5 -91 Q354 -106 354 -130 Z " />
<glyph glyph-name="scedilla" unicode="&#x15f;" horiz-adv-x="494" d="M310 -130 Q310 -160 295.5 -181 Q281 -202 258 -215 Q235 -228 205.5 -233.5 Q176 -239 146 -239 Q130 -239 111.5 -237 Q93 -235 74.5 -232 Q56 -229 39 -225 Q22 -221 10 -216 L51 -140 Q68 -148 92.5 -152 Q117 -156 136 -156 Q151 -156 163 -151.5 Q175 -147 175 -134 Q175 -123 165 -119 Q155 -115 141 -115 Q131 -115 119.5 -116.5 Q108 -118 98 -121 L62 -87 L135 -15 Q87 -10 39.5 6 Q-8 22 -45 54 L69 190 Q95 164 129 151 Q163 138 192 138 Q212 138 223.5 143.5 Q235 149 235 161 Q235 173 219.5 181 Q204 189 180 196 Q145 206 117.5 219 Q90 232 70.5 250 Q51 268 40.5 292 Q30 316 30 348 Q30 397 51.5 434 Q73 471 108.5 495 Q144 519 188.5 531 Q233 543 278 543 Q340 543 397.5 525.5 Q455 508 491 476 L376 344 Q359 362 329 374.5 Q299 387 270 387 Q250 387 237.5 381.5 Q225 376 225 364 Q225 354 235.5 348.5 Q246 343 272 336 Q309 327 339.5 313.5 Q370 300 392 281 Q414 262 426 236 Q438 210 438 175 Q438 131 422 99 Q406 67 380 44 Q354 21 320 7.5 Q286 -6 250 -12 L206 -53 Q211 -52 214.5 -52 Q218 -52 223 -52 Q234 -52 249 -55.5 Q264 -59 277.5 -67.5 Q291 -76 300.5 -91 Q310 -106 310 -130 Z " />
<glyph glyph-name="Scaron" unicode="&#x160;" horiz-adv-x="601" d="M473 497 Q456 517 429 529.5 Q402 542 366 542 Q338 542 315.5 530 Q293 518 293 493 Q293 473 312 462 Q331 451 368 439 Q414 424 450 405 Q486 386 511 361 Q536 336 549.5 304 Q563 272 563 232 Q563 164 533 116 Q503 68 456.5 38 Q410 8 354 -6 Q298 -20 245 -20 Q203 -20 161 -13 Q119 -6 80.5 7 Q42 20 8 39 Q-26 58 -51 82 L107 228 Q119 214 136 203 Q153 192 171.5 184.5 Q190 177 209 172.5 Q228 168 244 168 Q279 168 300 179.5 Q321 191 321 213 Q321 231 303.5 245 Q286 259 238 274 Q200 286 166.5 302 Q133 318 108.5 340.5 Q84 363 70 394.5 Q56 426 56 471 Q56 526 78.5 573 Q101 620 142.5 654.5 Q184 689 241.5 708.5 Q299 728 368 728 Q406 728 443 721.5 Q480 715 513 703.5 Q546 692 574 676 Q602 660 621 640 L473 497 Z M456 764 L289 764 L178 908 L328 908 L383 838 L462 908 L614 908 L456 764 Z " />
<glyph glyph-name="scaron" unicode="&#x161;" horiz-adv-x="494" d="M69 190 Q95 164 129 151 Q163 138 192 138 Q212 138 223.5 143.5 Q235 149 235 161 Q235 173 219.5 181 Q204 189 180 196 Q145 206 117.5 219 Q90 232 70.5 250 Q51 268 40.5 292 Q30 316 30 348 Q30 397 51.5 434 Q73 471 108.5 495 Q144 519 188.5 531 Q233 543 278 543 Q340 543 397.5 525.5 Q455 508 491 476 L376 344 Q359 362 329 374.5 Q299 387 270 387 Q250 387 237.5 381.5 Q225 376 225 364 Q225 354 235.5 348.5 Q246 343 272 336 Q309 327 339.5 313.5 Q370 300 392 281 Q414 262 426 236 Q438 210 438 175 Q438 122 414.5 85 Q391 48 354.5 25 Q318 2 273.5 -8 Q229 -18 186 -18 Q129 -18 66 -2 Q3 14 -45 54 L69 190 Z M362 584 L195 584 L84 728 L234 728 L289 658 L368 728 L520 728 L362 584 Z " />
<glyph glyph-name="Tcommaaccent" unicode="&#x162;" horiz-adv-x="583" d="M440 513 L350 0 L118 0 L208 513 L29 513 L64 708 L648 708 L613 513 L440 513 Z M193 -240 L32 -240 L145 -45 L330 -45 L193 -240 Z " />
<glyph glyph-name="tcommaaccent" unicode="&#x163;" horiz-adv-x="401" d="M291 365 L264 217 Q263 211 262.5 203 Q262 195 262 190 Q262 167 273.5 159.5 Q285 152 306 152 Q318 152 330 154 Q342 156 350 158 L323 4 Q310 -4 277 -9 Q244 -14 213 -14 Q180 -14 148 -8 Q116 -2 91 13 Q66 28 50.5 54 Q35 80 35 121 Q35 132 36.5 146 Q38 160 40 172 L75 365 L-3 365 L25 526 L99 526 L120 645 L337 645 L316 526 L417 526 L389 365 L291 365 Z M131 -240 L-30 -240 L83 -45 L268 -45 L131 -240 Z " />
<glyph glyph-name="Tcaron" unicode="&#x164;" horiz-adv-x="583" d="M440 513 L350 0 L118 0 L208 513 L29 513 L64 708 L648 708 L613 513 L440 513 Z M443 764 L276 764 L165 908 L315 908 L370 838 L449 908 L601 908 L443 764 Z " />
<glyph glyph-name="tcaron" unicode="&#x165;" horiz-adv-x="401" d="M291 365 L264 217 Q263 211 262.5 203 Q262 195 262 190 Q262 167 273.5 159.5 Q285 152 306 152 Q318 152 330 154 Q342 156 350 158 L323 4 Q310 -4 277 -9 Q244 -14 213 -14 Q180 -14 148 -8 Q116 -2 91 13 Q66 28 50.5 54 Q35 80 35 121 Q35 132 36.5 146 Q38 160 40 172 L75 365 L-3 365 L25 526 L99 526 L120 645 L337 645 L316 526 L417 526 L389 365 L291 365 Z M505 549 L344 549 L451 731 L636 731 L505 549 Z " />
<glyph glyph-name="Tbar" unicode="&#x166;" horiz-adv-x="583" d="M86 431 L193 431 L208 513 L29 513 L64 708 L648 708 L613 513 L440 513 L425 431 L532 431 L512 321 L406 321 L350 0 L118 0 L174 321 L66 321 L86 431 Z " />
<glyph glyph-name="tbar" unicode="&#x167;" horiz-adv-x="401" d="M9 319 L66 319 L75 365 L-3 365 L25 526 L99 526 L120 645 L337 645 L316 526 L417 526 L389 365 L291 365 L282 319 L358 319 L338 209 L263 209 Q262 204 262 198.5 Q262 193 262 190 Q262 167 273.5 159.5 Q285 152 306 152 Q318 152 330 154 Q342 156 350 158 L323 4 Q310 -4 277 -9 Q244 -14 213 -14 Q180 -14 148 -8 Q116 -2 91 13 Q66 28 50.5 54 Q35 80 35 121 Q35 132 36.5 146 Q38 160 40 172 L46 209 L-11 209 L9 319 Z " />
<glyph glyph-name="Utilde" unicode="&#x168;" horiz-adv-x="771" d="M696 260 Q685 197 658.5 145.5 Q632 94 588.5 58 Q545 22 484 2 Q423 -18 344 -18 Q276 -18 220 -3 Q164 12 124 40.5 Q84 69 62 110 Q40 151 40 203 Q40 217 42 235.5 Q44 254 46 269 L121 708 L350 708 L277 299 Q275 291 275 282 Q275 273 275 266 Q275 233 295 208 Q315 183 363 183 Q394 183 413.5 193 Q433 203 445 219 Q457 235 463 255 Q469 275 473 295 L548 708 L773 708 L696 260 Z M668 900 Q661 871 648 845.5 Q635 820 617 801 Q599 782 577 771.5 Q555 761 529 761 Q508 761 489.5 767 Q471 773 452 784 Q430 797 419 801.5 Q408 806 393 806 Q377 806 365.5 795.5 Q354 785 349 770 L270 770 Q277 798 289.5 822.5 Q302 847 319.5 865.5 Q337 884 359 894.5 Q381 905 407 905 Q430 905 447.5 898.5 Q465 892 485 881 Q507 870 519 865 Q531 860 547 860 Q563 860 572.5 870 Q582 880 590 900 L668 900 Z " />
<glyph glyph-name="utilde" unicode="&#x169;" horiz-adv-x="658" d="M562 103 Q558 84 553.5 54 Q549 24 547 0 L331 0 Q332 15 334 34.5 Q336 54 338 68 L334 68 Q311 36 269.5 12 Q228 -12 178 -12 Q134 -12 103.5 1 Q73 14 53.5 35.5 Q34 57 25.5 85 Q17 113 17 143 Q17 159 18.5 176.5 Q20 194 23 210 L78 526 L303 526 L254 247 Q252 238 251.5 228.5 Q251 219 251 213 Q251 193 262 180.5 Q273 168 297 168 Q320 168 337.5 188.5 Q355 209 362 248 L412 526 L636 526 L562 103 Z M578 720 Q571 691 558 665.5 Q545 640 527 621 Q509 602 487 591.5 Q465 581 439 581 Q418 581 399.5 587 Q381 593 362 604 Q340 617 329 621.5 Q318 626 303 626 Q287 626 275.5 615.5 Q264 605 259 590 L180 590 Q187 618 199.5 642.5 Q212 667 229.5 685.5 Q247 704 269 714.5 Q291 725 317 725 Q340 725 357.5 718.5 Q375 712 395 701 Q417 690 429 685 Q441 680 457 680 Q473 680 482.5 690 Q492 700 500 720 L578 720 Z " />
<glyph glyph-name="Umacron" unicode="&#x16a;" horiz-adv-x="771" d="M696 260 Q685 197 658.5 145.5 Q632 94 588.5 58 Q545 22 484 2 Q423 -18 344 -18 Q276 -18 220 -3 Q164 12 124 40.5 Q84 69 62 110 Q40 151 40 203 Q40 217 42 235.5 Q44 254 46 269 L121 708 L350 708 L277 299 Q275 291 275 282 Q275 273 275 266 Q275 233 295 208 Q315 183 363 183 Q394 183 413.5 193 Q433 203 445 219 Q457 235 463 255 Q469 275 473 295 L548 708 L773 708 L696 260 Z M282 791 L298 886 L656 886 L640 791 L282 791 Z " />
<glyph glyph-name="umacron" unicode="&#x16b;" horiz-adv-x="658" d="M562 103 Q558 84 553.5 54 Q549 24 547 0 L331 0 Q332 15 334 34.5 Q336 54 338 68 L334 68 Q311 36 269.5 12 Q228 -12 178 -12 Q134 -12 103.5 1 Q73 14 53.5 35.5 Q34 57 25.5 85 Q17 113 17 143 Q17 159 18.5 176.5 Q20 194 23 210 L78 526 L303 526 L254 247 Q252 238 251.5 228.5 Q251 219 251 213 Q251 193 262 180.5 Q273 168 297 168 Q320 168 337.5 188.5 Q355 209 362 248 L412 526 L636 526 L562 103 Z M194 611 L210 706 L568 706 L552 611 L194 611 Z " />
<glyph glyph-name="Ubreve" unicode="&#x16c;" horiz-adv-x="771" d="M696 260 Q685 197 658.5 145.5 Q632 94 588.5 58 Q545 22 484 2 Q423 -18 344 -18 Q276 -18 220 -3 Q164 12 124 40.5 Q84 69 62 110 Q40 151 40 203 Q40 217 42 235.5 Q44 254 46 269 L121 708 L350 708 L277 299 Q275 291 275 282 Q275 273 275 266 Q275 233 295 208 Q315 183 363 183 Q394 183 413.5 193 Q433 203 445 219 Q457 235 463 255 Q469 275 473 295 L548 708 L773 708 L696 260 Z M651 908 Q643 866 623.5 838 Q604 810 578 793.5 Q552 777 521 770.5 Q490 764 458 764 Q425 764 395.5 770.5 Q366 777 343 793.5 Q320 810 306.5 838 Q293 866 293 908 L400 908 Q400 884 420.5 875.5 Q441 867 462 867 Q475 867 489 869 Q503 871 514.5 875.5 Q526 880 534 888 Q542 896 544 908 L651 908 Z " />
<glyph glyph-name="ubreve" unicode="&#x16d;" horiz-adv-x="658" d="M562 103 Q558 84 553.5 54 Q549 24 547 0 L331 0 Q332 15 334 34.5 Q336 54 338 68 L334 68 Q311 36 269.5 12 Q228 -12 178 -12 Q134 -12 103.5 1 Q73 14 53.5 35.5 Q34 57 25.5 85 Q17 113 17 143 Q17 159 18.5 176.5 Q20 194 23 210 L78 526 L303 526 L254 247 Q252 238 251.5 228.5 Q251 219 251 213 Q251 193 262 180.5 Q273 168 297 168 Q320 168 337.5 188.5 Q355 209 362 248 L412 526 L636 526 L562 103 Z M556 728 Q548 686 528.5 658 Q509 630 483 613.5 Q457 597 426 590.5 Q395 584 363 584 Q330 584 300.5 590.5 Q271 597 248 613.5 Q225 630 211.5 658 Q198 686 198 728 L305 728 Q305 704 325.5 695.5 Q346 687 367 687 Q380 687 394 689 Q408 691 419.5 695.5 Q431 700 439 708 Q447 716 449 728 L556 728 Z " />
<glyph glyph-name="Uring" unicode="&#x16e;" horiz-adv-x="771" d="M696 260 Q685 197 658.5 145.5 Q632 94 588.5 58 Q545 22 484 2 Q423 -18 344 -18 Q276 -18 220 -3 Q164 12 124 40.5 Q84 69 62 110 Q40 151 40 203 Q40 217 42 235.5 Q44 254 46 269 L121 708 L350 708 L277 299 Q275 291 275 282 Q275 273 275 266 Q275 233 295 208 Q315 183 363 183 Q394 183 413.5 193 Q433 203 445 219 Q457 235 463 255 Q469 275 473 295 L548 708 L773 708 L696 260 Z M454 745 Q410 745 382.5 770.5 Q355 796 355 837 Q355 864 364.5 888 Q374 912 390.5 930 Q407 948 430.5 958.5 Q454 969 481 969 Q526 969 553.5 944 Q581 919 581 877 Q581 850 571.5 826 Q562 802 545 784 Q528 766 505 755.5 Q482 745 454 745 Z M530 872 Q530 894 516 909 Q502 924 477 924 Q446 924 426 900 Q406 876 406 843 Q406 820 420 805.5 Q434 791 458 791 Q490 791 510 815 Q530 839 530 872 Z " />
<glyph glyph-name="uring" unicode="&#x16f;" horiz-adv-x="658" d="M562 103 Q558 84 553.5 54 Q549 24 547 0 L331 0 Q332 15 334 34.5 Q336 54 338 68 L334 68 Q311 36 269.5 12 Q228 -12 178 -12 Q134 -12 103.5 1 Q73 14 53.5 35.5 Q34 57 25.5 85 Q17 113 17 143 Q17 159 18.5 176.5 Q20 194 23 210 L78 526 L303 526 L254 247 Q252 238 251.5 228.5 Q251 219 251 213 Q251 193 262 180.5 Q273 168 297 168 Q320 168 337.5 188.5 Q355 209 362 248 L412 526 L636 526 L562 103 Z M368 565 Q324 565 296.5 590.5 Q269 616 269 657 Q269 684 278.5 708 Q288 732 304.5 750 Q321 768 344.5 778.5 Q368 789 395 789 Q440 789 467.5 764 Q495 739 495 697 Q495 670 485.5 646 Q476 622 459 604 Q442 586 419 575.5 Q396 565 368 565 Z M444 692 Q444 714 430 729 Q416 744 391 744 Q360 744 340 720 Q320 696 320 663 Q320 640 334 625.5 Q348 611 372 611 Q404 611 424 635 Q444 659 444 692 Z " />
<glyph glyph-name="Uhungarumlaut" unicode="&#x170;" horiz-adv-x="771" d="M696 260 Q685 197 658.5 145.5 Q632 94 588.5 58 Q545 22 484 2 Q423 -18 344 -18 Q276 -18 220 -3 Q164 12 124 40.5 Q84 69 62 110 Q40 151 40 203 Q40 217 42 235.5 Q44 254 46 269 L121 708 L350 708 L277 299 Q275 291 275 282 Q275 273 275 266 Q275 233 295 208 Q315 183 363 183 Q394 183 413.5 193 Q433 203 445 219 Q457 235 463 255 Q469 275 473 295 L548 708 L773 708 L696 260 Z M653 764 L489 764 L624 908 L831 908 L653 764 Z M413 764 L248 764 L383 908 L591 908 L413 764 Z " />
<glyph glyph-name="uhungarumlaut" unicode="&#x171;" horiz-adv-x="658" d="M562 103 Q558 84 553.5 54 Q549 24 547 0 L331 0 Q332 15 334 34.5 Q336 54 338 68 L334 68 Q311 36 269.5 12 Q228 -12 178 -12 Q134 -12 103.5 1 Q73 14 53.5 35.5 Q34 57 25.5 85 Q17 113 17 143 Q17 159 18.5 176.5 Q20 194 23 210 L78 526 L303 526 L254 247 Q252 238 251.5 228.5 Q251 219 251 213 Q251 193 262 180.5 Q273 168 297 168 Q320 168 337.5 188.5 Q355 209 362 248 L412 526 L636 526 L562 103 Z M565 584 L401 584 L536 728 L743 728 L565 584 Z M325 584 L160 584 L295 728 L503 728 L325 584 Z " />
<glyph glyph-name="Uogonek" unicode="&#x172;" horiz-adv-x="771" d="M418 -196 Q388 -216 352.5 -227.5 Q317 -239 279 -239 Q259 -239 239 -235.5 Q219 -232 203.5 -222 Q188 -212 178.5 -195.5 Q169 -179 169 -152 Q169 -131 179 -111.5 Q189 -92 205.5 -74.5 Q222 -57 242 -42 Q262 -27 283 -14 Q227 -8 182.5 9.5 Q138 27 106 54.5 Q74 82 57 119.5 Q40 157 40 203 Q40 217 42 235.5 Q44 254 46 269 L121 708 L350 708 L277 299 Q275 291 275 282 Q275 273 275 266 Q275 233 295 208 Q315 183 363 183 Q394 183 413.5 193 Q433 203 445 219 Q457 235 463 255 Q469 275 473 295 L548 708 L773 708 L696 260 Q686 205 664.5 158.5 Q643 112 609 77 Q575 42 527.5 19 Q480 -4 419 -13 Q362 -50 335.5 -74 Q309 -98 309 -116 Q309 -124 315.5 -128.5 Q322 -133 330 -133 Q357 -133 390 -115 L418 -196 L418 -196 Z " />
<glyph glyph-name="uogonek" unicode="&#x173;" horiz-adv-x="658" d="M441 -196 Q411 -216 375.5 -227.5 Q340 -239 302 -239 Q282 -239 262 -235.5 Q242 -232 226.5 -222 Q211 -212 201.5 -195.5 Q192 -179 192 -152 Q192 -127 205.5 -105 Q219 -83 239 -64 Q259 -45 283.5 -29 Q308 -13 331 0 Q332 15 334 34.5 Q336 54 338 68 L334 68 Q311 36 269.5 12 Q228 -12 178 -12 Q134 -12 103.5 1 Q73 14 53.5 35.5 Q34 57 25.5 85 Q17 113 17 143 Q17 159 18.5 176.5 Q20 194 23 210 L78 526 L303 526 L254 247 Q252 238 251.5 228.5 Q251 219 251 213 Q251 193 262 180.5 Q273 168 297 168 Q320 168 337.5 188.5 Q355 209 362 248 L412 526 L636 526 L562 103 Q558 84 553.5 54 Q549 24 547 0 L462 0 Q394 -43 363 -69.5 Q332 -96 332 -116 Q332 -124 338.5 -128.5 Q345 -133 353 -133 Q380 -133 413 -115 L441 -196 L441 -196 Z " />
<glyph glyph-name="Wcircumflex" unicode="&#x174;" horiz-adv-x="1050" d="M802 0 L564 0 L544 408 L540 408 L354 0 L119 0 L64 708 L309 708 L309 303 L313 303 L479 708 L717 708 L725 303 L729 303 L895 708 L1136 708 L802 0 Z M673 764 L618 833 L539 764 L389 764 L550 908 L717 908 L825 764 L673 764 Z " />
<glyph glyph-name="wcircumflex" unicode="&#x175;" horiz-adv-x="963" d="M711 0 L488 0 L461 274 L459 274 L322 0 L100 0 L28 526 L262 526 L273 247 L277 247 L404 526 L621 526 L639 247 L642 247 L765 526 L1000 526 L711 0 Z M581 584 L526 653 L447 584 L297 584 L458 728 L625 728 L733 584 L581 584 Z " />
<glyph glyph-name="Ycircumflex" unicode="&#x176;" horiz-adv-x="677" d="M440 291 L389 0 L158 0 L209 291 L22 708 L280 708 L356 489 L507 708 L789 708 L440 291 Z M473 764 L418 833 L339 764 L189 764 L350 908 L517 908 L625 764 L473 764 Z " />
<glyph glyph-name="ycircumflex" unicode="&#x177;" horiz-adv-x="631" d="M150 7 L24 526 L272 526 L304 238 L308 238 L431 526 L671 526 L366 -32 Q339 -82 312.5 -120.5 Q286 -159 253 -185.5 Q220 -212 177.5 -226 Q135 -240 77 -240 Q41 -240 11 -235 Q-19 -230 -38 -224 L0 -47 Q12 -52 25 -55.5 Q38 -59 53 -59 Q90 -59 110.5 -43.5 Q131 -28 144 -4 L150 7 Z M431 584 L376 653 L297 584 L147 584 L308 728 L475 728 L583 584 L431 584 Z " />
<glyph glyph-name="Ydieresis" unicode="&#x178;" horiz-adv-x="677" d="M440 291 L389 0 L158 0 L209 291 L22 708 L280 708 L356 489 L507 708 L789 708 L440 291 Z M286 763 Q243 763 218 788 Q193 813 193 845 Q193 867 200.5 886.5 Q208 906 222.5 921 Q237 936 256.5 944.5 Q276 953 300 953 Q320 953 337 946 Q354 939 366 928 Q378 917 385 902 Q392 887 392 871 Q392 849 384.5 829.5 Q377 810 363 795 Q349 780 329.5 771.5 Q310 763 286 763 Z M537 763 Q494 763 469 788 Q444 813 444 845 Q444 867 451.5 886.5 Q459 906 473.5 921 Q488 936 507.5 944.5 Q527 953 551 953 Q571 953 588 946 Q605 939 617 928 Q629 917 636 902 Q643 887 643 871 Q643 849 635.5 829.5 Q628 810 614 795 Q600 780 580.5 771.5 Q561 763 537 763 Z " />
<glyph glyph-name="Zacute" unicode="&#x179;" horiz-adv-x="668" d="M-17 0 L17 194 L347 516 L85 516 L119 708 L682 708 L652 540 L304 197 L600 197 L565 0 L-17 0 Z M468 764 L303 764 L438 908 L646 908 L468 764 Z " />
<glyph glyph-name="zacute" unicode="&#x17a;" horiz-adv-x="552" d="M-27 0 L1 158 L238 360 L42 360 L71 526 L545 526 L519 379 L265 167 L487 167 L458 0 L-27 0 Z M380 584 L215 584 L350 728 L558 728 L380 584 Z " />
<glyph glyph-name="Zdotaccent" unicode="&#x17b;" horiz-adv-x="668" d="M-17 0 L17 194 L347 516 L85 516 L119 708 L682 708 L652 540 L304 197 L600 197 L565 0 L-17 0 Z M412 757 Q366 757 339 783.5 Q312 810 312 845 Q312 869 320 890 Q328 911 343 927 Q358 943 379 952 Q400 961 426 961 Q471 961 498 934.5 Q525 908 525 873 Q525 849 517 828 Q509 807 494 791 Q479 775 458 766 Q437 757 412 757 Z " />
<glyph glyph-name="zdotaccent" unicode="&#x17c;" horiz-adv-x="552" d="M-27 0 L1 158 L238 360 L42 360 L71 526 L545 526 L519 379 L265 167 L487 167 L458 0 L-27 0 Z M326 577 Q280 577 253 603.5 Q226 630 226 665 Q226 689 234 710 Q242 731 257 747 Q272 763 293 772 Q314 781 340 781 Q385 781 412 754.5 Q439 728 439 693 Q439 669 431 648 Q423 627 408 611 Q393 595 372 586 Q351 577 326 577 Z " />
<glyph glyph-name="Zcaron" unicode="&#x17d;" horiz-adv-x="668" d="M-17 0 L17 194 L347 516 L85 516 L119 708 L682 708 L652 540 L304 197 L600 197 L565 0 L-17 0 Z M491 764 L324 764 L213 908 L363 908 L418 838 L497 908 L649 908 L491 764 Z " />
<glyph glyph-name="zcaron" unicode="&#x17e;" horiz-adv-x="552" d="M-27 0 L1 158 L238 360 L42 360 L71 526 L545 526 L519 379 L265 167 L487 167 L458 0 L-27 0 Z M394 584 L227 584 L116 728 L266 728 L321 658 L400 728 L552 728 L394 584 Z " />
<glyph glyph-name="florin" unicode="&#x192;" horiz-adv-x="695" d="M631 530 Q614 541 599 544 Q584 547 573 547 Q550 547 533.5 536 Q517 525 501 487 L488 451 L620 451 L594 304 L432 304 L335 50 Q319 8 298 -26.5 Q277 -61 247 -86 Q217 -111 176.5 -125 Q136 -139 81 -139 Q43 -139 4 -130 Q-35 -121 -62 -104 L27 56 Q41 45 55.5 41.5 Q70 38 80 38 Q104 38 119.5 55.5 Q135 73 148 105 L224 304 L110 304 L136 451 L275 451 Q295 505 317 555 Q339 605 371 643.5 Q403 682 450.5 705 Q498 728 569 728 Q623 728 664.5 716.5 Q706 705 730 688 L631 530 L631 530 Z " />
<glyph glyph-name="Scommaaccent" unicode="&#x218;" horiz-adv-x="601" d="M473 497 Q456 517 429 529.5 Q402 542 366 542 Q338 542 315.5 530 Q293 518 293 493 Q293 473 312 462 Q331 451 368 439 Q414 424 450 405 Q486 386 511 361 Q536 336 549.5 304 Q563 272 563 232 Q563 164 533 116 Q503 68 456.5 38 Q410 8 354 -6 Q298 -20 245 -20 Q203 -20 161 -13 Q119 -6 80.5 7 Q42 20 8 39 Q-26 58 -51 82 L107 228 Q119 214 136 203 Q153 192 171.5 184.5 Q190 177 209 172.5 Q228 168 244 168 Q279 168 300 179.5 Q321 191 321 213 Q321 231 303.5 245 Q286 259 238 274 Q200 286 166.5 302 Q133 318 108.5 340.5 Q84 363 70 394.5 Q56 426 56 471 Q56 526 78.5 573 Q101 620 142.5 654.5 Q184 689 241.5 708.5 Q299 728 368 728 Q406 728 443 721.5 Q480 715 513 703.5 Q546 692 574 676 Q602 660 621 640 L473 497 Z M194 -240 L33 -240 L146 -45 L331 -45 L194 -240 Z " />
<glyph glyph-name="scommaaccent" unicode="&#x219;" horiz-adv-x="494" d="M69 190 Q95 164 129 151 Q163 138 192 138 Q212 138 223.5 143.5 Q235 149 235 161 Q235 173 219.5 181 Q204 189 180 196 Q145 206 117.5 219 Q90 232 70.5 250 Q51 268 40.5 292 Q30 316 30 348 Q30 397 51.5 434 Q73 471 108.5 495 Q144 519 188.5 531 Q233 543 278 543 Q340 543 397.5 525.5 Q455 508 491 476 L376 344 Q359 362 329 374.5 Q299 387 270 387 Q250 387 237.5 381.5 Q225 376 225 364 Q225 354 235.5 348.5 Q246 343 272 336 Q309 327 339.5 313.5 Q370 300 392 281 Q414 262 426 236 Q438 210 438 175 Q438 122 414.5 85 Q391 48 354.5 25 Q318 2 273.5 -8 Q229 -18 186 -18 Q129 -18 66 -2 Q3 14 -45 54 L69 190 Z M135 -240 L-26 -240 L87 -45 L272 -45 L135 -240 Z " />
<glyph glyph-name="uni021A" unicode="&#x21a;" horiz-adv-x="583" d="M440 513 L350 0 L118 0 L208 513 L29 513 L64 708 L648 708 L613 513 L440 513 Z M193 -240 L32 -240 L145 -45 L330 -45 L193 -240 Z " />
<glyph glyph-name="uni021B" unicode="&#x21b;" horiz-adv-x="401" d="M291 365 L264 217 Q263 211 262.5 203 Q262 195 262 190 Q262 167 273.5 159.5 Q285 152 306 152 Q318 152 330 154 Q342 156 350 158 L323 4 Q310 -4 277 -9 Q244 -14 213 -14 Q180 -14 148 -8 Q116 -2 91 13 Q66 28 50.5 54 Q35 80 35 121 Q35 132 36.5 146 Q38 160 40 172 L75 365 L-3 365 L25 526 L99 526 L120 645 L337 645 L316 526 L417 526 L389 365 L291 365 Z M131 -240 L-30 -240 L83 -45 L268 -45 L131 -240 Z " />
<glyph glyph-name="circumflex" unicode="&#x2c6;" horiz-adv-x="360" d="M286 584 L231 653 L152 584 L2 584 L163 728 L330 728 L438 584 L286 584 Z " />
<glyph glyph-name="caron" unicode="&#x2c7;" horiz-adv-x="360" d="M305 584 L138 584 L27 728 L177 728 L232 658 L311 728 L463 728 L305 584 Z " />
<glyph glyph-name="uni02C9" unicode="&#x2c9;" horiz-adv-x="360" d="M46 791 L62 886 L420 886 L404 791 L46 791 Z " />
<glyph glyph-name="breve" unicode="&#x2d8;" horiz-adv-x="360" d="M424 728 Q416 686 396.5 658 Q377 630 351 613.5 Q325 597 294 590.5 Q263 584 231 584 Q198 584 168.5 590.5 Q139 597 116 613.5 Q93 630 79.5 658 Q66 686 66 728 L173 728 Q173 704 193.5 695.5 Q214 687 235 687 Q248 687 262 689 Q276 691 287.5 695.5 Q299 700 307 708 Q315 716 317 728 L424 728 L424 728 Z " />
<glyph glyph-name="dotaccent" unicode="&#x2d9;" horiz-adv-x="360" d="M224 577 Q178 577 151 603.5 Q124 630 124 665 Q124 689 132 710 Q140 731 155 747 Q170 763 191 772 Q212 781 238 781 Q283 781 310 754.5 Q337 728 337 693 Q337 669 329 648 Q321 627 306 611 Q291 595 270 586 Q249 577 224 577 Z " />
<glyph glyph-name="ring" unicode="&#x2da;" horiz-adv-x="360" d="M223 565 Q179 565 151.5 590.5 Q124 616 124 657 Q124 684 133.5 708 Q143 732 159.5 750 Q176 768 199.5 778.5 Q223 789 250 789 Q295 789 322.5 764 Q350 739 350 697 Q350 670 340.5 646 Q331 622 314 604 Q297 586 274 575.5 Q251 565 223 565 Z M299 692 Q299 714 285 729 Q271 744 246 744 Q215 744 195 720 Q175 696 175 663 Q175 640 189 625.5 Q203 611 227 611 Q259 611 279 635 Q299 659 299 692 Z " />
<glyph glyph-name="ogonek" unicode="&#x2db;" horiz-adv-x="360" d="M197 -196 Q167 -216 131.5 -227.5 Q96 -239 58 -239 Q38 -239 18 -235.5 Q-2 -232 -17.5 -222 Q-33 -212 -42.5 -195.5 Q-52 -179 -52 -152 Q-52 -127 -38.5 -105 Q-25 -83 -4.5 -64 Q16 -45 40.5 -28.5 Q65 -12 88 1 L220 1 Q151 -43 119.5 -69.5 Q88 -96 88 -116 Q88 -124 94.5 -128.5 Q101 -133 109 -133 Q136 -133 169 -115 L197 -196 L197 -196 Z " />
<glyph glyph-name="tilde" unicode="&#x2dc;" horiz-adv-x="360" d="M431 720 Q424 691 411 665.5 Q398 640 380 621 Q362 602 340 591.5 Q318 581 292 581 Q271 581 252.5 587 Q234 593 215 604 Q193 617 182 621.5 Q171 626 156 626 Q140 626 128.5 615.5 Q117 605 112 590 L33 590 Q40 618 52.5 642.5 Q65 667 82.5 685.5 Q100 704 122 714.5 Q144 725 170 725 Q193 725 210.5 718.5 Q228 712 248 701 Q270 690 282 685 Q294 680 310 680 Q326 680 335.5 690 Q345 700 353 720 L431 720 L431 720 Z " />
<glyph glyph-name="hungarumlaut" unicode="&#x2dd;" horiz-adv-x="360" d="M395 584 L231 584 L366 728 L573 728 L395 584 Z M155 584 L-10 584 L125 728 L333 728 L155 584 Z " />
<glyph glyph-name="uni0394" unicode="&#x394;" horiz-adv-x="735" d="M-40 0 Q64 179 168 354 Q272 529 376 708 L541 708 Q575 529 608 354 Q641 179 675 0 L-40 0 Z M422 189 Q415 247 408.5 304 Q402 361 394 419 Q332 302 273 189 L422 189 Z " />
<glyph glyph-name="uni03A9" unicode="&#x3a9;" horiz-adv-x="783" d="M369 0 L428 279 Q482 291 510 327 Q538 363 549 413 Q552 428 552 441 Q552 482 525.5 507.5 Q499 533 454 533 Q428 533 404 524 Q380 515 359.5 498.5 Q339 482 325 460 Q311 438 305 412 Q300 387 300 370 Q300 336 316.5 312 Q333 288 372 279 L313 0 L0 0 L38 181 L180 181 L182 192 Q134 208 108 251.5 Q82 295 82 357 Q82 388 90 426 Q105 498 144 553.5 Q183 609 238 646 Q293 683 359 702 Q425 721 494 721 Q555 721 607.5 706.5 Q660 692 698 663.5 Q736 635 758 592.5 Q780 550 780 494 Q780 461 773 427 Q764 383 745.5 344.5 Q727 306 701.5 275.5 Q676 245 645.5 223.5 Q615 202 582 192 L580 181 L721 181 L683 0 L369 0 Z " />
<glyph glyph-name="uni03BC" unicode="&#x3bc;" horiz-adv-x="758" d="M375 526 L319 263 Q317 255 315.5 242 Q314 229 314 220 Q314 194 324.5 175 Q335 156 363 156 Q404 156 425.5 185 Q447 214 456 256 L513 526 L747 526 L636 0 L410 0 L417 37 Q400 20 377.5 9 Q355 -2 324 -2 Q287 -2 266 14 L216 -224 L-18 -224 L141 526 L375 526 Z " />
<glyph glyph-name="pi" unicode="&#x3c0;" horiz-adv-x="739" d="M640 23 Q614 6 579.5 -3 Q545 -12 516 -12 Q448 -12 411.5 12 Q375 36 375 92 Q375 103 376 114 Q377 125 380 138 L423 340 L339 340 L267 0 L44 0 L116 340 L63 340 L102 526 L746 526 L707 340 L640 340 L609 194 Q607 186 607 181 Q607 162 631 162 Q641 162 649.5 165 Q658 168 673 176 L640 23 L640 23 Z " />
<glyph glyph-name="endash" unicode="&#x2013;" horiz-adv-x="400" d="M41 345 L381 345 L359 225 L19 225 L41 345 Z " />
<glyph glyph-name="emdash" unicode="&#x2014;" horiz-adv-x="600" d="M41 345 L581 345 L559 225 L19 225 L41 345 Z " />
<glyph glyph-name="quoteleft" unicode="&#x2018;" horiz-adv-x="350" d="M249 427 L64 427 L213 708 L373 708 L249 427 Z " />
<glyph glyph-name="quoteright" unicode="&#x2019;" horiz-adv-x="350" d="M226 427 L65 427 L189 708 L374 708 L226 427 Z " />
<glyph glyph-name="quotesinglbase" unicode="&#x201a;" horiz-adv-x="350" d="M129 -126 L-32 -126 L91 155 L276 155 L129 -126 Z " />
<glyph glyph-name="quotedblleft" unicode="&#x201c;" horiz-adv-x="562" d="M466 427 L286 427 L429 708 L589 708 L466 427 Z M237 427 L57 427 L205 708 L365 708 L237 427 Z " />
<glyph glyph-name="quotedblright" unicode="&#x201d;" horiz-adv-x="562" d="M442 427 L282 427 L410 708 L590 708 L442 427 Z M218 427 L58 427 L182 708 L362 708 L218 427 Z " />
<glyph glyph-name="quotedblbase" unicode="&#x201e;" horiz-adv-x="562" d="M345 -126 L185 -126 L312 155 L492 155 L345 -126 Z M121 -126 L-39 -126 L84 155 L264 155 L121 -126 Z " />
<glyph glyph-name="dagger" unicode="&#x2020;" horiz-adv-x="617" d="M397 345 L313 -133 L133 -133 L217 345 L35 345 L64 511 L245 511 L280 708 L460 708 L425 511 L613 511 L584 345 L397 345 Z " />
<glyph glyph-name="daggerdbl" unicode="&#x2021;" horiz-adv-x="617" d="M345 37 L315 -133 L136 -133 L166 37 L-18 37 L10 197 L194 197 L226 378 L42 378 L70 538 L253 538 L283 708 L462 708 L432 538 L618 538 L590 378 L404 378 L372 197 L558 197 L530 37 L345 37 Z " />
<glyph glyph-name="bullet" unicode="&#x2022;" horiz-adv-x="500" d="M73 354 Q73 391 87 423 Q101 455 125 479 Q149 503 181 517 Q213 531 250 531 Q287 531 319 517 Q351 503 375 479 Q399 455 413 423 Q427 391 427 354 Q427 317 413 285 Q399 253 375 229 Q351 205 319 191 Q287 177 250 177 Q213 177 181 191 Q149 205 125 229 Q101 253 87 285 Q73 317 73 354 Z " />
<glyph glyph-name="ellipsis" unicode="&#x2026;" horiz-adv-x="1000" d="M127 -12 Q99 -12 76.5 -3.5 Q54 5 38.5 20 Q23 35 14.5 54 Q6 73 6 94 Q6 123 16 148.5 Q26 174 44.5 193 Q63 212 88.5 223 Q114 234 145 234 Q172 234 194 225.5 Q216 217 231.5 202 Q247 187 256 168 Q265 149 265 128 Q265 99 255 73.5 Q245 48 227 29 Q209 10 183.5 -1 Q158 -12 127 -12 Z M461 -12 Q433 -12 410.5 -3.5 Q388 5 372.5 20 Q357 35 348.5 54 Q340 73 340 94 Q340 123 350 148.5 Q360 174 378.5 193 Q397 212 422.5 223 Q448 234 479 234 Q506 234 528 225.5 Q550 217 565.5 202 Q581 187 590 168 Q599 149 599 128 Q599 99 589 73.5 Q579 48 561 29 Q543 10 517.5 -1 Q492 -12 461 -12 Z M795 -12 Q767 -12 744.5 -3.5 Q722 5 706.5 20 Q691 35 682.5 54 Q674 73 674 94 Q674 123 684 148.5 Q694 174 712.5 193 Q731 212 756.5 223 Q782 234 813 234 Q840 234 862 225.5 Q884 217 899.5 202 Q915 187 924 168 Q933 149 933 128 Q933 99 923 73.5 Q913 48 895 29 Q877 10 851.5 -1 Q826 -12 795 -12 Z " />
<glyph glyph-name="perthousand" unicode="&#x2030;" horiz-adv-x="1262" d="M225 361 Q187 361 155.5 371 Q124 381 101 400.5 Q78 420 65 449 Q52 478 52 515 Q52 558 67 595 Q82 632 108.5 660 Q135 688 172.5 704 Q210 720 255 720 Q293 720 325 709.5 Q357 699 380.5 679.5 Q404 660 417 631.5 Q430 603 430 566 Q430 523 414.5 485.5 Q399 448 372 420.5 Q345 393 307.5 377 Q270 361 225 361 Z M297 554 Q297 574 284.5 588 Q272 602 248 602 Q219 602 202 580 Q185 558 185 528 Q185 507 197.5 493.5 Q210 480 233 480 Q262 480 279.5 501.5 Q297 523 297 554 Z M617 -12 Q579 -12 547.5 -2 Q516 8 493 27.5 Q470 47 457 76 Q444 105 444 142 Q444 185 459 222 Q474 259 500.5 287 Q527 315 564.5 331 Q602 347 647 347 Q685 347 717 336.5 Q749 326 772.5 306.5 Q796 287 809 258.5 Q822 230 822 193 Q822 150 806.5 112.5 Q791 75 764 47.5 Q737 20 699.5 4 Q662 -12 617 -12 Z M689 181 Q689 201 676.5 215 Q664 229 640 229 Q611 229 594 207 Q577 185 577 155 Q577 134 589.5 120.5 Q602 107 625 107 Q654 107 671.5 128.5 Q689 150 689 181 Z M1023 -12 Q985 -12 953.5 -2 Q922 8 899 27.5 Q876 47 863 76 Q850 105 850 142 Q850 185 865 222 Q880 259 906.5 287 Q933 315 970.5 331 Q1008 347 1053 347 Q1091 347 1123 336.5 Q1155 326 1178.5 306.5 Q1202 287 1215 258.5 Q1228 230 1228 193 Q1228 150 1212.5 112.5 Q1197 75 1170 47.5 Q1143 20 1105.5 4 Q1068 -12 1023 -12 Z M1095 181 Q1095 201 1082.5 215 Q1070 229 1046 229 Q1017 229 1000 207 Q983 185 983 155 Q983 134 995.5 120.5 Q1008 107 1031 107 Q1060 107 1077.5 128.5 Q1095 150 1095 181 Z M197 -39 L111 19 L657 739 L744 683 L197 -39 Z " />
<glyph glyph-name="guilsinglleft" unicode="&#x2039;" horiz-adv-x="348" d="M223 525 L333 444 L182 273 L268 107 L137 35 L6 282 L223 525 Z " />
<glyph glyph-name="guilsinglright" unicode="&#x203a;" horiz-adv-x="348" d="M110 35 L0 116 L151 287 L65 454 L196 525 L327 278 L110 35 Z " />
<glyph glyph-name="fraction" unicode="&#x2044;" horiz-adv-x="100" d="M-145 -35 L-230 19 L254 739 L340 687 L-145 -35 Z " />
<glyph glyph-name="Euro" unicode="&#x20ac;" horiz-adv-x="695" d="M123 335 Q123 340 125.5 354 Q128 368 130 376 L43 376 L113 507 L166 507 Q214 610 307.5 669 Q401 728 538 728 Q556 728 577 726.5 Q598 725 619.5 722 Q641 719 661 714.5 Q681 710 697 704 L619 541 Q578 558 524 558 Q487 558 452 544 Q417 530 400 507 L606 507 L542 376 L341 376 Q339 368 337 357 Q335 346 334 335 L531 335 L468 206 L337 206 Q341 193 351.5 183.5 Q362 174 377 167.5 Q392 161 410 157.5 Q428 154 447 154 Q482 154 515.5 161.5 Q549 169 572 181 L588 13 Q562 -1 513.5 -10.5 Q465 -20 408 -20 Q346 -20 296 -4 Q246 12 209 42 Q172 72 149 113.5 Q126 155 119 206 L11 206 L76 335 L123 335 L123 335 Z " />
<glyph glyph-name="afii61289" unicode="&#x2113;" horiz-adv-x="500" d="M513 586 Q513 545 498 506 Q483 467 451 428 Q419 389 369 348.5 Q319 308 249 263 Q240 227 235 205 Q230 183 227.5 170 Q225 157 224.5 150.5 Q224 144 224 140 Q224 119 235.5 109 Q247 99 264 99 Q282 99 304 107.5 Q326 116 361 138 L363 138 L401 48 Q353 16 309 1 Q265 -14 216 -14 Q143 -14 105.5 21.5 Q68 57 68 112 Q68 119 69.5 130 Q71 141 75 162 L17 122 L15 122 L-26 210 L102 292 L150 521 Q170 613 229 667 Q288 721 373 721 Q404 721 430 710.5 Q456 700 474.5 681.5 Q493 663 503 638.5 Q513 614 513 586 Z M384 579 Q384 596 376.5 607.5 Q369 619 356 619 Q326 619 313 560 L278 398 Q324 436 354 484 Q384 532 384 579 Z " />
<glyph glyph-name="trademark" unicode="&#x2122;" horiz-adv-x="1000" d="M212 605 L100 605 L100 708 L446 708 L446 605 L334 605 L334 296 L212 296 L212 605 Z M506 708 L670 708 L759 460 L842 708 L1005 708 L1005 296 L893 296 L893 541 L891 541 L799 296 L708 296 L619 541 L617 541 L617 296 L506 296 L506 708 Z " />
<glyph glyph-name="Omega" unicode="&#x2126;" horiz-adv-x="783" d="M369 0 L428 279 Q482 291 510 327 Q538 363 549 413 Q552 428 552 441 Q552 482 525.5 507.5 Q499 533 454 533 Q428 533 404 524 Q380 515 359.5 498.5 Q339 482 325 460 Q311 438 305 412 Q300 387 300 370 Q300 336 316.5 312 Q333 288 372 279 L313 0 L0 0 L38 181 L180 181 L182 192 Q134 208 108 251.5 Q82 295 82 357 Q82 388 90 426 Q105 498 144 553.5 Q183 609 238 646 Q293 683 359 702 Q425 721 494 721 Q555 721 607.5 706.5 Q660 692 698 663.5 Q736 635 758 592.5 Q780 550 780 494 Q780 461 773 427 Q764 383 745.5 344.5 Q727 306 701.5 275.5 Q676 245 645.5 223.5 Q615 202 582 192 L580 181 L721 181 L683 0 L369 0 Z " />
<glyph glyph-name="estimated" unicode="&#x212e;" horiz-adv-x="800" d="M595 402 L595 595 Q513 674 401 674 Q289 674 210 595 L210 402 L595 402 Z M210 355 L210 115 Q286 37 402 37 Q485 37 546 74.5 Q607 112 658 196 L704 168 Q674 120 642.5 86 Q611 52 575 30.5 Q539 9 496.5 -1.5 Q454 -12 402 -12 Q324 -12 261 16.5 Q198 45 153 95 Q108 145 84 211.5 Q60 278 60 355 Q60 432 84 498.5 Q108 565 153 614.5 Q198 664 261 692 Q324 720 402 720 Q478 720 541.5 693 Q605 666 650 617.5 Q695 569 720 502 Q745 435 745 355 L210 355 Z " />
<glyph glyph-name="partialdiff" unicode="&#x2202;" horiz-adv-x="776" d="M664 360 Q664 324 659.5 282 Q655 240 643.5 198.5 Q632 157 611.5 119 Q591 81 558.5 51.5 Q526 22 480.5 4.5 Q435 -13 373 -13 Q314 -13 263.5 4 Q213 21 176 53.5 Q139 86 118.5 132 Q98 178 98 236 Q98 285 114.5 328 Q131 371 163.5 402.5 Q196 434 245 452.5 Q294 471 359 471 Q380 471 403.5 466.5 Q427 462 446 454 Q442 486 419 509.5 Q396 533 343 533 Q312 533 272 519.5 Q232 506 188 470 Q164 508 140.5 547 Q117 586 93 624 Q150 674 218.5 697.5 Q287 721 356 721 Q446 721 505 687 Q564 653 599.5 600.5 Q635 548 649.5 484 Q664 420 664 360 Z M456 305 Q441 314 422.5 317.5 Q404 321 389 321 Q354 321 334 302 Q314 283 314 246 Q314 225 320.5 210.5 Q327 196 337 186.5 Q347 177 357.5 173 Q368 169 377 169 Q422 169 438 203 Q454 237 456 303 L456 305 Z " />
<glyph glyph-name="Delta" unicode="&#x2206;" horiz-adv-x="735" d="M-40 0 Q64 179 168 354 Q272 529 376 708 L541 708 Q575 529 608 354 Q641 179 675 0 L-40 0 Z M422 189 Q415 247 408.5 304 Q402 361 394 419 Q332 302 273 189 L422 189 Z " />
<glyph glyph-name="product" unicode="&#x220f;" horiz-adv-x="765" d="M521 -214 L521 623 L244 623 L244 -214 L56 -214 L56 786 L711 786 L711 -214 L521 -214 Z " />
<glyph glyph-name="summation" unicode="&#x2211;" horiz-adv-x="684" d="M27 -214 L27 -81 Q97 13 167.5 105.5 Q238 198 308 292 Q241 383 173 472.5 Q105 562 38 653 L38 786 L653 786 L653 623 L271 623 Q330 540 389.5 458 Q449 376 508 293 Q445 206 381.5 121 Q318 36 255 -51 L664 -51 L664 -214 L27 -214 Z " />
<glyph glyph-name="minus" unicode="&#x2212;" horiz-adv-x="666" d="M592 376 L592 232 L74 232 L74 376 L592 376 Z " />
<glyph glyph-name="uni2215" unicode="&#x2215;" horiz-adv-x="100" d="M-145 -35 L-230 19 L254 739 L340 687 L-145 -35 Z " />
<glyph glyph-name="uni2219" unicode="&#x2219;" horiz-adv-x="354" d="M158 168 Q130 168 107.5 176.5 Q85 185 69.5 200 Q54 215 45.5 234 Q37 253 37 274 Q37 303 47 328.5 Q57 354 75.5 373 Q94 392 119.5 403 Q145 414 176 414 Q203 414 225 405.5 Q247 397 262.5 382 Q278 367 287 348 Q296 329 296 308 Q296 279 286 253.5 Q276 228 258 209 Q240 190 214.5 179 Q189 168 158 168 Z " />
<glyph glyph-name="radical" unicode="&#x221a;" horiz-adv-x="601" d="M609 786 Q555 535 500.5 286 Q446 37 392 -214 L246 -214 Q212 -143 177 -72.5 Q142 -2 108 69 Q95 63 82.5 57.5 Q70 52 57 46 Q40 81 23.5 115 Q7 149 -10 184 Q41 206 91 229 Q141 252 192 274 Q215 222 239.5 171.5 Q264 121 287 69 Q325 250 361 427.5 Q397 605 435 786 L609 786 L609 786 Z " />
<glyph glyph-name="infinity" unicode="&#x221e;" horiz-adv-x="859" d="M814 269 Q814 228 801 191.5 Q788 155 763 128 Q738 101 701 85 Q664 69 617 69 Q556 69 510.5 97 Q465 125 430 163 Q412 144 393 127 Q374 110 352 97.5 Q330 85 303.5 77.5 Q277 70 246 70 Q200 70 163 85 Q126 100 99.5 127 Q73 154 59 190 Q45 226 45 268 Q45 308 58.5 344 Q72 380 97 406 Q122 432 158.5 447.5 Q195 463 242 463 Q275 463 302 455 Q329 447 351.5 433 Q374 419 393.5 401 Q413 383 430 364 Q447 384 466.5 402 Q486 420 509 434 Q532 448 559 456 Q586 464 618 464 Q664 464 700.5 448.5 Q737 433 762.5 407 Q788 381 801 345 Q814 309 814 269 Z M668 266 Q668 292 653.5 307 Q639 322 614 322 Q588 322 564 303.5 Q540 285 521 265 Q541 243 565.5 227 Q590 211 617 211 Q640 211 654 226.5 Q668 242 668 266 Z M338 265 Q316 285 290.5 303 Q265 321 242 321 Q220 321 205.5 305 Q191 289 191 266 Q191 241 205.5 226.5 Q220 212 245 212 Q270 212 293.5 228 Q317 244 338 265 Z " />
<glyph glyph-name="integral" unicode="&#x222b;" horiz-adv-x="655" d="M552 683 Q552 650 530 625.5 Q508 601 472 601 Q457 601 446 606 Q435 611 427 618.5 Q419 626 413.5 634 Q408 642 402 648 Q398 639 396.5 626.5 Q395 614 395 602 Q395 592 395.5 583.5 Q396 575 396 568 Q396 579 396 588.5 Q396 598 395 609 L395 592 Q395 575 395.5 558 Q396 541 396 524 L396 115 Q396 89 395.5 61 Q395 33 392 7 Q389 -34 379.5 -73.5 Q370 -113 349 -144 Q328 -175 293 -194 Q258 -213 204 -213 Q184 -213 160 -207 Q136 -201 115.5 -188.5 Q95 -176 81 -155.5 Q67 -135 67 -105 Q67 -86 77 -69 Q88 -51 106.5 -40.5 Q125 -30 148 -30 Q163 -30 173 -35 Q183 -40 190 -46.5 Q197 -53 202.5 -60.5 Q208 -68 214 -73 Q218 -62 219.5 -49 Q221 -36 221 -25 Q222 -20 222 -15 Q222 -10 222 -5 Q222 5 221.5 14.5 Q221 24 221 33 L221 519 Q221 565 228.5 612 Q236 659 257 697.5 Q278 736 316 760 Q354 784 416 784 Q433 784 456.5 779 Q480 774 501 762.5 Q522 751 537 731.5 Q552 712 552 683 Z " />
<glyph glyph-name="approxequal" unicode="&#x2248;" horiz-adv-x="666" d="M619 485 Q614 426 598 385.5 Q582 345 558 320 Q534 295 505 284 Q476 273 446 273 Q416 273 384.5 282 Q353 291 322 302.5 Q291 314 261.5 323 Q232 332 207 332 Q193 332 183.5 320.5 Q174 309 169 291 L48 291 Q51 328 62 362.5 Q73 397 94 424 Q115 451 147.5 467.5 Q180 484 226 484 Q256 484 285 476 Q314 468 343 458 Q372 448 400.5 440 Q429 432 458 432 Q474 432 483.5 443 Q493 454 496 485 L619 485 Z M619 251 Q615 219 605 184.5 Q595 150 575.5 121 Q556 92 525 73.5 Q494 55 449 55 Q418 55 385 64.5 Q352 74 320.5 85.5 Q289 97 260 106.5 Q231 116 207 116 Q193 116 182.5 103 Q172 90 167 60 L46 60 Q49 97 60 134.5 Q71 172 91 202 Q111 232 142 251 Q173 270 216 270 Q247 270 277.5 261 Q308 252 338 241.5 Q368 231 398.5 222.5 Q429 214 460 214 Q484 214 496 251 L619 251 Z " />
<glyph glyph-name="notequal" unicode="&#x2260;" horiz-adv-x="666" d="M315 58 L241 -90 Q206 -73 170 -56.5 Q134 -40 99 -23 Q110 -3 121 17.5 Q132 38 143 58 L69 58 L69 210 L222 210 Q233 233 246 255 Q259 277 270 300 L69 300 L69 452 L349 452 Q369 488 388 525.5 Q407 563 427 599 Q462 583 497 566 Q532 549 567 533 Q556 513 545.5 492.5 Q535 472 524 452 L597 452 L597 300 L445 300 Q434 277 421 255 Q408 233 397 210 L597 210 L597 58 L315 58 Z " />
<glyph glyph-name="lessequal" unicode="&#x2264;" horiz-adv-x="666" d="M78 7 L78 146 L588 146 L588 7 L78 7 Z M588 163 Q460 214 333 264.5 Q206 315 78 366 L78 500 Q206 551 333 601.5 Q460 652 588 703 L588 541 Q519 512 451 485.5 Q383 459 314 430 Q383 404 451 378.5 Q519 353 588 327 L588 163 Z " />
<glyph glyph-name="greaterequal" unicode="&#x2265;" horiz-adv-x="666" d="M78 7 L78 146 L588 146 L588 7 L78 7 Z M78 163 L78 327 Q147 353 215 378.5 Q283 404 352 430 Q283 459 215 485.5 Q147 512 78 541 L78 703 Q206 652 333 601.5 Q460 551 588 500 L588 366 Q460 315 333 264.5 Q206 214 78 163 Z " />
<glyph glyph-name="lozenge" unicode="&#x25ca;" horiz-adv-x="619" d="M568 356 Q520 258 473 160.5 Q426 63 378 -35 L238 -35 Q192 63 145.5 160.5 Q99 258 53 356 Q101 454 146.5 551.5 Q192 649 240 747 L378 747 Q426 649 473 551.5 Q520 454 568 356 Z M395 356 Q374 405 351.5 454.5 Q329 504 308 553 Q286 504 266 454.5 Q246 405 224 356 Q246 307 266 258 Q286 209 308 160 Q329 209 351.5 258 Q374 307 395 356 Z " />
<glyph glyph-name="dotlessj" unicode="&#xf6be;" horiz-adv-x="341" d="M227 1 Q218 -49 201.5 -94 Q185 -139 154.5 -173.5 Q124 -208 76 -228.5 Q28 -249 -44 -249 Q-64 -249 -90.5 -246 Q-117 -243 -136 -237 L-98 -55 Q-87 -58 -78 -59 Q-69 -60 -62 -60 Q-35 -60 -18.5 -44 Q-2 -28 4 7 L96 526 L320 526 L227 1 L227 1 Z " />
<glyph glyph-name="commaaccent" unicode="&#xf6c3;" horiz-adv-x="360" d="M154 -240 L-7 -240 L106 -45 L291 -45 L154 -240 Z " />
<glyph glyph-name="uniF8FF" unicode="&#xf8ff;" horiz-adv-x="512" d="M222 117 L222 184 L278 184 L278 117 L222 117 Z M225 234 L223 251 Q223 307 236 332 Q243 345 254 359.5 Q265 374 282 391 Q298 406 308 417.5 Q318 429 323 438.5 Q328 448 330 456.5 Q332 465 332 474 Q332 510 309.5 534.5 Q287 559 256 559 Q225 559 202.5 537 Q180 515 174 464 L124 472 Q131 544 168 576.5 Q205 609 259 609 Q313 609 348 573.5 Q383 538 383 478 Q383 446 370.5 419.5 Q358 393 320 358 Q283 325 277 306 Q271 286 271 234 L225 234 Z M462 50 L462 667 L50 667 L50 50 L462 50 Z M512 718 L512 0 L0 0 L0 718 L512 718 Z " />
<glyph glyph-name="fi" unicode="&#xfb01;" horiz-adv-x="747" d="M457 602 Q449 606 437.5 608.5 Q426 611 414 611 Q379 611 365 590.5 Q351 570 345 538 L343 526 L454 526 L426 365 L318 365 L253 0 L30 0 L95 365 L5 365 L33 526 L120 526 L123 542 Q132 591 148.5 635 Q165 679 195.5 712.5 Q226 746 274 765.5 Q322 785 393 785 Q416 785 445 781.5 Q474 778 493 770 L457 602 Z M407 0 L500 526 L724 526 L631 0 L407 0 Z M625 565 Q599 565 578.5 573 Q558 581 544 594.5 Q530 608 522 625.5 Q514 643 514 662 Q514 689 523 712.5 Q532 736 549 753.5 Q566 771 589 781 Q612 791 641 791 Q665 791 685.5 783 Q706 775 720.5 761.5 Q735 748 743 730.5 Q751 713 751 694 Q751 667 742 643.5 Q733 620 716.5 602.5 Q700 585 676.5 575 Q653 565 625 565 Z " />
<glyph glyph-name="fl" unicode="&#xfb02;" horiz-adv-x="750" d="M406 0 L539 756 L768 756 L635 0 L406 0 Z M457 602 Q449 606 437.5 608.5 Q426 611 414 611 Q379 611 365 590.5 Q351 570 345 538 L343 526 L454 526 L426 365 L318 365 L253 0 L30 0 L95 365 L5 365 L33 526 L120 526 L123 542 Q132 591 148.5 635 Q165 679 195.5 712.5 Q226 746 274 765.5 Q322 785 393 785 Q416 785 445 781.5 Q474 778 493 770 L457 602 Z " />
</font>
</svg>
